<svg xmlns="http://www.w3.org/2000/svg"><defs><font id="99729e3539ef0462a0ca8a01772e9888" horiz-adv-x="1024"><font-face font-family="Adelle-Regular" font-weight="400" units-per-em="2048" panose-1="2 0 5 3 6 0 0 2 0 4" ascent="1546" descent="-502" x-height="1053" cap-height="1483" bbox="-178 -483 2046 1929" underline-thickness="102" underline-position="-102" unicode-range="U+0020-FB04"/><glyph glyph-name=".notdef"/><glyph glyph-name=".null" horiz-adv-x="0"/><glyph glyph-name="nonmarkingreturn" horiz-adv-x="682"/><glyph glyph-name="space" horiz-adv-x="454"/><glyph glyph-name="exclam" unicode="!" horiz-adv-x="536" d="M164 1483h207v-340l-25-760H193l-29 760v340zM135 104q0 129 135.5 129T406 104 270.5-25 135 104z"/><glyph glyph-name="quotedbl" unicode="&quot;" horiz-adv-x="745" d="M442 915v531h185V915H442zm-323 0v531h184V915H119z"/><glyph glyph-name="numbersign" unicode="#" horiz-adv-x="1243" d="M475 420h248l43 303H522zM70 285l30 135h228l47 303H139l29 137h227l37 252h150l-39-252h243l39 252h148l-39-252h235l-26-137H913l-43-303h232l-27-135H850L807 0H659l43 285H455L412 0H264l41 285H70z"/><glyph glyph-name="dollar" unicode="$" horiz-adv-x="1071" d="M780 338q0 74-42 117t-122 73V147q164 39 164 191zM297 948q0-76 45-121t129-75v387q-174-37-174-191zM86 362h135l33-141q4-23 12-33t33-18q68-27 172-33v436q-82 23-130 43.5T208 693t-85 223q0 166 95 256t253 110v152h145v-148q143-6 326-65V909l-137 15-33 157q-4 23-19.5 40T616 1147V707q78-25 127.5-45.5t132-79T958 366t-90-245.5T616 8v-172H471V0Q233 6 86 76v286z"/><glyph glyph-name="percent" unicode="%" horiz-adv-x="1771" d="M1176 348q0-248 170-248 96 0 134 65.5t38 188.5q0 238-166 238-94 0-135-70t-41-174zm-164-4q0 166 89 270.5T1356 719q324 0 323-357 0-176-88-281.5T1335-25 1089.5 76.5 1012 344zM408-35l772 1307h176L586-35H408zM254 899q0-248 172-248 94 0 133 65.5T598 905q0 238-168 238-94 0-135-70t-41-174zm-162-4q0 166 88 270.5T434 1270q326 0 326-357 0-176-88-281.5T416 526 170 627.5 92 895z"/><glyph glyph-name="ampersand" unicode="&amp;" horiz-adv-x="1452" d="M254 401q0-119 69.5-195.5T530 129q201 0 326 180L524 698q-125-25-197.5-101.5T254 401zM72 374q0 347 356 443-106 129-106 266t96 217 248 80q88 0 179-23.5t134-47.5v-277l-137 6-25 140q-6 29-31 36-40 16-120 16t-123-37-43-103 33.5-123.5T670 786l276-327q57 166 70 334h268V684l-92-16q-18-4-26.5-10.5T1155 631q-29-174-88-299l145-172q20-23 54-31l112-18V0h-256L965 190Q791-25 510-25 311-25 191.5 87T72 374z"/><glyph glyph-name="quotesingle" unicode="'" horiz-adv-x="421" d="M119 915v531h184V915H119z"/><glyph glyph-name="parenleft" unicode="(" horiz-adv-x="614" d="M111 581q0 457 321 912l141-86q-137-221-202.5-415.5T305 557t69.5-419T559-244l-145-80Q111 124 111 581z"/><glyph glyph-name="parenright" unicode=")" horiz-adv-x="614" d="M311 570q0 230-65.5 421T45 1407l141 86q318-449 318-907T197-324L53-242Q180-27 245.5 156.5T311 570z"/><glyph glyph-name="asterisk" unicode="*" horiz-adv-x="964" d="M406 1546h153v-133l-43-209 182 111 125 45 51-146-126-45-211-28 163-135 86-103-120-98-84 106-99 187-98-187-86-106-119 98 84 103 166 137-213 26-127 45 51 146 127-45 181-111-43 209v133zm131-405l-21 63h-67l-19-61 53-45z"/><glyph glyph-name="plus" unicode="+" horiz-adv-x="1167" d="M197 575v166h301v308h170V741h301V575H668V262H498v313H197z"/><glyph glyph-name="comma" unicode="," horiz-adv-x="378" d="M330 96q0-39-33-108L178-242l-96 35L143 8q2 14-10 21L61 57l45 170q113-4 168.5-29.5T330 96z"/><glyph glyph-name="hyphen" unicode="-" horiz-adv-x="636" d="M41 506v182h555V506H41z"/><glyph glyph-name="period" unicode="." horiz-adv-x="434" d="M82 104q0 129 135 129t135-129T217-25 82 104z"/><glyph glyph-name="slash" unicode="/" horiz-adv-x="772" d="M14-188l576 1734h168L184-188H14z"/><glyph glyph-name="zero" unicode="0" horiz-adv-x="1175" d="M283 582q0-226 68.5-340.5T587 127t236.5 119T893 592t-64.5 336.5T596 1038 355.5 923 283 582zM88 566q0 630 514 630 283 0 384-165t101-423q0-633-505-633-290 0-392 169.5T88 566z"/><glyph glyph-name="one" unicode="1" horiz-adv-x="747" d="M61 0v113l207 12q20 2 26.5 9t6.5 32v805q0 35-29 43l-194 37 14 114h395V166q0-25 5.5-32t27.5-9l180-14V0H61z"/><glyph glyph-name="two" unicode="2" horiz-adv-x="976" d="M449 1196q406 0 405-324 0-94-52-191t-95-143-154-151L293 139h426q27 0 31 23l30 174h135V0H55v127l281 274q201 195 248 254 84 106 84 199 0 195-230 195-123 0-174-43t-51-170L39 854q0 211 124 276.5t286 65.5z"/><glyph glyph-name="three" unicode="3" horiz-adv-x="999" d="M455-14q264 0 264 235T438 457q-68 0-145-15v144l119 12q135 12 204.5 78.5T686 850q0 199-219 199-121 0-176-45.5T236 836L61 854q0 342 416 342 205 0 301-88t96-238q0-244-235-325v-8q270-49 270-318 0-182-118.5-285.5T457-170q-141 0-258 48T14 6l111 119Q260-14 455-14z"/><glyph glyph-name="four" unicode="4" horiz-adv-x="1052" d="M51 162v135l471 885 152-80-422-789h399v416l174 10V313h187V162H825v-299H649v299H51z"/><glyph glyph-name="five" unicode="5" horiz-adv-x="1048" d="M489-12q117 0 199 71.5T770 273t-73.5 204T506 539t-240-99l-135 60 43 665h543q27 0 31 23l28 110 115 9v-295H322l-27-400q113 78 283 78t276.5-106T961 280 838-44 496-170Q195-170 31 4l112 125Q278-12 489-12z"/><glyph glyph-name="six" unicode="6" horiz-adv-x="1083" d="M565 121q121 0 183.5 75.5T811 408t-49 200-179 64-286-127q12-424 268-424zm61 690q372-1 371-399 0-194-116.5-315.5T553-25q-385 0-417 279.5T104 650t23 222.5 76 215 161.5 174T627 1327q352 0 352-301l-176-20q0 102-43 140t-142 38q-313 0-327-492 147 119 335 119z"/><glyph glyph-name="seven" unicode="7" horiz-adv-x="1015" d="M92 1165h907v-133Q811 844 673 525.5T512-137H324q32 399 176.5 691T791 1012H289q-27 0-31-23l-37-186-129-8v370z"/><glyph glyph-name="eight" unicode="8" horiz-adv-x="1042" d="M748 1014q0 172-220 172-92 0-151.5-45T317 1007t74.5-145T586 750q162 143 162 264zM256 328q0-98 72.5-154.5T519 117t187.5 59.5T776 328q0 132-93 186.5T561 583l-98 44Q256 477 256 328zM82 315q0 203 246 379-193 113-193 303 0 156 113.5 243t290.5 87 280-85 103-220q0-174-201-340 113-66 176.5-144.5T961 340q0-176-128-270.5T507-25 195.5 63 82 315z"/><glyph glyph-name="nine" unicode="9" horiz-adv-x="1132" d="M303 762q0-287 217-287 164 0 301 133-14 251-56 316t-93 96-123 31q-121 0-183.5-76T303 762zm-186-8q0 203 116.5 322.5T563 1196q310 0 381.5-218.5T1016 526q0-696-490-696-250 0-389 133l92 131Q356-17 522-16q297 0 307 471-141-121-331-121T212.5 442.5 117 754z"/><glyph glyph-name="colon" unicode=":" horiz-adv-x="434" d="M82 911q0 129 135 129t135-129-135-129T82 911zm0-807q0 129 135 129t135-129T217-25 82 104z"/><glyph glyph-name="semicolon" unicode=";" horiz-adv-x="378" d="M74 911q0 129 135 129t135-129-135-129T74 911zM330 96q0-39-33-108L178-242l-96 35L143 8q2 14-10 21L61 57l45 170q113-4 168.5-29.5T330 96z"/><glyph glyph-name="less" unicode="&lt;" horiz-adv-x="1167" d="M170 489v205l762 316 55-156-647-256 653-248-49-157z"/><glyph glyph-name="equal" unicode="=" horiz-adv-x="1167" d="M201 657v170h766V657H201zm0-331v170h766V326H201z"/><glyph glyph-name="greater" unicode="&gt;" horiz-adv-x="1167" d="M170 350l653 248-647 256 55 156 760-316V489L219 193z"/><glyph glyph-name="question" unicode="?" horiz-adv-x="972" d="M244 104q0 129 135 129t135-129T379-25 244 104zm227 1379q201 0 320.5-90T911 1087q0-393-440-466V381H285v362q307 28 365.5 139.5T709 1096t-67.5 165.5T450 1325t-178-31q-14-8-22-45l-21-116-145-11v287q186 74 387 74z"/><glyph glyph-name="at" unicode="@" horiz-adv-x="1697" d="M645 293q0-84 20.5-124t74-40 120 44T975 274l65 400q-47 29-129 28-111 0-188.5-118.5T645 293zm-539 81q0 356 220 578t558 222q336 0 523.5-171.5T1595 538t-108.5-422.5T1194-14 983 137Q905 63 842.5 24.5T709-14q-109 0-165.5 72.5T487 268q0 233 121 394t322 161q141 0 272-65l-55-344q-23-135-23-195 0-104 95-104 82 0 152.5 90t70.5 293q0 264-138 402t-420 138-451-188-169-480T422-70.5 860-219q176 0 350 63l39-127q-154-72-407-71-338 0-537 186.5T106 374z"/><glyph glyph-name="A" unicode="A" horiz-adv-x="1460" d="M477 602h479l-237 721zM16 0v109l88 22q41 10 52 39l450 1313h238l459-1315q8-25 49-35l92-22V0H944v111l168 18-111 324H430L322 129l165-18V0H16z"/><glyph glyph-name="B" unicode="B" horiz-adv-x="1366" d="M473 829h180q340 0 340 267 0 135-73.5 186T684 1333H473V829zm0-679h234q184 0 279 53t95 203-91 215-242 65H473V150zM125 0v111l129 14q20 2 26.5 10t6.5 31v1149q0 25-6.5 32t-26.5 9l-129 14v113h610q246 0 346.5-97.5T1182 1136t-72-238.5T932 776v-6q172-20 259-115.5t87-253.5Q1278 0 729 0H125z"/><glyph glyph-name="C" unicode="C" horiz-adv-x="1413" d="M98 736q0 351 189.5 562T834 1509q285 0 452-110v-328l-139 8-35 195q-4 31-27 37-131 45-260 45-246 0-388-160T295 741t136-453.5T811 129q184 0 287 43 25 8 28 37l33 184h131V84Q1126-25 784-25T270 180 98 736z"/><glyph glyph-name="D" unicode="D" horiz-adv-x="1570" d="M475 150h225q289 0 433.5 153.5T1278 737q0 328-140.5 463T713 1335H475V150zM125 0v111l129 14q20 2 26.5 10t6.5 31v1149q0 25-6.5 32t-26.5 9l-129 14v113h612q375 0 555.5-187.5T1473 759t-193-554T702 0H125z"/><glyph glyph-name="E" unicode="E" horiz-adv-x="1300" d="M125 0v111l129 14q20 2 26.5 10t6.5 31v1149q0 25-6.5 32t-26.5 9l-129 14v113h1028v-338l-139 8-29 158q-6 27-35 26H475V821h547V674H475V145h520q29 0 33 23l33 178h137V0H125z"/><glyph glyph-name="F" unicode="F" horiz-adv-x="1234" d="M125 0v111l129 14q20 2 26.5 10t6.5 31v1149q0 25-6.5 32t-26.5 9l-129 14v113h1020v-338l-139 8-29 158q-6 27-35 26H475V827h539V680H475V168q0-25 5-32t28-9l301-16V0H125z"/><glyph glyph-name="G" unicode="G" horiz-adv-x="1511" d="M98 743q0 349 189.5 557.5T836 1509q289 0 454-110v-326l-139 10-33 191q-6 31-28 37-127 45-267 45-246 0-387-160T295 742t148.5-453.5T881 129q129 0 252 31 29 6 28 35v362H883l22 133h561V578l-86-9q-33-2-32-34V59q-174-84-492-84-393 0-575.5 209.5T98 743z"/><glyph glyph-name="H" unicode="H" horiz-adv-x="1654" d="M125 0v111l129 14q20 2 26.5 10t6.5 31v1151q0 25-6.5 32t-26.5 9l-129 14v111h520v-111l-137-16q-23-2-28-9.5t-5-29.5V838h705v479q0 25-6.5 32t-26.5 9l-129 14v111h520v-111l-137-16q-23-2-28-9.5t-5-29.5V168q0-25 5-32t28-9l137-16V0h-520v111l129 14q20 2 26.5 10t6.5 31v524H475V168q0-25 5-32t28-9l137-16V0H125z"/><glyph glyph-name="I" unicode="I" horiz-adv-x="782" d="M115 0v111l149 14q20 2 26.5 9t6.5 32v1151q0 25-6 32t-27 9l-149 14v111h561v-111l-158-16q-23-2-28-9.5t-5-29.5V168q0-25 5.5-32t27.5-9l158-16V0H115z"/><glyph glyph-name="J" unicode="J" horiz-adv-x="1032" d="M440 127q86 0 121 44t35 142v1006q0 23-6 30t-27 9l-174 14v111h565v-111l-137-16q-23-2-28-8.5t-5-28.5V301q0-168-80.5-247T444-25Q338-25 243-1.5T109 47v283l139-8 20-142q2-18 25-28 61-25 147-25z"/><glyph glyph-name="K" unicode="K" horiz-adv-x="1505" d="M125 0v111l129 14q20 2 26.5 10t6.5 31v1151q0 25-6.5 32t-26.5 9l-129 14v111h520v-111l-137-16q-23-2-28-9.5t-5-29.5V731l569 623-126 16v113h460v-111l-104-18q-39-6-62-35L768 840l504-676q18-27 59-33l125-20V0H924v111l141 16-430 569-160-174V168q0-25 5-32t28-9l137-16V0H125z"/><glyph glyph-name="L" unicode="L" horiz-adv-x="1267" d="M125 0v111l129 14q20 2 26.5 10t6.5 31v1149q0 25-6.5 32t-26.5 9l-129 14v113h553v-113l-170-16q-23-2-28-9.5t-5-29.5V145h520q29 0 33 23l33 184h137V0H125z"/><glyph glyph-name="M" unicode="M" horiz-adv-x="1949" d="M125 0v111l129 14q20 2 26.5 10t6.5 31v1149q0 25-6.5 32t-26.5 9l-129 14v113h397l451-973 467 973h393v-111l-137-16q-23-2-28-9.5t-5-29.5V166q0-35 33-39l137-16V0h-557v111l170 14q20 2 26.5 9t6.5 32v1016l-412-834H868l-397 832V168q0-25 5-32t28-9l178-16V0H125z"/><glyph glyph-name="N" unicode="N" horiz-adv-x="1695" d="M125 0v111l129 14q20 2 26.5 10t6.5 31v1151q0 25-6.5 32t-26.5 9l-129 14v113h401l729-1231v1063q0 25-6 32t-26 9l-129 14v111h495v-111l-137-16q-23-2-28-9.5t-5-29.5V0h-219L453 1239V168q0-25 5-32t27-9l138-16V0H125z"/><glyph glyph-name="O" unicode="O" horiz-adv-x="1591" d="M297 743q0-294 134-452t365.5-158T1161 288.5 1294 744t-128 454-357 154-370.5-157.5T297 743zm-195-2q0 347 186.5 557.5T812 1509t507-204.5T1489 750t-179.5-562.5T786-25 272 184.5 102 741z"/><glyph glyph-name="P" unicode="P" horiz-adv-x="1333" d="M473 709h201q182 0 282.5 67.5T1057 1020t-87 244.5-270 68.5H473V709zM125 0v111l129 14q20 2 26.5 10t6.5 31v1149q0 25-6.5 32t-26.5 9l-129 14v113h633q264 0 378.5-120t114.5-316q0-487-561-488H473V168q0-25 5-32t28-9l293-16V0H125z"/><glyph glyph-name="Q" unicode="Q" horiz-adv-x="1591" d="M297 744q0-295 134-453t365.5-158T1161 288.5 1294 744t-128 454-357 154-370.5-156.5T297 744zm-195 7q0 337 186.5 547.5T812 1509t507-204.5T1489 765t-152.5-544T893-18q-6-40-6-96 0-124 129-124 76 0 137 27l41-125q-84-47-220-47-264 0-265 254 0 55 8 109Q410 0 256 207T102 751z"/><glyph glyph-name="R" unicode="R" horiz-adv-x="1392" d="M473 780h189q166 0 261 64.5t95 222.5-92 212-293 54H473V780zM125 0v111l129 14q20 2 26.5 10t6.5 31v1149q0 25-6.5 32t-26.5 9l-129 14v113h627q266 0 364-121t98-281q0-297-284-399 61-26 85-82l169-426q14-41 63-47l125-18V0H846v111l162 12-170 424q-20 49-49 67.5T698 633H473V168q0-25 5-32t28-9l135-16V0H125z"/><glyph glyph-name="S" unicode="S" horiz-adv-x="1196" d="M115 389h137l39-180q4-20 12-28.5t29-16.5q104-35 229-35 334 0 334 258 0 121-76 179.5T568 676t-242 90q-178 102-178 318t143 320.5T644 1509t398-71v-348l-141 12-31 174q-8 35-22 43-61 35-206 35t-223.5-62.5T340 1112t86-170 225-96l90-28q112-35 154.5-65t83.5-64 74.5-102 33.5-179q0-223-151.5-328T545-25Q418-25 295 .5T115 53v336z"/><glyph glyph-name="T" unicode="T" horiz-adv-x="1351" d="M61 1137v346h1229v-346h-137l-33 178q-4 23-33 22H770V168q0-23 5-30t28-9l225-16V0H338v113l211 14q20 2 26.5 9t6.5 32v1169H264q-29 0-33-22l-32-178H61z"/><glyph glyph-name="U" unicode="U" horiz-adv-x="1613" d="M106 1483h521v-111l-138-16q-23-2-27.5-9.5T457 1317V522q0-205 87-296t270-91 269 86 86 295v801q0 25-6 32t-26 9l-129 14v111h508v-111l-138-16q-23-2-27.5-9.5t-4.5-29.5V496q0-520-547-521-281 0-406 130.5T268 500v817q0 25-6 32t-26 9l-130 14v111z"/><glyph glyph-name="V" unicode="V" horiz-adv-x="1419" d="M518 1483v-111l-168-18L725 162l383 1192-166 18 21 111h446v-111l-86-22q-41-10-51-39L850 0H596L160 1315q-8 25-49 35l-93 22 21 111h479z"/><glyph glyph-name="W" unicode="W" horiz-adv-x="2033" d="M553 1483v-111l-182-20L645 203l279 981h211l278-998 289 1166-186 20 20 111h479v-111l-106-18q-23-4-31-11.5t-14-29.5L1534 0h-248l-258 950L754 0H520L180 1313q-8 33-41 39l-121 20 21 111h514z"/><glyph glyph-name="X" unicode="X" horiz-adv-x="1431" d="M45 0v106l109 23q31 8 51 39l393 577-385 570q-16 27-49 35l-96 22 20 111h469v-111l-154-18 314-477 323 477-151 18 20 111h426v-111l-90-22q-29-6-51-39L819 764l418-596q16-27 49-35l107-22V0H885v111l155 18-342 504-336-504 150-18V0H45z"/><glyph glyph-name="Y" unicode="Y" horiz-adv-x="1267" d="M481 1483v-111l-153-18 325-613 316 613-152 18 21 111h428v-111l-86-22q-37-10-52-39L741 580V168q0-25 5.5-32t27.5-9l205-16V0H326v111l194 14q20 2 26.5 9t6.5 32v407l-410 742q-14 27-49 35l-92 22 21 111h458z"/><glyph glyph-name="Z" unicode="Z" horiz-adv-x="1318" d="M102 0v125l852 1212H340q-29 0-33-22l-39-191-139-6v365h1055v-129L338 145h655q29 0 33 23l39 219h139V0H102z"/><glyph glyph-name="bracketleft" unicode="[" horiz-adv-x="536" d="M127-293v1776h346v-109l-137-18q-20-2-26.5-9.5T303 1317V-123q0-23 6-31t27-10l137-18v-111H127z"/><glyph glyph-name="backslash" unicode="\" horiz-adv-x="772" d="M27 1546h168L770-188H600z"/><glyph glyph-name="bracketright" unicode="]" horiz-adv-x="536" d="M231-123v1440q0 23-6 30t-26 9l-138 18v109h347V-293H61v111l138 18q20 2 26 10.5t6 30.5z"/><glyph glyph-name="asciicircum" unicode="^" horiz-adv-x="1126" d="M61 612l404 748h190l410-748H881l-324 584-317-584H61z"/><glyph glyph-name="underscore" unicode="_" d="M0-231h1024v-140H0v140z"/><glyph glyph-name="grave" unicode="`" d="M276 1450l125 123 316-336-80-76z"/><glyph glyph-name="a" unicode="a" horiz-adv-x="1107" d="M287 276.5q0-81.5 34.5-118.5T430 121q145 0 313 158v192l-231-20q-129-12-177-52.5t-48-122zM94 256q0 152 92.5 228.5T467 578l276 22v109q0 121-39.5 172T548 932t-157-17.5-56.5-51.5-15.5-89l-176 19q0 281 396 280 221 0 305-76.5T928 709V166q0-25 5-32t28-9l104-14V0H778l-18 133-6 2Q584-25 393-25T148 68 94 256z"/><glyph glyph-name="b" unicode="b" horiz-adv-x="1218" d="M932 549q0 369-261 369-128 0-288-115V262q141-133 281-133 268 0 268 420zm-549 997V954q186 119 358 119t275.5-123.5T1120 544t-114-425.5T698-25 371 102l-6-4-11-98H172q25 152 25 293v1063q0 35-27 43l-121 39 19 108h315z"/><glyph glyph-name="c" unicode="c" horiz-adv-x="995" d="M82 528q0 268 145.5 406.5T618 1073q184 0 312-63V737l-137 6-25 136q-2 23-25 28-51 18-139 19-147 0-237.5-96.5T276 526q0-397 334-397 152 0 262 68l60-136Q800-25 564-25T205 117.5 82 528z"/><glyph glyph-name="d" unicode="d" horiz-adv-x="1216" d="M287 508q0-377 239-377 139 0 310 170v508Q703 920 555 920q-268 0-268-412zm-189-4q0 289 117 429t302 140 323-98v383q0 33-27 41l-123 39 19 108h313V166q0-25 5-32t28-9l104-14V0H870l-16 135-8 2Q676-25 485-25 98-24 98 504z"/><glyph glyph-name="e" unicode="e" horiz-adv-x="1046" d="M549 924q-245 0-268-301h503q-6 301-235 301zM82 533q0 259 131 399.5T549 1073q422 0 422-489 0-33-4-103H279q10-348 313-348 145 0 295 74l59-139Q782-24 573-25q-262 0-376.5 149.5T82 533z"/><glyph glyph-name="f" unicode="f" horiz-adv-x="831" d="M82 0v113l131 12q20 2 26.5 9t6.5 32v725q0 20-17 20H82v142h164v155q0 360 375 361 145 0 226-52.5t81-191.5l-174-25q0 78-33 104t-124 26-128-52.5-37-163.5v-141q0-20 17-20h335V911H432V170q0-25 5-32t28-9l240-18V0H82z"/><glyph glyph-name="g" unicode="g" horiz-adv-x="1114" d="M297 698q0-106 61.5-166.5T541 471t188.5 62.5T797 701t-64.5 164T552 924t-185.5-60T297 698zm-47-879q0-77 75.5-105.5T565-317q317 0 318 172 0 66-47.5 86T670-29L340-10q-90-94-90-171zM100 130q0 78 158 263-154 84-154 291 0 174 119 281.5T549 1073q111 0 182-20h365V922l-193-15q76-94 76-213 0-176-120-276.5T553 317q-111 0-174 25l-92-178 252-14q240-15 331-35.5t147-68 56-190.5-134-230-392-87-369.5 64.5T66-209q0 68 29.5 116T190 23q-90 29-90 107z"/><glyph glyph-name="h" unicode="h" horiz-adv-x="1290" d="M406 1546V938q188 135 368 135 315 0 316-373V166q0-25 5-32t27-9l117-14V0H768v113l98 12q37 2 37 41v477q0 131-36 201.5T731 915q-156 0-323-133V166q0-25 5-32t27-9l115-14V0H86v113l102 12q20 2 26.5 10t6.5 31v1190q0 35-26 43l-123 39 18 108h316z"/><glyph glyph-name="i" unicode="i" horiz-adv-x="608" d="M154 1410q0 62 34.5 96t98 34 97.5-33.5 34-95.5q0-131-131-131-63 0-98 34t-35 96zM53 0v113l135 12q20 2 26.5 9t6.5 32v696q0 35-26 43L78 944l18 109h312V166q0-25 5-32t27-9l131-14V0H53z"/><glyph glyph-name="j" unicode="j" horiz-adv-x="581" d="M154 1410q0 62 35 96t97 34 97-34 35-96-35-96-97-34-97 34-35 96zM66-309q92 0 121.5 49T217-96v958q0 35-27 43L59 944l19 109h325V-133q0-164-72.5-244T109-457q-88 0-167 25.5T-178-371l74 121q78-59 170-59z"/><glyph glyph-name="k" unicode="k" horiz-adv-x="1210" d="M61 0v113l127 12q20 2 26.5 9t6.5 32v1190q0 35-26 43l-123 39 18 108h318V561l434 492h227V942l-117-24q-29-4-51-31L715 678l311-516q16-25 59-33l107-18V0H707v111l129 16-256 424-172-193V166q0-25 5-32t27-9l123-14V0H61z"/><glyph glyph-name="l" unicode="l" horiz-adv-x="608" d="M61 0v113l127 12q20 2 26.5 9t6.5 32v1190q0 35-26 43l-123 39 18 108h318V166q0-25 5-32t27-9l123-14V0H61z"/><glyph glyph-name="m" unicode="m" horiz-adv-x="1867" d="M750 1073q182 0 251-131 179 131 355 131t243.5-95 67.5-286V166q0-25 5-32t28-9l117-14V0h-471v113l98 12q37 2 37 41v493q0 252-174 252-129 0-271-100 6-55 6-125V166q0-25 5.5-32t27.5-9l101-14V0H721v113l98 12q37 2 37 41v496q0 185-51 217t-105 32q-137 0-292-127V166q0-25 5-32t27-9l111-14V0H86v113l102 12q20 2 26.5 10t6.5 31v696q0 35-26 43L78 944l18 109h269l16-121 6-2q92 72 174 107.5t189 35.5z"/><glyph glyph-name="n" unicode="n" horiz-adv-x="1290" d="M766 1073q324 0 324-375V166q0-25 5-32t27-9l117-14V0H768v113l98 12q37 2 37 41v485q0 119-37 190.5T725 913q-158 0-317-131V166q0-25 5-32t27-9l115-14V0H86v113l102 12q20 2 26.5 10t6.5 31v696q0 35-26 43L78 944l18 109h269l16-121 6-2q201 143 379 143z"/><glyph glyph-name="o" unicode="o" horiz-adv-x="1163" d="M274 521q0-396 307.5-396T889 530q0 199-74 293.5T592 918q-318-1-318-397zm-192 5q0 254 130 400.5T594 1073t369.5-142.5T1081 532 955 125.5 574-25 200.5 123.5 82 526z"/><glyph glyph-name="p" unicode="p" horiz-adv-x="1239" d="M684 129q268 0 268 420 0 367-235 366-154 0-314-127V262q137-133 281-133zm74 944q178 0 280.5-124T1141 574t-70-376.5-155-174T715-25Q533-25 403 88v-354q0-25 5.5-32t27.5-9l193-17v-110H100v112l84 13q23 4 29 11t6 30V862q0 35-26 43L76 944l18 109h271l18-119 6-2q191 141 369 141z"/><glyph glyph-name="q" unicode="q" horiz-adv-x="1193" d="M287 510q0-205 61.5-292T524 131q150 0 310 180v498q-51 45-128 78t-153 33q-266 0-266-410zm-189-8q0 287 117 429t302 142 325-106l22 86h176q-20-174-20-285V-268q0-23 6-31t27-10l104-13v-112H655v110l154 15q23 2 29 9t6 32v399l-6 2Q672-25 492-25 98-24 98 502z"/><glyph glyph-name="r" unicode="r" horiz-adv-x="886" d="M698 1073q82 0 148-18V745l-146 7-24 141q-2 20-25 20-109 0-243-129V168q0-25 5-32t27-9l189-16V0H86v113l102 12q20 2 26.5 10t6.5 31v696q0 35-26 43L78 944l18 109h269l20-142 6-2q145 164 307 164z"/><glyph glyph-name="s" unicode="s" horiz-adv-x="942" d="M696 268q0 68-43 104.5t-98 51T442 452t-92.5 22.5-137.5 55T109 747t115.5 248.5T523 1073t317-57V752l-138 8-24 127q-4 23-21 26-63 23-165 23t-156.5-42T281 788q0-110 113.5-142.5T561 599q114-28 211.5-87T870 291 752.5 52 455-25Q342-25 230.5 0T84 45v272l137-8 25-141q4-20 24-29 86-33 201-32 225 0 225 161z"/><glyph glyph-name="t" unicode="t" horiz-adv-x="843" d="M51 911v119q119 14 165 74.5t67 218.5h120v-250q0-20 17-20h301V911H403V307q0-98 31-138t119-40 188 41l45-131Q626-24 502-25q-285 0-285 277v639q0 20-16 20H51z"/><glyph glyph-name="u" unicode="u" horiz-adv-x="1284" d="M401 1053V391q0-141 34-202.5T561 127q174 0 330 178v565q0 25-5 33t-28 12l-102 27 16 111h305V168q0-41 29-43l108-14V0H926l-17 139-4 2Q708-25 510-25q-162 0-228.5 93.5T215 348v520q0 27-5 35t-28 12L76 942l16 111h309z"/><glyph glyph-name="v" unicode="v" horiz-adv-x="1185" d="M471 1053V940l-141-16 276-764 281 764-137 16 22 113h397V940l-67-12q-41-8-51-35L707 0H494L147 887q-10 27-43 35l-88 18 25 113h430z"/><glyph glyph-name="w" unicode="w" horiz-adv-x="1720" d="M453 1053V940l-131-16 229-736 235 834h215l199-832 227 734-133 16 23 113h387V940l-74-12q-25-4-35-12.5t-16-28.5L1303 0h-220L887 811 662 0H436L147 887q-8 27-43 35l-88 18 25 113h412z"/><glyph glyph-name="x" unicode="x" horiz-adv-x="1175" d="M23 0v111l108 20q23 4 49 33l291 362-278 357q-25 27-50 35l-90 22 21 113h430V940l-127-16 217-279 225 279-129 16 21 113h397V940l-94-20q-27-8-51-39L692 547l297-379q27-33 53-37l113-20V0H670v111l127 18-228 297-235-297 135-18V0H23z"/><glyph glyph-name="y" unicode="y" horiz-adv-x="1191" d="M465 1053V940l-135-16 272-688 285 688-139 16 22 113h406V940l-70-10q-39-6-51-35L557-303l199-21v-110H201v112l147 19q27 2 45 43L512 12 143 885q-10 27-43 35l-84 20 25 113h424z"/><glyph glyph-name="z" unicode="z" horiz-adv-x="999" d="M80 0v111l612 804H287q-18 0-23-26l-24-129-140-8v301h820V938L311 137h432q18 0 23 27l25 151 141 7V0H80z"/><glyph glyph-name="braceleft" unicode="{" horiz-adv-x="593" d="M246 590q139-56 139-218 0-90-13.5-223T358-46t35-88 142-48l-21-119q-188 14-265 68.5T172-43q0 55 13.5 191T199 368t-45 121-129 41v121q84 4 129 41t45 122-13.5 224.5T172 1231q0 135 77 189.5t265 68.5l21-119q-106-23-141.5-48.5T358 1234t13.5-198T385 810q0-164-139-220z"/><glyph glyph-name="bar" unicode="|" horiz-adv-x="573" d="M203-293v1839h168V-293H203z"/><glyph glyph-name="braceright" unicode="}" horiz-adv-x="593" d="M348 590q-139 57-139 221 0 90 13.5 225t13.5 198-35 88.5T59 1370l21 119q188-14 265-68.5t77-189.5q0-53-13.5-192.5T395 814t45-122 129-41V530q-84-4-129-40t-45-122 13.5-221T422-43q0-135-77-189.5T80-301L59-182q106 23 141.5 48.5T236-46t-13.5 195.5T209 372q0 160 139 218z"/><glyph glyph-name="asciitilde" unicode="~" horiz-adv-x="987" d="M273 854q83 0 239-47t211-47 76.5 24.5T844 870l110-36q-27-115-70.5-172.5T757 604t-247 47-216 47-83-24.5-68-83.5L39 637q43 104 97 160.5T273 854z"/><glyph glyph-name="uni00A0" horiz-adv-x="454"/><glyph glyph-name="exclamdown" unicode="¡" horiz-adv-x="536" d="M383-440H176v340l29 759h153l25-759v-340zM147 938q0 129 135.5 129T418 938 282.5 809 147 938z"/><glyph glyph-name="cent" unicode="¢" horiz-adv-x="1017" d="M309 577q0-292 201-354v705q-201-59-201-351zm-196-4q0 223 106.5 350.5T510 1081v211h145v-202q160-8 281-64V758l-129 6-23 129q-6 27-24 33-45 14-105 16V211q78 6 111 16 18 6 20 31l25 133 129 6V129Q823 74 655 66v-203H510V72q-397 52-397 501z"/><glyph glyph-name="sterling" unicode="£" horiz-adv-x="1130" d="M68 608v146h163v129q0 444 441 444 162 0 258-64.5t96-236.5l-172-25q0 100-42 136.5T656 1174q-236 0-236-302V754h371V608H420q0-133-9-244T289 139h538q27 0 31 23l33 174h135V0H102L76 121q109 84 132 169t23 290v28H68z"/><glyph glyph-name="currency" unicode="¤" horiz-adv-x="1167" d="M326 579q0-134 65.5-217T586 279t197.5 85T852 584t-67.5 212.5T589 874t-195.5-80.5T326 579zm268 457q164 0 276-80l172 172 119-120-180-181q59-109 59-249t-71-254l190-189-127-121-184 181q-106-74-268-74t-273 78L123 14 6 135l191 191q-61 117-61 245t65 248L12 1006l125 124 180-178q113 84 277 84z"/><glyph glyph-name="yen" unicode="¥" horiz-adv-x="1089" d="M442 1288v-110l-145-19 262-411 262 411-143 19 20 110h416v-110l-86-23q-31-8-51-39L723 729h199V602H649V485h273V358H649V168q0-25 5-32t28-9l203-16V0H233v111l183 14q31 2 38 11t7 32v190H190v127h271v117H190v127h191l-262 387q-20 31-51 39l-93 23 21 110h446z"/><glyph glyph-name="brokenbar" unicode="¦" horiz-adv-x="573" d="M203 836v710h168V836H203zm0-1129v795h168v-795H203z"/><glyph glyph-name="section" unicode="§" horiz-adv-x="1122" d="M322 514q0-60 49-96.5T515 353t173-54q109 66 109 188 0 66-46 102t-102 52-121 33.5-96 27.5q-110-69-110-188zM205 988q0 146 110.5 222t290.5 76 314-57V965l-138 8-22 129q-5 47-180 49-104 0-153.5-43T377 1002t33.5-93 77.5-47.5 67-23.5l82-23q247-63 288.5-148T967 504q0-158-152-266 102-74 103-201 0-172-111-250t-281-78q-104 0-216.5 24.5T164-221V39l137-8 25-131q4-20 22-27 86-33 191-33 205 0 204 164 0 86-70.5 121.5T536 177q-65 17-105 27-98 26-186.5 85T156 501q0 154 151 263-102 78-102 224z"/><glyph glyph-name="dieresis" unicode="¨" d="M602 1351.5q0 51.5 31 82t84 30.5 83.5-30.5 30.5-82-31.5-82T717 1239t-83 30.5-32 82zm-414 0q0 51.5 32 82t84 30.5 83-30.5 31-82-32-82-83-30.5-83 30.5-32 82z"/><glyph glyph-name="copyright" unicode="©" horiz-adv-x="1560" d="M420 643q0 182 101.5 290.5T811 1042q121 0 229-41V786l-90 5-18 100q-2 18-19 27-47 20-118 20-104 0-169-72t-65-214 60.5-223T809 348q72 0 95 16t30 37l24 99h80V295q-84-49-233-49-199 0-292 107.5T420 643zm-197-11q0-261 149.5-407.5T782 78t409.5 151.5T1341 643t-153.5 408.5T785 1198t-405.5-152.5T223 632zm-123 4q0 300 196 483.5T794 1303t484-176.5T1460 649t-189-488.5T768-27 277 154.5 100 636z"/><glyph glyph-name="ordfeminine" unicode="ª" horiz-adv-x="768" d="M225 758q0-80 92-80t175 82v108l-132-12q-78-8-106.5-28.5T225 758zM68 745q0 104 60 150.5T319 952l173 15v67q0 70-24 99.5t-83 29.5-82.5-4-41-26.5T244 1067l-146 14q0 188 277 189 152 0 211-50.5t59-185.5V696q0-16 4-20t19-6l65-11v-84H520l-12 78-6 2q-111-96-240-96-194 0-194 186z"/><glyph glyph-name="guillemotleft" unicode="«" horiz-adv-x="888" d="M436 530l182 306h168L633 555q-12-20-2-39l151-305H614zm-319 0l182 306h168L313 555q-12-20-2-39l152-305H295z"/><glyph glyph-name="logicalnot" unicode="¬" horiz-adv-x="1167" d="M193 584v166h772V391H799v193H193z"/><glyph glyph-name="uni00AD" unicode="­" horiz-adv-x="636" d="M41 506v182h555V506H41z"/><glyph glyph-name="registered" unicode="®" horiz-adv-x="919" d="M416 1001h26q84 0 84 62 0 53-71 53h-39v-115zM293 786v43l29 5q14 2 14 12v270q0 14-12 17l-31 4v41h180q133 0 133-111 0-80-76-106 16-4 35-39l41-74q4-10 17-12l34-7v-43H489v43l39 7-43 82q-12 23-41 22h-28v-94q0-10 8-12l33-5v-43H293zM170 973q0-135 78-211t213-76 213 78 78 215-80 213-209 76-211-80-82-215zm-88 2q0 166 108.5 269.5T466 1348t269.5-99.5T838 982 732.5 710.5 453 606 180.5 707.5 82 975z"/><glyph glyph-name="macron" unicode="¯" d="M197 1251v142h628v-142H197z"/><glyph glyph-name="degree" unicode="°" horiz-adv-x="616" d="M205 1362q0-53 27.5-82t76.5-29 76 31 27 83-28 81-75 29-75.5-30-28.5-83zm-111-1q0 97 61.5 155.5T310 1575t152.5-55.5T522 1365t-58-156.5-156-57.5-156 56.5T94 1361z"/><glyph glyph-name="plusminus" unicode="±" horiz-adv-x="1167" d="M197 575v166h301v308h170V741h301V575H668V270H498v305H197zm0-575v164h772V0H197z"/><glyph glyph-name="uni00B2" unicode="²" horiz-adv-x="735" d="M55 717v102l262 309 92 116q66 86 66 163 0 109-135 109-66 0-95.5-29T215 1386l-147 17q0 235 288 235t289-219q0-82-40-152.5T485 1102L256 829h270q14 0 21 15l18 106h121V717H55z"/><glyph glyph-name="uni00B3" unicode="³" horiz-adv-x="743" d="M504 981q0 143-170 143-47 0-94-8v119l73 8q174 18 174 156 0 117-135 117-66 0-95.5-29t-29.5-98l-153 16q0 127 83 180t205 53q293 0 293-223 0-82-43-137t-114-78v-6q178-39 178-221 0-129-91-201t-239-72q-202 0-315 119l92 105q92-92 215-93 166 0 166 150z"/><glyph glyph-name="acute" unicode="´" d="M293 1237l317 336 123-123-360-289z"/><glyph glyph-name="uni00B5" unicode="µ" horiz-adv-x="1288" d="M205-360v1413h186V367q0-117 38-182.5T575 119q141 0 308 186v748h186V168q0-41 27-43l110-14V0H915l-16 135-8 2Q801 51 733.5 13T584-25q-137 0-201 88h-6l18-423H205z"/><glyph glyph-name="paragraph" unicode="¶" horiz-adv-x="1150" d="M31 817q0 260 157.5 382T598 1321h502v-111l-137-16q-23-2-28-9t-5-30V-113q0-24 9-27t24-5l137-17v-110H778v1458H608V-272H295v110l137 17q27 2 27 32v461q-203 16-315.5 140T31 817z"/><glyph glyph-name="periodcentered" unicode="·" horiz-adv-x="397" d="M63 631q0 129 135.5 129T334 631 198.5 502 63 631z"/><glyph glyph-name="cedilla" unicode="¸" d="M502-90q151-32 151-179 0-81-67.5-147.5T377-483q-57 0-88 8l12 106q31-6 64-6 150 0 149 111 0 90-143 92l30 233 119-16z"/><glyph glyph-name="uni00B9" unicode="¹" horiz-adv-x="534" d="M51 717v96l121 12q14 2 17.5 6.5T193 852v618q0 23-19 29l-123 23 12 96h302V852q0-16 3-20.5t17-6.5l119-12v-96H51z"/><glyph glyph-name="ordmasculine" unicode="º" horiz-adv-x="804" d="M219 913q0-245 182-245 183 0 183 245t-174 244q-191 1-191-244zm192 357q334 0 334-350 0-166-86-263.5T399 559t-257 96.5T59 916t89.5 259 262.5 95z"/><glyph glyph-name="guillemotright" unicode="»" horiz-adv-x="886" d="M422 211l151 291q12 20 2 39L422 836h168l180-314-180-311H422zm-320 0l152 291q12 20 2 39L102 836h168l181-314-181-311H102z"/><glyph glyph-name="onequarter" unicode="¼" horiz-adv-x="1822" d="M1403 303v410l-250-410h250zM997 172v129l371 596h195V303h114V170h-116V0h-158v172H997zM442-35l734 1518h172L616-35H442zM143 575v97l121 12q14 2 17.5 6t3.5 21v618q0 23-19 29l-123 22 13 97h301V711q0-16 3-20.5t17-6.5l119-12v-97H143z"/><glyph glyph-name="onehalf" unicode="½" horiz-adv-x="1822" d="M1055 0v102l262 310 91 115q67 88 67 163 0 109-136 109-66 0-95.5-29T1214 670l-147 16q0 236 289 236t289-220q0-82-40-152.5T1485 385l-230-272h271q14 0 20 14l19 106h121V0h-631zM381-35l733 1518h172L555-35H381zM135 575v97l121 12q14 2 17 6t3 21v618q0 23-18 29l-123 22 12 97h302V711q0-16 3-20.5t17-6.5l119-12v-97H135z"/><glyph glyph-name="threequarters" unicode="¾" horiz-adv-x="1822" d="M1468 303v410l-249-410h249zm-405-131v129l371 596h194V303h115V170h-117V0h-158v172h-405zM512-35l733 1518h172L686-35H512zM387 690q166 0 166 150 0 143-170 143-47 0-94-8v119l73 8q174 18 175 155 0 117-136 117-66 0-95.5-28.5T276 1247l-153 17q0 127 83 180t206 53q293 0 293-223 0-82-43.5-137.5T547 1059v-6q178-39 178-222 0-129-91-200.5T395 559q-202 0-315 119l92 104q92-92 215-92z"/><glyph glyph-name="questiondown" unicode="¿" horiz-adv-x="972" d="M479 938q0 129 135.5 129T750 938 614.5 809 479 938zM82-45q0 393 440 467v240h187V299q-309-28-366.5-139.5T285-54t67.5-165.5T544-283t177 31q14 8 22 45l21 117 145 10v-287q-187-73-387-73t-320 90T82-45z"/><glyph glyph-name="Agrave" unicode="À" horiz-adv-x="1460" d="M477 602h479l-237 721zm-14 1174l94 149 385-262-61-96zM16 0v109l88 22q41 10 52 39l450 1313h238l459-1315q8-25 49-35l92-22V0H944v111l168 18-111 324H430L322 129l165-18V0H16z"/><glyph glyph-name="Aacute" unicode="Á" horiz-adv-x="1460" d="M518 1663l385 264 92-151-417-207zM477 602h479l-237 721zM16 0v109l88 22q41 10 52 39l450 1313h238l459-1315q8-25 49-35l92-22V0H944v111l168 18-111 324H430L322 129l165-18V0H16z"/><glyph glyph-name="Acircumflex" unicode="Â" horiz-adv-x="1460" d="M477 602h479l-237 721zm-78 1051l240 209h172l240-209-82-84-244 170-244-170zM16 0v109l88 22q41 10 52 39l450 1313h238l459-1315q8-25 49-35l92-22V0H944v111l168 18-111 324H430L322 129l165-18V0H16z"/><glyph glyph-name="Atilde" unicode="Ã" horiz-adv-x="1460" d="M477 602h479l-237 721zm74 1231q25 0 86-14 236-61 254-67t31 7l73 76 90-59-47-72q-68-102-131-102-39 0-84 12t-138 37.5-115 29.5-35-8l-80-78-86 62 59 90q55 86 123 86zM16 0v109l88 22q41 10 52 39l450 1313h238l459-1315q8-25 49-35l92-22V0H944v111l168 18-111 324H430L322 129l165-18V0H16z"/><glyph glyph-name="Adieresis" unicode="Ä" horiz-adv-x="1460" d="M817 1714q0 51 31 81t84 30 84-30 31-81-31-81.5-84-30.5-84 30.5-31 81.5zM477 602h479l-237 721zm-74 1112q0 51 32 81t84 30 83-30 31-81-31-81.5-83-30.5-84 30.5-32 81.5zM16 0v109l88 22q41 10 52 39l450 1313h238l459-1315q8-25 49-35l92-22V0H944v111l168 18-111 324H430L322 129l165-18V0H16z"/><glyph glyph-name="Aring" unicode="Å" horiz-adv-x="1460" d="M635 1636q0-92 87-92t87 92-86 93q-88-1-88-93zM477 602h479l-237 721zM16 0v109l88 22q41 10 52 39l446 1300q-82 52-82 154t57.5 155.5T724 1833t145.5-50 56.5-154-80-154l457-1307q8-25 49-35l92-22V0H944v111l168 18-111 324H430L322 129l165-18V0H16z"/><glyph glyph-name="AE" unicode="Æ" horiz-adv-x="2041" d="M1049 809v528h-84L674 809h375zM16 0v111l76 18q35 8 49.5 22.5T180 211l619 1143-156 16v113h1268v-338l-139 8-29 158q-4 27-27 26h-483V803h547V657h-547V145h520q29 0 33 23l33 178h137V0H887v111l135 12q27 2 27 35v499H600L311 129l150-18V0H16z"/><glyph glyph-name="Ccedilla" unicode="Ç" horiz-adv-x="1413" d="M821-90q152-32 152-179 0-81-67.5-147.5T698-483q-57 0-90 8l15 106q29-6 61-6 150 0 150 111 0 90-144 92l21 152Q398 5 248 206T98 747t189.5 551T834 1509q285 0 452-110v-328l-139 8-35 195q-4 31-27 37-131 45-260 45-246 0-388-160T295 741t136-453.5T811 129q184 0 287 43 25 8 28 37l33 184h131V84Q1138-18 829-25z"/><glyph glyph-name="Egrave" unicode="È" horiz-adv-x="1300" d="M393 1776l94 149 385-262-61-96zM125 0v111l129 14q20 2 26.5 10t6.5 31v1149q0 25-6.5 32t-26.5 9l-129 14v113h1028v-338l-139 8-29 158q-6 27-35 26H475V821h547V674H475V145h520q29 0 33 23l33 178h137V0H125z"/><glyph glyph-name="Eacute" unicode="É" horiz-adv-x="1300" d="M449 1663l385 264 92-151-418-207zM125 0v111l129 14q20 2 26.5 10t6.5 31v1149q0 25-6.5 32t-26.5 9l-129 14v113h1028v-338l-139 8-29 158q-6 27-35 26H475V821h547V674H475V145h520q29 0 33 23l33 178h137V0H125z"/><glyph glyph-name="Ecircumflex" unicode="Ê" horiz-adv-x="1300" d="M330 1653l239 209h172l240-209-82-84-244 170-243-170zM125 0v111l129 14q20 2 26.5 10t6.5 31v1149q0 25-6.5 32t-26.5 9l-129 14v113h1028v-338l-139 8-29 158q-6 27-35 26H475V821h547V674H475V145h520q29 0 33 23l33 178h137V0H125z"/><glyph glyph-name="Edieresis" unicode="Ë" horiz-adv-x="1300" d="M748 1714q0 51 30.5 81t83.5 30 84-30 31-81-31-81.5-84-30.5-83.5 30.5T748 1714zm-414 0q0 51 32 81t84 30 82.5-30 30.5-81-30.5-81.5T450 1602t-84 30.5-32 81.5zM125 0v111l129 14q20 2 26.5 10t6.5 31v1149q0 25-6.5 32t-26.5 9l-129 14v113h1028v-338l-139 8-29 158q-6 27-35 26H475V821h547V674H475V145h520q29 0 33 23l33 178h137V0H125z"/><glyph glyph-name="Igrave" unicode="Ì" horiz-adv-x="782" d="M133 1776l94 149 385-262-61-96zM115 0v111l149 14q20 2 26.5 9t6.5 32v1151q0 25-6 32t-27 9l-149 14v111h561v-111l-158-16q-23-2-28-9.5t-5-29.5V168q0-25 5.5-32t27.5-9l158-16V0H115z"/><glyph glyph-name="Iacute" unicode="Í" horiz-adv-x="782" d="M188 1663l385 264 93-151-418-207zM115 0v111l149 14q20 2 26.5 9t6.5 32v1151q0 25-6 32t-27 9l-149 14v111h561v-111l-158-16q-23-2-28-9.5t-5-29.5V168q0-25 5.5-32t27.5-9l158-16V0H115z"/><glyph glyph-name="Icircumflex" unicode="Î" horiz-adv-x="782" d="M115 0v111l149 14q20 2 26.5 9t6.5 32v1151q0 25-6 32t-27 9l-149 14v111h561v-111l-158-16q-23-2-28-9.5t-5-29.5V168q0-25 5.5-32t27.5-9l158-16V0H115zM70 1653l239 209h172l240-209-82-84-244 170-243-170z"/><glyph glyph-name="Idieresis" unicode="Ï" horiz-adv-x="782" d="M487 1714q0 51 31 81t84 30 84-30 31-81-31-81.5-84-30.5-84 30.5-31 81.5zM115 0v111l149 14q20 2 26.5 9t6.5 32v1151q0 25-6 32t-27 9l-149 14v111h561v-111l-158-16q-23-2-28-9.5t-5-29.5V168q0-25 5.5-32t27.5-9l158-16V0H115zM74 1714q0 51 31.5 81t83.5 30 83-30 31-81-30.5-81.5T190 1602t-84 30.5-32 81.5z"/><glyph glyph-name="Eth" unicode="Ð" horiz-adv-x="1591" d="M496 150h225q289 0 433 153.5T1298 737q0 328-140 463t-425 135H496V825h368V678H496V150zM145 0v111l129 14q20 2 26.5 10t6.5 31v512H154v147h153v490q0 25-6 32t-27 9l-129 14v113h613q375 0 555-187.5T1493 759t-192.5-554T723 0H145z"/><glyph glyph-name="Ntilde" unicode="Ñ" horiz-adv-x="1695" d="M709 1833q25 0 86-14 236-61 254-67t30 7l74 76 90-59-47-72q-68-102-131-102-39 0-84 12t-138 37.5-115 29.5-36-8l-80-78-86 62 60 90q55 86 123 86zM125 0v111l129 14q20 2 26.5 10t6.5 31v1151q0 25-6.5 32t-26.5 9l-129 14v113h401l729-1231v1063q0 25-6 32t-26 9l-129 14v111h495v-111l-137-16q-23-2-28-9.5t-5-29.5V0h-219L453 1239V168q0-25 5-32t27-9l138-16V0H125z"/><glyph glyph-name="Ograve" unicode="Ò" horiz-adv-x="1591" d="M549 1778l94 149 385-262-61-96zM297 743q0-294 134-452t365.5-158T1161 288.5 1294 744t-128 454-357 154-370.5-157.5T297 743zm-195-2q0 347 186.5 557.5T812 1509t507-204.5T1489 750t-179.5-562.5T786-25 272 184.5 102 741z"/><glyph glyph-name="Oacute" unicode="Ó" horiz-adv-x="1591" d="M604 1665l385 264 92-151-417-207zM297 743q0-294 134-452t365.5-158T1161 288.5 1294 744t-128 454-357 154-370.5-157.5T297 743zm-195-2q0 347 186.5 557.5T812 1509t507-204.5T1489 750t-179.5-562.5T786-25 272 184.5 102 741z"/><glyph glyph-name="Ocircumflex" unicode="Ô" horiz-adv-x="1591" d="M485 1655l240 209h172l240-209-82-84-244 170-244-170zM297 743q0-294 134-452t365.5-158T1161 288.5 1294 744t-128 454-357 154-370.5-157.5T297 743zm-195-2q0 347 186.5 557.5T812 1509t507-204.5T1489 750t-179.5-562.5T786-25 272 184.5 102 741z"/><glyph glyph-name="Otilde" unicode="Õ" horiz-adv-x="1591" d="M637 1835q25 0 86-14 236-61 254-67t31 7l73 76 90-59-47-72q-68-102-131-102-47 0-340 82-20 2-32-11l-80-78-86 62 59 90q55 86 123 86zM297 743q0-294 134-452t365.5-158T1161 288.5 1294 744t-128 454-357 154-370.5-157.5T297 743zm-195-2q0 347 186.5 557.5T812 1509t507-204.5T1489 750t-179.5-562.5T786-25 272 184.5 102 741z"/><glyph glyph-name="Odieresis" unicode="Ö" horiz-adv-x="1591" d="M903 1716q0 51 31 81t84 30 84-30 31-81-31-81.5-84-30.5-84 30.5-31 81.5zm-414 0q0 51 32 81t84 30 83-30 31-81-31-81.5-83-30.5-84 30.5-32 81.5zM297 743q0-294 134-452t365.5-158T1161 288.5 1294 744t-128 454-357 154-370.5-157.5T297 743zm-195-2q0 347 186.5 557.5T812 1509t507-204.5T1489 750t-179.5-562.5T786-25 272 184.5 102 741z"/><glyph glyph-name="multiply" unicode="×" horiz-adv-x="1167" d="M248 438l217 217-217 219 121 121 213-217 217 217 119-121-216-219 216-217-119-119-217 218-213-218z"/><glyph glyph-name="Oslash" unicode="Ø" horiz-adv-x="1591" d="M1294 752q0 354-190 505L643 154q68-20 154-21 231 0 364 155.5T1294 752zm-997-2q0-367 197-523l462 1106q-68 18-145 19-231 0-372.5-157.5T297 750zm-195 0q0 338 186.5 548.5T815 1509q100 0 205-24l55 131h178l-82-193q158-90 238-260t80-391q0-371-179.5-584T786-25Q686-25 578 0l-66-160H332l92 219Q102 242 102 750z"/><glyph glyph-name="Ugrave" unicode="Ù" horiz-adv-x="1613" d="M559 1776l94 149 385-262-61-96zm-453-293h521v-111l-138-16q-23-2-27.5-9.5T457 1317V522q0-205 87-296t270-91 269 86 86 295v801q0 25-6 32t-26 9l-129 14v111h508v-111l-138-16q-23-2-27.5-9.5t-4.5-29.5V496q0-520-547-521-281 0-406 130.5T268 500v817q0 25-6 32t-26 9l-130 14v111z"/><glyph glyph-name="Uacute" unicode="Ú" horiz-adv-x="1613" d="M614 1663l385 264 93-151-418-207zm-508-180h521v-111l-138-16q-23-2-27.5-9.5T457 1317V522q0-205 87-296t270-91 269 86 86 295v801q0 25-6 32t-26 9l-129 14v111h508v-111l-138-16q-23-2-27.5-9.5t-4.5-29.5V496q0-520-547-521-281 0-406 130.5T268 500v817q0 25-6 32t-26 9l-130 14v111z"/><glyph glyph-name="Ucircumflex" unicode="Û" horiz-adv-x="1613" d="M496 1653l239 209h172l240-209-82-84-244 170-243-170zm-390-170h521v-111l-138-16q-23-2-27.5-9.5T457 1317V522q0-205 87-296t270-91 269 86 86 295v801q0 25-6 32t-26 9l-129 14v111h508v-111l-138-16q-23-2-27.5-9.5t-4.5-29.5V496q0-520-547-521-281 0-406 130.5T268 500v817q0 25-6 32t-26 9l-130 14v111z"/><glyph glyph-name="Udieresis" unicode="Ü" horiz-adv-x="1613" d="M913 1714q0 51 31 81t84 30 84-30 31-81-31-81.5-84-30.5-84 30.5-31 81.5zm-413 0q0 51 31.5 81t83.5 30 83-30 31-81-30.5-81.5T616 1602t-84 30.5-32 81.5zm-394-231h521v-111l-138-16q-23-2-27.5-9.5T457 1317V522q0-205 87-296t270-91 269 86 86 295v801q0 25-6 32t-26 9l-129 14v111h508v-111l-138-16q-23-2-27.5-9.5t-4.5-29.5V496q0-520-547-521-281 0-406 130.5T268 500v817q0 25-6 32t-26 9l-130 14v111z"/><glyph glyph-name="Yacute" unicode="Ý" horiz-adv-x="1267" d="M446 1663l385 264 93-151-418-207zm35-180v-111l-153-18 325-613 316 613-152 18 21 111h428v-111l-86-22q-37-10-52-39L741 580V168q0-25 5.5-32t27.5-9l205-16V0H326v111l194 14q20 2 26.5 9t6.5 32v407l-410 742q-14 27-49 35l-92 22 21 111h458z"/><glyph glyph-name="Thorn" unicode="Þ" horiz-adv-x="1349" d="M473 485h201q178 0 280.5 69T1057 791t-86 228-271 60H473V485zM125 0v111l129 14q20 2 26.5 10t6.5 31v1149q0 25-6.5 32t-26.5 9l-129 14v113h534v-111l-153-16q-20-2-26.5-10.5T473 1315v-88h285q494 0 493-414 0-475-561-475H473V168q0-25 5-32t28-9l293-16V0H125z"/><glyph glyph-name="germandbls" unicode="ß" horiz-adv-x="1288" d="M55 0v113l127 12q20 2 26.5 9t6.5 32v964q0 440 463 441 440 0 440-371 0-254-225-348v-8q162-37 236.5-127t74.5-289-108.5-325T801-23 487 51l52 127q121-57 235-57t175 77.5 61 227.5q0 330-291 330-96 0-150-6v143l119 12q117 12 178.5 90t61.5 197-60.5 175-196.5 56-203-65.5-67-243.5V0H55z"/><glyph glyph-name="agrave" unicode="à" horiz-adv-x="1107" d="M289 1450l125 123 315-336-80-76zm-2-1173.5q0-81.5 34.5-118.5T430 121q145 0 313 158v192l-231-20q-129-12-177-52.5t-48-122zM94 256q0 152 92.5 228.5T467 578l276 22v109q0 121-39.5 172T548 932t-157-17.5-56.5-51.5-15.5-89l-176 19q0 281 396 280 221 0 305-76.5T928 709V166q0-25 5-32t28-9l104-14V0H778l-18 133-6 2Q584-25 393-25T148 68 94 256z"/><glyph glyph-name="aacute" unicode="á" horiz-adv-x="1107" d="M336 1237l317 336 123-123-360-289zm-49-960.5q0-81.5 34.5-118.5T430 121q145 0 313 158v192l-231-20q-129-12-177-52.5t-48-122zM94 256q0 152 92.5 228.5T467 578l276 22v109q0 121-39.5 172T548 932t-157-17.5-56.5-51.5-15.5-89l-176 19q0 281 396 280 221 0 305-76.5T928 709V166q0-25 5-32t28-9l104-14V0H778l-18 133-6 2Q584-25 393-25T148 68 94 256z"/><glyph glyph-name="acircumflex" unicode="â" horiz-adv-x="1107" d="M287 276.5q0-81.5 34.5-118.5T430 121q145 0 313 158v192l-231-20q-129-12-177-52.5t-48-122zM193 1249l260 252h172l260-252-90-78-256 207-256-207zM94 256q0 152 92.5 228.5T467 578l276 22v109q0 121-39.5 172T548 932t-157-17.5-56.5-51.5-15.5-89l-176 19q0 281 396 280 221 0 305-76.5T928 709V166q0-25 5-32t28-9l104-14V0H778l-18 133-6 2Q584-25 393-25T148 68 94 256z"/><glyph glyph-name="atilde" unicode="ã" horiz-adv-x="1107" d="M287 276.5q0-81.5 34.5-118.5T430 121q145 0 313 158v192l-231-20q-129-12-177-52.5t-48-122zM705 1355q18-5 30 7l74 76 90-60-47-71q-68-102-131-103-39 0-168 36t-172 46q-20 2-33-10l-80-78-86 62 60 90q55 86 113 86t350-81zM94 256q0 152 92.5 228.5T467 578l276 22v109q0 121-39.5 172T548 932t-157-17.5-56.5-51.5-15.5-89l-176 19q0 281 396 280 221 0 305-76.5T928 709V166q0-25 5-32t28-9l104-14V0H778l-18 133-6 2Q584-25 393-25T148 68 94 256z"/><glyph glyph-name="adieresis" unicode="ä" horiz-adv-x="1107" d="M631 1351.5q0 51.5 30.5 82t84 30.5 84-30.5 30.5-82-31.5-82-83-30.5-83 30.5-31.5 82zm-344-1075q0-81.5 34.5-118.5T430 121q145 0 313 158v192l-231-20q-129-12-177-52.5t-48-122zm-70 1075q0 51.5 32 82t84 30.5 82.5-30.5 30.5-82-31.5-82T332 1239t-83 30.5-32 82zM94 256q0 152 92.5 228.5T467 578l276 22v109q0 121-39.5 172T548 932t-157-17.5-56.5-51.5-15.5-89l-176 19q0 281 396 280 221 0 305-76.5T928 709V166q0-25 5-32t28-9l104-14V0H778l-18 133-6 2Q584-25 393-25T148 68 94 256z"/><glyph glyph-name="aring" unicode="å" horiz-adv-x="1107" d="M451 1372q0-92 87-92t87 92-87 92-87-92zm-115-1q0 91 57.5 144.5T540 1569t145-50.5 56-143.5-55-146-147.5-53-147.5 52-55 143zM287 276.5q0-81.5 34.5-118.5T430 121q145 0 313 158v192l-231-20q-129-12-177-52.5t-48-122zM94 256q0 152 92.5 228.5T467 578l276 22v109q0 121-39.5 172T548 932t-157-17.5-56.5-51.5-15.5-89l-176 19q0 281 396 280 221 0 305-76.5T928 709V166q0-25 5-32t28-9l104-14V0H778l-18 133-6 2Q584-25 393-25T148 68 94 256z"/><glyph glyph-name="ae" unicode="æ" horiz-adv-x="1699" d="M1198 924q-113 0-186.5-70.5T928 623h506q-2 301-236 301zM287 274q0-154 157-153 80 0 176.5 47T778 276q-29 92-35 195l-231-18q-127-10-176-52.5T287 274zm641 207q8-348 304-348 152 0 306 74l59-139q-164-92-372-93-264 0-383 175Q625-24 395-25 94-25 94 256q0 152 93.5 229.5T467 580l276 22v107q0 121-39.5 172T548 932t-157-17.5-56.5-51.5-15.5-89l-176 19q0 281 389 280 141 0 222.5-37T872 915q123 158 336 158 414 0 414-483 0-39-4-109H928z"/><glyph glyph-name="ccedilla" unicode="ç" horiz-adv-x="995" d="M592-90q151-32 151-179 0-81-67.5-147.5T467-483q-57 0-88 8l12 106q31-6 64-6 150 0 149 111 0 90-143 92l20 154Q278 9 180 148T82 514q0 281 145.5 420T618 1073q184 0 312-63V737l-137 6-25 136q-2 23-25 28-51 18-139 19-147 0-237.5-96.5T276 526q0-397 334-397 152 0 262 68l60-136Q813-19 600-25z"/><glyph glyph-name="egrave" unicode="è" horiz-adv-x="1046" d="M295 1450l125 123 315-336-80-76zm254-526q-245 0-268-301h503q-6 301-235 301zM82 533q0 259 131 399.5T549 1073q422 0 422-489 0-33-4-103H279q10-348 313-348 145 0 295 74l59-139Q782-24 573-25q-262 0-376.5 149.5T82 533z"/><glyph glyph-name="eacute" unicode="é" horiz-adv-x="1046" d="M342 1237l317 336 123-123-360-289zm207-313q-245 0-268-301h503q-6 301-235 301zM82 533q0 259 131 399.5T549 1073q422 0 422-489 0-33-4-103H279q10-348 313-348 145 0 295 74l59-139Q782-24 573-25q-262 0-376.5 149.5T82 533z"/><glyph glyph-name="ecircumflex" unicode="ê" horiz-adv-x="1046" d="M549 924q-245 0-268-301h503q-6 301-235 301zm-350 325l260 252h172l260-252-90-78-256 207-256-207zM82 533q0 259 131 399.5T549 1073q422 0 422-489 0-33-4-103H279q10-348 313-348 145 0 295 74l59-139Q782-24 573-25q-262 0-376.5 149.5T82 533z"/><glyph glyph-name="edieresis" unicode="ë" horiz-adv-x="1046" d="M637 1351.5q0 51.5 30.5 82t84 30.5 84-30.5 30.5-82-31.5-82-83-30.5-83 30.5-31.5 82zM549 924q-245 0-268-301h503q-6 301-235 301zm-326 427.5q0 51.5 32 82t84 30.5 83-30.5 31-82-32-82-83-30.5-83 30.5-32 82zM82 533q0 259 131 399.5T549 1073q422 0 422-489 0-33-4-103H279q10-348 313-348 145 0 295 74l59-139Q782-24 573-25q-262 0-376.5 149.5T82 533z"/><glyph glyph-name="igrave" unicode="ì" horiz-adv-x="608" d="M53 0v113l135 12q20 2 26.5 9t6.5 32v696q0 35-26 43L78 944l18 109h312V166q0-25 5-32t27-9l131-14V0H53zM39 1434l125 122 315-335-80-76z"/><glyph glyph-name="iacute" unicode="í" horiz-adv-x="608" d="M70 1221l317 335 123-122-360-289zM53 0v113l135 12q20 2 26.5 9t6.5 32v696q0 35-26 43L78 944l18 109h312V166q0-25 5-32t27-9l131-14V0H53z"/><glyph glyph-name="icircumflex" unicode="î" horiz-adv-x="608" d="M53 0v113l135 12q20 2 26.5 9t6.5 32v696q0 35-26 43L78 944l18 109h312V166q0-25 5-32t27-9l131-14V0H53zM-49 1249l235 252h172l236-252-90-78-232 207-231-207z"/><glyph glyph-name="idieresis" unicode="ï" horiz-adv-x="608" d="M352 1351.5q0 51.5 31 82t84 30.5 84-30.5 31-82-32-82-83-30.5-83 30.5-32 82zM53 0v113l135 12q20 2 26.5 9t6.5 32v696q0 35-26 43L78 944l18 109h312V166q0-25 5-32t27-9l131-14V0H53zm-73 1351.5q0 51.5 31.5 82T95 1464t83-30.5 31-82-32-82-83-30.5-82.5 30.5-31.5 82z"/><glyph glyph-name="eth" unicode="ð" horiz-adv-x="1144" d="M276 516q0-393 285-393 166 0 241 142.5T877 631q0 68-7 135-39 47-120.5 81T582 881q-152 0-229-94.5T276 516zm-192-4q0 223 123 369.5T555 1028q170 0 291-80-61 188-174 301l-197-112-76 123 150 83q-115 66-264 87l61 141q217-31 367-133l213 121 73-125-170-97q231-246 232-692 0-496-193.5-583T559-25Q84-25 84 512z"/><glyph glyph-name="ntilde" unicode="ñ" horiz-adv-x="1290" d="M793 1355q18-5 30 7l74 76 90-60-47-71q-68-102-131-103-39 0-168 36t-172 46q-20 2-33-10l-80-78-86 62 60 90q55 86 113 86t350-81zm-27-282q324 0 324-375V166q0-25 5-32t27-9l117-14V0H768v113l98 12q37 2 37 41v485q0 119-37 190.5T725 913q-158 0-317-131V166q0-25 5-32t27-9l115-14V0H86v113l102 12q20 2 26.5 10t6.5 31v696q0 35-26 43L78 944l18 109h269l16-121 6-2q201 143 379 143z"/><glyph glyph-name="ograve" unicode="ò" horiz-adv-x="1163" d="M346 1450l125 123 315-336-79-76zm-72-929q0-396 307.5-396T889 530q0 199-74 293.5T592 918q-318-1-318-397zm-192 5q0 254 130 400.5T594 1073t369.5-142.5T1081 532 955 125.5 574-25 200.5 123.5 82 526z"/><glyph glyph-name="oacute" unicode="ó" horiz-adv-x="1163" d="M393 1237l318 336 123-123-361-289zM274 521q0-396 307.5-396T889 530q0 199-74 293.5T592 918q-318-1-318-397zm-192 5q0 254 130 400.5T594 1073t369.5-142.5T1081 532 955 125.5 574-25 200.5 123.5 82 526z"/><glyph glyph-name="ocircumflex" unicode="ô" horiz-adv-x="1163" d="M274 521q0-396 307.5-396T889 530q0 199-74 293.5T592 918q-318-1-318-397zm-24 728l260 252h172l260-252-90-78-256 207-256-207zM82 526q0 254 130 400.5T594 1073t369.5-142.5T1081 532 955 125.5 574-25 200.5 123.5 82 526z"/><glyph glyph-name="otilde" unicode="õ" horiz-adv-x="1163" d="M274 521q0-396 307.5-396T889 530q0 199-74 293.5T592 918q-318-1-318-397zm488 834q18-5 31 7l73 76 90-60-47-71q-68-102-131-103-39 0-168 36t-172 46q-20 2-32-10l-80-78-86 62 59 90q55 86 113 86t350-81zM82 526q0 254 130 400.5T594 1073t369.5-142.5T1081 532 955 125.5 574-25 200.5 123.5 82 526z"/><glyph glyph-name="odieresis" unicode="ö" horiz-adv-x="1163" d="M688 1351.5q0 51.5 31 82t84 30.5 84-30.5 31-82-32-82-83-30.5-83 30.5-32 82zm-414 0q0 51.5 32 82t84 30.5 83-30.5 31-82-32-82-83-30.5-83 30.5-32 82zm0-830.5q0-396 307.5-396T889 530q0 199-74 293.5T592 918q-318-1-318-397zm-192 5q0 254 130 400.5T594 1073t369.5-142.5T1081 532 955 125.5 574-25 200.5 123.5 82 526z"/><glyph glyph-name="divide" unicode="÷" horiz-adv-x="1167" d="M571 842q-131 0-131 126t131 126 131-126-131-126zm0-627q-131 0-131 126t131 126 131-126-131-126zM197 575v164h772V575H197z"/><glyph glyph-name="oslash" unicode="ø" horiz-adv-x="1163" d="M582 125q307 0 307 405 0 203-78 299L502 133q33-8 80-8zM274 528q0-213 86-315l310 696q-33 8-78 9-318-1-318-390zm-192 2q0 250 130 396.5T596 1073q82 0 139-14l62 137h176l-88-199q197-129 196-454 0-268-126-418T575-25q-66 0-137 15l-78-178H182L287 49Q82 180 82 530z"/><glyph glyph-name="ugrave" unicode="ù" horiz-adv-x="1284" d="M371 1450l125 123 315-336-80-76zm30-397V391q0-141 34-202.5T561 127q174 0 330 178v565q0 25-5 33t-28 12l-102 27 16 111h305V168q0-41 29-43l108-14V0H926l-17 139-4 2Q708-25 510-25q-162 0-228.5 93.5T215 348v520q0 27-5 35t-28 12L76 942l16 111h309z"/><glyph glyph-name="uacute" unicode="ú" horiz-adv-x="1284" d="M418 1237l317 336 123-123-360-289zm-17-184V391q0-141 34-202.5T561 127q174 0 330 178v565q0 25-5 33t-28 12l-102 27 16 111h305V168q0-41 29-43l108-14V0H926l-17 139-4 2Q708-25 510-25q-162 0-228.5 93.5T215 348v520q0 27-5 35t-28 12L76 942l16 111h309z"/><glyph glyph-name="ucircumflex" unicode="û" horiz-adv-x="1284" d="M274 1249l261 252h172l260-252-90-78-256 207-256-207zm127-196V391q0-141 34-202.5T561 127q174 0 330 178v565q0 25-5 33t-28 12l-102 27 16 111h305V168q0-41 29-43l108-14V0H926l-17 139-4 2Q708-25 510-25q-162 0-228.5 93.5T215 348v520q0 27-5 35t-28 12L76 942l16 111h309z"/><glyph glyph-name="udieresis" unicode="ü" horiz-adv-x="1284" d="M713 1351.5q0 51.5 30.5 82t84 30.5 84-30.5 30.5-82-31.5-82-83-30.5-83 30.5-31.5 82zm-414 0q0 51.5 31.5 82T414 1464t83-30.5 31-82-31.5-82-83-30.5-83 30.5-31.5 82zM401 1053V391q0-141 34-202.5T561 127q174 0 330 178v565q0 25-5 33t-28 12l-102 27 16 111h305V168q0-41 29-43l108-14V0H926l-17 139-4 2Q708-25 510-25q-162 0-228.5 93.5T215 348v520q0 27-5 35t-28 12L76 942l16 111h309z"/><glyph glyph-name="yacute" unicode="ý" horiz-adv-x="1191" d="M397 1237l318 336 123-123-361-289zm68-184V940l-135-16 272-688 285 688-139 16 22 113h406V940l-70-10q-39-6-51-35L557-303l199-21v-110H201v112l147 19q27 2 45 43L512 12 143 885q-10 27-43 35l-84 20 25 113h424z"/><glyph glyph-name="thorn" unicode="þ" horiz-adv-x="1200" d="M662 131q264 0 264 418 0 367-246 366-147 0-301-127V260q137-129 283-129zM377 1546V936l4-2q197 139 365 139t269-124 101-367-67.5-372.5T896 27.5 696-25Q512-25 377 92v-358q0-25 5-32t28-9l192-17v-110H74v112l84 13q20 2 27.5 10t7.5 31v1624q0 35-27 43l-117 39 19 108h309z"/><glyph glyph-name="ydieresis" unicode="ÿ" horiz-adv-x="1191" d="M692 1351.5q0 51.5 31 82t84 30.5 84-30.5 31-82-32-82-83-30.5-83 30.5-32 82zm-413 0q0 51.5 31.5 82T394 1464t83-30.5 31-82-32-82-83-30.5-82.5 30.5-31.5 82zM465 1053V940l-135-16 272-688 285 688-139 16 22 113h406V940l-70-10q-39-6-51-35L557-303l199-21v-110H201v112l147 19q27 2 45 43L512 12 143 885q-10 27-43 35l-84 20 25 113h424z"/><glyph glyph-name="OE" unicode="Œ" horiz-adv-x="2023" d="M301 740q0-297 100.5-449T719 139t318.5 149.5T1139 752q0 594-404 594-211 0-322.5-154.5T301 740zm-51 558.5Q398 1509 737 1509q109 0 205-26h950v-338l-139 8-29 158q-6 27-34 26h-521q156-164 166-516h443V674h-445q-16-365-182-529h584q29 0 32 23l33 178h137V0H913q-92-25-234-25T416 31.5t-217.5 211T102 743q0 345 148 555.5z"/><glyph glyph-name="oe" unicode="œ" horiz-adv-x="1847" d="M1346 924q-244 0-267-301h502q-2 301-235 301zM276 521q0-396 302-396 309 0 309 396T592 918q-316-1-316-397zm-194 5q0 254 128 400.5T588 1073q287 0 397-205 117 205 371 205 190 0 301.5-117.5T1769 584q0-33-4-103h-690q14-348 316-348 141 0 295 74l57-139q-164-92-365-93-297 0-401 213Q858-25 561-25q-248 0-363.5 148.5T82 526z"/><glyph glyph-name="Ydieresis" unicode="Ÿ" horiz-adv-x="1267" d="M745 1714q0 51 31 81t84 30 84-30 31-81-31-81.5-84-30.5-84 30.5-31 81.5zm-413 0q0 51 31.5 81t83.5 30 83-30 31-81-30.5-81.5T448 1602t-84 30.5-32 81.5zm149-231v-111l-153-18 325-613 316 613-152 18 21 111h428v-111l-86-22q-37-10-52-39L741 580V168q0-25 5.5-32t27.5-9l205-16V0H326v111l194 14q20 2 26.5 9t6.5 32v407l-410 742q-14 27-49 35l-92 22 21 111h458z"/><glyph glyph-name="circumflex" unicode="ˆ" d="M166 1249l260 252h172l260-252-90-78-256 207-256-207z"/><glyph glyph-name="tilde" unicode="˜" d="M676 1355q18-5 31 7l73 76 90-60-47-71q-68-102-131-103-39 0-168 36t-172 46q-20 2-33-10l-79-78-86 62 59 90q55 86 113 86t350-81z"/><glyph glyph-name="endash" unicode="–" d="M0 506v141h1022V506H0z"/><glyph glyph-name="emdash" unicode="—" horiz-adv-x="2048" d="M0 506v141h2046V506H0z"/><glyph glyph-name="quoteleft" unicode="‘" horiz-adv-x="368" d="M76 1253q0 37 30 99l105 207 90-33-55-195q-4-14 10-20l63-27-40-151q-104 4-153.5 27T76 1253z"/><glyph glyph-name="quoteright" unicode="’" horiz-adv-x="366" d="M307 1439q0-46-26-100l-109-206-90 30 55 193q6 16-8 22l-66 27 41 154q70-4 108-12.5t66.5-35T307 1439z"/><glyph glyph-name="quotesinglbase" unicode="‚" horiz-adv-x="368" d="M315 59q0-43-30-104L180-250l-90 31 55 192q6 16-10 23L70 23l41 153q70-4 108.5-12t67-35T315 59z"/><glyph glyph-name="quotedblleft" unicode="“" horiz-adv-x="675" d="M383 1253q0 37 31 99l104 207 90-33-55-195q-4-14 10-20l64-27-41-151q-104 4-153.5 27t-49.5 93zm-307 0q0 37 30 99l105 207 90-33-55-195q-4-14 10-20l63-27-40-151q-104 4-153.5 27T76 1253z"/><glyph glyph-name="quotedblright" unicode="”" horiz-adv-x="673" d="M614 1439q0-46-26-100l-109-206-90 30 55 193q6 16-8 22l-65 27 41 154q70-4 107.5-12.5t66-35T614 1439zm-307 0q0-46-26-100l-109-206-90 30 55 193q6 16-8 22l-66 27 41 154q70-4 108-12.5t66.5-35T307 1439z"/><glyph glyph-name="quotedblbase" unicode="„" horiz-adv-x="675" d="M623 59q0-43-31-104L487-250l-90 31 56 192q6 16-11 23l-65 27 41 153q70-4 108.5-12t67.5-35 29-70zm-308 0q0-43-30-104L180-250l-90 31 55 192q6 16-10 23L70 23l41 153q70-4 108.5-12t67-35T315 59z"/><glyph glyph-name="bullet" unicode="•" horiz-adv-x="759" d="M98 573.5q0 135.5 73 205T380 848t209-69.5 73-205-73-205T380 299t-209 69.5-73 205z"/><glyph glyph-name="ellipsis" unicode="…" horiz-adv-x="1157" d="M819 104q0 129 135.5 129T1090 104 954.5-25 819 104zm-375 0q0 129 135.5 129T715 104 579.5-25 444 104zm-374 0q0 129 135 129t135-129T205-25 70 104z"/><glyph glyph-name="guilsinglleft" unicode="‹" horiz-adv-x="569" d="M117 530l182 306h168L313 555q-12-20-2-39l152-305H295z"/><glyph glyph-name="guilsinglright" unicode="›" horiz-adv-x="567" d="M102 211l152 291q12 20 2 39L102 836h168l181-314-181-311H102z"/><glyph glyph-name="Euro" unicode="€" horiz-adv-x="1087" d="M156 642q0 48 2 71H41l25 127h106q43 242 186.5 364.5T700 1327t326-70V961l-131 8-27 151q-6 27-28 35-57 20-144 21-129 0-217-83T360 840h412l-24-127H348v-37q0-72 2-105h379l-24-127H367q63-319 327-319 98 0 146 20 23 6 26 35l27 152 131 8V43Q977 20 880.5-2.5T684-25q-442 0-514 469H-2l25 127h135q-2 23-2 71z"/><glyph glyph-name="trademark" unicode="™" horiz-adv-x="1699" d="M772 713v73l82 11v596l-82 10v80h203l237-477 244 477h195v-80l-86-10V797l90-11v-73h-299v73l98 11v456l-199-374h-92l-194 376V797l104-11v-73H772zM49 1276v207h656v-207h-76l-17 110H436V799l131-11v-75H195v75l120 11v587H143l-18-110H49z"/><glyph glyph-name="uniE000" unicode="" horiz-adv-x="1055" d="M0 1055h1055V0H0v1055z"/><glyph glyph-name="uniFB01" unicode="ﬁ" horiz-adv-x="1312" d="M82 911v142h164v153q0 197 105.5 280t352.5 83 316.5-61 73.5-191l-176-23q-2 90-41 113t-187 23-203-47.5-55-168.5v-139q0-23 21-22h659V166q0-25 5-32t28-9l131-14V0H758v113l135 12q20 2 26.5 9t6.5 32v715q0 31-29 30H432V170q0-27 5-32t28-9l162-18V0H82v111l127 18q27 4 32 14.5t5 26.5v721q0 20-17 20H82z"/><glyph glyph-name="uniFB02" unicode="ﬂ" horiz-adv-x="1312" d="M82 911v142h164v153q0 197 105.5 280t362.5 83 327.5-66 70.5-205V166q0-25 5-32t28-9l123-14V0H766v113l127 12q20 2 26.5 9t6.5 32v1114q0 98-46 124t-192 26-201-47.5-55-168.5v-139q0-23 21-22h301V911H432V170q0-27 5-32t28-9l162-18V0H82v111l127 18q27 4 32 14.5t5 26.5v721q0 20-17 20H82z"/><glyph glyph-name="uniFB03" unicode="ﬃ" horiz-adv-x="1992" d="M432 1073q0-20 17-20h477v153q0 98-55.5 144.5T678 1397t-191.5-52.5T432 1192v-119zM82 0v113l131 14q20 2 26.5 9t6.5 32v723q0 20-17 20H82v142h164v151q0 160 106.5 247t316.5 87 314-100q98 131 410 131 239 0 308-61t73-191l-177-23q-2 90-40.5 113t-187.5 23-203-47.5-54-168.5v-139q0-23 21-22h659V166q0-25 5-32t28-9l131-14V0h-518v113l135 12q20 2 26.5 9t6.5 32v715q0 31-29 30h-465V170q0-27 5-32t28-9l162-18V0H762v111l127 18q26 4 31.5 14.5T926 170v721q0 20-17 20H432V168q0-25 5-32t26-9l176-16V0H82z"/><glyph glyph-name="uniFB04" unicode="ﬄ" horiz-adv-x="1992" d="M432 1073q0-20 17-20h477v153q0 96-56.5 143.5T677 1397t-190.5-52.5T432 1192v-119zm551 365q100 131 370 131 122 0 218-7.5t158.5-66T1792 1298V166q0-25 5-32t28-9l123-14V0h-502v113l127 12q20 2 26.5 9t6.5 32v1114q0 98-47 124t-193 26-200-47.5-54-168.5v-139q0-23 21-22h301V911h-322V170q0-27 5-32t28-9l162-18V0H762v111l127 18q27 4 32 14.5t5 26.5v721q0 20-17 20H432V168q0-25 5-32t26-9l176-16V0H82v113l131 14q20 2 26.5 9t6.5 32v723q0 20-17 20H82v142h164v151q0 160 106.5 247t316.5 87 314-100z"/><glyph glyph-name="CR"/></font>
</defs>
</svg>
