<svg xmlns="http://www.w3.org/2000/svg"><defs><font id="d9e64e66ba0f4be8f0ea154778490c10" horiz-adv-x="1024"><font-face font-family="FreightTextBook" font-weight="400" units-per-em="2048" panose-1="2 0 6 3 6 0 0 2 0 4" ascent="1638" descent="-410" x-height="913" cap-height="1280" bbox="-131 -547 2271 1790" underline-thickness="40" underline-position="-231" unicode-range="U+0020-FB04"/><glyph glyph-name=".notdef" horiz-adv-x="1024"/><glyph glyph-name=".null" horiz-adv-x="0"/><glyph glyph-name="nonmarkingreturn" horiz-adv-x="327"/><glyph glyph-name="space" horiz-adv-x="327"/><glyph glyph-name="space" horiz-adv-x="327"/><glyph glyph-name="exclam" unicode="!" horiz-adv-x="575" d="M403 85q0-46-30.5-81T290-31 204 4t-34 81 34 80 86 34 82.5-34T403 85zM274 1309h31q55 0 70.5-20.5T387 1233l-78-827q-2-12-20.5-12.5T268 406l-75 827q-4 35 11 55.5t70 20.5z"/><glyph glyph-name="quotedbl" unicode="&quot;" horiz-adv-x="727" d="M102 825H35l215 500h2l151-53zm322 0h-68l215 500h2l150-53z"/><glyph glyph-name="numbersign" unicode="#" horiz-adv-x="1148" d="M817 831H461L354 442h359zm236-389v-71H768L664-12h-74l104 383H334L231-12h-73l102 383H-4v71h285l104 389H121v72h282l107 389h74L479 903h357l106 389h74L909 903h267v-72H891L786 442h267z"/><glyph glyph-name="dollar" unicode="$" horiz-adv-x="1019" d="M795 272q0 81-21.5 125.5T701 486t-177 89l-69-253q-12-47-28-101.5T391 88l-6-22q91-16 145-14 111 3 188 71t77 149zm-300 951q-102 0-165.5-59.5T266 1034q0-116 62-174.5T498 760l118 448q-73 15-121 15zm384-310h-74l-62 254q-12 4-26.5 10.5T686 1188L565 733q74-29 223.5-96.5T938 346q0-156-128-266.5T475-31q-59 0-115 6l-84-315h-73l86 324Q198 1 129 29l-27 358h68l94-281q19-12 53-20l140 516q-169 67-249.5 142T127 963t110 244 306 100h39q39 0 61-2l55 206h76l-29-106q-27-109-30-109 40-5 55-10l109 31V913z"/><glyph glyph-name="percent" unicode="%" horiz-adv-x="1527" d="M1153 541q-110 0-177-73.5T909 289q0-104 63.5-178T1153 37t180.5 74 63.5 178-67 178-177 74zm-778 700q-117 0-180.5-73.5T131 989t66.5-178.5 177-73.5 177 73T618 988t-63 179-180 74zM1399 46.5Q1305-51 1153-51T907 46.5 813 288q0 143 94.5 242t245.5 99 245.5-98.5T1493 288t-94-241.5zM297-31H190l1045 1340h104zm323.5 778.5Q526 649 375 649t-245.5 98.5T35 990q0 143 94 241t246 98 246-97.5T715 990t-94.5-242.5z"/><glyph glyph-name="ampersand" unicode="&amp;" horiz-adv-x="1413" d="M205 360q0-110 82-188t202-78q82 0 167 53.5T815 303Q715 498 597 560.5T416 649Q205 541 205 360zm500 652q0 142-77 179.5T504 1229q-98 0-154.5-60.5T293 1016q0-177 229-273 183 85 183 269zm149-783Q654-31 406-31q-155 0-254 98T53 296t84.5 235.5T354 686q-88 41-142 116t-54 157q0 152 104.5 250t259.5 98q156 0 243-80.5t87-183.5q0-225-262-330 96-41 183-119t140-170q146 206 146 231 2 33-45 39l-72 11-4 67h428l-8-67-66-11q-98-24-155-104-92-118-137.5-175T954 356q73-147 129-206.5T1204.5 90t175.5 66l31-54Q1285-33 1155-33q-104 0-172 65.5T854 229z"/><glyph glyph-name="quotesingle" unicode="'" horiz-adv-x="405" d="M102 825H35l215 500h2l151-53z"/><glyph glyph-name="parenleft" unicode="(" horiz-adv-x="808" d="M190 428q0 186 54.5 342T380 1045.5 556 1248t177 124l25-33q24-29 24-36-76-41-163-121T460.5 989.5 341 735.5 293 428t48-307 119.5-254 159-193T782-444q0-9-49-72-82 41-177 124T380-189.5 244.5 86 190 428z"/><glyph glyph-name="parenright" unicode=")" horiz-adv-x="808" d="M516 428q0 166-48 307.5t-120 254T190 1182 27 1303q0 5 26 36l25 33q82-41 176-124t175-202.5T564 770t54-342-54-342-135-275.5T254-392 78-516l-25 33q-26 31-26 37 78 41 163.5 120.5T348-133t120 254 48 307z"/><glyph glyph-name="asterisk" unicode="*" horiz-adv-x="710" d="M588 893l-182 63-21-26 115-152-17-127-43-10-86 94 4 189-30 8-107-150-125-26-28 37 65 116 176 49v35l-176 54-67 110 24 37 131-25 107-155 32 10v190l82 93 45-15 17-127-119-151 21-27 182 62 112-56v-45z"/><glyph glyph-name="plus" unicode="+" horiz-adv-x="983" d="M545 430V49H440v381H66l6 100h368v379h105V530h366l7-100H545z"/><glyph glyph-name="comma" unicode="," horiz-adv-x="462" d="M240-51q0 72-52.5 107.5t-76 46T88 115q0 47 34 80.5t81 33.5q82 0 138-52.5T397 52q0-124-76.5-215.5T113-354l-45 32Q240-192 240-51z"/><glyph glyph-name="hyphen" unicode="-" horiz-adv-x="671" d="M70 428l6 104h524l6-104H70z"/><glyph glyph-name="period" unicode="." horiz-adv-x="466" d="M360 96q0-49-34.5-88T235-31 142.5 8 106 96t36 86 92 37 91-37 35-86z"/><glyph glyph-name="slash" unicode="/" horiz-adv-x="571" d="M457 1358h92L111-432H18z"/><glyph glyph-name="zero" unicode="0" horiz-adv-x="1146" d="M948 479q0 88-27.5 161T843 765t-119 82-153 30-152.5-29T301 767t-76.5-124T197 483t27.5-161.5 77.5-127 120-83T575.5 82 728 111.5t118 82 75.5 125T948 479zM217.5 110.5Q80 252 80 478t138.5 368.5T574 989t354-139 137-366-139.5-371-355-144-353 141.5z"/><glyph glyph-name="one" unicode="1" horiz-adv-x="749" d="M461 127q0-31 37-37l149-20 6-70H131l6 70 146 20q35 12 34 37v725L86 864l6 60 369 59V127z"/><glyph glyph-name="two" unicode="2" horiz-adv-x="954" d="M529 801q-59 57-147 57-87 0-149.5-43T131 717l-39 24q47 117 141.5 182.5T452 989t214-75.5T756 708 648.5 476.5 439.5 301 207 135v-10h117q295 0 356 15.5t82.5 38T799 238l37 92h63L874 0H76l-8 106q106 82 201.5 156t207 181T588 647t-59 154z"/><glyph glyph-name="three" unicode="3" horiz-adv-x="856" d="M330 862q-137 0-244-143-2 0-9 4t-24 12-8 8q47 117 150.5 181.5T423 989t208-74 84-183-67.5-192T438 373v-4q154 0 254.5-85.5T793 57q0-181-160.5-325T262-412q-113 0-175 43t-62 93 27.5 76 75.5 26 88-46 50-102q29-6 72-6t98.5 22.5 125 89T631-22q0 129-73 203.5T374 256t-186-37l-22 53q192 121 250.5 170.5T509 542t34 101q0 97-59 158t-154 61z"/><glyph glyph-name="four" unicode="4" horiz-adv-x="952" d="M590 760h-6L141 170h449v590zM735 47v-424H590V47H20l-6 72 652 862h69V170h230L950 47H735z"/><glyph glyph-name="five" unicode="5" horiz-adv-x="858" d="M23-282q0 102 105 102 48 0 86-43t48-101q16-4 19-4h38q127 0 216.5 91.5T625-14q0 276-521 415l144 562h540l-4-154H295l-72-287q285-78 412-199.5T762 49q0-92-40-176T570-311.5 258-412q-104 0-169.5 39T23-282z"/><glyph glyph-name="six" unicode="6" horiz-adv-x="1024" d="M710 589q-81 97-202 97-78 0-142.5-30.5T260 586q-18-22-18-115 0-182 84.5-306T533 41t190 89 68 226q0 136-81 233zm232-198q0-88-34-169T782 52 498-37 192 111.5 78 448q0 187 70.5 339.5T340 1057t279.5 190.5T952 1335l15-59q-275-38-455-205.5T266 664l4-2q59 55 140.5 90.5T576 788t152.5-30.5T845 674t72.5-124T942 391z"/><glyph glyph-name="seven" unicode="7" horiz-adv-x="946" d="M782 819H422q-164 0-192.5-7t-44-25.5-39-82T121 637H55l41 326h803l10-89L274-379H168L782 809v10z"/><glyph glyph-name="eight" unicode="8" horiz-adv-x="997" d="M691.5 457Q603 523 416 612q-78-55-131.5-132.5T231 328q0-138 82-215.5T519 35q123 0 192 67t69 178-88.5 177zM725 956q0 193-97.5 241T476 1245q-101 0-163.5-66.5T250 1037q0-74 26.5-120.5t81.5-91T573 702q152 106 152 254zm145 33q0-202-241-311v-2q138-70 188.5-123t74-105T915 324q0-153-119-254T493-31 195.5 66 82 301q0 214 283 336v2q-125 66-168 116t-63.5 98T113 999t107 203 274 105 271.5-91.5T870 989z"/><glyph glyph-name="nine" unicode="9" horiz-adv-x="1024" d="M780 489q0 178-82.5 303.5T490 918t-191-89.5T233 600t82-233.5T514 272q78 0 142.5 32T762 375q18 23 18 114zM448 172q-169 0-268.5 113T80 576t124.5 298.5T521 995t307.5-145T944 514q0-190-70.5-342T682-96.5t-278.5-190T70-375l-15 60q275 38 454 204.5T758 297l-6 2q-59-57-140.5-92T448 172z"/><glyph glyph-name="colon" unicode=":" horiz-adv-x="462" d="M360 96q0-49-34.5-88T235-31 142.5 8 106 96t36 86 92 37 91-37 35-86zm0 635q0-49-34.5-87T235 606t-92.5 38-36.5 87 36 86 92 37 91-37 35-86z"/><glyph glyph-name="semicolon" unicode=";" horiz-adv-x="462" d="M240-51q0 72-52.5 107.5t-76 46T88 115q0 47 34 80.5t81 33.5q82 0 138-52.5T397 52q0-124-76.5-215.5T113-354l-45 32Q240-192 240-51zm120 782q0-49-34.5-87T235 606t-92.5 38-36.5 87 36 86 92 37 91-37 35-86z"/><glyph glyph-name="less" unicode="&lt;" horiz-adv-x="983" d="M59 457v49l820 385 24-92-667-312v-10l667-313-24-92z"/><glyph glyph-name="equal" unicode="=" horiz-adv-x="983" d="M86 250l6 104h799l6-104H86zm6 356l-6 105h811l-6-105H92z"/><glyph glyph-name="greater" unicode="&gt;" horiz-adv-x="983" d="M104 72l-24 92 668 313v10L80 799l24 92 820-385v-49z"/><glyph glyph-name="question" unicode="?" horiz-adv-x="731" d="M426 85q0-46-32-81t-84-35-84.5 35T193 85t32.5 80 84.5 34 84-34 32-80zM109 1206q0 43 41.5 73t117.5 30 146.5-29 123-77 82-108.5 29.5-150-55.5-143T468 721q-124-47-166-78.5T260 557q0-55 31-97t76-83h-62q-64 57-102.5 110.5T164 600q0 101 54 148t133 82q79 34 148.5 64.5T569 991t-87 114-228 48q-58 0-127-12-18 22-18 65z"/><glyph glyph-name="at" unicode="@" horiz-adv-x="1708" d="M840 866q-45 0-76-30-61-60-116.5-227T592 355t36-120.5 68-33.5 99.5 74T1026 637q10 20 17.5 49t7.5 33q-45 89-105.5 118T840 866zM818-258q-149 0-287 59.5t-237 165T140.5 217 93 530t75 310.5 178.5 247 257 164T908 1307t295.5-57.5 237-147.5T1596 879t48-265q-14-249-144-393.5T1190 76q-133 0-177.5 50.5T985 233l72 314h-27Q875 243 788.5 174.5T660 106q-82 0-144.5 62T453 298t19.5 145T544 643t146 217 201 94q74 0 128-45t77-116h22l51 137h97l-117-334-45-365q-6-35 20-59.5t94-24.5q138 0 235.5 128.5T1559 568q15 298-174 478.5T907 1235q-145 4-275-51.5T402.5 1033t-160-223T175 532t42-282.5 138-229T568-130t257-54 260 41l21-68q-139-47-288-47z"/><glyph glyph-name="A" unicode="A" horiz-adv-x="1222" d="M582 1122h-11L377 547h387zM729 0l6 70 117 14q40 8 42 36.5T866 238l-75 225H348l-74-223q-29-84-29.5-116T281 84l102-14 6-70H-33l6 70 82 14q49 13 79 61t93 232l285 803v65l170 72 395-1188q10-33 51-39l121-20 6-70H729z"/><glyph glyph-name="B" unicode="B" horiz-adv-x="1181" d="M926 340q0 133-103 205.5T547 618H420V102l160-28 59 2q196 14 241.5 106T926 340zm-377 866H420V694l162 2q140 0 217.5 75.5T877 957t-78 179.5-250 69.5zm555-858q0-172-133-260T600 0H86l6 70 107 12q53 6 53 29v1060q0 12-10.5 17.5T199 1198l-107 12-6 70h522q236 0 342.5-79T1057 998q0-123-85.5-214.5T745 668v-9q186-20 272.5-108t86.5-203z"/><glyph glyph-name="C" unicode="C" horiz-adv-x="1359" d="M94 624q0 308 201.5 496.5T801 1309q159 0 284-39l156 33V887h-86l-53 266q-130 76-314 76-222 0-364.5-162.5T281 641q0-262 140-428T811 47q151 0 264 62l86 276h90L1202-2l-94 20q-315-99-582-7.5t-349.5 274T94 624z"/><glyph glyph-name="D" unicode="D" horiz-adv-x="1390" d="M954.5 1046.5Q795 1206 498 1206h-78V102l164-26q245 4 387.5 157T1114 637q0 250-159.5 409.5zm144.5-856Q900 0 539 0H86l6 70 107 12q53 6 53 29v1060q0 12-10.5 17.5T199 1198l-107 12-6 70 455 6q345 4 551-170t206-454q0-281-199-471.5z"/><glyph glyph-name="E" unicode="E" horiz-adv-x="1193" d="M252 111v1060q0 12-10.5 17.5T199 1198l-107 12-6 70h983V909h-88l-45 207q-8 31-21.5 48.5t-66 28.5-350.5 11h-78V690h78q130 0 157 5t36 12.5 14 21.5l45 137h71l-43-426h-67l-17 131q0 26-32.5 35.5T494 616h-74V76h55q315 0 377.5 12t78 29.5T956 164l52 198h100L1069 0H86l6 70 107 12q53 6 53 29z"/><glyph glyph-name="F" unicode="F" horiz-adv-x="1140" d="M483 1204h-63V678h94q172 0 186.5 12t20.5 27l47 137h70l-43-426h-68l-14 131q-4 26-35.5 35.5T510 604h-90V109q0-12 11-17.5t42-9.5l148-12 6-70H86l6 70 107 12q53 6 53 29v1060q0 12-10.5 17.5T199 1198l-107 12-6 70h969V909h-90l-43 207q-8 31-22.5 48.5t-67 28.5-349.5 11z"/><glyph glyph-name="G" unicode="G" horiz-adv-x="1449" d="M1065 457q0 12-10.5 17t-42.5 9l-129 13-6 67h520l-6-67-107-13q-53-8-53-30V133l119-10 4-53Q1056-31 795-31q-308 0-504.5 176T94 627t207 494 512 188q163 0 283-39l155 33V887h-86l-53 266q-130 76-315 76-219 0-367.5-163.5T281 640t137.5-427.5T812 47q134 0 253 51v359z"/><glyph glyph-name="H" unicode="H" horiz-adv-x="1501" d="M1081 111v503H420V109q0-12 11-17.5t42-9.5l107-12 6-70H86l6 70 107 12q53 6 53 29v1060q0 12-10.5 17.5T199 1198l-107 12-6 70h500l-6-70-107-12q-53-6-53-29V698h661v473q0 14-10 18.5t-43 8.5l-106 12-7 70h500l-6-70-106-12q-53-6-54-29V109q0-12 10.5-17.5T1303 82l106-12 6-70H915l7 70 106 12q53 6 53 29z"/><glyph glyph-name="I" unicode="I" horiz-adv-x="718" d="M276 111v1060q0 12-10 17.5t-43 9.5l-127 12-6 70h541l-6-70-127-12q-53-6-54-29V109q0-20 54-27l127-12 6-70H90l6 70 127 12q53 6 53 29z"/><glyph glyph-name="J" unicode="J" horiz-adv-x="796" d="M96 184q110 0 150-145h2q81 21 117 110t36 324v698q0 14-10 18.5t-43 8.5l-141 12-6 70h549l-7-70-118-12q-31-4-42.5-10t-11.5-19V504q0-258-96-396.5T199-31Q109-31 55.5 5T2 89t26.5 71.5T96 184z"/><glyph glyph-name="K" unicode="K" horiz-adv-x="1296" d="M420 109q0-12 11-17.5t42-9.5l107-12 6-70H86l6 70 107 12q53 6 53 29v1060q0 12-10.5 17.5T199 1198l-107 12-6 70h500l-6-70-107-12q-53-6-53-29V608l440 443q80 78 85 110.5t-42 36.5l-104 12-6 70h489l-6-70-86-10q-35-6-67.5-26.5T1036 1100L672 737l440-590q29-39 46.5-51t47.5-16l74-10 6-70H834l6 70 80 12q23 8 0 45L559 635 420 498V109z"/><glyph glyph-name="L" unicode="L" horiz-adv-x="1157" d="M252 111v1060q0 12-10.5 17.5T199 1198l-107 12-6 70h518l-6-70-125-12q-53-6-53-29V76h51q296 0 356 12t75.5 29.5T926 164l61 244h94L1036 0H86l6 70 107 12q53 6 53 29z"/><glyph glyph-name="M" unicode="M" horiz-adv-x="1728" d="M1151 0l6 70 133 10q25 4 31.5 76.5T1321 371l-29 794h-14L866 41h-86L381 1124h-21l-34-747q-4-98-6.5-156.5t-1-97.5T344 84l135-14 6-70H29l8 70 137 14q12 2 20.5 10t18 43.5T236 377l34 674q6 121-59 137l-145 22-7 70h439l362-987h10l355 987h428l-4-70-152-10q-31-3-37-49l29-780q5-242 22-265.5t27-25.5l129-10 6-70h-522z"/><glyph glyph-name="N" unicode="N" horiz-adv-x="1507" d="M1264 903V-16h-99L360 1110h-8V377q0-193 8.5-232T382 98t36-12l123-16 6-70H76l6 70 123 16q23 4 36 12t21 48 8 231v676q0 66-14 94.5t-49 44.5l-117 18-6 70h354l738-1032h6v655q0 193-8.5 232t-21.5 47-36 12l-123 16-6 70h473l-6-70-123-16q-23-4-36-12t-22-46.5-9-232.5z"/><glyph glyph-name="O" unicode="O" horiz-adv-x="1513" d="M1233 626q0 272-141 439.5T752 1233t-335-157-136-431 141.5-439T761 41t334.5 156.5T1233 626zm186 24q0-142-50-265t-139-215-211-146.5T755-31q-285 0-473 184T94 629q0 137 50.5 260T336 1159.5 760 1307q282 0 420.5-135.5T1369 914t50-264z"/><glyph glyph-name="P" unicode="P" horiz-adv-x="1146" d="M907 898q0 144-89 226t-243 80H467q-25 0-47-2V610q78-20 166-20 147 0 234 82t87 226zM609 518q-87 0-189 10V109q0-12 11-17.5t42-9.5l145-12 7-70H86l6 70 107 12q53 6 53 29v1060q0 12-10.5 17.5T199 1198l-107 12-6 70h496q243 0 374-98t131-252q0-191-105-274T786.5 545.5 609 518z"/><glyph glyph-name="Q" unicode="Q" horiz-adv-x="1513" d="M1233 626q0 272-141 439.5T752 1233t-335-157-136-431 141.5-439T761 41t334.5 156.5T1233 626zM94 629q0 137 50.5 260T336 1159.5 760 1307q282 0 470.5-184.5T1419 645q0-233-136-414.5T928-8q146-253 317.5-262t272.5 4l6-66q-114-37-236-37-222 0-342.5 79.5T733-31q-271 4-455 188T94 629z"/><glyph glyph-name="R" unicode="R" horiz-adv-x="1210" d="M508 565h-88V109q0-12 11-17.5t42-9.5l117-12 6-70H86l6 70 107 12q53 6 53 29v1060q0 12-10.5 17.5T199 1198l-107 12-6 70h524q233 0 342-87t109-226.5T978 737 758 600l278-430q37-53 56.5-67.5T1135 84l84-14 6-70H924l-78 141-250 426q-49-2-88-2zm371 367q0 137-79 207.5T557 1200h-7l-130-4V651l174-14q129 14 207 86t78 209z"/><glyph glyph-name="S" unicode="S" horiz-adv-x="1032" d="M885 913h-82l-58 263q-113 51-233 51t-184-62-64-137 23.5-118.5 66.5-76 100.5-57T585 724t218-93.5T948 346q0-155-129-266T479-31q-173-3-358 56L90 387h82l86-283q122-55 253-55t208.5 71.5T797 300t-75.5 168.5T475 592q-184 72-243.5 123t-87 108.5T117 955t25.5 137 77.5 110 132 77 197 32 229-25l107 31V913z"/><glyph glyph-name="T" unicode="T" horiz-adv-x="1253" d="M725 1204h-14V109q0-12 11-17.5t42-9.5l139-12 6-70H344l6 70 139 12q53 6 54 29v1093h-15q-204 0-249.5-12t-58.5-29.5-21-46.5l-56-229H51l35 393h1096V887h-88l-45 215q-6 29-17.5 48t-60 36.5T725 1204z"/><glyph glyph-name="U" unicode="U" horiz-adv-x="1456" d="M1210 903V424q0-212-131.5-333.5T657-31 301.5 143 236 440v731q0 12-10.5 17.5T182 1198l-106 12-6 70h499l-6-70-106-12q-53-6-54-29V461q0-303 147.5-345T778 74q174 0 262 99t88 261v469q0 191-8 231t-21.5 48-35.5 12l-123 16-6 70h471l-6-70-121-16q-23-4-36-12t-22.5-46-9.5-233z"/><glyph glyph-name="V" unicode="V" horiz-adv-x="1257" d="M1284 1210l-80-14q-25-6-43-16.5t-39-45.5-92-231L715-4H547L143 1151q-8 32-49 39l-123 20-6 70h527l-7-70-116-14q-20-4-29.5-11t-8.5-26 34-117l301-899h18l256 760q83 240 49.5 267.5T928 1200l-78 10-6 70h446z"/><glyph glyph-name="W" unicode="W" horiz-adv-x="1880" d="M1898 1210l-73-14q-25-8-40.5-17.5t-36-46T1663 903L1376-4h-119L961 881h-5L647-4H526L145 1151q-8 32-49 39l-121 20-6 70h527l-7-70-116-14q-39-6-37-34.5t33-119.5l256-831h8l278 790-49 150q-8 32-51 39l-117 20-6 70h520l-6-70-121-14q-35-6-33.5-37t29.5-117l271-833 6 2 207 692q60 185 58.5 225.5t-17 50-41.5 15.5l-107 16-6 70h457z"/><glyph glyph-name="X" unicode="X" horiz-adv-x="1265" d="M762 0l6 70 102 12q47 6 34 40t-68 118L608 582h-8L344 195q-72-98 6-111l90-14 9-70H2l6 70 92 14q37 10 62.5 33.5T225 190l326 453-356 508q-25 35-58 39l-106 20-8 70h509l-6-70-100-12q-51-8-38-41t67-117l198-295h9l225 342q68 98-4 111l-95 12-6 70h443l-6-70-91-14q-37-10-64.5-33.5T1001 1090L711 682l391-553q22-30 57-39l107-20 6-70H762z"/><glyph glyph-name="Y" unicode="Y" horiz-adv-x="1228" d="M709 109q0-12 10-17.5t43-9.5l139-12 6-70H340l6 70 141 12q53 6 54 29v426l-381 602q-35 46-84 57l-84 14-6 70h499l-6-70-102-12q-35-4-31-39t55-119l246-407h10l267 454q60 97-17 113l-78 10-6 70h414l-6-70-62-10q-41-12-71.5-32.5T1030 1090L709 557V109z"/><glyph glyph-name="Z" unicode="Z" horiz-adv-x="1136" d="M68 0v70l806 1126v8H643q-257 0-316-18.5t-73-41-25-57.5l-41-186h-82v379h967v-72L268 82l-2-8 234 2q280 0 344.5 16.5t80 37T950 180l51 203h95L1053 0H68z"/><glyph glyph-name="bracketleft" unicode="[" horiz-adv-x="753" d="M195-451v1784h516v-86H295V-365h416v-86H195z"/><glyph glyph-name="backslash" unicode="\" horiz-adv-x="571" d="M459-432L20 1358h93L551-432h-92z"/><glyph glyph-name="bracketright" unicode="]" horiz-adv-x="753" d="M43-365h416v1612H43v86h516V-451H43v86z"/><glyph glyph-name="asciicircum" unicode="^" d="M621 1040l-209 252h-4l-209-252h-56l228 398h78l227-398h-55z"/><glyph glyph-name="underscore" unicode="_" horiz-adv-x="962" d="M-16-106l6 104h983l6-104H-16z"/><glyph glyph-name="grave" unicode="`" d="M465 1040l-338 377h186l197-377h-45z"/><glyph glyph-name="a" unicode="a" horiz-adv-x="913" d="M225 226q0-58 44.5-100T374 84t108 29.5T582 190l12 308q-291-77-330-145.5T225 226zm357-105Q440-31 337-31q-116 0-188.5 69T76 207q0 126 119.5 207T598 563v19q0 228-80 252t-119 24-67.5-5-52-13.5-38-17.5-14.5-17 20.5-31.5T268 713t-27.5-66-71.5-29-71.5 25T70 707q0 77 128.5 158T431 946t162-19.5T702 840t41-293l-16-391q-4-72 45-72 33 0 105 57l34-45Q810-31 721-31q-55 0-93 36t-38 116h-8z"/><glyph glyph-name="b" unicode="b" horiz-adv-x="1050" d="M303 162Q421 49 539 49t200 104.5T821 431t-76.5 276.5T539 811 303 688V162zM513-31q-101 0-237 47h-4l-92-59h-22v1262q0 33-21 38l-153 46 6 51 313 73V788h8q55 59 132 102.5T606 934q168 0 270.5-127.5T979 477t-94-313T702.5 11 513-31z"/><glyph glyph-name="c" unicode="c" horiz-adv-x="905" d="M498-29q-194 0-311 129.5T70 441t139.5 357T547 944q131 0 212-56.5T840 763t-34-91-80-23-77 51.5-8 128.5v5q-52 36-121 36-132 0-213.5-103T225 495t91.5-282T556 100q147 0 253 125l41-24Q795 90 698.5 30.5T498-29z"/><glyph glyph-name="d" unicode="d" horiz-adv-x="1077" d="M748 737Q628 856 518 856q-134 0-211.5-102.5T229 478t80-278.5T516 94t232 94v549zM551 938q102 0 192-37h5v359q0 31-19 36l-160 37 9 49 315 45V127q0-33 20-39l146-33-6-49-305-37v137h-7Q616-29 452-29T179 102 70 440t99 312.5T358.5 898 551 938z"/><glyph glyph-name="e" unicode="e" horiz-adv-x="935" d="M467 610h223q8 121-44 191.5T504 872t-167.5-73T236 608q131 2 231 2zm31-639q-194 0-311 129.5T70 440t136 357 333 147q145 0 230-82t85-215q0-53-10-108l-617 8q-2-6-2-11v-38q0-177 91.5-287.5T555 100q148 0 254 125l41-24Q795 90 698.5 30.5T498-29z"/><glyph glyph-name="f" unicode="f" horiz-adv-x="638" d="M342 977v-66h285l-15-94H342V106q0-25 57-28l136-8 6-70H53l6 70 86 8q51 2 52 31v704l-172 8 12 90h149l2 52q8 202 132.5 333T612 1427q72 0 125.5-33.5T791 1311t-26-74-66-25-78 36.5-50 101.5l-51 4q-178-72-178-377z"/><glyph glyph-name="g" unicode="g" horiz-adv-x="940" d="M160-219q0-59 23.5-99t63.5-68 94-42 150-14 178.5 63.5T752-219q0 175-222 182h-12l-225-4q-45-17-89-68t-44-110zm479 833q0 145-74 213-55 51-139 51t-140.5-68.5T229 649q0-169 88-248 53-43 127-43t121 45q74 66 74 211zM317 305q-96-47-96-117 0-30 36-57t93-27h32l206 5q136 0 218.5-76.5T889-139q0-176-143-277.5T383-518q-166 0-264.5 67.5T20-274q0 158 193 241v8q-57 10-94 53.5T82 128t50 108.5T248 319q0 6 2 7-76 34-125 106T76 592q0 156 102 254t260 98q114 0 230-51l278-2V772l-219 39v-10q64-77 64-164 0-151-105-247.5T430 293q-71 0-113 12z"/><glyph glyph-name="h" unicode="h" horiz-adv-x="1081" d="M659 944q107 0 177-70t71-223V109q0-12 10.5-19.5T969 78l80-8 6-70H621l6 70 84 8q33 2 42 9t9 22v446q0 152-52.5 208T552 819 322 717V106q0-25 55-28l94-8 6-70H35l6 70 82 8q51 2 51 31v1105q0 37-22 43L8 1303l6 51 308 73V797h10q174 147 327 147z"/><glyph glyph-name="i" unicode="i" horiz-adv-x="544" d="M201 109v575q0 72-10.5 89.5T167 797t-36 12l-82 12 4 56 293 67V106q0-25 57-28l86-8 7-70H57l6 70 87 8q51 2 51 31zm155 1135q0-46-25.5-81t-78.5-35-79 35-26 80 26 80 79 35 78.5-34 25.5-80z"/><glyph glyph-name="j" unicode="j" horiz-adv-x="516" d="M195-164v848q0 70-10.5 88.5t-24 24.5-35.5 12l-82 12 4 56 293 67V-68q-11-209-107.5-338T16-535q-59 0-103 30t-44 81 30.5 79 67.5 28q94 0 129-121 99 30 99 274zm155 1408q0-46-25.5-81t-78.5-35-79 35-26 80 26 80 79 35 78.5-34 25.5-80z"/><glyph glyph-name="k" unicode="k" horiz-adv-x="993" d="M322 106q0-12 10-18t45-10l80-8 6-70H35l6 70 82 8q29 4 40 9t11 22v1105q0 37-22 43L8 1303l6 51 308 73V463l217 203q47 43 80.5 77.5T653 798q0 32-57 42l-66 6-6 67h426l-6-67-51-8q-58-6-209-142L518 545l293-400q23-29 40-47t40-20l80-8 6-70H713L606 174 414 451l-92-84V106z"/><glyph glyph-name="l" unicode="l" horiz-adv-x="546" d="M199 1214q0 37-23 43l-149 46 6 51 311 73V106q0-25 57-28l86-8 7-70H55l6 70 86 8q51 2 52 31v1105z"/><glyph glyph-name="m" unicode="m" horiz-adv-x="1654" d="M1225 944q105 0 177-70 71-70 71-219V109q0-12 9-19.5t50-11.5l80-8 6-70h-430l6 70 80 8q33 2 42 9t9 22v452q0 205-73.5 231.5T1126 819t-114-32.5T907 715l1-15 1-591q0-12 9.5-19.5T969 78l86-8 6-70H625l6 70 80 8q33 2 42 9t9 22v452q0 206-74 232t-115 26q-110 0-227-100V106q0-25 55-28l99-8 6-70H59l7 70 81 8q51 2 52 31v575q0 72-10.5 89.5T165 797t-34 12l-82 12 2 56 295 67V797h6q169 147 314 147 100 0 165-61 41-41 60-101h8q176 162 326 162z"/><glyph glyph-name="n" unicode="n" horiz-adv-x="1110" d="M684 944q105 0 177-70 71-70 71-223V109q0-12 10-19.5T993 78l82-8 6-70H645l6 70 84 8q33 2 42 9t9 22v446q0 152-52 208t-157 56-231-102V106q0-25 55-28l95-8 6-70H59l7 70 81 8q51 2 52 31v579q0 71-11.5 90T135 809l-86 12 2 56 295 67V797h10q174 147 328 147z"/><glyph glyph-name="o" unicode="o" horiz-adv-x="1060" d="M831 430q0 98-26.5 195.5T735 767q-97 99-217 99T315.5 763 233 498q0-250 113-367 82-82 201-82t201.5 101.5T831 430zm160 45q0-104-35.5-197.5t-99-162T705.5 8 518-31 335 6 193.5 107.5t-90 152.5T72 452.5 108.5 647t101 156.5 152 103.5T547 944t180-35 140.5-97 91-147.5T991 475z"/><glyph glyph-name="p" unicode="p" horiz-adv-x="1073" d="M844 478q0 216-106.5 274.5T569 811q-136 0-243-123V162Q444 49 562 49t200 106.5T844 478zM532-31Q425-31 330 6h-4v-403q0-26 57-29l106-8 7-70H37l6 70 84 8q51 2 51 31V688q0 71-10.5 89.5T115 809l-86 12 4 56 293 67V788h8q55 59 132 102.5T629 934q169 0 270.5-128T1001 476q0-203-130-355T532-31z"/><glyph glyph-name="q" unicode="q" horiz-adv-x="1052" d="M748 737Q628 856 518 856q-134 0-211.5-102.5T229 478t80-278.5T516 94t232 94v549zM559 938q110 0 215-49h4l92 57h23V-395q0-12 10-19.5t51-11.5l82-8 6-70H584l6 70 106 8q33 2 42.5 9t9.5 22v501h-7Q616-29 452-29T179 102 70 440t137 352.5T559 938z"/><glyph glyph-name="r" unicode="r" horiz-adv-x="757" d="M645 737q-55 0-90 66-42-24-108-94.5T346 567V106q0-25 55-28l109-8 6-70H59l7 70 81 8q51 2 52 31v579q0 71-11.5 90T135 809l-84 12 4 56 291 67V678h8q90 148 137.5 194t79 60 75.5 14 74-30.5 30-73.5-25-74-80-31z"/><glyph glyph-name="s" unicode="s" horiz-adv-x="823" d="M437 948q89 0 188-33l61 21 16-287h-90l-39 178q-76 50-159 50-82 0-130-41.5T236 744t16-76.5 52-52T426 558q162-59 235.5-120T735 257q0-119-95-203.5T383-31 113 12l-13 264h93l43-182q74-53 160-53t148 49 62 134-92 122-140 54q-121 43-194.5 104.5T106 679t86.5 191T437 948z"/><glyph glyph-name="t" unicode="t" horiz-adv-x="702" d="M662 86Q550-31 383-31q-86 0-151.5 62.5T168 236l12 577-162 8 2 60 140 84 96 129 72-9-2-174h331l-14-94H326l-13-545Q306 86 473 86q78 0 176 53z"/><glyph glyph-name="u" unicode="u" horiz-adv-x="1077" d="M523 94q107 0 229 105v608q0 14-10.5 20.5T696 838l-102 8-6 67h311V127q0-33 19-39l147-33-6-49-307-37v150h-11Q564-31 414-31q-106 0-172 68-76 72-76 225l4 545q0 23-12.5 23.5T104 838l-77 8-7 67h306l-15-553q0-154 52.5-210T523 94z"/><glyph glyph-name="v" unicode="v" horiz-adv-x="942" d="M971 846l-68-15q-34-4-51-22.5T811 723L528-14H426L115 772q-14 33-28.5 43T35 831l-64 13-8 69h428l-6-67-76-10q-25-4-36-15.5t-1-40.5l242-626 211 577q18 51 15 73.5T696 831l-80 15-6 67h367z"/><glyph glyph-name="w" unicode="w" horiz-adv-x="1413" d="M1438 846l-64-10q-35-4-54-25t-42-88L1040-14H940L717 582 481-14H381L111 772q-10 33-24.5 45T39 834l-62 10-6 69h410l-6-67-68-10q-58-9-39-60l207-614 199 524-31 86q-12 33-27.5 44T565 831l-63 15-6 67h415l-6-67-65-10q-60-9-41-60l221-618 172 563q16 55 9 81.5t-54 33.5l-64 10-6 67h367z"/><glyph glyph-name="x" unicode="x" horiz-adv-x="974" d="M561 0l6 68 60 12q35 8 36 25.5T633 168L467 395h-2L291 170q-35-47-36-66.5T295 80l67-12 7-68H-6l6 68 70 12q33 4 56.5 25.5T197 180l221 269-221 286q-41 53-66 72.5T72 831l-60 15-6 67h418l-6-67-60-12q-35-4-33.5-22.5T358 748l148-203h2l154 200q35 45 35.5 64.5T657 834l-67 12-6 67h379l-7-67-69-12q-39-4-61.5-25T758 735L555 492l238-312q41-53 65.5-72.5T913 82l58-12 6-70H561z"/><glyph glyph-name="y" unicode="y" horiz-adv-x="925" d="M180-328q80 0 117-73 47 21 90 157l78 224v2L109 772q-14 31-26.5 42T31 831l-60 13-8 69h422l-6-67-70-10q-56-5-35-56l254-604 195 555q16 53 9 74.5T684 831l-76 15-6 67h371l-6-67-68-15q-33-4-50.5-23.5T805 723L555 43l-98-311q-43-133-96-201t-129-68-112 30-36 75 23.5 74.5T180-328z"/><glyph glyph-name="z" unicode="z" horiz-adv-x="917" d="M328 72q223 0 280.5 14t79 35.5T723 176l76 170h86L803 0H57v61l592 783h-65q-228 0-279-15.5t-67.5-36T215 739l-33-172H92v346h737v-61L240 72h88z"/><glyph glyph-name="braceleft" unicode="{" horiz-adv-x="681" d="M227-170q0 66 18.5 116t40 94 39 88 17.5 92q0 85-77.5 122.5T74 385l-23 57 23 56q268 11 268 159 0 53-17.5 97.5t-39 89.5-40 95-18.5 116q0 137 100.5 216t288.5 91v-68q-123-10-187-65t-64-117 18-106.5 57-127T479 723q0-119-86-192.5T217 453v-25q89-4 175.5-79.5T479 180 440 5.5 383-120t-18-87q0-84 68.5-140T616-414v-63q-188 10-288.5 90T227-170z"/><glyph glyph-name="bar" unicode="|" horiz-adv-x="567" d="M238 1409h90V-381h-90v1790z"/><glyph glyph-name="braceright" unicode="}" horiz-adv-x="681" d="M340 220q0-48 18.5-92T416 4t39-174q0-137-100.5-217T66-477v63q121 10 186 68t65 120-17 106T243 7.5 203 160q0 112 86.5 188T465 428v25q-90 4-176 78t-86 171q0 66 18.5 117t40 96.5 38.5 90 17 106.5-65.5 117T66 1294v68q188-12 288.5-91T455 1055q0-93-39-174.5t-57.5-125T340 662q0-153 268-164l23-56-23-57q-268-11-268-165z"/><glyph glyph-name="asciitilde" unicode="~" d="M274 594q73 0 141-50t102-74 64-24 53 27 54 107h53q-20-117-67-178.5T552 340t-145.5 51T303 464.5 240 487t-54-26.5T131 354H78q40 240 196 240z"/><glyph glyph-name="exclamdown" unicode="¡" horiz-adv-x="575" d="M305-31h-31q-55 0-70.5 21.5T193 45l75 829q2 12 20.5 12.5T309 874l78-829q4-33-11.5-54.5T305-31zm98 1224q0-46-30.5-80t-82.5-34-86 34-34 80 34 81 86 35 82.5-35 30.5-81z"/><glyph glyph-name="cent" unicode="¢" horiz-adv-x="903" d="M225 482q0-108 53.5-208T422 129l190 715q-43 22-104 22t-112.5-24.5T306 771t-59.5-113.5T225 482zM555 98q146 0 256 127l41-22Q793 90 698.5 29.5T489-31h-13q-13 0-21 2l-84-311h-74l86 326Q245 21 157.5 151.5T70 446q0 218 140 358t337 140q48 0 90-8 3 0 98 364h74L707 915q129-59 129-159 0-41-27-65.5T754 666q-68 0-99 59L489 106q27-8 66-8z"/><glyph glyph-name="sterling" unicode="£" horiz-adv-x="946" d="M266 830q0 204 108.5 332T672 1290q100 0 159.5-41t59.5-112q0-41-28.5-69t-73.5-28-76 40-19 104q-42 26-87 26-93 0-141-73t-48-252q0-65 10-275h334l6-80H430q2-23 2-28v-62q-4-159-70-272v-10q29-6 135.5-41T677 82t103 35q46 46 88 155l45-12q5-124-58-216.5T666-49q-125 0-220.5 73.5T322 117Q218-14 31-55L8 14q154 47 214.5 140.5T283 383q0 71-4 147H72l6 80h196q-8 122-8 220z"/><glyph glyph-name="currency" unicode="¤" horiz-adv-x="1056" d="M164 603q0 43 4 87H43l6 80h129q40 231 183.5 372.5T707 1284q128 0 217.5-50t89.5-120q0-39-24.5-65.5T918 1022t-78 46-39 101q-53 33-129 33-143 0-232.5-117.5T328 770h424l6-80H322v-49q0-68 6-127h424l6-80H342q41-174 137-260t217-86q163 0 289 152l41-23Q897-31 645-31 474-31 348.5 94.5T180 434H43l6 80h119q-4 46-4 89z"/><glyph glyph-name="yen" unicode="¥" horiz-adv-x="1253" d="M715 545V371h381l6-82H715V127q0-31 37-37l159-20 7-70H354l6 70 160 20q37 6 37 37v162H180l6 82h371v174H180l6 82h332l-321 512q-28 45-84 57l-86 14-7 70h488l-6-70-103-12q-35-4-30.5-39t57.5-119l233-389h9l247 436q29 53 24 79t-42 34l-78 10-6 70h412l-6-70-60-10q-41-12-71.5-32.5T1022 1090L750 627h346l6-82H715z"/><glyph glyph-name="brokenbar" unicode="¦" horiz-adv-x="962" d="M362 45q240 0 240 344v764q0 31-35 37l-159 20-7 70h549l-6-70-137-20q-35-6-35-37V430q0-231-115-347T368-33 102 35.5 10 195q0 57 33 89.5t76 32.5 72.5-25.5T221 214t-39-89q16-27 60.5-53.5T362 45z"/><glyph glyph-name="section" unicode="§" horiz-adv-x="880" d="M172 731q0-76 56-130t126-99 139.5-89T612 313q95 58 95 148t-90 159-196 133-153 119q-39-23-67.5-61.5T172 731zm645-221q0-72-51-135.5T643 274q43-62 43-126 0-116-89-198.5T373-133q-88 0-157 40T147 14q0 41 26 66.5t70 25.5q91 0 122-145 29-14 85-14t89.5 36.5T573 74q0 87-60 143T368 326 172 451 61 657q0 91 51.5 154T236 911q-43 69-43 129 0 109 87.5 189t213.5 80q89 0 157-40.5t68-107.5q0-41-25.5-66.5T624 1069t-76 38-46 107q-31 14-78 14t-83-32.5-36-84.5q0-84 60-139.5T510 863q86-54 134-86t87-68.5 62.5-81.5T817 510z"/><glyph glyph-name="dieresis" unicode="¨" d="M317 1223q0-47-29.5-84t-82.5-37-83 37-30 84 30 83.5 83 36.5 82.5-36.5T317 1223zm410 0q0-47-29.5-84t-83-37-83 37-29.5 84 29.5 83.5 83 36.5 83-36.5T727 1223z"/><glyph glyph-name="copyright" unicode="©" horiz-adv-x="1503" d="M778 258q-182 0-285.5 103.5T389 632t106.5 277.5T772 1020q101 0 166-23l92 23V760h-53l-43 151q-65 43-146 43-137 0-210.5-80T504 652t74.5-236T793 322q83 0 129 32l63 162h55l-26-242-58 13q-84-29-178-29zm570 381q0 123-47.5 233.5t-128 192.5T983 1195t-231.5 48-231-48T331 1065 203 872.5 156 639t47-232.5T331 215 520.5 85t231-48T983 85t189.5 130 128 191.5T1348 639zm73 0q0-139-52-261t-143-213-213-143.5T751.5-31t-261 52.5-213 143.5T134 378 82 639t52 261 143.5 213 213 144.5 261 53.5 261.5-53.5 213-144.5 143-213 52-261z"/><glyph glyph-name="ordfeminine" unicode="ª" horiz-adv-x="692" d="M190 799q0-53 29-84t70-31q77 0 149 64l6 200q-254-53-254-149zm37-213q-63 0-115.5 43T59 745q0 98 100.5 157T446 995l3 68q6 80-43.5 126T302 1235t-86-15.5-32-25.5q0-4 12.5-22.5T209 1125t-19.5-46-54.5-18-56.5 20.5T57 1134q0 59 102.5 115t211.5 56 160-60.5 47-163.5l-13-327q-2-39 9.5-57.5t44-18.5 71.5 22l6-36q-23-31-63.5-54.5T547 586q-94 0-107 106h-4Q321 586 227 586z"/><glyph glyph-name="guillemotleft" unicode="«" horiz-adv-x="997" d="M512 115L68 410v86l444 295 18-41-297-297 297-297zm383-21L453 410v86l442 315 18-41-315-317 315-318z"/><glyph glyph-name="logicalnot" unicode="¬" horiz-adv-x="913" d="M225 226q0-58 44.5-100T374 84t108 29.5T582 190l12 308q-291-77-330-145.5T225 226zm357-105Q440-31 337-31q-116 0-188.5 69T76 207q0 126 119.5 207T598 563v19q0 228-80 252t-119 24-67.5-5-52-13.5-38-17.5-14.5-17 20.5-31.5T268 713t-27.5-66-71.5-29-71.5 25T70 707q0 77 128.5 158T431 946t162-19.5T702 840t41-293l-16-391q-4-72 45-72 33 0 105 57l34-45Q810-31 721-31q-55 0-93 36t-38 116h-8z"/><glyph glyph-name="registered" unicode="®" horiz-adv-x="1503" d="M911 803q0 150-198 141l-62-2V655l94-10q72 6 119 44t47 114zm119 18q0-154-178-211l145-221q27-33 52-41l69-8 6-59H934l-45 81-141 224-97 4V375q0-20 21-23l88-12 4-59H440l6 59 76 12q20 2 21 23v538q0 20-21 23l-76 12-6 60h324q132 0 199-54.5t67-132.5zm318-182q0 123-47.5 233.5t-128 192.5T983 1195t-231.5 48-231-48T331 1065 203 872.5 156 639t47-232.5T331 215 520.5 85t231-48T983 85t189.5 130 128 191.5T1348 639zm73 0q0-139-52-261t-143-213-213-143.5T751.5-31t-261 52.5-213 143.5T134 378 82 639t52 261 143.5 213 213 144.5 261 53.5 261.5-53.5 213-144.5 143-213 52-261z"/><glyph glyph-name="macron" unicode="¯" d="M160 1104l6 84h493l7-84H160z"/><glyph glyph-name="degree" unicode="°" horiz-adv-x="841" d="M240.5 1172Q174 1099 174 991t66-183 179.5-75 181 76T668 991t-68.5 180-180.5 74-178.5-73zm425-424.5Q571 649 420 649t-245.5 98.5T80 990q0 143 94 241t246 98 246-97.5T760 990t-94.5-242.5z"/><glyph glyph-name="plusminus" unicode="±" horiz-adv-x="1503" d="M956 784.5q0 77.5-51 119.5t-143 40h-66V627q63-11 90-11 78 0 124 45.5t46 123zM790 557q-56 0-94 6V375q0-18 21-23l98-12 2-59H487l5 59 77 12q20 2 21 23v540q0 18-21 21l-77 14-5 58h293q147 0 217-57.5t70-156.5-82.5-168T790 557zm558 82q0 123-47.5 233.5t-128 192.5T983 1195t-231.5 48-231-48T331 1065 203 872.5 156 639t47-232.5T331 215 520.5 85t231-48T983 85t189.5 130 128 191.5T1348 639zm73 0q0-139-52-261t-143-213-213-143.5T751.5-31t-261 52.5-213 143.5T134 378 82 639t52 261 143.5 213 213 144.5 261 53.5 261.5-53.5 213-144.5 143-213 52-261z"/><glyph glyph-name="acute" unicode="´" d="M354 1040h-47l193 377h192z"/><glyph glyph-name="mu" unicode="µ" horiz-adv-x="940" d="M160-219q0-59 23.5-99t63.5-68 94-42 150-14 178.5 63.5T752-219q0 175-222 182h-12l-225-4q-45-17-89-68t-44-110zm479 833q0 145-74 213-55 51-139 51t-140.5-68.5T229 649q0-169 88-248 53-43 127-43t121 45q74 66 74 211zM317 305q-96-47-96-117 0-30 36-57t93-27h32l206 5q136 0 218.5-76.5T889-139q0-176-143-277.5T383-518q-166 0-264.5 67.5T20-274q0 158 193 241v8q-57 10-94 53.5T82 128t50 108.5T248 319q0 6 2 7-76 34-125 106T76 592q0 156 102 254t260 98q114 0 230-51l278-2V772l-219 39v-10q64-77 64-164 0-151-105-247.5T430 293q-71 0-113 12z"/><glyph glyph-name="paragraph" unicode="¶" horiz-adv-x="1011" d="M536 532q-217 0-335.5 105.5T82 915q0 173 119.5 269t322.5 96h312V-66h-99v627q-97-29-201-29z"/><glyph glyph-name="periodcentered" unicode="·" horiz-adv-x="462" d="M360 465q0-49-34.5-88T235 338t-92.5 39-36.5 88 36 86 92 37 91-37 35-86z"/><glyph glyph-name="cedilla" unicode="¸" d="M376-211q-66 0-140-10v35L449 39h81L379-121q117 4 190.5-43T643-305 535.5-464.5 225-547l-16 45q319 45 319 180 0 49-43 80t-109 31z"/><glyph glyph-name="ordmasculine" unicode="º" horiz-adv-x="788" d="M596 892q0 208-84 292-57 57-136 57t-132.5-69.5T190 994q0-206 89-294 49-49 130-49t134 67.5T596 892zm-447.5 308Q248 1305 398 1305t244.5-102.5 94.5-254-96.5-257-251-105.5T142 690 49 944.5t99.5 255.5z"/><glyph glyph-name="guillemotright" unicode="»" horiz-adv-x="997" d="M106 94l-20 41 315 318L86 770l20 41 441-315v-86zm381 21l-18 41 299 297-299 297 18 41 445-295v-86z"/><glyph glyph-name="onequarter" unicode="¼" horiz-adv-x="1228" d="M342 956v-45h432l2 52q12 203 134 333.5t292 130.5q72 0 125-33.5t53-82.5-25.5-74-65.5-25-78 35-50 103l-53 4q-176-72-176-377v-66h282l-14-94H932V106q0-25 57-28l133-8 6-70H643l6 70 84 8q51 6 51 31v710H342V127q0-33 37-39l162-18 6-70H53l6 70 103 18q35 6 35 39v686l-172 8 12 90h149l2 33q20 208 140.5 335.5T612 1407q72 0 125.5-34t53.5-83-26-73.5-66-24.5-77.5 35-50.5 102l-51 4q-178-72-178-377z"/><glyph glyph-name="onehalf" unicode="½" horiz-adv-x="1722" d="M932 977v-66h442v285q-6-2-20-2-103 0-129 129l-117 23q-176-72-176-369zm-590-21v-45h432l2 52q12 209 137.5 336.5T1237 1427q78 0 143-38l140 38V106q0-25 57-28l86-8 6-70h-438l6 70 86 8q51 2 51 31v708H932V106q0-25 57-28l133-8 6-70H643l6 70 84 8q51 6 51 31v710H342V127q0-33 37-39l162-18 6-70H53l6 70 103 18q35 6 35 39v686l-172 8 12 90h149l2 33q20 208 140.5 335.5T612 1407q72 0 125.5-34t53.5-83-26-73.5-66-24.5-77.5 37-50.5 100l-51 4q-178-72-178-377z"/><glyph glyph-name="threequarters" unicode="¾" horiz-adv-x="1718" d="M932 977v-66h356l232 31V106q0-25 57-28l86-8 6-70h-438l6 70 86 8q51 2 51 31v708H932V106q0-25 57-28l133-8 6-70H643l6 70 84 8q51 6 51 31v710H342V127q0-33 37-39l162-18 6-70H53l6 70 103 18q35 6 35 39v686l-172 8 12 90h149l2 33q20 208 140.5 335.5T612 1407q72 0 125.5-34t53.5-83-26-73.5-66-24.5-77.5 37-50.5 100l-51 4q-178-72-178-377v-45h432l2 52q12 209 137.5 336.5T1237 1427q79 0 143-38t64-103q0-41-25.5-66.5T1354 1194q-103 0-129 129l-117 23q-176-72-176-369z"/><glyph glyph-name="questiondown" unicode="¿" horiz-adv-x="731" d="M543 1193q0-46-34-80t-86-34-84 34-32 80 32 81 84 35 86-35 34-81zM625 74q0-44-41-74.5T466-31 318.5-1t-123 77-81 107.5T86 333t53 141.5T264 555q123 48 167 79.5t44 86.5-31.5 97-76.5 83h61q143-111 143-238t-92-170-133-61q-104-44-143-71t-39-72q0-68 87-116t230-48q59 0 125 12 19-19 19-63z"/><glyph glyph-name="Agrave" unicode="À" horiz-adv-x="1202" d="M616 1386l-337 377h186l197-377h-46zm-34-264h-11L377 547h387zM729 0l6 70 117 14q40 8 42 36.5T866 238l-75 225H348l-74-223q-29-84-29.5-116T281 84l102-14 6-70H-33l6 70 82 14q49 13 79 61t93 232l285 803v65l170 72 395-1188q10-33 51-39l121-20 6-70H729z"/><glyph glyph-name="Aacute" unicode="Á" horiz-adv-x="1202" d="M571 1386h-47l193 377h192zm11-264h-11L377 547h387zM729 0l6 70 117 14q40 8 42 36.5T866 238l-75 225H348l-74-223q-29-84-29.5-116T281 84l102-14 6-70H-33l6 70 82 14q49 13 79 61t93 232l285 803v65l170 72 395-1188q10-33 51-39l121-20 6-70H729z"/><glyph glyph-name="Acircumflex" unicode="Â" horiz-adv-x="1202" d="M811 1386l-209 252h-4l-209-252h-55l227 398h78l227-398h-55zm-229-264h-11L377 547h387zM729 0l6 70 117 14q40 8 42 36.5T866 238l-75 225H348l-74-223q-29-84-29.5-116T281 84l102-14 6-70H-33l6 70 82 14q49 13 79 61t93 232l285 803v65l170 72 395-1188q10-33 51-39l121-20 6-70H729z"/><glyph glyph-name="Atilde" unicode="Ã" horiz-adv-x="1202" d="M430 1559q-31 0-54.5-27T322 1425h-54q20 119 67.5 179.5T459 1665t145.5-50 103-73.5T771 1518t53.5 26.5T879 1651h53q-41-240-197-240-68 0-138.5 51t-103 74-63.5 23zm152-437h-11L377 547h387zM729 0l6 70 117 14q40 8 42 36.5T866 238l-75 225H348l-74-223q-29-84-29.5-116T281 84l102-14 6-70H-33l6 70 82 14q49 13 79 61t93 232l285 803v65l170 72 395-1188q10-33 51-39l121-20 6-70H729z"/><glyph glyph-name="Adieresis" unicode="Ä" horiz-adv-x="1202" d="M508 1556.5q0-47.5-29.5-84t-83-36.5-83 36.5-29.5 84 29.5 84 83 36.5 83-36.5 29.5-84zm410 0q0-47.5-30-84t-83-36.5-83 36.5-30 84 30 84 83 36.5 83-36.5 30-84zM582 1122h-11L377 547h387zM729 0l6 70 117 14q40 8 42 36.5T866 238l-75 225H348l-74-223q-29-84-29.5-116T281 84l102-14 6-70H-33l6 70 82 14q49 13 79 61t93 232l285 803v65l170 72 395-1188q10-33 51-39l121-20 6-70H729z"/><glyph glyph-name="Aring" unicode="Å" horiz-adv-x="1202" d="M582 1124h-11L377 547h387zm-47 117q-109 43-109 179 0 66 48 120.5t134 54.5 134.5-54 48.5-130q0-108-86-162l372-1120q10-33 51-39l121-20 6-70H729l6 70 117 14q40 8 42 36.5T866 238l-75 225H348l-74-223q-29-84-29.5-116T281 84l102-14 6-70H-33l6 70 82 14q49 13 79 61t93 232zm196 169q0 52-31.5 91t-89.5 39-90.5-39-32.5-91 32-91 90-39 90 39 32 91z"/><glyph glyph-name="AE" unicode="Æ" horiz-adv-x="1646" d="M756 1194h-19L403 547h353v647zm0-1067v336H360L258 262q-53-108-57-133t4-32 22-11l103-16 6-70h-442l6 70 86 14q53 13 92.5 61T213 379l381 725q43 80-41 94l-88 12-6 70h1079V909h-80l-45 207q-8 31-20.5 48.5t-65 28.5-352.5 11h-62V690h60q134 0 161 5t35.5 12.5T1182 729l47 137h65l-41-426h-65l-14 131q-2 12-7.5 20.5t-33 16.5-164.5 8h-56V76h35q320 0 383.5 12t78.5 29.5 24 46.5l51 198h92L1538 0H588l6 70 125 20q37 6 37 37z"/><glyph glyph-name="Ccedilla" unicode="Ç" horiz-adv-x="1366" d="M740-211q-65 0-142-10v35L745-29Q463-17 278.5 157T94 632q0 300 201.5 488.5T801 1309q159 0 284-39l156 33V887h-86l-53 266q-130 76-314 76-222 0-364.5-162.5T281 641q0-262 140-428T811 47q151 0 264 62l86 276h90L1202-2l-94 20Q976-23 827-31l-86-90q117 4 191-43t74-141-107.5-159.5T588-547l-17 45q320 45 320 180 0 49-43 80t-108 31z"/><glyph glyph-name="Egrave" unicode="È" horiz-adv-x="1193" d="M639 1386l-338 377h186l197-377h-45zM252 111v1060q0 12-10.5 17.5T199 1198l-107 12-6 70h983V909h-88l-45 207q-8 31-21.5 48.5t-66 28.5-350.5 11h-78V690h78q130 0 157 5t36 12.5 14 21.5l45 137h71l-43-426h-67l-17 131q0 26-32.5 35.5T494 616h-74V76h55q315 0 377.5 12t78 29.5T956 164l52 198h100L1069 0H86l6 70 107 12q53 6 53 29z"/><glyph glyph-name="Eacute" unicode="É" horiz-adv-x="1193" d="M586 1386h-47l192 377h193zM252 111v1060q0 12-10.5 17.5T199 1198l-107 12-6 70h983V909h-88l-45 207q-8 31-21.5 48.5t-66 28.5-350.5 11h-78V690h78q130 0 157 5t36 12.5 14 21.5l45 137h71l-43-426h-67l-17 131q0 26-32.5 35.5T494 616h-74V76h55q315 0 377.5 12t78 29.5T956 164l52 198h100L1069 0H86l6 70 107 12q53 6 53 29z"/><glyph glyph-name="Ecircumflex" unicode="Ê" horiz-adv-x="1193" d="M809 1386l-209 252h-4l-209-252h-55l227 398h78l227-398h-55zM252 111v1060q0 12-10.5 17.5T199 1198l-107 12-6 70h983V909h-88l-45 207q-8 31-21.5 48.5t-66 28.5-350.5 11h-78V690h78q130 0 157 5t36 12.5 14 21.5l45 137h71l-43-426h-67l-17 131q0 26-32.5 35.5T494 616h-74V76h55q315 0 377.5 12t78 29.5T956 164l52 198h100L1069 0H86l6 70 107 12q53 6 53 29z"/><glyph glyph-name="Edieresis" unicode="Ë" horiz-adv-x="1193" d="M506 1556.5q0-47.5-30-84t-83-36.5-82.5 36.5-29.5 84 29.5 84T393 1677t83-36.5 30-84zm409 0q0-47.5-29.5-84T803 1436t-83 36.5-30 84 30 84 83 36.5 82.5-36.5 29.5-84zM252 111v1060q0 12-10.5 17.5T199 1198l-107 12-6 70h983V909h-88l-45 207q-8 31-21.5 48.5t-66 28.5-350.5 11h-78V690h78q130 0 157 5t36 12.5 14 21.5l45 137h71l-43-426h-67l-17 131q0 26-32.5 35.5T494 616h-74V76h55q315 0 377.5 12t78 29.5T956 164l52 198h100L1069 0H86l6 70 107 12q53 6 53 29z"/><glyph glyph-name="Igrave" unicode="Ì" horiz-adv-x="718" d="M354 1386L16 1763h187l196-377h-45zM276 111v1060q0 12-10 17.5t-43 9.5l-127 12-6 70h541l-6-70-127-12q-53-6-54-29V109q0-20 54-27l127-12 6-70H90l6 70 127 12q53 6 53 29z"/><glyph glyph-name="Iacute" unicode="Í" horiz-adv-x="718" d="M369 1386h-47l192 377h193zM276 111v1060q0 12-10 17.5t-43 9.5l-127 12-6 70h541l-6-70-127-12q-53-6-54-29V109q0-20 54-27l127-12 6-70H90l6 70 127 12q53 6 53 29z"/><glyph glyph-name="Icircumflex" unicode="Î" horiz-adv-x="718" d="M569 1386l-209 252h-4l-209-252H92l227 398h78l228-398h-56zM276 111v1060q0 12-10 17.5t-43 9.5l-127 12-6 70h541l-6-70-127-12q-53-6-54-29V109q0-20 54-27l127-12 6-70H90l6 70 127 12q53 6 53 29z"/><glyph glyph-name="Idieresis" unicode="Ï" horiz-adv-x="718" d="M266 1563q0-47-29.5-84t-83-37-83 37-29.5 84 29.5 83.5 83 36.5 83-36.5T266 1563zm410 0q0-47-30-84t-83-37-82.5 37-29.5 84 29.5 83.5T563 1683t83-36.5 30-83.5zM276 111v1060q0 12-10 17.5t-43 9.5l-127 12-6 70h541l-6-70-127-12q-53-6-54-29V109q0-20 54-27l127-12 6-70H90l6 70 127 12q53 6 53 29z"/><glyph glyph-name="Eth" unicode="Ð" horiz-adv-x="1370" d="M252 694v459q0 31-37 37l-125 20-6 70 444 6q338 4 548-171t210-461-193.5-470T526 0H84l6 70 125 20q37 6 37 37v487H68l6 80h178zm158-80V102l165-26q247-4 393 148t146 407-163 415-464 160h-77V694h254l6-80H410z"/><glyph glyph-name="Ntilde" unicode="Ñ" horiz-adv-x="1505" d="M925 1518q30 0 53 26.5t54 106.5h53q-20-117-67-178.5T896 1411t-145.5 51-103.5 74-63 23-54-27-55-107h-53q40 240 196 240 73 0 141-50t102-73.5 64-23.5zm339-615V-16h-99L360 1110h-8V377q0-193 8.5-232T382 98t36-12l123-16 6-70H76l6 70 123 16q23 4 36 12t21 48 8 231v676q0 66-14 94.5t-49 44.5l-117 18-6 70h354l738-1032h6v655q0 193-8.5 232t-21.5 47-36 12l-123 16-6 70h473l-6-70-123-16q-23-4-36-12t-22-46.5-9-232.5z"/><glyph glyph-name="Ograve" unicode="Ò" horiz-adv-x="1513" d="M791 1386l-338 377h186l197-377h-45zm442-760q0 272-141 439.5T752 1233t-335-157-136-431 141.5-439T761 41t334.5 156.5T1233 626zm186 24q0-142-50-265t-139-215-211-146.5T755-31q-285 0-473 184T94 629q0 137 50.5 260T336 1159.5 760 1307q282 0 420.5-135.5T1369 914t50-264z"/><glyph glyph-name="Oacute" unicode="Ó" horiz-adv-x="1513" d="M700 1386h-47l193 377h192zm533-760q0 272-141 439.5T752 1233t-335-157-136-431 141.5-439T761 41t334.5 156.5T1233 626zm186 24q0-142-50-265t-139-215-211-146.5T755-31q-285 0-473 184T94 629q0 137 50.5 260T336 1159.5 760 1307q282 0 420.5-135.5T1369 914t50-264z"/><glyph glyph-name="Ocircumflex" unicode="Ô" horiz-adv-x="1513" d="M967 1386l-209 252h-4l-209-252h-56l228 398h78l227-398h-55zm266-760q0 272-141 439.5T752 1233t-335-157-136-431 141.5-439T761 41t334.5 156.5T1233 626zm186 24q0-142-50-265t-139-215-211-146.5T755-31q-285 0-473 184T94 629q0 137 50.5 260T336 1159.5 760 1307q282 0 420.5-135.5T1369 914t50-264z"/><glyph glyph-name="Otilde" unicode="Õ" horiz-adv-x="1513" d="M1087 1651q-41-240-189-240-75 0-145.5 51T649 1536t-63 23-54-27-55-107h-53q20 119 67.5 179.5T616 1665t145-50 102-73.5 64-23.5 53.5 26.5T1034 1651h53zm146-1025q0 272-141 439.5T752 1233t-335-157-136-431 141.5-439T761 41t334.5 156.5T1233 626zm186 24q0-142-50-265t-139-215-211-146.5T755-31q-285 0-473 184T94 629q0 137 50.5 260T336 1159.5 760 1307q282 0 420.5-135.5T1369 914t50-264z"/><glyph glyph-name="Odieresis" unicode="Ö" horiz-adv-x="1513" d="M664 1556.5q0-47.5-30-84t-83-36.5-83 36.5-30 84 30 84 83 36.5 83-36.5 30-84zm409 0q0-47.5-29.5-84t-83-36.5-83 36.5-29.5 84 29.5 84 83 36.5 83-36.5 29.5-84zM1233 626q0 272-141 439.5T752 1233t-335-157-136-431 141.5-439T761 41t334.5 156.5T1233 626zm186 24q0-142-50-265t-139-215-211-146.5T755-31q-285 0-473 184T94 629q0 137 50.5 260T336 1159.5 760 1307q282 0 420.5-135.5T1369 914t50-264z"/><glyph glyph-name="multiply" unicode="×" horiz-adv-x="995" d="M846 57L502 403 156 57l-76 76 346 346L80 823l76 76 346-346 346 348 76-76-349-346 347-346z"/><glyph glyph-name="Oslash" unicode="Ø" horiz-adv-x="1513" d="M1217 624q0 142-48.5 262T1042 1085Q884 818 715.5 525T514 178l-25-41q119-82 261-82 204 0 335.5 151T1217 624zm-498 603q-201 0-333-153.5T254 666q0-302 176-478l553 949q-115 90-264 90zM86 603q0 307 180 506.5T735 1309q170 0 307-72l99 172h90l-121-209q127-86 200.5-226t73.5-300-45-283-129-216-204.5-149.5T729-31 432 37q-14-27-108-189h-91L365 76q-129 84-204 225T86 603z"/><glyph glyph-name="Ugrave" unicode="Ù" horiz-adv-x="1456" d="M760 1386l-338 377h186l197-377h-45zm450-483V424q0-212-131.5-333.5T657-31 301.5 143 236 440v731q0 12-10.5 17.5T182 1198l-106 12-6 70h499l-6-70-106-12q-53-6-54-29V461q0-303 147.5-345T778 74q174 0 262 99t88 261v469q0 191-8 231t-21.5 48-35.5 12l-123 16-6 70h471l-6-70-121-16q-23-4-36-12t-22.5-46-9.5-233z"/><glyph glyph-name="Uacute" unicode="Ú" horiz-adv-x="1456" d="M731 1386h-47l193 377h192zm479-483V424q0-212-131.5-333.5T657-31 301.5 143 236 440v731q0 12-10.5 17.5T182 1198l-106 12-6 70h499l-6-70-106-12q-53-6-54-29V461q0-303 147.5-345T778 74q174 0 262 99t88 261v469q0 191-8 231t-21.5 48-35.5 12l-123 16-6 70h471l-6-70-121-16q-23-4-36-12t-22.5-46-9.5-233z"/><glyph glyph-name="Ucircumflex" unicode="Û" horiz-adv-x="1456" d="M967 1386l-209 252h-4l-209-252h-56l228 398h78l227-398h-55zm243-483V424q0-212-131.5-333.5T657-31 301.5 143 236 440v731q0 12-10.5 17.5T182 1198l-106 12-6 70h499l-6-70-106-12q-53-6-54-29V461q0-303 147.5-345T778 74q174 0 262 99t88 261v469q0 191-8 231t-21.5 48-35.5 12l-123 16-6 70h471l-6-70-121-16q-23-4-36-12t-22.5-46-9.5-233z"/><glyph glyph-name="Udieresis" unicode="Ü" horiz-adv-x="1456" d="M635 1556.5q0-47.5-30-84t-83-36.5-82.5 36.5-29.5 84 29.5 84T522 1677t83-36.5 30-84zm409 0q0-47.5-29.5-84T932 1436t-83 36.5-30 84 30 84 83 36.5 82.5-36.5 29.5-84zM1210 903V424q0-212-131.5-333.5T657-31 301.5 143 236 440v731q0 12-10.5 17.5T182 1198l-106 12-6 70h499l-6-70-106-12q-53-6-54-29V461q0-303 147.5-345T778 74q174 0 262 99t88 261v469q0 191-8 231t-21.5 48-35.5 12l-123 16-6 70h471l-6-70-121-16q-23-4-36-12t-22.5-46-9.5-233z"/><glyph glyph-name="Yacute" unicode="Ý" horiz-adv-x="1239" d="M565 1393h-47l193 376h192zM709 109q0-12 10-17.5t43-9.5l139-12 6-70H340l6 70 141 12q53 6 54 29v426l-381 602q-35 46-84 57l-84 14-6 70h499l-6-70-102-12q-35-4-31-39t55-119l246-407h10l267 454q60 97-17 113l-78 10-6 70h414l-6-70-62-10q-41-12-71.5-32.5T1030 1090L709 557V109z"/><glyph glyph-name="Thorn" unicode="Þ" horiz-adv-x="1181" d="M600 344q147 0 227 79t80 225-99 228-282 78H420V365q90-21 180-21zm10-74q-86 0-190 11V109q0-12 11-17.5t42-9.5l145-12 7-70H86l6 70 107 12q53 6 53 29v1060q0 12-10.5 17.5T199 1198l-107 12-6 70h500l-6-70-107-12q-53-7-53-29v-137h162q244 0 374.5-98.5T1087 662 982 406.5 786.5 297 610 270z"/><glyph glyph-name="germandbls" unicode="ß" horiz-adv-x="1349" d="M953 948q91 0 184-33l63 21 17-287h-93l-39 178q-76 50-158 50-81 0-129-41.5T750 744t16-76.5 54.5-54T941 557q158-56 233-119t75-181q0-119-95-203.5T898-31 625 12l-13 264h93l45-182q74-53 160-53t148 49 62 134-92 122-140 54q-121 43-194 104t-73 175q0 113 86 191t246 78zm-611 29V106q0-25 57-28l99-8 6-70H53l6 70 86 8q51 2 52 31v704l-172 8 12 90h149l2 52q8 202 132.5 333T612 1427q72 0 125.5-33.5T791 1311t-26-74-66-25-78 36.5-50 101.5l-51 4q-178-72-178-377z"/><glyph glyph-name="agrave" unicode="à" horiz-adv-x="899" d="M225 226q0-58 44.5-100T374 84t108 29.5T582 190l12 308q-291-77-330-145.5T225 226zm357-105Q440-31 337-31q-116 0-188.5 69T76 207q0 126 119.5 207T598 563v19q0 228-80 252t-119 24-67.5-5-52-13.5-38-17.5-14.5-17 20.5-31.5T268 713t-27.5-66-71.5-29-71.5 25T70 707q0 77 128.5 158T431 946t162-19.5T702 840t41-293l-16-391q-4-72 45-72 33 0 105 57l34-45Q810-31 721-31q-55 0-93 36t-38 116h-8zm-115 919l-338 377h186l197-377h-45z"/><glyph glyph-name="aacute" unicode="á" horiz-adv-x="899" d="M395 1040h-47l193 377h192zM225 226q0-58 44.5-100T374 84t108 29.5T582 190l12 308q-291-77-330-145.5T225 226zm357-105Q440-31 337-31q-116 0-188.5 69T76 207q0 126 119.5 207T598 563v19q0 228-80 252t-119 24-67.5-5-52-13.5-38-17.5-14.5-17 20.5-31.5T268 713t-27.5-66-71.5-29-71.5 25T70 707q0 77 128.5 158T431 946t162-19.5T702 840t41-293l-16-391q-4-72 45-72 33 0 105 57l34-45Q810-31 721-31q-55 0-93 36t-38 116h-8z"/><glyph glyph-name="acircumflex" unicode="â" horiz-adv-x="899" d="M625 1040l-209 252h-4l-209-252h-56l228 398h78l227-398h-55zM225 226q0-58 44.5-100T374 84t108 29.5T582 190l12 308q-291-77-330-145.5T225 226zm357-105Q440-31 337-31q-116 0-188.5 69T76 207q0 126 119.5 207T598 563v19q0 228-80 252t-119 24-67.5-5-52-13.5-38-17.5-14.5-17 20.5-31.5T268 713t-27.5-66-71.5-29-71.5 25T70 707q0 77 128.5 158T431 946t162-19.5T702 840t41-293l-16-391q-4-72 45-72 33 0 105 57l34-45Q810-31 721-31q-55 0-93 36t-38 116h-8z"/><glyph glyph-name="atilde" unicode="ã" horiz-adv-x="899" d="M248 1212q-31 0-54.5-26.5T139 1079H86q20 119 67.5 179.5T277 1319t145.5-50 103-74 63.5-24 53.5 27 53.5 107h54q-41-240-197-240-68 0-138.5 51t-103 73.5T248 1212zm-23-986q0-58 44.5-100T374 84t108 29.5T582 190l12 308q-291-77-330-145.5T225 226zm357-105Q440-31 337-31q-116 0-188.5 69T76 207q0 126 119.5 207T598 563v19q0 228-80 252t-119 24-67.5-5-52-13.5-38-17.5-14.5-17 20.5-31.5T268 713t-27.5-66-71.5-29-71.5 25T70 707q0 77 128.5 158T431 946t162-19.5T702 840t41-293l-16-391q-4-72 45-72 33 0 105 57l34-45Q810-31 721-31q-55 0-93 36t-38 116h-8z"/><glyph glyph-name="adieresis" unicode="ä" horiz-adv-x="899" d="M338 1223q0-47-29.5-84t-83-37-83 37-29.5 84 29.5 83.5 83 36.5 83-36.5T338 1223zm410 0q0-47-30-84t-83-37-83 37-30 84 30 83.5 83 36.5 83-36.5 30-83.5zM225 226q0-58 44.5-100T374 84t108 29.5T582 190l12 308q-291-77-330-145.5T225 226zm357-105Q440-31 337-31q-116 0-188.5 69T76 207q0 126 119.5 207T598 563v19q0 228-80 252t-119 24-67.5-5-52-13.5-38-17.5-14.5-17 20.5-31.5T268 713t-27.5-66-71.5-29-71.5 25T70 707q0 77 128.5 158T431 946t162-19.5T702 840t41-293l-16-391q-4-72 45-72 33 0 105 57l34-45Q810-31 721-31q-55 0-93 36t-38 116h-8z"/><glyph glyph-name="aring" unicode="å" horiz-adv-x="899" d="M563 1240q0 52-31.5 91t-89 39-89-39-31.5-91 31.5-91 89-39 89 39 31.5 91zm62-1q0-76-48.5-130T442 1055t-134 54-48 130 48 130 134 54 134.5-54 48.5-130zM225 226q0-58 44.5-100T374 84t108 29.5T582 190l12 308q-291-77-330-145.5T225 226zm357-105Q440-31 337-31q-116 0-188.5 69T76 207q0 126 119.5 207T598 563v19q0 228-80 252t-119 24-67.5-5-52-13.5-38-17.5-14.5-17 20.5-31.5T268 713t-27.5-66-71.5-29-71.5 25T70 707q0 77 128.5 158T431 946t162-19.5T702 840t41-293l-16-391q-4-72 45-72 33 0 105 57l34-45Q810-31 721-31q-55 0-93 36t-38 116h-8z"/><glyph glyph-name="ae" unicode="æ" horiz-adv-x="1456" d="M625 225q-37 109-37 173t6 100q-291-77-330-145.5T225 226t45-100 143.5-42T625 225zm377-254q-118 0-209 55.5T649 178Q553 36 462 2.5T323-31q-102 0-174.5 69T76 207q0 127 124 208t398 148v25q16 208-72 239t-127 31-67.5-5-52-13.5-38-17.5-14.5-17 20.5-31.5T268 713t-27.5-66-71.5-29-71.5 25T70 707q0 77 128.5 158T449 946q229 0 274-153 138 151 336 151 145 0 230-82t85-215q0-64-12-108l-617 8-2-49q0-176 92-287t241-111 251 125l41-24q-55-111-151.5-170.5T1002-29zm-17 639h225q6 121-45 191.5T1023 872t-168.5-73T754 608q131 2 231 2z"/><glyph glyph-name="ccedilla" unicode="ç" horiz-adv-x="897" d="M449-211q-65 0-142-10v35L457-29Q284-17 177 110.5T70 445t139.5 353T547 944q131 0 212-56.5T840 763t-34-91-80-23-77 51.5-8 128.5v5q-52 36-121 36-132 0-213.5-103T225 495t91.5-282T556 100q147 0 253 125l41-24q-47-96-127-153.5T543-25l-92-96q117 4 190.5-43T715-305 607.5-464.5 297-547l-16 45q319 45 319 180 0 49-43 80t-108 31z"/><glyph glyph-name="egrave" unicode="è" horiz-adv-x="933" d="M467 610h223q8 121-44 191.5T504 872t-167.5-73T236 608q131 2 231 2zm31-639q-194 0-311 129.5T70 440t136 357 333 147q145 0 230-82t85-215q0-53-10-108l-617 8q-2-6-2-11v-38q0-177 91.5-287.5T555 100q148 0 254 125l41-24Q795 90 698.5 30.5T498-29zm22 1069l-338 377h187l196-377h-45z"/><glyph glyph-name="eacute" unicode="é" horiz-adv-x="933" d="M422 1040h-47l192 377h193zm45-430h223q8 121-44 191.5T504 872t-167.5-73T236 608q131 2 231 2zm31-639q-194 0-311 129.5T70 440t136 357 333 147q145 0 230-82t85-215q0-53-10-108l-617 8q-2-6-2-11v-38q0-177 91.5-287.5T555 100q148 0 254 125l41-24Q795 90 698.5 30.5T498-29z"/><glyph glyph-name="ecircumflex" unicode="ê" horiz-adv-x="933" d="M686 1040l-209 252h-4l-209-252h-55l227 398h78l227-398h-55zM467 610h223q8 121-44 191.5T504 872t-167.5-73T236 608q131 2 231 2zm31-639q-194 0-311 129.5T70 440t136 357 333 147q145 0 230-82t85-215q0-53-10-108l-617 8q-2-6-2-11v-38q0-177 91.5-287.5T555 100q148 0 254 125l41-24Q795 90 698.5 30.5T498-29z"/><glyph glyph-name="edieresis" unicode="ë" horiz-adv-x="933" d="M383 1223q0-47-29.5-84t-83-37-83 37-29.5 84 29.5 83.5 83 36.5 83-36.5T383 1223zm410 0q0-47-30-84t-83-37-83 37-30 84 30 83.5 83 36.5 83-36.5 30-83.5zM467 610h223q8 121-44 191.5T504 872t-167.5-73T236 608q131 2 231 2zm31-639q-194 0-311 129.5T70 440t136 357 333 147q145 0 230-82t85-215q0-53-10-108l-617 8q-2-6-2-11v-38q0-177 91.5-287.5T555 100q148 0 254 125l41-24Q795 90 698.5 30.5T498-29z"/><glyph glyph-name="igrave" unicode="ì" horiz-adv-x="544" d="M201 109v575q0 72-10.5 89.5T167 797t-36 12l-82 12 4 56 293 67V106q0-25 57-28l86-8 7-70H57l6 70 87 8q51 2 51 31zm102 931l-338 377h187l196-377h-45z"/><glyph glyph-name="iacute" unicode="í" horiz-adv-x="544" d="M201 109v575q0 72-10.5 89.5T167 797t-36 12l-82 12 4 56 293 67V106q0-25 57-28l86-8 7-70H57l6 70 87 8q51 2 51 31zm16 931h-47l192 377h193z"/><glyph glyph-name="icircumflex" unicode="î" horiz-adv-x="544" d="M479 1040l-209 252h-4L57 1040H2l227 398h78l228-398h-56zM201 109v575q0 72-10.5 89.5T167 797t-36 12l-82 12 4 56 293 67V106q0-25 57-28l86-8 7-70H57l6 70 87 8q51 2 51 31z"/><glyph glyph-name="idieresis" unicode="ï" horiz-adv-x="544" d="M201 109v575q0 72-10.5 89.5T167 797t-36 12l-82 12 4 56 293 67V106q0-25 57-28l86-8 7-70H57l6 70 87 8q51 2 51 31zm-25 1114q0-47-29.5-84t-83-37-83 37-29.5 84 29.5 83.5 83 36.5 83-36.5T176 1223zm410 0q0-47-30-84t-83-37-83 37-30 84 30 83.5 83 36.5 83-36.5 30-83.5z"/><glyph glyph-name="eth" unicode="ð" horiz-adv-x="1024" d="M973 543q0-245-124.5-409.5T515-31 179.5 110.5 53 458t128.5 343T481 938q96 0 182.5-49T803 737q-60 264-238 418l-303-100v84l225 75q-102 68-229 103l31 53q159-30 301-123 0 3 97 34t171 56v-84l-188-63q141-117 222-284t81-363zm-758-35q0-119 34.5-219.5T354 118t184-69q114 0 192.5 92T809 408q0 117-32 215t-91 157q-84 84-200 84t-193.5-91T215 508z"/><glyph glyph-name="ntilde" unicode="ñ" horiz-adv-x="1110" d="M385 1212q-31 0-54.5-26.5T276 1079h-53q20 119 67.5 179.5T414 1319t145.5-50 103-74 63.5-24 53.5 27 54.5 107h53q-41-240-197-240-68 0-138.5 51t-103 73.5T385 1212zm299-268q105 0 177-70 71-70 71-223V109q0-12 10-19.5T993 78l82-8 6-70H645l6 70 84 8q33 2 42 9t9 22v446q0 152-52 208t-157 56-231-102V106q0-25 55-28l95-8 6-70H59l7 70 81 8q51 2 52 31v579q0 71-11.5 90T135 809l-86 12 2 56 295 67V797h10q174 147 328 147z"/><glyph glyph-name="ograve" unicode="ò" horiz-adv-x="1060" d="M831 430q0 98-26.5 195.5T735 767q-97 99-217 99T315.5 763 233 498q0-250 113-367 82-82 201-82t201.5 101.5T831 430zm160 45q0-104-35.5-197.5t-99-162T705.5 8 518-31 335 6 193.5 107.5t-90 152.5T72 452.5 108.5 647t101 156.5 152 103.5T547 944t180-35 140.5-97 91-147.5T991 475zm-420 565l-338 377h187l196-377h-45z"/><glyph glyph-name="oacute" unicode="ó" horiz-adv-x="1060" d="M489 1040h-47l193 377h192zm342-610q0 98-26.5 195.5T735 767q-97 99-217 99T315.5 763 233 498q0-250 113-367 82-82 201-82t201.5 101.5T831 430zm160 45q0-104-35.5-197.5t-99-162T705.5 8 518-31 335 6 193.5 107.5t-90 152.5T72 452.5 108.5 647t101 156.5 152 103.5T547 944t180-35 140.5-97 91-147.5T991 475z"/><glyph glyph-name="ocircumflex" unicode="ô" horiz-adv-x="1060" d="M741 1040l-209 252h-4l-209-252h-55l228 398h77l228-398h-56zm90-610q0 98-26.5 195.5T735 767q-97 99-217 99T315.5 763 233 498q0-250 113-367 82-82 201-82t201.5 101.5T831 430zm160 45q0-104-35.5-197.5t-99-162T705.5 8 518-31 335 6 193.5 107.5t-90 152.5T72 452.5 108.5 647t101 156.5 152 103.5T547 944t180-35 140.5-97 91-147.5T991 475z"/><glyph glyph-name="otilde" unicode="õ" horiz-adv-x="1060" d="M862 1305q-41-240-190-240-76 0-145.5 51T424 1189.5t-64 22.5-54-26.5-54-106.5h-53q20 119 67 179.5t123 60.5 145.5-50 103.5-74 64-24 53 27 54 107h53zm-31-875q0 98-26.5 195.5T735 767q-97 99-217 99T315.5 763 233 498q0-250 113-367 82-82 201-82t201.5 101.5T831 430zm160 45q0-104-35.5-197.5t-99-162T705.5 8 518-31 335 6 193.5 107.5t-90 152.5T72 452.5 108.5 647t101 156.5 152 103.5T547 944t180-35 140.5-97 91-147.5T991 475z"/><glyph glyph-name="odieresis" unicode="ö" horiz-adv-x="1060" d="M438 1223q0-47-29.5-84t-83-37-83 37-29.5 84 29.5 83.5 83 36.5 83-36.5T438 1223zm410 0q0-47-30-84t-83-37-82.5 37-29.5 84 29.5 83.5T735 1343t83-36.5 30-83.5zm-17-793q0 98-26.5 195.5T735 767q-97 99-217 99T315.5 763 233 498q0-250 113-367 82-82 201-82t201.5 101.5T831 430zm160 45q0-104-35.5-197.5t-99-162T705.5 8 518-31 335 6 193.5 107.5t-90 152.5T72 452.5 108.5 647t101 156.5 152 103.5T547 944t180-35 140.5-97 91-147.5T991 475z"/><glyph glyph-name="divide" unicode="÷" horiz-adv-x="995" d="M606 766q0-41-29.5-74T500 659t-76 33-29 74 29 73.5 76 32.5 76.5-32.5T606 766zm0-573.5q0-40.5-28.5-73.5T502 86t-77 33-30 73.5 30 72.5 77 32 75.5-32 28.5-72.5zM84 426l6 111h817l6-111H84z"/><glyph glyph-name="oslash" unicode="ø" horiz-adv-x="1060" d="M373 117q80-68 192-68t188 95.5T829 427t-96 312zm121 747q-115 0-192-92t-77-279 101-323l358 623q-75 71-190 71zm45 80q103 0 204-49l162 279h78L801 856q86-66 133-170t47-216q0-218-133-359.5T522-31q-102 0-207 49L174-229H94L258 53q-86 66-134 171.5T76 444t34.5 202.5 96 154T352 905t187 39z"/><glyph glyph-name="ugrave" unicode="ù" horiz-adv-x="1077" d="M523 94q107 0 229 105v608q0 14-10.5 20.5T696 838l-102 8-6 67h311V127q0-33 19-39l147-33-6-49-307-37v150h-11Q564-31 414-31q-106 0-172 68-76 72-76 225l4 545q0 23-12.5 23.5T104 838l-77 8-7 67h306l-15-553q0-154 52.5-210T523 94zm30 946l-338 377h186l197-377h-45z"/><glyph glyph-name="uacute" unicode="ú" horiz-adv-x="1077" d="M489 1040h-47l193 377h192zm34-946q107 0 229 105v608q0 14-10.5 20.5T696 838l-102 8-6 67h311V127q0-33 19-39l147-33-6-49-307-37v150h-11Q564-31 414-31q-106 0-172 68-76 72-76 225l4 545q0 23-12.5 23.5T104 838l-77 8-7 67h306l-15-553q0-154 52.5-210T523 94z"/><glyph glyph-name="ucircumflex" unicode="û" horiz-adv-x="1077" d="M725 1040l-209 252h-4l-209-252h-55l227 398h78l227-398h-55zM523 94q107 0 229 105v608q0 14-10.5 20.5T696 838l-102 8-6 67h311V127q0-33 19-39l147-33-6-49-307-37v150h-11Q564-31 414-31q-106 0-172 68-76 72-76 225l4 545q0 23-12.5 23.5T104 838l-77 8-7 67h306l-15-553q0-154 52.5-210T523 94z"/><glyph glyph-name="udieresis" unicode="ü" horiz-adv-x="1077" d="M416 1223q0-47-30-84t-83-37-83 37-30 84 30 83.5 83 36.5 83-36.5 30-83.5zm411 0q0-47-29.5-84t-82.5-37-83 37-30 84 30 83.5 83 36.5 82.5-36.5T827 1223zM523 94q107 0 229 105v608q0 14-10.5 20.5T696 838l-102 8-6 67h311V127q0-33 19-39l147-33-6-49-307-37v150h-11Q564-31 414-31q-106 0-172 68-76 72-76 225l4 545q0 23-12.5 23.5T104 838l-77 8-7 67h306l-15-553q0-154 52.5-210T523 94z"/><glyph glyph-name="yacute" unicode="ý" horiz-adv-x="925" d="M408 1040h-48l193 377h192zM180-328q80 0 117-73 47 21 90 157l78 224v2L109 772q-14 31-26.5 42T31 831l-60 13-8 69h422l-6-67-70-10q-56-5-35-56l254-604 195 555q16 53 9 74.5T684 831l-76 15-6 67h371l-6-67-68-15q-33-4-50.5-23.5T805 723L555 43l-98-311q-43-133-96-201t-129-68-112 30-36 75 23.5 74.5T180-328z"/><glyph glyph-name="thorn" unicode="þ" horiz-adv-x="1050" d="M303 162Q416 49 536 49t201.5 108T819 429t-75.5 271T545 807q-74 0-137.5-38T303 680V162zm8 622q140 150 302 150t264-124 102-326-131-358.5T502-31Q397-31 307 4h-4v-401q0-26 57-29l107-8 6-70H14l6 70 86 8q51 2 52 31v1609q0 37-23 43l-151 46 6 51 313 73V784h8z"/><glyph glyph-name="ydieresis" unicode="ÿ" horiz-adv-x="925" d="M389 1223q0-47-29.5-84t-83-37-83 37-29.5 84 29.5 83.5 83 36.5 83-36.5T389 1223zm410 0q0-47-30-84t-83-37-83 37-30 84 30 83.5 83 36.5 83-36.5 30-83.5zM180-328q80 0 117-73 47 21 90 157l78 224v2L109 772q-14 31-26.5 42T31 831l-60 13-8 69h422l-6-67-70-10q-56-5-35-56l254-604 195 555q16 53 9 74.5T684 831l-76 15-6 67h371l-6-67-68-15q-33-4-50.5-23.5T805 723L555 43l-98-311q-43-133-96-201t-129-68-112 30-36 75 23.5 74.5T180-328z"/><glyph glyph-name="dotlessi" unicode="ı" horiz-adv-x="544" d="M201 109v575q0 72-10.5 89.5T167 797t-36 12l-82 12 4 56 293 67V106q0-25 57-28l86-8 7-70H57l6 70 87 8q51 2 51 31z"/><glyph glyph-name="Lslash" unicode="Ł" horiz-adv-x="1157" d="M252 1153q0 31-37 37l-123 20-6 70h518l-6-70-141-20q-37-6-37-37V549l233 61v-86l-233-61V76h51q296 0 356 12t75.5 29.5T926 164l61 244h94L1036 0H86l6 70 123 20q37 6 37 37v293L76 373v84l176 47v649z"/><glyph glyph-name="lslash" unicode="ł" horiz-adv-x="546" d="M344 127q0-33 37-39l121-18 6-70H55l6 70 103 18q35 12 35 39v291L27 371v84l172 47v706q0 35-23 41l-149 45 6 52 311 81V541l168 47v-86l-168-45V127z"/><glyph glyph-name="OE" unicode="Œ" horiz-adv-x="1910" d="M429.5 238Q593 80 893 80h78v1098l-166 32q-251-4-395-156.5T266 649q0-253 163.5-411zM850 0Q507 0 300.5 171T94 622t196 470 564 190l932-2V909h-82l-45 207q-8 31-20.5 48.5t-65 28.5-352.5 11h-93V690h91q134 0 161 5t35 12.5 12 21.5l48 137h65l-41-426h-65l-15 131q-2 12-7 20.5t-31 16.5-164 8h-89V76h66q321 0 383.5 12t78 29.5T1679 164l52 198h92L1784 0H850z"/><glyph glyph-name="oe" unicode="œ" horiz-adv-x="1697" d="M922 737q134 207 392 207 130 0 216-82t86-215q0-64-12-108l-617 8q-2-6-2-11v-38q0-177 91.5-287.5T1317 100q150 0 252 125l41-24q-55-111-151.5-170.5T1246-29t-206 52.5T897 168Q834 76 736 22.5T528-31 335 6 192.5 107.5t-91 153.5T73 506t138.5 297T547 944q125 0 221-55t154-152zM534 49q131 0 212 99.5T829 387q4 279-108 395-84 84-203 84t-200.5-98T233 502q-2-115 27-213.5T332 146t89.5-70.5T534 49zm693 561h223q8 121-44 191.5T1264 872t-167-72.5T995 608q131 2 232 2z"/><glyph glyph-name="Scaron" unicode="Š" horiz-adv-x="1034" d="M555 1393h-78l-227 397h55l209-252h4l209 252h55zm330-480h-82l-58 263q-113 51-233 51t-184-62-64-137 23.5-118.5 66.5-76 100.5-57T585 724t218-93.5T948 346q0-155-129-266T479-31q-173-3-358 56L90 387h82l86-283q122-55 253-55t208.5 71.5T797 300t-75.5 168.5T475 592q-184 72-243.5 123t-87 108.5T117 955t25.5 137 77.5 110 132 77 197 32 229-25l107 31V913z"/><glyph glyph-name="scaron" unicode="š" horiz-adv-x="815" d="M446 1040h-77l-228 398h56l209-252h4l208 252h56zm-9-92q89 0 188-33l61 21 16-287h-90l-39 178q-76 50-159 50-82 0-130-41.5T236 744t16-76.5 52-52T426 558q162-59 235.5-120T735 257q0-119-95-203.5T383-31 113 12l-13 264h93l43-182q74-53 160-53t148 49 62 134-92 122-140 54q-121 43-194.5 104.5T106 679t86.5 191T437 948z"/><glyph glyph-name="Ydieresis" unicode="Ÿ" horiz-adv-x="1239" d="M555 1565q0-47-29.5-84t-83-37-83 37-29.5 84 29.5 84 83 37 83-37 29.5-84zm410 0q0-47-30-84t-83-37-83 37-30 84 30 84 83 37 83-37 30-84zM709 109q0-12 10-17.5t43-9.5l139-12 6-70H340l6 70 141 12q53 6 54 29v426l-381 602q-35 46-84 57l-84 14-6 70h499l-6-70-102-12q-35-4-31-39t55-119l246-407h10l267 454q60 97-17 113l-78 10-6 70h414l-6-70-62-10q-41-12-71.5-32.5T1030 1090L709 557V109z"/><glyph glyph-name="Zcaron" unicode="Ž" horiz-adv-x="1140" d="M608 1393h-78l-227 397h55l209-252h4l209 252h56zM68 0v70l806 1126v8H643q-257 0-316-18.5t-73-41-25-57.5l-41-186h-82v379h967v-72L268 82l-2-8 234 2q280 0 344.5 16.5t80 37T950 180l51 203h95L1053 0H68z"/><glyph glyph-name="zcaron" unicode="ž" horiz-adv-x="888" d="M483 1040h-77l-228 398h55l209-252h4l209 252h56zM328 72q223 0 280.5 14t79 35.5T723 176l76 170h86L803 0H57v61l592 783h-65q-228 0-279-15.5t-67.5-36T215 739l-33-172H92v346h737v-61L240 72h88z"/><glyph glyph-name="florin" unicode="ƒ" horiz-adv-x="999" d="M1016 1168q0-50-25.5-81.5T919 1055t-76 37.5-34 97.5l-121-31q-46-76-100-364h252l8-93H580q-68-351-139-506T279 4 130-33 29 1t-43 82 25.5 76.5T82 188t74.5-38.5T190 57l123 58q52 120 95 387l30 194-178 9 6 57 193 43q61 267 168 383 47 47 113 74.5t128 27.5 105-36 43-86z"/><glyph glyph-name="circumflex" unicode="ˆ" d="M621 1040l-209 252h-4l-209-252h-56l228 398h78l227-398h-55z"/><glyph glyph-name="caron" unicode="ˇ" d="M449 1040h-78l-228 398h56l209-252h4l209 252h55z"/><glyph glyph-name="breve" unicode="˘" d="M382 1034q-99 0-158 105t-95 278h47q58-144 92.5-190.5t67.5-69 90-22.5 110.5 72.5T643 1417h47q-35-172-75-242.5T528 1069t-146-35z"/><glyph glyph-name="dotaccent" unicode="˙" d="M524 1234q0-48-30.5-86t-84.5-38-85 38-31 86 30.5 86 84.5 38 85-38 31-86z"/><glyph glyph-name="ring" unicode="˚" d="M530 1240q0 52-31.5 91t-89 39-89-39-31.5-91 31.5-91 89-39 89 39 31.5 91zm62-1q0-76-48-130t-134-54-134.5 54-48.5 130 48.5 130 134.5 54 134-54 48-130z"/><glyph glyph-name="ogonek" unicode="˛" d="M633-412q-95-73-194-73t-168.5 60T201-271t77.5 173.5T483 33h95Q316-96 315-260q0-63 45.5-107.5T475-412t141 45z"/><glyph glyph-name="tilde" unicode="˜" d="M274 1319q73 0 141-50t102-74 64-24 53 27 54 107h53q-20-117-67-178.5T552 1065t-145.5 51-103.5 73.5-63 22.5-54-26.5-55-106.5H78q40 240 196 240z"/><glyph glyph-name="hungarumlaut" unicode="˝" d="M201 1040h-45l178 377h170zm309 0h-45l178 377h170z"/><glyph glyph-name="endash" unicode="–" horiz-adv-x="962" d="M53 424l6 100h848l6-100H53z"/><glyph glyph-name="emdash" unicode="—" horiz-adv-x="1921" d="M53 424l6 100h1805l6-100H53z"/><glyph glyph-name="quoteleft" unicode="‘" horiz-adv-x="462" d="M227 1063q0-95 77-129.5t77-36.5q0-47-34-81t-81-34q-81 0-137.5 53T72 960q0 124 76.5 215.5T356 1366l45-33q-174-132-174-270z"/><glyph glyph-name="quoteright" unicode="’" horiz-adv-x="462" d="M240 1067q0 98-76 132t-76 36q0 47 34 81t81 34q81 0 137.5-53t56.5-125q0-126-76.5-217.5T113 764l-45 33q172 130 172 270z"/><glyph glyph-name="quotesinglbase" unicode="‚" horiz-adv-x="462" d="M240-53q0 98-76 132t-76 36q0 47 34 80.5t81 33.5q82 0 138-52.5T397 52q0-126-76.5-217.5T113-356l-45 32Q240-194 240-53z"/><glyph glyph-name="quotedblleft" unicode="“" horiz-adv-x="868" d="M227 1063q0-95 77-129.5t77-36.5q0-47-34-81t-81-34q-81 0-137.5 53T72 960q0 124 76.5 215.5T356 1366l45-33q-174-132-174-270zm428 0q0-96 76-130t76-36q0-47-34-81t-81-34q-81 0-137.5 53T498 960q0 124 76.5 215.5T782 1366l45-33q-172-130-172-270z"/><glyph glyph-name="quotedblright" unicode="”" horiz-adv-x="868" d="M240 1067q0 98-76 132t-76 36q0 47 34 81t81 34q81 0 137.5-53t56.5-125q0-126-76.5-217.5T113 764l-45 33q172 130 172 270zm428 0q0 98-76 132t-76 36q0 47 33 81t81 34q82 0 138.5-53t56.5-125q0-126-76.5-217.5T541 764l-45 33q172 130 172 270z"/><glyph glyph-name="quotedblbase" unicode="„" horiz-adv-x="868" d="M240-53q0 98-76 132t-76 36q0 47 34 80.5t81 33.5q82 0 138-52.5T397 52q0-126-76.5-217.5T113-356l-45 32Q240-194 240-53zm428 0q0 98-76 132t-76 36q0 47 33 80.5t81 33.5q83 0 139-52.5T825 52q0-126-76.5-217.5T541-356l-45 32Q668-194 668-53z"/><glyph glyph-name="dagger" unicode="†" horiz-adv-x="962" d="M522 805V-319h-78V805H78l-8 80h374v395h78V885h377l-8-80H522z"/><glyph glyph-name="daggerdbl" unicode="‡" horiz-adv-x="962" d="M522 43v-362h-78V43H70l8 80h366v713H78l-8 79h374v365h78V915h377l-8-79H522V123h369l8-80H522z"/><glyph glyph-name="bullet" unicode="•" horiz-adv-x="931" d="M860 475.5q0-43.5-42.5-148T753 202q-42-40-142.5-81T478 80q-57 0-156.5 40.5T198 186t-44.5 63-39 81T84 413t-12 74.5T115 622t66 124q36 38 139.5 80T457 868q53 0 158-42.5T745 754q30-26 72.5-130.5t42.5-148z"/><glyph glyph-name="ellipsis" unicode="…" horiz-adv-x="1392" d="M360 96q0-49-34.5-88T235-31 142.5 8 106 96t36 86 92 37 91-37 35-86zm463 0q0-49-33.5-88T700-31 607.5 8 571 96t36 86 92 37 90-37 34-86zm465 0q0-49-35-88t-91-39-92 39-36 88 36 86 92 37 91-37 35-86z"/><glyph glyph-name="perthousand" unicode="‰" horiz-adv-x="2306" d="M1688 290q0-105 63.5-179t180-74 180 74 63.5 178-66.5 178-177 74-177-73-66.5-178zm489-243.5Q2083-51 1931-51t-246 97.5-94 241.5q0 143 94.5 242t245.5 99 245.5-98.5T2271 288t-94-241.5zM1153 541q-110 0-177-73.5T909 289q0-104 63.5-178T1153 37t180.5 74 63.5 178-67 178-177 74zm-778 700q-117 0-180.5-73.5T131 989t66.5-178.5 177-73.5 177 73T618 988t-63 179-180 74zM1399 46.5Q1305-51 1153-51T907 46.5 813 288q0 143 94.5 242t245.5 99 245.5-98.5T1493 288t-94-241.5zM297-31H190l1045 1340h104zm323.5 778.5Q526 649 375 649t-245.5 98.5T35 990q0 143 94 241t246 98 246-97.5T715 990t-94.5-242.5z"/><glyph glyph-name="guilsinglleft" unicode="‹" horiz-adv-x="634" d="M520 94L80 410v86l440 315 21-41-303-317 303-318z"/><glyph glyph-name="guilsinglright" unicode="›" horiz-adv-x="634" d="M115 94l-19 41 303 318L96 770l19 41 442-315v-86z"/><glyph glyph-name="fraction" unicode="⁄" horiz-adv-x="1110" d="M119-33H6l987 1340h111z"/><glyph glyph-name="Euro" unicode="€" horiz-adv-x="1056" d="M164 603q0 43 4 87H43l6 80h129q40 231 183.5 372.5T707 1284q128 0 217.5-50t89.5-120q0-39-24.5-65.5T918 1022t-78 46-39 101q-53 33-129 33-143 0-232.5-117.5T328 770h424l6-80H322v-49q0-68 6-127h424l6-80H342q41-174 137-260t217-86q163 0 289 152l41-23Q897-31 645-31 474-31 348.5 94.5T180 434H43l6 80h119q-4 46-4 89z"/><glyph glyph-name="trademark" unicode="™" horiz-adv-x="1865" d="M750 1012h-60l-14 71q-25 91-60.5 115.5T469 1223h-6V608q0-20 18-22l105-13 2-55H217l4 55 105 13q20 2 20 22v615h-8q-98 0-129-21.5t-45-49.5-29-69l-18-71H61l17 268h672v-268zm268-354.5q0-28.5 2.5-47T1038 584l82-11 4-55H838l4 55 80 11q25 0 28.5 51t5.5 100l15 453q0 23-17 24l-88 13-4 55h289l156-586h18l199 586h288l-4-55-84-13q-23-2-22-24l12-510q3-83 31-92l80-13 4-55h-336l4 55 78 13q14 4 17 21.5t3 70.5l-12 520h-20l-228-655h-92l-186 659h-21l-16-467q-2-49-2-77.5z"/><glyph glyph-name="Delta" unicode="∆" horiz-adv-x="962" d="M362 45q240 0 240 344v764q0 31-35 37l-159 20-7 70h549l-6-70-137-20q-35-6-35-37V430q0-231-115-347T368-33 102 35.5 10 195q0 57 33 89.5t76 32.5 72.5-25.5T221 214t-39-89q16-27 60.5-53.5T362 45z"/><glyph glyph-name="minus" unicode="−" horiz-adv-x="995" d="M84 426l6 111h817l6-111H84z"/><glyph glyph-name="apple" unicode="" horiz-adv-x="1552" d="M1087 782l103 285-285-102-129 272-129-272-285 102 105-285-274-129 274-129-105-282 285 104L774 70l131 276 285-104-103 286 271 127zm107-299l141-387-387 142-174-371-172 369L219 96l139 383-370 176 370 170-139 387 383-141 176 371 170-371 387 141-141-387 369-168z"/><glyph glyph-name="ff" unicode="ﬀ" horiz-adv-x="1228" d="M342 956v-45h432l2 52q12 203 134 333.5t292 130.5q72 0 125-33.5t53-82.5-25.5-74-65.5-25-78 35-50 103l-53 4q-176-72-176-377v-66h282l-14-94H932V106q0-25 57-28l133-8 6-70H643l6 70 84 8q51 6 51 31v710H342V127q0-33 37-39l162-18 6-70H53l6 70 103 18q35 6 35 39v686l-172 8 12 90h149l2 33q20 208 140.5 335.5T612 1407q72 0 125.5-34t53.5-83-26-73.5-66-24.5-77.5 35-50.5 102l-51 4q-178-72-178-377z"/><glyph glyph-name="fi" unicode="ﬁ" horiz-adv-x="1130" d="M342 977v-66h358l232 31V106q0-25 57-28l86-8 6-70H643l6 70 84 8q51 2 51 31v708H342V106q0-25 57-28l136-8 6-70H53l6 70 86 8q51 2 52 31v704l-172 8 12 90h149l2 52q12 209 137.5 336.5T649 1427q79 0 143-38t64-103q0-41-25.5-66.5T764 1194q-101 0-127 129l-119 23q-176-72-176-369z"/><glyph glyph-name="fl" unicode="ﬂ" horiz-adv-x="1134" d="M342 977v-66h442v285q-6-2-20-2-101 0-127 129l-119 23q-176-72-176-369zm0-160V106q0-25 57-28l136-8 6-70H53l6 70 86 8q51 2 52 31v704l-172 8 12 90h149l2 52q12 209 137.5 336.5T649 1427q78 0 144-38l139 38V106q0-25 57-28l86-8 6-70H643l6 70 84 8q51 2 51 31v708H342z"/><glyph glyph-name="ffi" unicode="ﬃ" horiz-adv-x="1718" d="M932 977v-66h356l232 31V106q0-25 57-28l86-8 6-70h-438l6 70 86 8q51 2 51 31v708H932V106q0-25 57-28l133-8 6-70H643l6 70 84 8q51 6 51 31v710H342V127q0-33 37-39l162-18 6-70H53l6 70 103 18q35 6 35 39v686l-172 8 12 90h149l2 33q20 208 140.5 335.5T612 1407q72 0 125.5-34t53.5-83-26-73.5-66-24.5-77.5 37-50.5 100l-51 4q-178-72-178-377v-45h432l2 52q12 209 137.5 336.5T1237 1427q79 0 143-38t64-103q0-41-25.5-66.5T1354 1194q-103 0-129 129l-117 23q-176-72-176-369z"/><glyph glyph-name="ffl" unicode="ﬄ" horiz-adv-x="1722" d="M932 977v-66h442v285q-6-2-20-2-103 0-129 129l-117 23q-176-72-176-369zm-590-21v-45h432l2 52q12 209 137.5 336.5T1237 1427q78 0 143-38l140 38V106q0-25 57-28l86-8 6-70h-438l6 70 86 8q51 2 51 31v708H932V106q0-25 57-28l133-8 6-70H643l6 70 84 8q51 6 51 31v710H342V127q0-33 37-39l162-18 6-70H53l6 70 103 18q35 6 35 39v686l-172 8 12 90h149l2 33q20 208 140.5 335.5T612 1407q72 0 125.5-34t53.5-83-26-73.5-66-24.5-77.5 37-50.5 100l-51 4q-178-72-178-377z"/></font>
</defs>
</svg>
