<svg aria-hidden="true" class="icon icon--linkedin" xmlns="http://www.w3.org/2000/svg" width="20" height="20" viewBox="0 0 216 216"><path d="M5.6 30c.3-1.3.6-2.6 1-3.9 2.1-6.6 6.3-11.3 12.8-13.8 9-3.4 18-3.3 26.2 2.3 7.6 5.2 10.3 13 9.1 21.9-1.2 8.6-6.2 14.6-14.4 17.5-8.8 3.1-17.5 2.7-25.5-2.7-5-3.4-7.9-8.4-8.9-14.4-.1-.4-.2-.7-.3-1.1V30zm70.9 175.9V73.8h41.8c1.7 0 2.1.5 2 2.1-.1 5.3 0 10.6.3 16.1.5-.7.9-1.3 1.4-2 6.7-9.4 15.3-16 26.9-18.1 13.7-2.5 26.8-1 38.8 6.5 6.3 4 11.1 9.4 14.7 15.9 5.6 10.1 7.7 21.1 7.9 32.5.2 12.6.1 25.2.1 37.9v41.1c-.7 0-1.2.1-1.8.1h-40.1c-1.5 0-2-.4-2-2 .1-22.5 0-45.1 0-67.6 0-6-.5-11.9-2.5-17.6-3.4-9.2-11.3-13.9-21.1-13.3-11.3.7-19.3 9-21.6 18-.8 3.2-.9 6.7-.9 10-.1 23.5 0 46.9 0 70.4 0 2.1 0 2.1-2.1 2.1H76.5zM52.1 140v63.9c0 1.6-.3 2.1-2 2.1-13.3-.1-26.7-.1-40 0-1.5 0-1.9-.4-1.9-1.9V75.7c0-1.4.4-1.8 1.8-1.8 13.4.1 26.9.1 40.3 0 1.4 0 1.8.4 1.8 1.8V140z"/></svg>