<svg xmlns="http://www.w3.org/2000/svg"><defs><font id="Phosphor-Fill" horiz-adv-x="1024"><font-face units-per-em="1024" ascent="960" descent="-64"/><glyph horiz-adv-x="512"/><glyph unicode="" glyph-name="address-book-fill" data-tags="address-book-fill" d="M640 512c0-53.019-42.981-96-96-96s-96 42.981-96 96 42.981 96 96 96 96-42.981 96-96zm256 288V96c0-35.346-28.654-64-64-64H256c-35.346 0-64 28.654-64 64v96h-64c-17.673 0-32 14.327-32 32s14.327 32 32 32h64v160h-64c-17.673 0-32 14.327-32 32s14.327 32 32 32h64v160h-64c-17.673 0-32 14.327-32 32s14.327 32 32 32h64v96c0 35.346 28.654 64 64 64h576c35.346 0 64-28.654 64-64zM761.6 307.2c-28.241 37.584-65.16 67.174-107.866 86.075l-1.734.685c32.079 29.362 52.12 71.421 52.12 118.161 0 88.366-71.634 160-160 160s-160-71.634-160-160c0-46.739 20.041-88.798 51.999-118.051l.121-.109c-44.535-19.552-81.538-49.149-109.34-86.067l-.5-.693c-3.996-5.281-6.4-11.96-6.4-19.2 0-17.673 14.327-32 32-32 10.433 0 19.7 4.993 25.542 12.72l.058.08c38.35 50.747 98.585 83.2 166.4 83.2s128.05-32.453 166.021-82.677l.379-.523c5.9-7.807 15.167-12.8 25.6-12.8 17.673 0 32 14.327 32 32 0 7.24-2.404 13.919-6.458 19.28l.058-.08z"/><glyph unicode="" glyph-name="airplane-fill" data-tags="airplane-fill" d="M960 416V288c0-17.673-14.327-32-32-32h-.07c-2.199 0-4.343.233-6.409.676l.2-.036L624.001 316v-94.92l70.64-70.6c5.752-5.758 9.322-13.699 9.36-22.473V31.945c0-17.673-14.327-32-32-32a31.91 31.91 0 00-12.213 2.413l.213-.078-148 59.24-148-59.24c-3.551-1.477-7.675-2.335-12-2.335-17.673 0-32 14.327-32 32v.058V32v96.025c0 8.83 3.577 16.825 9.36 22.615l70.64 70.6V316l-297.72-59.36c-1.867-.407-4.011-.64-6.21-.64h-.074.004c-17.673 0-32 14.327-32 32v128.023c0 12.453 7.113 23.245 17.498 28.533l.182.084 318.32 159.12V784c0 61.856 50.144 112 112 112s112-50.144 112-112V603.76l318.32-159.12c10.567-5.373 17.68-16.164 17.68-28.617v-.024.001z"/><glyph unicode="" glyph-name="airplane-in-flight-fill" data-tags="airplane-in-flight-fill" d="M896 96c0-17.673-14.327-32-32-32H288c-17.673 0-32 14.327-32 32s14.327 32 32 32h576c17.673 0 32-14.327 32-32zm-64 480H589.28L406.64 758.64c-5.79 5.783-13.785 9.36-22.615 9.36h-32.026c-35.331-.02-63.965-28.666-63.965-64 0-7.241 1.202-14.2 3.418-20.691l-.134.451 36-107.76h-90.04l-86.64 86.64c-5.79 5.783-13.785 9.36-22.615 9.36H95.997c-35.321-.033-63.942-28.674-63.942-64 0-6.562.988-12.893 2.822-18.853l-.12.453 56.28-187.56c20.048-66.467 80.724-114.042 152.511-114.042l.768.002h715.681c17.673 0 32 14.327 32 32v96c0 88.366-71.634 160-160 160z"/><glyph unicode="" glyph-name="airplane-landing-fill" data-tags="airplane-landing-fill" d="M992 96c0-17.673-14.327-32-32-32H384c-17.673 0-32 14.327-32 32s14.327 32 32 32h576c17.673 0 32-14.327 32-32zm-96 96c17.673 0 32 14.327 32 32v142.72c-.179 73.046-49.121 134.612-115.987 153.88l-1.133.28-243.36 68-90 214.52c-3.626 8.505-10.576 14.998-19.175 17.933l-.225.067-21.88 7.28c-6.04 2.082-12.999 3.285-20.24 3.285-35.334 0-63.98-28.634-64-63.963V650.44l-119.48 34.04-42.44 117.48c-3.403 9.221-10.666 16.313-19.775 19.413l-.225.067-21.88 7.28c-6.028 2.074-12.974 3.271-20.2 3.271-35.343 0-63.995-28.649-64-63.991V545.12c.165-72.948 48.977-134.451 115.707-153.799l1.133-.281L887.36 193.2c2.588-.758 5.562-1.196 8.638-1.2H896z"/><glyph unicode="" glyph-name="airplane-takeoff-fill" data-tags="airplane-takeoff-fill" d="M704 96c0-17.673-14.327-32-32-32H96c-17.673 0-32 14.327-32 32s14.327 32 32 32h576c17.673 0 32-14.327 32-32zm281.24 516.96l-75.04 96.16c-29.435 36.052-73.88 58.887-123.658 58.887-30.065 0-58.184-8.33-82.176-22.808l.715.4-206.28-123.12-215.76 79.36c-3.322 1.277-7.164 2.017-11.18 2.017s-7.858-.74-11.4-2.09l.22.074-28.68-10.92-1.28-.52c-22.985-10.049-38.755-32.588-38.755-58.811 0-18.594 7.93-35.337 20.592-47.03l.043-.04 87.4-84.76-80.68-48.8-113.04 38.16c-3.048 1.062-6.561 1.675-10.218 1.675a31.863 31.863 0 01-14.288-3.359l.185.084-12-5.88c-22.516-10.242-37.889-32.541-37.889-58.431 0-18.254 7.642-34.724 19.902-46.383L52 376.8l144.48-141.56c28.397-26.884 66.822-43.43 109.11-43.48h.01c29.881.05 57.838 8.247 81.78 22.487l-.74-.407 589.64 352c9.399 5.688 15.585 15.856 15.585 27.469 0 7.44-2.539 14.286-6.797 19.721l.053-.07z"/><glyph unicode="" glyph-name="airplane-tilt-fill" data-tags="airplane-tilt-fill" d="M862.08 170.96c1.221-3.253 1.927-7.013 1.927-10.938 0-8.834-3.58-16.832-9.367-22.622l-96-96c-5.79-5.804-13.795-9.396-22.639-9.4H736a28.402 28.402 0 00-3.236.004l.076-.003a32.044 32.044 0 00-23.408 13.966l-.072.114-176.28 264.48-85.08-84.92v-97.64c-.004-8.825-3.58-16.814-9.36-22.6s-56-56.24-63.52-63.52a31.722 31.722 0 00-10.909-7.444l-.211-.076c-3.57-1.495-7.72-2.364-12.072-2.364-13.259 0-24.634 8.064-29.49 19.554l-.079.21-59.04 147.64-147.32 58.92c-11.888 4.849-20.114 16.319-20.114 29.711 0 8.828 3.574 16.82 9.355 22.61l64 64c5.79 5.784 13.785 9.36 22.615 9.36H289.6l85.08 85.08-264.44 176.32c-8.652 5.819-14.268 15.573-14.268 26.638 0 8.844 3.588 16.85 9.387 22.642l96 96c5.79 5.788 13.788 9.367 22.622 9.367a31.95 31.95 0 0011.159-1.999l-.221.072 343.76-125 126.12 126.12c20.269 20.269 48.27 32.806 79.2 32.806 61.859 0 112.006-50.147 112.006-112.006 0-30.93-12.537-58.931-32.806-79.2l-126.12-126.12z"/><glyph unicode="" glyph-name="airplay-fill" data-tags="airplay-fill" d="M728.28 116.84A31.834 31.834 0 00735.996 96c0-17.672-14.325-31.998-31.996-32H320c-17.672.002-31.996 14.328-31.996 32a31.88 31.88 0 007.751 20.882l-.035-.042 192 224c5.904 6.861 14.598 11.179 24.3 11.179s18.396-4.318 24.265-11.137l.035-.042zM832 800H192c-53.019 0-96-42.981-96-96V256c0-53.019 42.981-96 96-96h49.04a15.964 15.964 0 0111.982 5.579L438.96 382.48c17.711 20.57 43.784 33.514 72.88 33.514s55.169-12.944 72.774-33.389l.106-.125L770.8 165.6c2.918-3.398 7.203-5.551 11.991-5.6H832c53.019 0 96 42.981 96 96v448c0 53.019-42.981 96-96 96z"/><glyph unicode="" glyph-name="air-traffic-control-fill" data-tags="air-traffic-control-fill" d="M916.44 708.72C904.715 725.304 885.618 736 864.022 736H544v128h64c17.673 0 32 14.327 32 32s-14.327 32-32 32H416c-17.673 0-32-14.327-32-32s14.327-32 32-32h64V736H160c-35.284-.082-63.856-28.704-63.856-64a63.87 63.87 0 014.001-22.323l-.144.442 104.76-288c9.187-24.737 32.563-42.056 59.992-42.12h494.528c27.437.064 50.813 17.383 59.856 41.678l.144.442 104.76 288c2.47 6.541 3.899 14.103 3.899 21.998 0 13.7-4.305 26.394-11.635 36.805l.135-.203zm-506.36-324.2c-1.713-.331-3.684-.52-5.698-.52h-.065.003c-15.633.023-28.636 11.251-31.409 26.082l-.031.198-40.88 224c-.328 1.72-.515 3.698-.515 5.72 0 17.681 14.334 32.015 32.015 32.015 15.659 0 28.693-11.243 31.469-26.097l.031-.198 40.72-224c.33-1.725.519-3.709.519-5.738 0-15.608-11.174-28.606-25.958-31.431l-.2-.032zM692 634.28l-40.76-224c-2.804-15.029-15.807-26.257-31.438-26.28h-.064a31.63 31.63 0 00-5.895.551l.196-.031c-15.041 2.809-26.275 15.834-26.275 31.484 0 2.021.187 3.998.545 5.914l-.031-.198 40.72 224c2.807 15.052 15.841 26.295 31.5 26.295 17.681 0 32.015-14.334 32.015-32.015 0-2.022-.187-4-.546-5.918l.031.198zM640 240V64c0-17.673-14.327-32-32-32H416c-17.673 0-32 14.327-32 32v176c0 8.837 7.163 16 16 16h224c8.837 0 16-7.163 16-16z"/><glyph unicode="" glyph-name="alarm-fill" data-tags="alarm-fill" d="M246.64 841.36l-128-128c-5.794-5.794-13.799-9.378-22.64-9.378-17.683 0-32.018 14.335-32.018 32.018 0 8.841 3.584 16.846 9.378 22.64l128 128c5.794 5.794 13.799 9.378 22.64 9.378 17.683 0 32.018-14.335 32.018-32.018 0-8.841-3.584-16.846-9.378-22.64zm704-82.72l-128 128c-5.794 5.794-13.799 9.378-22.64 9.378-17.683 0-32.018-14.335-32.018-32.018 0-8.841 3.584-16.846 9.378-22.64l128-128c5.794-5.794 13.799-9.378 22.64-9.378 17.683 0 32.018 14.335 32.018 32.018 0 8.841-3.584 16.846-9.378 22.64zM896 448c0-212.077-171.923-384-384-384S128 235.923 128 448s171.923 384 384 384c211.976-.25 383.75-172.023 384-383.976V448zm-128 0c0 17.673-14.327 32-32 32H544v192c0 17.673-14.327 32-32 32s-32-14.327-32-32V448c0-17.673 14.327-32 32-32h224c17.673 0 32 14.327 32 32z"/><glyph unicode="" glyph-name="alien-fill" data-tags="alien-fill" d="M512 896c-211.976-.25-383.75-172.023-384-383.976V512c0-96 50.24-220.24 134.44-332C347.16 67.4 440.44 0 512 0s164.84 67.24 249.56 180C845.76 292 896 416 896 512c-.25 211.976-172.023 383.75-383.976 384H512zM256 496c0 26.51 21.49 48 48 48 79.529 0 144-64.471 144-144 0-26.51-21.49-48-48-48-79.529 0-144 64.471-144 144zm320-336H448c-17.673 0-32 14.327-32 32s14.327 32 32 32h128c17.673 0 32-14.327 32-32s-14.327-32-32-32zm48 192c-26.51 0-48 21.49-48 48 0 79.529 64.471 144 144 144 26.51 0 48-21.49 48-48 0-79.529-64.471-144-144-144z"/><glyph unicode="" glyph-name="align-bottom-fill" data-tags="align-bottom-fill" d="M896 96c0-17.673-14.327-32-32-32H160c-17.673 0-32 14.327-32 32s14.327 32 32 32h704c17.673 0 32-14.327 32-32zm-288 96h160c35.346 0 64 28.654 64 64v384c0 35.346-28.654 64-64 64H608c-35.346 0-64-28.654-64-64V256c0-35.346 28.654-64 64-64zm-352 0h160c35.346 0 64 28.654 64 64v544c0 35.346-28.654 64-64 64H256c-35.346 0-64-28.654-64-64V256c0-35.346 28.654-64 64-64z"/><glyph unicode="" glyph-name="align-bottom-simple-fill" data-tags="align-bottom-simple-fill" d="M832 32c0-17.673-14.327-32-32-32H224c-17.673 0-32 14.327-32 32s14.327 32 32 32h576c17.673 0 32-14.327 32-32zm-448 96h256c35.346 0 64 28.654 64 64v608c0 35.346-28.654 64-64 64H384c-35.346 0-64-28.654-64-64V192c0-35.346 28.654-64 64-64z"/><glyph unicode="" glyph-name="align-center-horizontal-fill" data-tags="align-center-horizontal-fill" d="M896 352V192c0-35.346-28.654-64-64-64H544V64c0-17.673-14.327-32-32-32s-32 14.327-32 32v64H192c-35.346 0-64 28.654-64 64v160c0 35.346 28.654 64 64 64h288v64H288c-35.346 0-64 28.654-64 64v160c0 35.346 28.654 64 64 64h192v64c0 17.673 14.327 32 32 32s32-14.327 32-32v-64h192c35.346 0 64-28.654 64-64V544c0-35.346-28.654-64-64-64H544v-64h288c35.346 0 64-28.654 64-64z"/><glyph unicode="" glyph-name="align-center-horizontal-simple-fill" data-tags="align-center-horizontal-simple-fill" d="M896 576V320c0-35.346-28.654-64-64-64H544V128c0-17.673-14.327-32-32-32s-32 14.327-32 32v128H192c-35.346 0-64 28.654-64 64v256c0 35.346 28.654 64 64 64h288v128c0 17.673 14.327 32 32 32s32-14.327 32-32V640h288c35.346 0 64-28.654 64-64z"/><glyph unicode="" glyph-name="align-center-vertical-fill" data-tags="align-center-vertical-fill" d="M928 448c0-17.673-14.327-32-32-32h-64V224c0-35.346-28.654-64-64-64H608c-35.346 0-64 28.654-64 64v192h-64V128c0-35.346-28.654-64-64-64H256c-35.346 0-64 28.654-64 64v288h-64c-17.673 0-32 14.327-32 32s14.327 32 32 32h64v288c0 35.346 28.654 64 64 64h160c35.346 0 64-28.654 64-64V480h64v192c0 35.346 28.654 64 64 64h160c35.346 0 64-28.654 64-64V480h64c17.673 0 32-14.327 32-32z"/><glyph unicode="" glyph-name="align-center-vertical-simple-fill" data-tags="align-center-vertical-simple-fill" d="M864 448c0-17.673-14.327-32-32-32H704V128c0-35.346-28.654-64-64-64H384c-35.346 0-64 28.654-64 64v288H192c-17.673 0-32 14.327-32 32s14.327 32 32 32h128v288c0 35.346 28.654 64 64 64h256c35.346 0 64-28.654 64-64V480h128c17.673 0 32-14.327 32-32z"/><glyph unicode="" glyph-name="align-left-fill" data-tags="align-left-fill" d="M928 352V192c0-35.346-28.654-64-64-64H320c-35.346 0-64 28.654-64 64v160c0 35.346 28.654 64 64 64h544c35.346 0 64-28.654 64-64zM160 832c-17.673 0-32-14.327-32-32V96c0-17.673 14.327-32 32-32s32 14.327 32 32v704c0 17.673-14.327 32-32 32zm160-352h384c35.346 0 64 28.654 64 64v160c0 35.346-28.654 64-64 64H320c-35.346 0-64-28.654-64-64V544c0-35.346 28.654-64 64-64z"/><glyph unicode="" glyph-name="align-left-simple-fill" data-tags="align-left-simple-fill" d="M160 736V160c0-17.673-14.327-32-32-32s-32 14.327-32 32v576c0 17.673 14.327 32 32 32s32-14.327 32-32zm736-96H288c-35.346 0-64-28.654-64-64V320c0-35.346 28.654-64 64-64h608c35.346 0 64 28.654 64 64v256c0 35.346-28.654 64-64 64z"/><glyph unicode="" glyph-name="align-right-fill" data-tags="align-right-fill" d="M896 800V96c0-17.673-14.327-32-32-32s-32 14.327-32 32v704c0 17.673 14.327 32 32 32s32-14.327 32-32zm-192-32H320c-35.346 0-64-28.654-64-64V544c0-35.346 28.654-64 64-64h384c35.346 0 64 28.654 64 64v160c0 35.346-28.654 64-64 64zm0-352H160c-35.346 0-64-28.654-64-64V192c0-35.346 28.654-64 64-64h544c35.346 0 64 28.654 64 64v160c0 35.346-28.654 64-64 64z"/><glyph unicode="" glyph-name="align-right-simple-fill" data-tags="align-right-simple-fill" d="M928 736V160c0-17.673-14.327-32-32-32s-32 14.327-32 32v576c0 17.673 14.327 32 32 32s32-14.327 32-32zm-192-96H128c-35.346 0-64-28.654-64-64V320c0-35.346 28.654-64 64-64h608c35.346 0 64 28.654 64 64v256c0 35.346-28.654 64-64 64z"/><glyph unicode="" glyph-name="align-top-fill" data-tags="align-top-fill" d="M896 800c0-17.673-14.327-32-32-32H160c-17.673 0-32 14.327-32 32s14.327 32 32 32h704c17.673 0 32-14.327 32-32zm-128-96H608c-35.346 0-64-28.654-64-64V256c0-35.346 28.654-64 64-64h160c35.346 0 64 28.654 64 64v384c0 35.346-28.654 64-64 64zm-352 0H256c-35.346 0-64-28.654-64-64V96c0-35.346 28.654-64 64-64h160c35.346 0 64 28.654 64 64v544c0 35.346-28.654 64-64 64z"/><glyph unicode="" glyph-name="align-top-simple-fill" data-tags="align-top-simple-fill" d="M832 832c0-17.673-14.327-32-32-32H224c-17.673 0-32 14.327-32 32s14.327 32 32 32h576c17.673 0 32-14.327 32-32zm-192-96H384c-35.346 0-64-28.654-64-64V64c0-35.346 28.654-64 64-64h256c35.346 0 64 28.654 64 64v608c0 35.346-28.654 64-64 64z"/><glyph unicode="" glyph-name="amazon-logo-fill" data-tags="amazon-logo-fill" d="M608 416c0-53.019-42.981-96-96-96s-96 42.981-96 96 42.981 96 96 96 96-42.981 96-96zm320 32c0-229.75-186.25-416-416-416S96 218.25 96 448s186.25 416 416 416c229.65-.25 415.75-186.35 416-415.976V448zm-320 96c-26.407 19.978-59.8 32-96 32-88.366 0-160-71.634-160-160s71.634-160 160-160c36.2 0 69.593 12.022 96.402 32.292L608 288c0-17.673 14.327-32 32-32s32 14.327 32 32v256.041c0 88.366-71.634 160-160 160-56.809 0-106.703-29.607-135.094-74.233l-.386-.649c-2.903-4.723-4.623-10.445-4.623-16.567 0-17.673 14.327-32 32-32 11.158 0 20.981 5.71 26.708 14.368l.074.119c17.261 27.194 47.213 44.98 81.32 44.98 53.019 0 96-42.981 96-96v-.063.003zm179.24-262.44c-5.289 4.013-11.981 6.429-19.238 6.429-10.411 0-19.66-4.971-25.504-12.67l-.058-.079C689.341 204.945 605.921 159.987 512 159.987s-177.341 44.958-229.914 114.527l-.526.726c-5.879 8.113-15.325 13.33-25.989 13.33-17.673 0-32-14.327-32-32a31.858 31.858 0 016.92-19.876l-.051.066C295.342 150.912 397.26 96.013 512 96.013s216.658 54.899 280.919 139.862l.641.884c4.013 5.289 6.429 11.981 6.429 19.238 0 10.411-4.971 19.66-12.67 25.504l-.079.058z"/><glyph unicode="" glyph-name="anchor-fill" data-tags="anchor-fill" d="M896 384c-.137-123.657-100.343-223.863-223.987-224H672c-70.692 0-128-57.308-128-128 0-17.673-14.327-32-32-32s-32 14.327-32 32c0 70.692-57.308 128-128 128-123.657.137-223.863 100.343-224 223.987V384c0 17.673 14.327 32 32 32s32-14.327 32-32c0-88.366 71.634-160 160-160h.112c49.257 0 94.163-18.63 128.056-49.229l-.168.149V448H352c-17.673 0-32 14.327-32 32s14.327 32 32 32h128v116.68c-46.649 14.229-80 56.885-80 107.331 0 61.856 50.144 112 112 112s112-50.144 112-112c0-50.446-33.351-93.102-79.207-107.123l-.793-.209v-116.68h128c17.673 0 32-14.327 32-32s-14.327-32-32-32H544v-273.08c33.725 30.45 78.631 49.08 127.888 49.08h.118H672c88.366 0 160 71.634 160 160 0 17.673 14.327 32 32 32s32-14.327 32-32z"/><glyph unicode="" glyph-name="anchor-simple-fill" data-tags="anchor-simple-fill" d="M928 480c0-229.75-186.25-416-416-416S96 250.25 96 480c0 17.673 14.327 32 32 32h96c17.673 0 32-14.327 32-32s-14.327-32-32-32h-62.56c16.147-169.034 149.521-302.394 317.136-318.41l1.424-.11v467.2c-46.649 14.229-80 56.885-80 107.331 0 61.856 50.144 112 112 112s112-50.144 112-112c0-50.446-33.351-93.102-79.207-107.123l-.793-.209v-467.2c169.039 16.126 302.413 149.486 318.45 317.095l.11 1.425H800c-17.673 0-32 14.327-32 32s14.327 32 32 32h96c17.673 0 32-14.327 32-32z"/><glyph unicode="" glyph-name="android-logo-fill" data-tags="android-logo-fill" d="M828.24 605.32c-2.96 2.96-5.96 5.84-8.96 8.68l99.36 99.36c5.794 5.794 9.378 13.799 9.378 22.64 0 17.683-14.335 32.018-32.018 32.018-8.841 0-16.846-3.584-22.64-9.378l-104-104c-71.428 50.819-160.442 81.245-256.562 81.245-96.584 0-185.992-30.72-258.988-82.922l1.35.917-104.52 104.76c-5.794 5.794-13.799 9.378-22.64 9.378-17.683 0-32.018-14.335-32.018-32.018 0-8.841 3.584-16.846 9.378-22.64L205.6 613.12C118.309 530.29 64 413.437 64 283.899v-.442.023V192c0-35.346 28.654-64 64-64h768c35.346 0 64 28.654 64 64v96l.002 1.24c0 123.59-50.383 235.413-131.73 316.049l-.032.031zM368 288c-26.51 0-48 21.49-48 48s21.49 48 48 48 48-21.49 48-48-21.49-48-48-48zm288 0c-26.51 0-48 21.49-48 48s21.49 48 48 48 48-21.49 48-48-21.49-48-48-48z"/><glyph unicode="" glyph-name="angular-logo-fill" data-tags="angular-logo-fill" d="M512 542.12L564.28 448H459.72zm415.72 125.64l-64-480c-1.466-10.735-8.074-19.659-17.218-24.316l-.182-.084-320-160c-4.172-2.133-9.1-3.383-14.32-3.383s-10.148 1.25-14.502 3.467l.182-.084-320 160c-9.326 4.741-15.934 13.665-17.381 24.234l-.019.166-64 480a31.114 31.114 0 00-.28 4.227c0 13.227 8.025 24.579 19.471 29.454l.209.079 384 160c3.637 1.574 7.871 2.49 12.32 2.49s8.683-.916 12.526-2.569l-.206.079 384-160c11.656-4.954 19.68-16.307 19.68-29.533 0-1.49-.102-2.957-.299-4.393l.019.167zM700 335.52l-160 288c-5.565 9.917-16.013 16.508-28 16.508s-22.435-6.591-27.917-16.347l-.083-.161-160-288c-2.526-4.474-4.014-9.823-4.014-15.52 0-17.681 14.333-32.014 32.014-32.014 11.984 0 22.43 6.585 27.917 16.333l.083.161L424 384h176l44-79.52c5.57-9.909 16.016-16.494 28-16.494 17.681 0 32.014 14.333 32.014 32.014a31.868 31.868 0 01-4.097 15.681l.083-.161z"/><glyph unicode="" glyph-name="aperture-fill" data-tags="aperture-fill" d="M928 448v.007c0 229.75-186.25 416-416 416-114.877 0-218.878-46.564-294.16-121.847C142.557 666.878 95.993 562.877 95.993 448c0-229.75 186.25-416 416-416h.367C741.956 32.205 928 218.376 928 448zM196.72 604.32l204.84-37.4L186.6 313.88c-16.682 39.62-26.375 85.676-26.375 133.996 0 56.979 13.479 110.81 37.421 158.479l-.926-2.035zm640.68-22.16c16.683-39.626 26.377-85.688 26.377-134.015 0-56.987-13.479-110.825-37.423-158.501l.926 2.036-204.84 37.4zm-32.32 60.8L670.2 484 558.52 796.88c79.744-10.703 149.541-46.9 202.387-99.987l.013-.013a356.69 356.69 0 0043.357-52.656l.803-1.264zM489.72 799.24l70.04-196-326.56 59.48c9.683 12.559 19.467 23.712 29.901 34.221l-.021-.021c58.455 58.729 137.635 96.785 225.641 102.27l.999.05zm-270.8-546.2L353.8 412 465.48 99.28c-103.35 14.145-191.066 71.37-245.762 152.662l-.798 1.258zM534.28 96.8l-70.04 196 326.4-59.56c-60.356-78.219-151.806-129.905-255.511-136.429l-1.009-.051z"/><glyph unicode="" glyph-name="apple-logo-fill" data-tags="apple-logo-fill" d="M512.92 840c18.399 69.558 80.768 120 154.919 120h4.16c17.673 0 32-14.327 32-32s-14.327-32-32-32h-4.008c-44.491 0-81.912-30.265-92.801-71.33l-.151-.67c-3.68-13.92-16.161-24.016-31-24.016-17.682 0-32.016 14.334-32.016 32.016 0 2.843.371 5.599 1.066 8.223l-.05-.223zM893.2 281.64c-2.484 5.586-6.317 10.189-11.096 13.531l-.104.069c-67.88 46.64-82 126.2-82 184.76 0 70.68 53.88 132.24 86 162.68 6.166 5.845 10.002 14.095 10.002 23.24s-3.837 17.395-9.988 23.227l-.014.013C835.28 737.04 751.28 768 672 768c-59.639-.055-115.036-18.171-161.028-49.173l1.028.653c-44.755 30.38-99.97 48.502-159.418 48.502-79.551 0-151.523-32.452-203.399-84.839l-.023-.023c-52.724-53.794-85.263-127.543-85.263-208.891 0-2.753.037-5.497.111-8.232l-.009.403c3.401-141.75 64.352-268.628 160.288-358.667l.272-.253c28.452-26.926 66.959-43.481 109.333-43.481l.492.001h350.997c45.771 0 87.035 19.296 116.101 50.198l.077.082c26.772 28.748 50.405 61.024 69.982 95.884l1.298 2.516c28.08 51.32 24.48 59.32 20.36 68.96z"/><glyph unicode="" glyph-name="apple-podcasts-logo-fill" data-tags="apple-podcasts-logo-fill" d="M512 384c-61.856 0-112 50.144-112 112s50.144 112 112 112 112-50.144 112-112-50.144-112-112-112zm63 0H448.788c-25.866 0-48.889-12.172-63.653-31.101l-.135-.18c-10.474-13.24-16.801-30.179-16.801-48.596 0-6.966.905-13.721 2.605-20.153l-.123.549 48.72-192c9.274-35.08 40.726-60.52 78.121-60.52h28.719l.439-.001c37.395 0 68.847 25.441 77.994 59.958l.127.563 48.72 192c1.576 5.883 2.481 12.638 2.481 19.604 0 18.417-6.328 35.356-16.927 48.761l.126-.165C624.302 371.828 601.279 384 575.412 384l-.433-.001h.022zm153.96 8c-.641-2.393-1.009-5.14-1.009-7.974 0-14.834 10.093-27.31 23.786-30.936l.223-.05c2.401-.635 5.156-1 7.997-1h.003c14.82.011 27.282 10.096 30.91 23.777l.05.223c5.767 21.532 9.08 46.253 9.08 71.747 0 159.058-128.942 288-288 288s-288-128.942-288-288c0-25.495 3.313-50.215 9.531-73.755l-.451 2.008c3.51-14.151 16.1-24.474 31.102-24.474 17.673 0 32 14.327 32 32 0 3.015-.417 5.933-1.197 8.699l.054-.225c-4.472 16.721-7.04 35.919-7.04 55.717 0 123.712 100.288 224 224 224s224-100.288 224-224c0-19.798-2.568-38.995-7.39-57.278l.35 1.561zM512 864h-.047c-229.75 0-416-186.25-416-416 0-144.069 73.236-271.033 184.509-345.694l1.498-.946c4.981-3.354 11.116-5.353 17.719-5.353 11.067 0 20.823 5.619 26.569 14.159l.073.114c3.346 4.977 5.341 11.106 5.341 17.7 0 11.079-5.63 20.843-14.186 26.587l-.115.073c-95.416 63.976-157.38 171.404-157.38 293.304 0 194.404 157.596 352 352 352s352-157.596 352-352c0-121.9-61.964-229.327-156.113-292.503l-1.267-.801c-8.392-5.852-13.815-15.458-13.815-26.331 0-17.673 14.327-32 32-32a31.853 31.853 0 0117.38 5.126l-.125-.076c112.771 75.607 186.007 202.571 186.007 346.64 0 229.75-186.25 416-416 416h-.05.003z"/><glyph unicode="" glyph-name="app-store-logo-fill" data-tags="app-store-logo-fill" d="M512 864C282.25 864 96 677.75 96 448S282.25 32 512 32s416 186.25 416 416c-.25 229.65-186.35 415.75-415.976 416H512zM334.64 239.52l-19.2-32c-5.697-9.367-15.849-15.528-27.44-15.528-17.678 0-32.008 14.331-32.008 32.008a31.86 31.86 0 004.648 16.621l-.08-.141 19.2 32c5.697 9.367 15.849 15.528 27.44 15.528 17.678 0 32.008-14.331 32.008-32.008a31.86 31.86 0 00-4.648-16.621l.08.141zM512 352H224c-17.673 0-32 14.327-32 32s14.327 32 32 32h141.88l108.8 181.32-54.12 90.2c-2.87 4.703-4.568 10.393-4.568 16.48 0 17.678 14.331 32.008 32.008 32.008 11.591 0 21.743-6.161 27.36-15.387l.08-.141L512 659.52l36.56 60.96c5.697 9.367 15.849 15.528 27.44 15.528 17.678 0 32.008-14.331 32.008-32.008a31.86 31.86 0 00-4.648-16.621l.08.141L440.52 416H512c17.673 0 32-14.327 32-32s-14.327-32-32-32zm288 0H696.52l66.92-111.52c2.87-4.703 4.568-10.393 4.568-16.48 0-17.678-14.331-32.008-32.008-32.008-11.591 0-21.743 6.161-27.36 15.387l-.08.141-153.6 256c-2.87 4.703-4.568 10.393-4.568 16.48 0 17.678 14.331 32.008 32.008 32.008 11.591 0 21.743-6.161 27.36-15.387l.08-.141L658.12 416H800c17.673 0 32-14.327 32-32s-14.327-32-32-32z"/><glyph unicode="" glyph-name="app-window-fill" data-tags="app-window-fill" d="M864 800H160c-35.346 0-64-28.654-64-64V160c0-35.346 28.654-64 64-64h704c35.346 0 64 28.654 64 64v576c0 35.346-28.654 64-64 64zM272 576c-26.51 0-48 21.49-48 48s21.49 48 48 48 48-21.49 48-48-21.49-48-48-48zm160 0c-26.51 0-48 21.49-48 48s21.49 48 48 48 48-21.49 48-48-21.49-48-48-48z"/><glyph unicode="" glyph-name="archive-box-fill" data-tags="archive-box-fill" d="M892.64 686.32l-64 128c-5.373 10.567-16.164 17.68-28.617 17.68H223.977c-12.453 0-23.245-7.113-28.533-17.498l-.084-.182-64-128c-2.115-4.175-3.355-9.102-3.36-14.318V128c0-35.346 28.654-64 64-64h640c35.346 0 64 28.654 64 64v544a32.174 32.174 0 01-3.445 14.505l.085-.185zm-230-356.96l-128-128c-5.792-5.798-13.797-9.385-22.64-9.385s-16.848 3.587-22.64 9.385l-128 128c-5.794 5.794-9.378 13.799-9.378 22.64 0 17.683 14.335 32.018 32.018 32.018 8.841 0 16.846-3.584 22.64-9.378l73.36-73.4V544c0 17.673 14.327 32 32 32s32-14.327 32-32V301.24l73.36 73.4c5.794 5.794 13.799 9.378 22.64 9.378 17.683 0 32.018-14.335 32.018-32.018 0-8.841-3.584-16.846-9.378-22.64zM211.76 704l32 64h536.48l32-64z"/><glyph unicode="" glyph-name="archive-fill" data-tags="archive-fill" d="M896 768H128c-35.346 0-64-28.654-64-64v-96c0-35.346 28.654-64 64-64V192c0-35.346 28.654-64 64-64h640c35.346 0 64 28.654 64 64v352c35.346 0 64 28.654 64 64v96c0 35.346-28.654 64-64 64zM608 384H416c-17.673 0-32 14.327-32 32s14.327 32 32 32h192c17.673 0 32-14.327 32-32s-14.327-32-32-32zm288 224H128v96h768v-96z"/><glyph unicode="" glyph-name="archive-tray-fill" data-tags="archive-tray-fill" d="M832 832H192c-35.346 0-64-28.654-64-64V128c0-35.346 28.654-64 64-64h640c35.346 0 64 28.654 64 64v640c0 35.346-28.654 64-64 64zM361.36 502.64c5.792 5.798 13.797 9.385 22.64 9.385s16.848-3.587 22.64-9.385l73.36-73.4V672c0 17.673 14.327 32 32 32s32-14.327 32-32V429.24l73.36 73.4c5.794 5.794 13.799 9.378 22.64 9.378 17.683 0 32.018-14.335 32.018-32.018 0-8.841-3.584-16.846-9.378-22.64l-128-128c-5.792-5.798-13.797-9.385-22.64-9.385s-16.848 3.587-22.64 9.385l-128 128c-5.798 5.792-9.385 13.797-9.385 22.64s3.587 16.848 9.385 22.64zM832 128H192v160h114.76L384 210.72c11.512-11.564 27.444-18.72 45.047-18.72h165.915c17.607 0 33.539 7.173 45.033 18.756L717.239 288h114.76V128z"/><glyph unicode="" glyph-name="armchair-fill" data-tags="armchair-fill" d="M160 623.56V672c0 88.366 71.634 160 160 160h384c88.366 0 160-71.634 160-160v-48.44c-.066-8.609-7.061-15.563-15.68-15.563-.113 0-.225.001-.337.004H848c-85.835-.13-157.278-61.589-172.864-142.896l-.176-1.104H349.04c-15.762 82.411-87.205 143.87-173.026 144H176a15.784 15.784 0 00-.32-.003c-8.619 0-15.613 6.954-15.68 15.557v.006zM848 544c-61.856 0-112-50.144-112-112V288c0-17.673-14.327-32-32-32s-32 14.327-32 32v112H352V288c0-17.673-14.327-32-32-32s-32 14.327-32 32v144.011c0 61.856-50.144 112-112 112s-112-50.144-112-112c0-56.211 41.41-102.75 95.387-110.776l.613-.075V160c0-35.346 28.654-64 64-64h576c35.346 0 64 28.654 64 64v161.16c54.553 8.135 95.922 54.657 95.922 110.84 0 61.829-50.1 111.956-111.918 112H848z"/><glyph unicode="" glyph-name="arrow-arc-left-fill" data-tags="arrow-arc-left-fill" d="M928 224c0-17.673-14.327-32-32-32s-32 14.327-32 32c-.082 194.343-157.646 351.857-352 351.857-93.874 0-179.166-36.747-242.274-96.642l.154.145 104.76-104.72c5.798-5.792 9.385-13.797 9.385-22.64 0-17.673-14.327-32-32-32H95.999c-17.673 0-32 14.327-32 32v256.025c0 17.673 14.327 32 32 32 8.843 0 16.848-3.587 22.64-9.385l105.92-105.92c74.554 71.353 175.867 115.277 287.44 115.277 229.749 0 415.998-186.248 416-415.997z"/><glyph unicode="" glyph-name="arrow-arc-right-fill" data-tags="arrow-arc-right-fill" d="M960 608V352c0-17.673-14.327-32-32-32H671.975c-17.673 0-32 14.327-32 32 0 8.843 3.587 16.848 9.385 22.64l104.76 104.72c-62.954 59.749-148.246 96.497-242.12 96.497-194.354 0-351.918-157.514-352-351.849V224c0-17.673-14.327-32-32-32s-32 14.327-32 32c.002 229.749 186.251 415.997 416 415.997 111.573 0 212.886-43.924 287.593-115.422l-.153.145 105.92 105.92c5.792 5.798 13.797 9.385 22.64 9.385 17.673 0 32-14.327 32-32v-.027.001z"/><glyph unicode="" glyph-name="arrow-bend-double-up-left-fill" data-tags="arrow-bend-double-up-left-fill" d="M342.64 374.64c5.794-5.794 9.378-13.799 9.378-22.64 0-17.683-14.335-32.018-32.018-32.018-8.841 0-16.846 3.584-22.64 9.378l-192 192c-5.798 5.792-9.385 13.797-9.385 22.64s3.587 16.848 9.385 22.64l192 192c5.794 5.794 13.799 9.378 22.64 9.378 17.683 0 32.018-14.335 32.018-32.018 0-8.841-3.584-16.846-9.378-22.64L173.24 544zM544 574.8v161.225c0 17.673-14.327 32-32 32-8.843 0-16.848-3.587-22.64-9.385l-192-192c-5.798-5.792-9.385-13.797-9.385-22.64s3.587-16.848 9.385-22.64l192-192c5.792-5.798 13.797-9.385 22.64-9.385 17.673 0 32 14.327 32 32v.027-.001 158.52c180.037-17.135 319.773-167.474 320-350.497v-.023c0-17.673 14.327-32 32-32s32 14.327 32 32c-.283 218.387-168.56 397.382-382.522 414.704l-1.478.096z"/><glyph unicode="" glyph-name="arrow-bend-double-up-right-fill" data-tags="arrow-bend-double-up-right-fill" d="M918.64 521.36l-192-192c-5.794-5.794-13.799-9.378-22.64-9.378-17.683 0-32.018 14.335-32.018 32.018 0 8.841 3.584 16.846 9.378 22.64L850.76 544l-169.4 169.36c-5.794 5.794-9.378 13.799-9.378 22.64 0 17.683 14.335 32.018 32.018 32.018 8.841 0 16.846-3.584 22.64-9.378l192-192c5.798-5.792 9.385-13.797 9.385-22.64s-3.587-16.848-9.385-22.64zm-192 45.28l-192 192c-5.792 5.798-13.797 9.385-22.64 9.385-17.673 0-32-14.327-32-32v-.027.001-161.2C264.559 557.38 96.282 378.386 96 160.027v-.028c0-17.673 14.327-32 32-32s32 14.327 32 32c.227 183.046 139.963 333.385 318.579 350.411l1.421.109V351.974c0-17.673 14.327-32 32-32 8.843 0 16.848 3.587 22.64 9.385l192 192c5.798 5.792 9.385 13.797 9.385 22.64s-3.587 16.848-9.385 22.64z"/><glyph unicode="" glyph-name="arrow-bend-down-left-fill" data-tags="arrow-bend-down-left-fill" d="M928 736c-.25-229.65-186.35-415.75-415.976-416H352V159.975c0-17.673-14.327-32-32-32-8.843 0-16.848 3.587-22.64 9.385l-192 192c-5.798 5.792-9.385 13.797-9.385 22.64s3.587 16.848 9.385 22.64l192 192c5.792 5.798 13.797 9.385 22.64 9.385 17.673 0 32-14.327 32-32v-.027.001-160h160c194.313.228 351.772 157.687 352 351.978v.022c0 17.673 14.327 32 32 32s32-14.327 32-32z"/><glyph unicode="" glyph-name="arrow-bend-down-right-fill" data-tags="arrow-bend-down-right-fill" d="M918.64 329.36l-192-192c-5.792-5.798-13.797-9.385-22.64-9.385-17.673 0-32 14.327-32 32v.027-.001 160H512c-229.65.25-415.75 186.35-416 415.976v.024c0 17.673 14.327 32 32 32s32-14.327 32-32c.228-194.313 157.687-351.772 351.978-352H672v160.025c0 17.673 14.327 32 32 32 8.843 0 16.848-3.587 22.64-9.385l192-192c5.798-5.792 9.385-13.797 9.385-22.64s-3.587-16.848-9.385-22.64z"/><glyph unicode="" glyph-name="arrow-bend-left-down-fill" data-tags="arrow-bend-left-down-fill" d="M832 832c0-17.673-14.327-32-32-32-194.313-.228-351.772-157.687-352-351.978V288h160.025c17.673 0 32-14.327 32-32 0-8.843-3.587-16.848-9.385-22.64l-192-192c-5.792-5.798-13.797-9.385-22.64-9.385s-16.848 3.587-22.64 9.385l-192 192c-5.798 5.792-9.385 13.797-9.385 22.64 0 17.673 14.327 32 32 32h160.026v160c.25 229.65 186.35 415.75 415.976 416h.024c17.673 0 32-14.327 32-32z"/><glyph unicode="" glyph-name="arrow-bend-left-up-fill" data-tags="arrow-bend-left-up-fill" d="M832 64c0-17.673-14.327-32-32-32-229.65.25-415.75 186.35-416 415.976V608H223.975c-17.673 0-32 14.327-32 32 0 8.843 3.587 16.848 9.385 22.64l192 192c5.792 5.798 13.797 9.385 22.64 9.385s16.848-3.587 22.64-9.385l192-192c5.798-5.792 9.385-13.797 9.385-22.64 0-17.673-14.327-32-32-32H447.999V448c.228-194.313 157.687-351.772 351.978-352h.022c17.673 0 32-14.327 32-32z"/><glyph unicode="" glyph-name="arrow-bend-right-down-fill" data-tags="arrow-bend-right-down-fill" d="M822.64 233.36l-192-192c-5.792-5.798-13.797-9.385-22.64-9.385s-16.848 3.587-22.64 9.385l-192 192c-5.798 5.792-9.385 13.797-9.385 22.64 0 17.673 14.327 32 32 32h160.026v160c-.228 194.313-157.687 351.772-351.978 352h-.022c-17.673 0-32 14.327-32 32s14.327 32 32 32c229.65-.25 415.75-186.35 416-415.976V288h160.025c17.673 0 32-14.327 32-32 0-8.843-3.587-16.848-9.385-22.64z"/><glyph unicode="" glyph-name="arrow-bend-right-up-fill" data-tags="arrow-bend-right-up-fill" d="M829.56 627.76c-4.934-11.696-16.306-19.757-29.56-19.76H640V448c-.25-229.65-186.35-415.75-415.976-416H224c-17.673 0-32 14.327-32 32s14.327 32 32 32c194.313.228 351.772 157.687 352 351.978V608H415.975c-17.673 0-32 14.327-32 32 0 8.843 3.587 16.848 9.385 22.64l192 192c5.792 5.798 13.797 9.385 22.64 9.385s16.848-3.587 22.64-9.385l192-192c5.785-5.79 9.363-13.786 9.363-22.618 0-4.425-.898-8.639-2.522-12.472l.079.21z"/><glyph unicode="" glyph-name="arrow-bend-up-left-fill" data-tags="arrow-bend-up-left-fill" d="M928 160c0-17.673-14.327-32-32-32s-32 14.327-32 32c-.228 194.313-157.687 351.772-351.978 352H352V351.975c0-17.673-14.327-32-32-32-8.843 0-16.848 3.587-22.64 9.385l-192 192c-5.798 5.792-9.385 13.797-9.385 22.64s3.587 16.848 9.385 22.64l192 192c5.792 5.798 13.797 9.385 22.64 9.385 17.673 0 32-14.327 32-32v-.027.001-160h160c229.65-.25 415.75-186.35 416-415.976v-.024z"/><glyph unicode="" glyph-name="arrow-bend-up-right-fill" data-tags="arrow-bend-up-right-fill" d="M918.64 521.36l-192-192c-5.792-5.798-13.797-9.385-22.64-9.385-17.673 0-32 14.327-32 32v.027-.001 160H512c-194.313-.228-351.772-157.687-352-351.978v-.022c0-17.673-14.327-32-32-32s-32 14.327-32 32c.25 229.65 186.35 415.75 415.976 416H672v160.025c0 17.673 14.327 32 32 32 8.843 0 16.848-3.587 22.64-9.385l192-192c5.798-5.792 9.385-13.797 9.385-22.64s-3.587-16.848-9.385-22.64z"/><glyph unicode="" glyph-name="arrow-circle-down-fill" data-tags="arrow-circle-down-fill" d="M512 864C282.25 864 96 677.75 96 448S282.25 32 512 32s416 186.25 416 416c-.25 229.65-186.35 415.75-415.976 416H512zm150.64-470.64l-128-128c-5.792-5.798-13.797-9.385-22.64-9.385s-16.848 3.587-22.64 9.385l-128 128c-5.794 5.794-9.378 13.799-9.378 22.64 0 17.683 14.335 32.018 32.018 32.018 8.841 0 16.846-3.584 22.64-9.378l73.36-73.4V608c0 17.673 14.327 32 32 32s32-14.327 32-32V365.24l73.36 73.4c5.794 5.794 13.799 9.378 22.64 9.378 17.683 0 32.018-14.335 32.018-32.018 0-8.841-3.584-16.846-9.378-22.64z"/><glyph unicode="" glyph-name="arrow-circle-down-left-fill" data-tags="arrow-circle-down-left-fill" d="M512 864C282.25 864 96 677.75 96 448S282.25 32 512 32s416 186.25 416 416c-.25 229.65-186.35 415.75-415.976 416H512zm150.64-310.64L461.24 352H576c17.673 0 32-14.327 32-32s-14.327-32-32-32H384c-17.673 0-32 14.327-32 32v192c0 17.673 14.327 32 32 32s32-14.327 32-32V397.24l201.36 201.4c5.794 5.794 13.799 9.378 22.64 9.378 17.683 0 32.018-14.335 32.018-32.018 0-8.841-3.584-16.846-9.378-22.64z"/><glyph unicode="" glyph-name="arrow-circle-down-right-fill" data-tags="arrow-circle-down-right-fill" d="M512 864C282.25 864 96 677.75 96 448S282.25 32 512 32s416 186.25 416 416c-.25 229.65-186.35 415.75-415.976 416H512zm160-544c0-17.673-14.327-32-32-32H448c-17.673 0-32 14.327-32 32s14.327 32 32 32h114.76l-201.4 201.36c-5.794 5.794-9.378 13.799-9.378 22.64 0 17.683 14.335 32.018 32.018 32.018 8.841 0 16.846-3.584 22.64-9.378L608 397.24V512c0 17.673 14.327 32 32 32s32-14.327 32-32z"/><glyph unicode="" glyph-name="arrow-circle-left-fill" data-tags="arrow-circle-left-fill" d="M512 864C282.25 864 96 677.75 96 448S282.25 32 512 32s416 186.25 416 416c-.25 229.65-186.35 415.75-415.976 416H512zm160-448H429.24l73.4-73.36c5.794-5.794 9.378-13.799 9.378-22.64 0-17.683-14.335-32.018-32.018-32.018-8.841 0-16.846 3.584-22.64 9.378l-128 128c-5.798 5.792-9.385 13.797-9.385 22.64s3.587 16.848 9.385 22.64l128 128c5.794 5.794 13.799 9.378 22.64 9.378 17.683 0 32.018-14.335 32.018-32.018 0-8.841-3.584-16.846-9.378-22.64L429.24 480H672c17.673 0 32-14.327 32-32s-14.327-32-32-32z"/><glyph unicode="" glyph-name="arrow-circle-right-fill" data-tags="arrow-circle-right-fill" d="M512 864C282.25 864 96 677.75 96 448S282.25 32 512 32s416 186.25 416 416c-.25 229.65-186.35 415.75-415.976 416H512zm182.64-438.64l-128-128c-5.794-5.794-13.799-9.378-22.64-9.378-17.683 0-32.018 14.335-32.018 32.018 0 8.841 3.584 16.846 9.378 22.64l73.4 73.36H352c-17.673 0-32 14.327-32 32s14.327 32 32 32h242.76l-73.4 73.36c-5.794 5.794-9.378 13.799-9.378 22.64 0 17.683 14.335 32.018 32.018 32.018 8.841 0 16.846-3.584 22.64-9.378l128-128c5.798-5.792 9.385-13.797 9.385-22.64s-3.587-16.848-9.385-22.64z"/><glyph unicode="" glyph-name="arrow-circle-up-fill" data-tags="arrow-circle-up-fill" d="M512 864C282.25 864 96 677.75 96 448S282.25 32 512 32s416 186.25 416 416c-.25 229.65-186.35 415.75-415.976 416H512zm150.64-406.64c-5.792-5.798-13.797-9.385-22.64-9.385s-16.848 3.587-22.64 9.385L544 530.76V288c0-17.673-14.327-32-32-32s-32 14.327-32 32v242.76l-73.36-73.4c-5.794-5.794-13.799-9.378-22.64-9.378-17.683 0-32.018 14.335-32.018 32.018 0 8.841 3.584 16.846 9.378 22.64l128 128c5.792 5.798 13.797 9.385 22.64 9.385s16.848-3.587 22.64-9.385l128-128c5.798-5.792 9.385-13.797 9.385-22.64s-3.587-16.848-9.385-22.64z"/><glyph unicode="" glyph-name="arrow-circle-up-left-fill" data-tags="arrow-circle-up-left-fill" d="M512 864C282.25 864 96 677.75 96 448S282.25 32 512 32s416 186.25 416 416c-.25 229.65-186.35 415.75-415.976 416H512zm150.64-566.64c-5.792-5.798-13.797-9.385-22.64-9.385s-16.848 3.587-22.64 9.385L416 498.76V384c0-17.673-14.327-32-32-32s-32 14.327-32 32v192c0 17.673 14.327 32 32 32h192c17.673 0 32-14.327 32-32s-14.327-32-32-32H461.24l201.4-201.36c5.798-5.792 9.385-13.797 9.385-22.64s-3.587-16.848-9.385-22.64z"/><glyph unicode="" glyph-name="arrow-circle-up-right-fill" data-tags="arrow-circle-up-right-fill" d="M512 864C282.25 864 96 677.75 96 448S282.25 32 512 32s416 186.25 416 416c-.25 229.65-186.35 415.75-415.976 416H512zm160-480c0-17.673-14.327-32-32-32s-32 14.327-32 32v114.76l-201.36-201.4c-5.794-5.794-13.799-9.378-22.64-9.378-17.683 0-32.018 14.335-32.018 32.018 0 8.841 3.584 16.846 9.378 22.64L562.76 544H448c-17.673 0-32 14.327-32 32s14.327 32 32 32h192c17.673 0 32-14.327 32-32z"/><glyph unicode="" glyph-name="arrow-clockwise-fill" data-tags="arrow-clockwise-fill" d="M960 736V544c0-17.673-14.327-32-32-32H735.975c-17.673 0-32 14.327-32 32 0 8.843 3.587 16.848 9.385 22.64l68 68-42.2 38.6-1 .96c-57.905 57.883-137.887 93.683-226.231 93.683-176.731 0-320-143.269-320-320s143.269-320 320-320c85.071 0 162.388 33.196 219.705 87.341l-.154-.144a31.893 31.893 0 0022 8.756c17.682 0 32.016-14.334 32.016-32.016 0-9.154-3.842-17.411-10.002-23.246l-.015-.014C707.215 103.816 614.751 63.999 512.988 63.999l-1.043.001h-5.226c-209.803 2.965-378.741 173.736-378.741 383.964 0 212.077 171.923 384 384 384 105.786 0 201.582-42.776 271.032-111.975l-.011.011 43.72-40 78.64 78.8c5.792 5.799 13.797 9.386 22.641 9.386 17.673 0 32-14.327 32-32l-.001-.196v.01z"/><glyph unicode="" glyph-name="arrow-counter-clockwise-fill" data-tags="arrow-counter-clockwise-fill" d="M896 448v-.035C896 237.702 727.007 66.91 517.434 64.003L517.16 64H512l-.952-.001c-101.855 0-194.388 39.914-262.811 104.954l.162-.153c-6.174 5.849-10.016 14.106-10.016 23.26 0 17.682 14.334 32.016 32.016 32.016a31.906 31.906 0 0022.015-8.77l-.015.014c57.164-54.001 134.481-87.197 219.551-87.197 176.731 0 320 143.269 320 320s-143.269 320-320 320c-88.344 0-168.327-35.8-226.232-93.684l.001.001c-.327-.353-.666-.68-1.024-.986l-.016-.014-42.16-38.6 68-68c5.919-5.811 9.587-13.897 9.587-22.84 0-17.673-14.327-32-32-32H95.999c-17.673 0-32 14.327-32 32v192l-.001.186c0 17.673 14.327 32 32 32 8.843 0 16.848-3.587 22.64-9.385l78.6-78.8 43.76 40c69.437 69.175 165.224 111.943 271 111.943 212.057 0 383.968-171.89 384-383.94v-.003z"/><glyph unicode="" glyph-name="arrow-down-fill" data-tags="arrow-down-fill" d="M822.64 361.36l-288-288c-5.792-5.798-13.797-9.385-22.64-9.385s-16.848 3.587-22.64 9.385l-288 288c-5.798 5.792-9.385 13.797-9.385 22.64 0 17.673 14.327 32 32 32h256.026v384c0 17.673 14.327 32 32 32s32-14.327 32-32V416h256.025c17.673 0 32-14.327 32-32 0-8.843-3.587-16.848-9.385-22.64z"/><glyph unicode="" glyph-name="arrow-down-left-fill" data-tags="arrow-down-left-fill" d="M790.64 681.36L509.24 400l185.4-185.36c5.798-5.792 9.385-13.797 9.385-22.64 0-17.673-14.327-32-32-32H255.999c-17.673 0-32 14.327-32 32v416.025c0 17.673 14.327 32 32 32 8.843 0 16.848-3.587 22.64-9.385l185.36-185.4 281.36 281.4c5.794 5.794 13.799 9.378 22.64 9.378 17.683 0 32.018-14.335 32.018-32.018 0-8.841-3.584-16.846-9.378-22.64z"/><glyph unicode="" glyph-name="arrow-down-right-fill" data-tags="arrow-down-right-fill" d="M800 608V192c0-17.673-14.327-32-32-32H351.975c-17.673 0-32 14.327-32 32 0 8.843 3.587 16.848 9.385 22.64L514.76 400l-281.4 281.36c-5.794 5.794-9.378 13.799-9.378 22.64 0 17.683 14.335 32.018 32.018 32.018 8.841 0 16.846-3.584 22.64-9.378L560 445.24l185.36 185.4c5.792 5.798 13.797 9.385 22.64 9.385 17.673 0 32-14.327 32-32v-.027.001z"/><glyph unicode="" glyph-name="arrow-elbow-down-left-fill" data-tags="arrow-elbow-down-left-fill" d="M800 832V256c0-17.673-14.327-32-32-32H416V63.975c0-17.673-14.327-32-32-32-8.843 0-16.848 3.587-22.64 9.385l-192 192c-5.798 5.792-9.385 13.797-9.385 22.64s3.587 16.848 9.385 22.64l192 192c5.792 5.798 13.797 9.385 22.64 9.385 17.673 0 32-14.327 32-32v-.027.001-160h320v544c0 17.673 14.327 32 32 32s32-14.327 32-32z"/><glyph unicode="" glyph-name="arrow-elbow-down-right-fill" data-tags="arrow-elbow-down-right-fill" d="M854.64 233.36l-192-192c-5.792-5.798-13.797-9.385-22.64-9.385-17.673 0-32 14.327-32 32v.027-.001 160H256c-17.673 0-32 14.327-32 32v576c0 17.673 14.327 32 32 32s32-14.327 32-32v-544h320v160.025c0 17.673 14.327 32 32 32 8.843 0 16.848-3.587 22.64-9.385l192-192c5.798-5.792 9.385-13.797 9.385-22.64s-3.587-16.848-9.385-22.64z"/><glyph unicode="" glyph-name="arrow-elbow-left-down-fill" data-tags="arrow-elbow-left-down-fill" d="M928 704c0-17.673-14.327-32-32-32H352V352h160.025c17.673 0 32-14.327 32-32 0-8.843-3.587-16.848-9.385-22.64l-192-192c-5.792-5.798-13.797-9.385-22.64-9.385s-16.848 3.587-22.64 9.385l-192 192c-5.798 5.792-9.385 13.797-9.385 22.64 0 17.673 14.327 32 32 32h160.026v352c0 17.673 14.327 32 32 32h576c17.673 0 32-14.327 32-32z"/><glyph unicode="" glyph-name="arrow-elbow-left-fill" data-tags="arrow-elbow-left-fill" d="M950.64 553.36l-384-384c-5.792-5.798-13.797-9.385-22.64-9.385s-16.848 3.587-22.64 9.385L240 450.76l-121.36-121.4c-5.792-5.798-13.797-9.385-22.64-9.385-17.673 0-32 14.327-32 32v.027-.001 288c0 17.673 14.327 32 32 32h288.025c17.673 0 32-14.327 32-32 0-8.843-3.587-16.848-9.385-22.64l-121.4-121.36L544 237.241l361.36 361.4c5.794 5.794 13.799 9.378 22.64 9.378 17.683 0 32.018-14.335 32.018-32.018 0-8.841-3.584-16.846-9.378-22.64z"/><glyph unicode="" glyph-name="arrow-elbow-left-up-fill" data-tags="arrow-elbow-left-up-fill" d="M928 192c0-17.673-14.327-32-32-32H320c-17.673 0-32 14.327-32 32v352H127.975c-17.673 0-32 14.327-32 32 0 8.843 3.587 16.848 9.385 22.64l192 192c5.792 5.798 13.797 9.385 22.64 9.385s16.848-3.587 22.64-9.385l192-192c5.798-5.792 9.385-13.797 9.385-22.64 0-17.673-14.327-32-32-32H351.999V224h544c17.673 0 32-14.327 32-32z"/><glyph unicode="" glyph-name="arrow-elbow-right-down-fill" data-tags="arrow-elbow-right-down-fill" d="M918.64 297.36l-192-192c-5.792-5.798-13.797-9.385-22.64-9.385s-16.848 3.587-22.64 9.385l-192 192c-5.798 5.792-9.385 13.797-9.385 22.64 0 17.673 14.327 32 32 32h160.026v320h-544c-17.673 0-32 14.327-32 32s14.327 32 32 32h576c17.673 0 32-14.327 32-32V352h160.025c17.673 0 32-14.327 32-32 0-8.843-3.587-16.848-9.385-22.64z"/><glyph unicode="" glyph-name="arrow-elbow-right-fill" data-tags="arrow-elbow-right-fill" d="M960 640V351.975c0-17.673-14.327-32-32-32-8.843 0-16.848 3.587-22.64 9.385L784 450.76l-281.36-281.4c-5.792-5.798-13.797-9.385-22.64-9.385s-16.848 3.587-22.64 9.385l-384 384c-5.794 5.794-9.378 13.799-9.378 22.64 0 17.683 14.335 32.018 32.018 32.018 8.841 0 16.846-3.584 22.64-9.378L480 237.24 738.76 496l-121.4 121.36c-5.798 5.792-9.385 13.797-9.385 22.64 0 17.673 14.327 32 32 32h288.026c17.673 0 32-14.327 32-32z"/><glyph unicode="" glyph-name="arrow-elbow-right-up-fill" data-tags="arrow-elbow-right-up-fill" d="M925.56 563.76c-4.934-11.696-16.306-19.757-29.56-19.76H736V192c0-17.673-14.327-32-32-32H128c-17.673 0-32 14.327-32 32s14.327 32 32 32h544v320H511.975c-17.673 0-32 14.327-32 32 0 8.843 3.587 16.848 9.385 22.64l192 192c5.792 5.798 13.797 9.385 22.64 9.385s16.848-3.587 22.64-9.385l192-192c5.785-5.79 9.363-13.786 9.363-22.618 0-4.425-.898-8.639-2.522-12.472l.079.21z"/><glyph unicode="" glyph-name="arrow-elbow-up-left-fill" data-tags="arrow-elbow-up-left-fill" d="M800 640V64c0-17.673-14.327-32-32-32s-32 14.327-32 32v544H416V447.975c0-17.673-14.327-32-32-32-8.843 0-16.848 3.587-22.64 9.385l-192 192c-5.798 5.792-9.385 13.797-9.385 22.64s3.587 16.848 9.385 22.64l192 192c5.792 5.798 13.797 9.385 22.64 9.385 17.673 0 32-14.327 32-32v-.027.001-160h352c17.673 0 32-14.327 32-32z"/><glyph unicode="" glyph-name="arrow-elbow-up-right-fill" data-tags="arrow-elbow-up-right-fill" d="M854.64 617.36l-192-192c-5.792-5.798-13.797-9.385-22.64-9.385-17.673 0-32 14.327-32 32v.027-.001 160H288v-544c0-17.673-14.327-32-32-32s-32 14.327-32 32v576c0 17.673 14.327 32 32 32h352v160.025c0 17.673 14.327 32 32 32 8.843 0 16.848-3.587 22.64-9.385l192-192c5.798-5.792 9.385-13.797 9.385-22.64s-3.587-16.848-9.385-22.64z"/><glyph unicode="" glyph-name="arrow-fat-down-fill" data-tags="arrow-fat-down-fill" d="M918.64 393.36l-384-384C528.848 3.562 520.843-.025 512-.025s-16.848 3.587-22.64 9.385l-384 384c-5.798 5.792-9.385 13.797-9.385 22.64 0 17.673 14.327 32 32 32h160.026v320c0 35.346 28.654 64 64 64h320c35.346 0 64-28.654 64-64V448h160.025c17.673 0 32-14.327 32-32 0-8.843-3.587-16.848-9.385-22.64z"/><glyph unicode="" glyph-name="arrow-fat-left-fill" data-tags="arrow-fat-left-fill" d="M896 608V288c0-35.346-28.654-64-64-64H512V63.975c0-17.673-14.327-32-32-32-8.843 0-16.848 3.587-22.64 9.385l-384 384c-5.798 5.792-9.385 13.797-9.385 22.64s3.587 16.848 9.385 22.64l384 384c5.792 5.798 13.797 9.385 22.64 9.385 17.673 0 32-14.327 32-32v-.027.001-160h320c35.346 0 64-28.654 64-64z"/><glyph unicode="" glyph-name="arrow-fat-line-down-fill" data-tags="arrow-fat-line-down-fill" d="M288 800c0 17.673 14.327 32 32 32h384c17.673 0 32-14.327 32-32s-14.327-32-32-32H320c-17.673 0-32 14.327-32 32zm637.56-371.76c-4.934 11.696-16.306 19.757-29.56 19.76H736v224c0 17.673-14.327 32-32 32H320c-17.673 0-32-14.327-32-32V448H127.975c-17.673 0-32-14.327-32-32 0-8.843 3.587-16.848 9.385-22.64l384-384C495.152 3.562 503.157-.025 512-.025s16.848 3.587 22.64 9.385l384 384c5.785 5.79 9.363 13.786 9.363 22.618 0 4.425-.898 8.639-2.522 12.472l.079-.21z"/><glyph unicode="" glyph-name="arrow-fat-line-left-fill" data-tags="arrow-fat-line-left-fill" d="M768 640V256c0-17.673-14.327-32-32-32H512V63.975c0-17.673-14.327-32-32-32-8.843 0-16.848 3.587-22.64 9.385l-384 384c-5.798 5.792-9.385 13.797-9.385 22.64s3.587 16.848 9.385 22.64l384 384c5.792 5.798 13.797 9.385 22.64 9.385 17.673 0 32-14.327 32-32v-.027.001-160h224c17.673 0 32-14.327 32-32zm96 32c-17.673 0-32-14.327-32-32V256c0-17.673 14.327-32 32-32s32 14.327 32 32v384c0 17.673-14.327 32-32 32z"/><glyph unicode="" glyph-name="arrow-fat-line-right-fill" data-tags="arrow-fat-line-right-fill" d="M192 640V256c0-17.673-14.327-32-32-32s-32 14.327-32 32v384c0 17.673 14.327 32 32 32s32-14.327 32-32zm758.64-169.36l-384 384c-5.792 5.798-13.797 9.385-22.64 9.385-17.673 0-32-14.327-32-32v-.027.001-160H288c-17.673 0-32-14.327-32-32v-384c0-17.673 14.327-32 32-32h224V63.974c0-17.673 14.327-32 32-32 8.843 0 16.848 3.587 22.64 9.385l384 384c5.798 5.792 9.385 13.797 9.385 22.64s-3.587 16.848-9.385 22.64z"/><glyph unicode="" glyph-name="arrow-fat-lines-down-fill" data-tags="arrow-fat-lines-down-fill" d="M288 800c0 17.673 14.327 32 32 32h384c17.673 0 32-14.327 32-32s-14.327-32-32-32H320c-17.673 0-32 14.327-32 32zm637.56-371.76c-4.934 11.696-16.306 19.757-29.56 19.76H736v96c0 17.673-14.327 32-32 32H320c-17.673 0-32-14.327-32-32v-96H127.975c-17.673 0-32-14.327-32-32 0-8.843 3.587-16.848 9.385-22.64l384-384C495.152 3.562 503.157-.025 512-.025s16.848 3.587 22.64 9.385l384 384c5.785 5.79 9.363 13.786 9.363 22.618 0 4.425-.898 8.639-2.522 12.472l.079-.21zM320 640h384c17.673 0 32 14.327 32 32s-14.327 32-32 32H320c-17.673 0-32-14.327-32-32s14.327-32 32-32z"/><glyph unicode="" glyph-name="arrow-fat-lines-left-fill" data-tags="arrow-fat-lines-left-fill" d="M640 640V256c0-17.673-14.327-32-32-32h-96V63.975c0-17.673-14.327-32-32-32-8.843 0-16.848 3.587-22.64 9.385l-384 384c-5.798 5.792-9.385 13.797-9.385 22.64s3.587 16.848 9.385 22.64l384 384c5.792 5.798 13.797 9.385 22.64 9.385 17.673 0 32-14.327 32-32v-.027.001-160h96c17.673 0 32-14.327 32-32zm96 32c-17.673 0-32-14.327-32-32V256c0-17.673 14.327-32 32-32s32 14.327 32 32v384c0 17.673-14.327 32-32 32zm128 0c-17.673 0-32-14.327-32-32V256c0-17.673 14.327-32 32-32s32 14.327 32 32v384c0 17.673-14.327 32-32 32z"/><glyph unicode="" glyph-name="arrow-fat-lines-right-fill" data-tags="arrow-fat-lines-right-fill" d="M192 640V256c0-17.673-14.327-32-32-32s-32 14.327-32 32v384c0 17.673 14.327 32 32 32s32-14.327 32-32zm96 32c-17.673 0-32-14.327-32-32V256c0-17.673 14.327-32 32-32s32 14.327 32 32v384c0 17.673-14.327 32-32 32zm662.64-201.36l-384 384c-5.792 5.798-13.797 9.385-22.64 9.385-17.673 0-32-14.327-32-32v-.027.001-160h-96c-17.673 0-32-14.327-32-32v-384c0-17.673 14.327-32 32-32h96V63.974c0-17.673 14.327-32 32-32 8.843 0 16.848 3.587 22.64 9.385l384 384c5.798 5.792 9.385 13.797 9.385 22.64s-3.587 16.848-9.385 22.64z"/><glyph unicode="" glyph-name="arrow-fat-lines-up-fill" data-tags="arrow-fat-lines-up-fill" d="M736 96c0-17.673-14.327-32-32-32H320c-17.673 0-32 14.327-32 32s14.327 32 32 32h384c17.673 0 32-14.327 32-32zm182.64 406.64l-384 384c-5.792 5.798-13.797 9.385-22.64 9.385s-16.848-3.587-22.64-9.385l-384-384c-5.798-5.792-9.385-13.797-9.385-22.64 0-17.673 14.327-32 32-32h160.026v-96c0-17.673 14.327-32 32-32h384c17.673 0 32 14.327 32 32v96h160.025c17.673 0 32 14.327 32 32 0 8.843-3.587 16.848-9.385 22.64zM704 256H320c-17.673 0-32-14.327-32-32s14.327-32 32-32h384c17.673 0 32 14.327 32 32s-14.327 32-32 32z"/><glyph unicode="" glyph-name="arrow-fat-line-up-fill" data-tags="arrow-fat-line-up-fill" d="M736 96c0-17.673-14.327-32-32-32H320c-17.673 0-32 14.327-32 32s14.327 32 32 32h384c17.673 0 32-14.327 32-32zm182.64 406.64l-384 384c-5.792 5.798-13.797 9.385-22.64 9.385s-16.848-3.587-22.64-9.385l-384-384c-5.798-5.792-9.385-13.797-9.385-22.64 0-17.673 14.327-32 32-32h160.026V224c0-17.673 14.327-32 32-32h384c17.673 0 32 14.327 32 32v224h160.025c17.673 0 32 14.327 32 32 0 8.843-3.587 16.848-9.385 22.64z"/><glyph unicode="" glyph-name="arrow-fat-right-fill" data-tags="arrow-fat-right-fill" d="M950.64 425.36l-384-384c-5.792-5.798-13.797-9.385-22.64-9.385-17.673 0-32 14.327-32 32v.027-.001 160H192c-35.346 0-64 28.654-64 64v320c0 35.346 28.654 64 64 64h320v160.025c0 17.673 14.327 32 32 32 8.843 0 16.848-3.587 22.64-9.385l384-384c5.798-5.792 9.385-13.797 9.385-22.64s-3.587-16.848-9.385-22.64z"/><glyph unicode="" glyph-name="arrow-fat-up-fill" data-tags="arrow-fat-up-fill" d="M925.56 467.76c-4.934-11.696-16.306-19.757-29.56-19.76H736V128c0-35.346-28.654-64-64-64H352c-35.346 0-64 28.654-64 64v320H127.975c-17.673 0-32 14.327-32 32 0 8.843 3.587 16.848 9.385 22.64l384 384c5.792 5.798 13.797 9.385 22.64 9.385s16.848-3.587 22.64-9.385l384-384c5.785-5.79 9.363-13.786 9.363-22.618 0-4.425-.898-8.639-2.522-12.472l.079.21z"/><glyph unicode="" glyph-name="arrow-left-fill" data-tags="arrow-left-fill" d="M896 448c0-17.673-14.327-32-32-32H480V159.975c0-17.673-14.327-32-32-32-8.843 0-16.848 3.587-22.64 9.385l-288 288c-5.798 5.792-9.385 13.797-9.385 22.64s3.587 16.848 9.385 22.64l288 288c5.792 5.798 13.797 9.385 22.64 9.385 17.673 0 32-14.327 32-32v-.027.001-256h384c17.673 0 32-14.327 32-32z"/><glyph unicode="" glyph-name="arrow-line-down-fill" data-tags="arrow-line-down-fill" d="M201.36 489.36c-5.798 5.792-9.385 13.797-9.385 22.64 0 17.673 14.327 32 32 32h256.026v288c0 17.673 14.327 32 32 32s32-14.327 32-32V544h256.025c17.673 0 32-14.327 32-32 0-8.843-3.587-16.848-9.385-22.64l-288-288c-5.792-5.798-13.797-9.385-22.64-9.385s-16.848 3.587-22.64 9.385zM864 128H160c-17.673 0-32-14.327-32-32s14.327-32 32-32h704c17.673 0 32 14.327 32 32s-14.327 32-32 32z"/><glyph unicode="" glyph-name="arrow-line-down-left-fill" data-tags="arrow-line-down-left-fill" d="M726.64 630.64c5.798-5.792 9.385-13.797 9.385-22.64s-3.587-16.848-9.385-22.64L493.24 352l169.4-169.36c5.798-5.792 9.385-13.797 9.385-22.64 0-17.673-14.327-32-32-32H255.999c-17.673 0-32 14.327-32 32v384.025c0 17.673 14.327 32 32 32 8.843 0 16.848-3.587 22.64-9.385l169.36-169.4 233.36 233.4c5.792 5.798 13.797 9.385 22.64 9.385s16.848-3.587 22.64-9.385zM864 832H160c-17.673 0-32-14.327-32-32s14.327-32 32-32h704c17.673 0 32 14.327 32 32s-14.327 32-32 32z"/><glyph unicode="" glyph-name="arrow-line-down-right-fill" data-tags="arrow-line-down-right-fill" d="M896 800c0-17.673-14.327-32-32-32H160c-17.673 0-32 14.327-32 32s14.327 32 32 32h704c17.673 0 32-14.327 32-32zM780.24 573.56c-3.623 1.545-7.838 2.443-12.262 2.443-8.832 0-16.828-3.578-22.618-9.363L576 397.24l-233.36 233.4c-5.794 5.794-13.799 9.378-22.64 9.378-17.683 0-32.018-14.335-32.018-32.018 0-8.841 3.584-16.846 9.378-22.64L530.76 352l-169.4-169.36c-5.798-5.792-9.385-13.797-9.385-22.64 0-17.673 14.327-32 32-32h384.026c17.673 0 32 14.327 32 32v384c-.003 13.254-8.064 24.626-19.55 29.481l-.21.079z"/><glyph unicode="" glyph-name="arrow-line-left-fill" data-tags="arrow-line-left-fill" d="M192 800V96c0-17.673-14.327-32-32-32s-32 14.327-32 32v704c0 17.673 14.327 32 32 32s32-14.327 32-32zm704-320H608v256.025c0 17.673-14.327 32-32 32-8.843 0-16.848-3.587-22.64-9.385l-288-288c-5.798-5.792-9.385-13.797-9.385-22.64s3.587-16.848 9.385-22.64l288-288c5.792-5.798 13.797-9.385 22.64-9.385 17.673 0 32 14.327 32 32v.027-.001 256h288c17.673 0 32 14.327 32 32s-14.327 32-32 32z"/><glyph unicode="" glyph-name="arrow-line-right-fill" data-tags="arrow-line-right-fill" d="M896 800V96c0-17.673-14.327-32-32-32s-32 14.327-32 32v704c0 17.673 14.327 32 32 32s32-14.327 32-32zm-425.36-41.36c-5.792 5.798-13.797 9.385-22.64 9.385-17.673 0-32-14.327-32-32v-.027.001-256H128c-17.673 0-32-14.327-32-32s14.327-32 32-32h288V159.974c0-17.673 14.327-32 32-32 8.843 0 16.848 3.587 22.64 9.385l288 288c5.798 5.792 9.385 13.797 9.385 22.64s-3.587 16.848-9.385 22.64z"/><glyph unicode="" glyph-name="arrow-line-up-fill" data-tags="arrow-line-up-fill" d="M822.64 406.64c5.798-5.792 9.385-13.797 9.385-22.64 0-17.673-14.327-32-32-32H543.999V64c0-17.673-14.327-32-32-32s-32 14.327-32 32v288H223.974c-17.673 0-32 14.327-32 32 0 8.843 3.587 16.848 9.385 22.64l288 288c5.792 5.798 13.797 9.385 22.64 9.385s16.848-3.587 22.64-9.385zM864 832H160c-17.673 0-32-14.327-32-32s14.327-32 32-32h704c17.673 0 32 14.327 32 32s-14.327 32-32 32z"/><glyph unicode="" glyph-name="arrow-line-up-left-fill" data-tags="arrow-line-up-left-fill" d="M224 352v384c0 17.673 14.327 32 32 32h384.025c17.673 0 32-14.327 32-32 0-8.843-3.587-16.848-9.385-22.64L493.24 544l233.4-233.36c5.794-5.794 9.378-13.799 9.378-22.64 0-17.683-14.335-32.018-32.018-32.018-8.841 0-16.846 3.584-22.64 9.378L448 498.76l-169.36-169.4c-5.792-5.798-13.797-9.385-22.64-9.385-17.673 0-32 14.327-32 32v.027-.001zm640-224H160c-17.673 0-32-14.327-32-32s14.327-32 32-32h704c17.673 0 32 14.327 32 32s-14.327 32-32 32z"/><glyph unicode="" glyph-name="arrow-line-up-right-fill" data-tags="arrow-line-up-right-fill" d="M297.36 265.36c-5.798 5.792-9.385 13.797-9.385 22.64s3.587 16.848 9.385 22.64L530.76 544l-169.4 169.36c-5.798 5.792-9.385 13.797-9.385 22.64 0 17.673 14.327 32 32 32h384.026c17.673 0 32-14.327 32-32V351.975c0-17.673-14.327-32-32-32-8.843 0-16.848 3.587-22.64 9.385l-169.36 169.4-233.36-233.4c-5.792-5.798-13.797-9.385-22.64-9.385s-16.848 3.587-22.64 9.385zM864 128H160c-17.673 0-32-14.327-32-32s14.327-32 32-32h704c17.673 0 32 14.327 32 32s-14.327 32-32 32z"/><glyph unicode="" glyph-name="arrow-right-fill" data-tags="arrow-right-fill" d="M886.64 425.36l-288-288c-5.792-5.798-13.797-9.385-22.64-9.385-17.673 0-32 14.327-32 32v.027-.001 256H160c-17.673 0-32 14.327-32 32s14.327 32 32 32h384v256.025c0 17.673 14.327 32 32 32 8.843 0 16.848-3.587 22.64-9.385l288-288c5.798-5.792 9.385-13.797 9.385-22.64s-3.587-16.848-9.385-22.64z"/><glyph unicode="" glyph-name="arrows-clockwise-fill" data-tags="arrows-clockwise-fill" d="M790.64 214.64c5.798-5.792 9.385-13.797 9.385-22.64s-3.587-16.848-9.385-22.64C786.32 165.08 683.28 64 512 64c-93.44 0-184.52 36.4-265.12 105.64l-64.24-64.28c-5.792-5.798-13.797-9.385-22.64-9.385-17.673 0-32 14.327-32 32v.027-.001 192c0 17.673 14.327 32 32 32h192.025c17.673 0 32-14.327 32-32 0-8.843-3.587-16.848-9.385-22.64l-82.32-82.32c52-43.64 127-87.04 219.68-87.04 145.08 0 232.52 85.76 233.36 86.64 5.792 5.798 13.797 9.385 22.64 9.385s16.848-3.587 22.64-9.385zm85.6 582.92c-3.623 1.545-7.838 2.443-12.262 2.443-8.832 0-16.828-3.578-22.618-9.363l-64.24-64.28C696.52 795.6 605.44 832 512 832c-171.28 0-274.32-101.08-278.64-105.36-5.794-5.794-9.378-13.799-9.378-22.64 0-17.683 14.335-32.018 32.018-32.018 8.841 0 16.846 3.584 22.64 9.378.84.88 88.28 86.64 233.36 86.64 92.68 0 167.68-43.4 219.68-87.04l-82.32-82.32c-5.798-5.792-9.385-13.797-9.385-22.64 0-17.673 14.327-32 32-32h192.026c17.673 0 32 14.327 32 32v192c-.003 13.254-8.064 24.626-19.55 29.481l-.21.079z"/><glyph unicode="" glyph-name="arrows-counter-clockwise-fill" data-tags="arrows-counter-clockwise-fill" d="M896 320V127.975c0-17.673-14.327-32-32-32-8.843 0-16.848 3.587-22.64 9.385l-64.24 64.28C696.52 100.4 605.44 64 512 64c-171.28 0-274.32 101.08-278.64 105.36-5.809 5.794-9.404 13.808-9.404 22.66 0 17.675 14.329 32.004 32.004 32.004 8.823 0 16.811-3.57 22.601-9.344l-.001.001c1.44-1.4 90.08-86.68 233.44-86.68 92.68 0 167.68 43.4 219.68 87.04l-82.32 82.32c-5.798 5.792-9.385 13.797-9.385 22.64 0 17.673 14.327 32 32 32h192.026c17.673 0 32-14.327 32-32zM381.56 563.76c1.545 3.623 2.443 7.838 2.443 12.262 0 8.832-3.578 16.828-9.363 22.618l-82.32 82.32c52 43.64 127 87.04 219.68 87.04 143.8 0 232.52-85.76 233.44-86.72 5.79-5.77 13.778-9.338 22.6-9.338 17.683 0 32.018 14.335 32.018 32.018 0 8.861-3.6 16.882-9.417 22.679l-.001.001C786.32 730.92 683.28 832 512 832c-93.44 0-184.52-36.4-265.12-105.64l-64.24 64.28c-5.792 5.798-13.797 9.385-22.64 9.385-17.673 0-32-14.327-32-32v-.027.001-192c0-17.673 14.327-32 32-32h192c13.254.003 24.626 8.064 29.481 19.55l.079.21z"/><glyph unicode="" glyph-name="arrows-down-up-fill" data-tags="arrows-down-up-fill" d="M477.56 268.24c1.545-3.623 2.443-7.838 2.443-12.262 0-8.832-3.578-16.828-9.363-22.618l-128-128c-5.792-5.798-13.797-9.385-22.64-9.385s-16.848 3.587-22.64 9.385l-128 128c-5.798 5.792-9.385 13.797-9.385 22.64 0 17.673 14.327 32 32 32h96.026v480c0 17.673 14.327 32 32 32s32-14.327 32-32V288h96c13.254-.003 24.626-8.064 29.481-19.55l.079-.21zm377.08 394.4l-128 128c-5.792 5.798-13.797 9.385-22.64 9.385s-16.848-3.587-22.64-9.385l-128-128c-5.798-5.792-9.385-13.797-9.385-22.64 0-17.673 14.327-32 32-32h96.026V128c0-17.673 14.327-32 32-32s32 14.327 32 32v480h96.025c17.673 0 32 14.327 32 32 0 8.843-3.587 16.848-9.385 22.64z"/><glyph unicode="" glyph-name="arrows-horizontal-fill" data-tags="arrows-horizontal-fill" d="M950.64 425.36l-128-128c-5.792-5.798-13.797-9.385-22.64-9.385-17.673 0-32 14.327-32 32v.027-.001 96H256v-96.025c0-17.673-14.327-32-32-32-8.843 0-16.848 3.587-22.64 9.385l-128 128c-5.798 5.792-9.385 13.797-9.385 22.64s3.587 16.848 9.385 22.64l128 128c5.792 5.798 13.797 9.385 22.64 9.385 17.673 0 32-14.327 32-32v-.027.001-96h512v96.025c0 17.673 14.327 32 32 32 8.843 0 16.848-3.587 22.64-9.385l128-128c5.798-5.792 9.385-13.797 9.385-22.64s-3.587-16.848-9.385-22.64z"/><glyph unicode="" glyph-name="arrows-in-cardinal-fill" data-tags="arrows-in-cardinal-fill" d="M406.64 425.36l-128-128c-5.792-5.798-13.797-9.385-22.64-9.385-17.673 0-32 14.327-32 32v.027-.001 96H96c-17.673 0-32 14.327-32 32s14.327 32 32 32h128v96.025c0 17.673 14.327 32 32 32 8.843 0 16.848-3.587 22.64-9.385l128-128c5.798-5.792 9.385-13.797 9.385-22.64s-3.587-16.848-9.385-22.64zm82.72 128c5.792-5.798 13.797-9.385 22.64-9.385s16.848 3.587 22.64 9.385l128 128c5.798 5.792 9.385 13.797 9.385 22.64 0 17.673-14.327 32-32 32h-96.026v128c0 17.673-14.327 32-32 32s-32-14.327-32-32V736h-96.025c-17.673 0-32-14.327-32-32 0-8.843 3.587-16.848 9.385-22.64zm45.28-210.72c-5.792 5.798-13.797 9.385-22.64 9.385s-16.848-3.587-22.64-9.385l-128-128c-5.798-5.792-9.385-13.797-9.385-22.64 0-17.673 14.327-32 32-32h96.026V32c0-17.673 14.327-32 32-32s32 14.327 32 32v128h96.025c17.673 0 32 14.327 32 32 0 8.843-3.587 16.848-9.385 22.64zM928 480H800v96.025c0 17.673-14.327 32-32 32-8.843 0-16.848-3.587-22.64-9.385l-128-128c-5.798-5.792-9.385-13.797-9.385-22.64s3.587-16.848 9.385-22.64l128-128c5.792-5.798 13.797-9.385 22.64-9.385 17.673 0 32 14.327 32 32v.027-.001 96h128c17.673 0 32 14.327 32 32s-14.327 32-32 32z"/><glyph unicode="" glyph-name="arrows-in-fill" data-tags="arrows-in-fill" d="M576 544v160.025c0 17.673 14.327 32 32 32 8.843 0 16.848-3.587 22.64-9.385l57.36-57.4 121.36 121.4c5.794 5.794 13.799 9.378 22.64 9.378 17.683 0 32.018-14.335 32.018-32.018 0-8.841-3.584-16.846-9.378-22.64L733.24 624l57.4-57.36c5.798-5.792 9.385-13.797 9.385-22.64 0-17.673-14.327-32-32-32H607.999c-17.673 0-32 14.327-32 32zM416 384H255.975c-17.673 0-32-14.327-32-32 0-8.843 3.587-16.848 9.385-22.64l57.4-57.36-121.4-121.36c-5.794-5.794-9.378-13.799-9.378-22.64 0-17.683 14.335-32.018 32.018-32.018 8.841 0 16.846 3.584 22.64 9.378L336 226.76l57.36-57.4c5.792-5.798 13.797-9.385 22.64-9.385 17.673 0 32 14.327 32 32v.027-.001 160c0 17.673-14.327 32-32 32zm12.24 349.56c-3.623 1.545-7.838 2.443-12.262 2.443-8.832 0-16.828-3.578-22.618-9.363L336 669.24l-121.36 121.4c-5.794 5.794-13.799 9.378-22.64 9.378-17.683 0-32.018-14.335-32.018-32.018 0-8.841 3.584-16.846 9.378-22.64L290.76 624l-57.4-57.36c-5.798-5.792-9.385-13.797-9.385-22.64 0-17.673 14.327-32 32-32h160.026c17.673 0 32 14.327 32 32v160c-.003 13.254-8.064 24.626-19.55 29.481l-.21.079zm305-461.56l57.4 57.36c5.798 5.792 9.385 13.797 9.385 22.64 0 17.673-14.327 32-32 32H607.999c-17.673 0-32-14.327-32-32V191.975c0-17.673 14.327-32 32-32 8.843 0 16.848 3.587 22.64 9.385l57.36 57.4 121.36-121.4c5.794-5.794 13.799-9.378 22.64-9.378 17.683 0 32.018 14.335 32.018 32.018 0 8.841-3.584 16.846-9.378 22.64z"/><glyph unicode="" glyph-name="arrows-in-line-horizontal-fill" data-tags="arrows-in-line-horizontal-fill" d="M406.64 470.64c5.798-5.792 9.385-13.797 9.385-22.64s-3.587-16.848-9.385-22.64l-128-128c-5.792-5.798-13.797-9.385-22.64-9.385-17.673 0-32 14.327-32 32v.027-.001 96H64c-17.673 0-32 14.327-32 32s14.327 32 32 32h160v96.025c0 17.673 14.327 32 32 32 8.843 0 16.848-3.587 22.64-9.385zM960 480H800v96.025c0 17.673-14.327 32-32 32-8.843 0-16.848-3.587-22.64-9.385l-128-128c-5.798-5.792-9.385-13.797-9.385-22.64s3.587-16.848 9.385-22.64l128-128c5.792-5.798 13.797-9.385 22.64-9.385 17.673 0 32 14.327 32 32v.027-.001 96h160c17.673 0 32 14.327 32 32s-14.327 32-32 32zM512 832c-17.673 0-32-14.327-32-32V96c0-17.673 14.327-32 32-32s32 14.327 32 32v704c0 17.673-14.327 32-32 32z"/><glyph unicode="" glyph-name="arrows-in-line-vertical-fill" data-tags="arrows-in-line-vertical-fill" d="M361.36 681.36c-5.798 5.792-9.385 13.797-9.385 22.64 0 17.673 14.327 32 32 32h96.026v160c0 17.673 14.327 32 32 32s32-14.327 32-32V736h96.025c17.673 0 32-14.327 32-32 0-8.843-3.587-16.848-9.385-22.64l-128-128c-5.792-5.798-13.797-9.385-22.64-9.385s-16.848 3.587-22.64 9.385zm173.28-338.72c-5.792 5.798-13.797 9.385-22.64 9.385s-16.848-3.587-22.64-9.385l-128-128c-5.798-5.792-9.385-13.797-9.385-22.64 0-17.673 14.327-32 32-32h96.026V0c0-17.673 14.327-32 32-32s32 14.327 32 32v160h96.025c17.673 0 32 14.327 32 32 0 8.843-3.587 16.848-9.385 22.64zM864 480H160c-17.673 0-32-14.327-32-32s14.327-32 32-32h704c17.673 0 32 14.327 32 32s-14.327 32-32 32z"/><glyph unicode="" glyph-name="arrows-in-simple-fill" data-tags="arrows-in-simple-fill" d="M480 384V191.975c0-17.673-14.327-32-32-32-8.843 0-16.848 3.587-22.64 9.385L352 242.76l-137.36-137.4c-5.794-5.794-13.799-9.378-22.64-9.378-17.683 0-32.018 14.335-32.018 32.018 0 8.841 3.584 16.846 9.378 22.64L306.76 288l-73.4 73.36c-5.798 5.792-9.385 13.797-9.385 22.64 0 17.673 14.327 32 32 32h192.026c17.673 0 32-14.327 32-32zm374.64 406.64c-5.792 5.798-13.797 9.385-22.64 9.385s-16.848-3.587-22.64-9.385L672 653.24l-73.36 73.4c-5.792 5.798-13.797 9.385-22.64 9.385-17.673 0-32-14.327-32-32v-.027.001-192c0-17.673 14.327-32 32-32h192.025c17.673 0 32 14.327 32 32 0 8.843-3.587 16.848-9.385 22.64l-73.4 73.36 137.4 137.36c5.798 5.792 9.385 13.797 9.385 22.64s-3.587 16.848-9.385 22.64z"/><glyph unicode="" glyph-name="arrows-left-right-fill" data-tags="arrows-left-right-fill" d="M169.36 617.36c-5.798 5.792-9.385 13.797-9.385 22.64s3.587 16.848 9.385 22.64l128 128c5.792 5.798 13.797 9.385 22.64 9.385 17.673 0 32-14.327 32-32v-.027.001-96h480c17.673 0 32-14.327 32-32s-14.327-32-32-32H352v-96.025c0-17.673-14.327-32-32-32-8.843 0-16.848 3.587-22.64 9.385zm685.28-338.72l-128 128c-5.792 5.798-13.797 9.385-22.64 9.385-17.673 0-32-14.327-32-32v-.027.001-96H192c-17.673 0-32-14.327-32-32s14.327-32 32-32h480v-96.025c0-17.673 14.327-32 32-32 8.843 0 16.848 3.587 22.64 9.385l128 128c5.798 5.792 9.385 13.797 9.385 22.64s-3.587 16.848-9.385 22.64z"/><glyph unicode="" glyph-name="arrows-merge-fill" data-tags="arrows-merge-fill" d="M768 800V543.975c0-8.83-3.577-16.825-9.36-22.615L544 306.76V192h96.025c17.673 0 32-14.327 32-32 0-8.843-3.587-16.848-9.385-22.64l-128-128C528.848 3.562 520.843-.025 512-.025s-16.848 3.587-22.64 9.385l-128 128c-5.798 5.792-9.385 13.797-9.385 22.64 0 17.673 14.327 32 32 32h96.026v114.76l-214.64 214.6c-5.783 5.79-9.36 13.785-9.36 22.615v.027-.001 256c0 17.673 14.327 32 32 32s32-14.327 32-32v-242.76l192-192 192 192v242.76c0 17.673 14.327 32 32 32s32-14.327 32-32z"/><glyph unicode="" glyph-name="arrows-out-cardinal-fill" data-tags="arrows-out-cardinal-fill" d="M384 416H256v-96.025c0-17.673-14.327-32-32-32-8.843 0-16.848 3.587-22.64 9.385l-128 128c-5.798 5.792-9.385 13.797-9.385 22.64s3.587 16.848 9.385 22.64l128 128c5.792 5.798 13.797 9.385 22.64 9.385 17.673 0 32-14.327 32-32v-.027.001-96h128c17.673 0 32-14.327 32-32s-14.327-32-32-32zm0 288h96V576c0-17.673 14.327-32 32-32s32 14.327 32 32v128h96.025c17.673 0 32 14.327 32 32 0 8.843-3.587 16.848-9.385 22.64l-128 128c-5.792 5.798-13.797 9.385-22.64 9.385s-16.848-3.587-22.64-9.385l-128-128c-5.798-5.792-9.385-13.797-9.385-22.64 0-17.673 14.327-32 32-32h.027-.001zm566.64-233.36l-128 128c-5.792 5.798-13.797 9.385-22.64 9.385-17.673 0-32-14.327-32-32v-.027.001-96H640c-17.673 0-32-14.327-32-32s14.327-32 32-32h128v-96.025c0-17.673 14.327-32 32-32 8.843 0 16.848 3.587 22.64 9.385l128 128c5.798 5.792 9.385 13.797 9.385 22.64s-3.587 16.848-9.385 22.64zM640 192h-96v128c0 17.673-14.327 32-32 32s-32-14.327-32-32V192h-96.025c-17.673 0-32-14.327-32-32 0-8.843 3.587-16.848 9.385-22.64l128-128C495.152 3.562 503.157-.025 512-.025s16.848 3.587 22.64 9.385l128 128c5.798 5.792 9.385 13.797 9.385 22.64 0 17.673-14.327 32-32 32h-.027.001z"/><glyph unicode="" glyph-name="arrows-out-fill" data-tags="arrows-out-fill" d="M438.64 374.64c5.798-5.792 9.385-13.797 9.385-22.64s-3.587-16.848-9.385-22.64L333.24 224l73.4-73.36c5.798-5.792 9.385-13.797 9.385-22.64 0-17.673-14.327-32-32-32H191.999c-17.673 0-32 14.327-32 32v192.025c0 17.673 14.327 32 32 32 8.843 0 16.848-3.587 22.64-9.385l73.36-73.4 105.36 105.4c5.792 5.798 13.797 9.385 22.64 9.385s16.848-3.587 22.64-9.385zM333.24 672l73.4 73.36c5.798 5.792 9.385 13.797 9.385 22.64 0 17.673-14.327 32-32 32H191.999c-17.673 0-32-14.327-32-32V575.975c0-17.673 14.327-32 32-32 8.843 0 16.848 3.587 22.64 9.385l73.36 73.4 105.36-105.4c5.794-5.794 13.799-9.378 22.64-9.378 17.683 0 32.018 14.335 32.018 32.018 0 8.841-3.584 16.846-9.378 22.64zM832 800H639.975c-17.673 0-32-14.327-32-32 0-8.843 3.587-16.848 9.385-22.64l73.4-73.36-105.4-105.36c-5.794-5.794-9.378-13.799-9.378-22.64 0-17.683 14.335-32.018 32.018-32.018 8.841 0 16.846 3.584 22.64 9.378L736 626.76l73.36-73.4c5.792-5.798 13.797-9.385 22.64-9.385 17.673 0 32 14.327 32 32v.027-.001 192c0 17.673-14.327 32-32 32zm12.24-450.44c-3.623 1.545-7.838 2.443-12.262 2.443-8.832 0-16.828-3.578-22.618-9.363L736 269.24l-105.36 105.4c-5.794 5.794-13.799 9.378-22.64 9.378-17.683 0-32.018-14.335-32.018-32.018 0-8.841 3.584-16.846 9.378-22.64L690.76 224l-73.4-73.36c-5.798-5.792-9.385-13.797-9.385-22.64 0-17.673 14.327-32 32-32h192.026c17.673 0 32 14.327 32 32v192c-.003 13.254-8.064 24.626-19.55 29.481l-.21.079z"/><glyph unicode="" glyph-name="arrows-out-line-horizontal-fill" data-tags="arrows-out-line-horizontal-fill" d="M416 448c0-17.673-14.327-32-32-32H224v-96.025c0-17.673-14.327-32-32-32-8.843 0-16.848 3.587-22.64 9.385l-128 128c-5.798 5.792-9.385 13.797-9.385 22.64s3.587 16.848 9.385 22.64l128 128c5.792 5.798 13.797 9.385 22.64 9.385 17.673 0 32-14.327 32-32v-.027.001-96h160c17.673 0 32-14.327 32-32zm566.64 22.64l-128 128c-5.792 5.798-13.797 9.385-22.64 9.385-17.673 0-32-14.327-32-32v-.027.001-96H640c-17.673 0-32-14.327-32-32s14.327-32 32-32h160v-96.025c0-17.673 14.327-32 32-32 8.843 0 16.848 3.587 22.64 9.385l128 128c5.798 5.792 9.385 13.797 9.385 22.64s-3.587 16.848-9.385 22.64zM512 832c-17.673 0-32-14.327-32-32V96c0-17.673 14.327-32 32-32s32 14.327 32 32v704c0 17.673-14.327 32-32 32z"/><glyph unicode="" glyph-name="arrows-out-line-vertical-fill" data-tags="arrows-out-line-vertical-fill" d="M354.44 755.76c-1.545 3.623-2.443 7.838-2.443 12.262 0 8.832 3.578 16.828 9.363 22.618l128 128c5.792 5.798 13.797 9.385 22.64 9.385s16.848-3.587 22.64-9.385l128-128c5.798-5.792 9.385-13.797 9.385-22.64 0-17.673-14.327-32-32-32h-96.026V576c0-17.673-14.327-32-32-32s-32 14.327-32 32v160h-96c-13.254.003-24.626 8.064-29.481 19.55l-.079.21zM864 480H160c-17.673 0-32-14.327-32-32s14.327-32 32-32h704c17.673 0 32 14.327 32 32s-14.327 32-32 32zM640 160h-96v160c0 17.673-14.327 32-32 32s-32-14.327-32-32V160h-96.025c-17.673 0-32-14.327-32-32 0-8.843 3.587-16.848 9.385-22.64l128-128c5.792-5.798 13.797-9.385 22.64-9.385s16.848 3.587 22.64 9.385l128 128c5.798 5.792 9.385 13.797 9.385 22.64 0 17.673-14.327 32-32 32h-.027.001z"/><glyph unicode="" glyph-name="arrows-out-simple-fill" data-tags="arrows-out-simple-fill" d="M470.64 406.64c5.798-5.792 9.385-13.797 9.385-22.64s-3.587-16.848-9.385-22.64L333.24 224l73.4-73.36c5.798-5.792 9.385-13.797 9.385-22.64 0-17.673-14.327-32-32-32H191.999c-17.673 0-32 14.327-32 32v192.025c0 17.673 14.327 32 32 32 8.843 0 16.848-3.587 22.64-9.385l73.36-73.4 137.36 137.4c5.792 5.798 13.797 9.385 22.64 9.385s16.848-3.587 22.64-9.385zM832 800H639.975c-17.673 0-32-14.327-32-32 0-8.843 3.587-16.848 9.385-22.64l73.4-73.36-137.4-137.36c-5.794-5.794-9.378-13.799-9.378-22.64 0-17.683 14.335-32.018 32.018-32.018 8.841 0 16.846 3.584 22.64 9.378L736 626.76l73.36-73.4c5.792-5.798 13.797-9.385 22.64-9.385 17.673 0 32 14.327 32 32v.027-.001 192c0 17.673-14.327 32-32 32z"/><glyph unicode="" glyph-name="arrow-square-down-fill" data-tags="arrow-square-down-fill" d="M832 832H192c-35.346 0-64-28.654-64-64V128c0-35.346 28.654-64 64-64h640c35.346 0 64 28.654 64 64v640c0 35.346-28.654 64-64 64zM662.64 393.36l-128-128c-5.792-5.798-13.797-9.385-22.64-9.385s-16.848 3.587-22.64 9.385l-128 128c-5.794 5.794-9.378 13.799-9.378 22.64 0 17.683 14.335 32.018 32.018 32.018 8.841 0 16.846-3.584 22.64-9.378l73.36-73.4V608c0 17.673 14.327 32 32 32s32-14.327 32-32V365.24l73.36 73.4c5.794 5.794 13.799 9.378 22.64 9.378 17.683 0 32.018-14.335 32.018-32.018 0-8.841-3.584-16.846-9.378-22.64z"/><glyph unicode="" glyph-name="arrow-square-down-left-fill" data-tags="arrow-square-down-left-fill" d="M832 832H192c-35.346 0-64-28.654-64-64V128c0-35.346 28.654-64 64-64h640c35.346 0 64 28.654 64 64v640c0 35.346-28.654 64-64 64zM662.64 553.36L461.24 352H576c17.673 0 32-14.327 32-32s-14.327-32-32-32H384c-17.673 0-32 14.327-32 32v192c0 17.673 14.327 32 32 32s32-14.327 32-32V397.24l201.36 201.4c5.794 5.794 13.799 9.378 22.64 9.378 17.683 0 32.018-14.335 32.018-32.018 0-8.841-3.584-16.846-9.378-22.64z"/><glyph unicode="" glyph-name="arrow-square-down-right-fill" data-tags="arrow-square-down-right-fill" d="M832 832H192c-35.346 0-64-28.654-64-64V128c0-35.346 28.654-64 64-64h640c35.346 0 64 28.654 64 64v640c0 35.346-28.654 64-64 64zM672 320c0-17.673-14.327-32-32-32H448c-17.673 0-32 14.327-32 32s14.327 32 32 32h114.76l-201.4 201.36c-5.794 5.794-9.378 13.799-9.378 22.64 0 17.683 14.335 32.018 32.018 32.018 8.841 0 16.846-3.584 22.64-9.378L608 397.24V512c0 17.673 14.327 32 32 32s32-14.327 32-32z"/><glyph unicode="" glyph-name="arrow-square-in-fill" data-tags="arrow-square-in-fill" d="M512 416V159.975c0-17.673-14.327-32-32-32-8.843 0-16.848 3.587-22.64 9.385L352 242.76 182.64 73.36c-5.794-5.794-13.799-9.378-22.64-9.378-17.683 0-32.018 14.335-32.018 32.018 0 8.841 3.584 16.846 9.378 22.64L306.76 288l-105.4 105.36c-5.798 5.792-9.385 13.797-9.385 22.64 0 17.673 14.327 32 32 32h256.026c17.673 0 32-14.327 32-32zm320 416H320c-35.346 0-64-28.654-64-64V576c0-17.673 14.327-32 32-32s32 14.327 32 32v192h512V256H640c-17.673 0-32-14.327-32-32s14.327-32 32-32h192c35.346 0 64 28.654 64 64v512c0 35.346-28.654 64-64 64z"/><glyph unicode="" glyph-name="arrow-square-left-fill" data-tags="arrow-square-left-fill" d="M832 832H192c-35.346 0-64-28.654-64-64V128c0-35.346 28.654-64 64-64h640c35.346 0 64 28.654 64 64v640c0 35.346-28.654 64-64 64zM672 416H429.24l73.4-73.36c5.794-5.794 9.378-13.799 9.378-22.64 0-17.683-14.335-32.018-32.018-32.018-8.841 0-16.846 3.584-22.64 9.378l-128 128c-5.798 5.792-9.385 13.797-9.385 22.64s3.587 16.848 9.385 22.64l128 128c5.794 5.794 13.799 9.378 22.64 9.378 17.683 0 32.018-14.335 32.018-32.018 0-8.841-3.584-16.846-9.378-22.64L429.24 480H672c17.673 0 32-14.327 32-32s-14.327-32-32-32z"/><glyph unicode="" glyph-name="arrow-square-out-fill" data-tags="arrow-square-out-fill" d="M768 416V128c0-35.346-28.654-64-64-64H192c-35.346 0-64 28.654-64 64v512c0 35.346 28.654 64 64 64h288c17.673 0 32-14.327 32-32s-14.327-32-32-32H192V128h512v288c0 17.673 14.327 32 32 32s32-14.327 32-32zm128 384c0 17.673-14.327 32-32 32H607.975c-17.673 0-32-14.327-32-32 0-8.843 3.587-16.848 9.385-22.64L690.76 672l-169.4-169.36c-5.794-5.794-9.378-13.799-9.378-22.64 0-17.683 14.335-32.018 32.018-32.018 8.841 0 16.846 3.584 22.64 9.378L736 626.76l105.36-105.4c5.792-5.798 13.797-9.385 22.64-9.385 17.673 0 32 14.327 32 32v.027-.001z"/><glyph unicode="" glyph-name="arrow-square-right-fill" data-tags="arrow-square-right-fill" d="M832 832H192c-35.346 0-64-28.654-64-64V128c0-35.346 28.654-64 64-64h640c35.346 0 64 28.654 64 64v640c0 35.346-28.654 64-64 64zM694.64 425.36l-128-128c-5.794-5.794-13.799-9.378-22.64-9.378-17.683 0-32.018 14.335-32.018 32.018 0 8.841 3.584 16.846 9.378 22.64l73.4 73.36H352c-17.673 0-32 14.327-32 32s14.327 32 32 32h242.76l-73.4 73.36c-5.794 5.794-9.378 13.799-9.378 22.64 0 17.683 14.335 32.018 32.018 32.018 8.841 0 16.846-3.584 22.64-9.378l128-128c5.798-5.792 9.385-13.797 9.385-22.64s-3.587-16.848-9.385-22.64z"/><glyph unicode="" glyph-name="arrow-square-up-fill" data-tags="arrow-square-up-fill" d="M832 832H192c-35.346 0-64-28.654-64-64V128c0-35.346 28.654-64 64-64h640c35.346 0 64 28.654 64 64v640c0 35.346-28.654 64-64 64zM662.64 457.36c-5.792-5.798-13.797-9.385-22.64-9.385s-16.848 3.587-22.64 9.385L544 530.76V288c0-17.673-14.327-32-32-32s-32 14.327-32 32v242.76l-73.36-73.4c-5.794-5.794-13.799-9.378-22.64-9.378-17.683 0-32.018 14.335-32.018 32.018 0 8.841 3.584 16.846 9.378 22.64l128 128c5.792 5.798 13.797 9.385 22.64 9.385s16.848-3.587 22.64-9.385l128-128c5.798-5.792 9.385-13.797 9.385-22.64s-3.587-16.848-9.385-22.64z"/><glyph unicode="" glyph-name="arrow-square-up-left-fill" data-tags="arrow-square-up-left-fill" d="M832 832H192c-35.346 0-64-28.654-64-64V128c0-35.346 28.654-64 64-64h640c35.346 0 64 28.654 64 64v640c0 35.346-28.654 64-64 64zM662.64 297.36c-5.792-5.798-13.797-9.385-22.64-9.385s-16.848 3.587-22.64 9.385L416 498.76V384c0-17.673-14.327-32-32-32s-32 14.327-32 32v192c0 17.673 14.327 32 32 32h192c17.673 0 32-14.327 32-32s-14.327-32-32-32H461.24l201.4-201.36c5.798-5.792 9.385-13.797 9.385-22.64s-3.587-16.848-9.385-22.64z"/><glyph unicode="" glyph-name="arrow-square-up-right-fill" data-tags="arrow-square-up-right-fill" d="M832 832H192c-35.346 0-64-28.654-64-64V128c0-35.346 28.654-64 64-64h640c35.346 0 64 28.654 64 64v640c0 35.346-28.654 64-64 64zM672 384c0-17.673-14.327-32-32-32s-32 14.327-32 32v114.76l-201.36-201.4c-5.794-5.794-13.799-9.378-22.64-9.378-17.683 0-32.018 14.335-32.018 32.018 0 8.841 3.584 16.846 9.378 22.64L562.76 544H448c-17.673 0-32 14.327-32 32s14.327 32 32 32h192c17.673 0 32-14.327 32-32z"/><glyph unicode="" glyph-name="arrows-split-fill" data-tags="arrows-split-fill" d="M918.64 201.36l-128-128c-5.792-5.798-13.797-9.385-22.64-9.385s-16.848 3.587-22.64 9.385l-128 128c-5.798 5.792-9.385 13.797-9.385 22.64 0 17.673 14.327 32 32 32h96.026v146.76l-224 224-224-224V256h96.025c17.673 0 32-14.327 32-32 0-8.843-3.587-16.848-9.385-22.64l-128-128c-5.792-5.798-13.797-9.385-22.64-9.385s-16.848 3.587-22.64 9.385l-128 128c-5.798 5.792-9.385 13.797-9.385 22.64 0 17.673 14.327 32 32 32h96.026v160.025c0 8.83 3.577 16.825 9.36 22.615l246.64 246.6V864c0 17.673 14.327 32 32 32s32-14.327 32-32V685.24l246.64-246.6c5.783-5.79 9.36-13.785 9.36-22.615v-.027.001-160h96.025c17.673 0 32-14.327 32-32 0-8.843-3.587-16.848-9.385-22.64z"/><glyph unicode="" glyph-name="arrows-vertical-fill" data-tags="arrows-vertical-fill" d="M669.56 172.24c1.545-3.623 2.443-7.838 2.443-12.262 0-8.832-3.578-16.828-9.363-22.618l-128-128C528.848 3.562 520.843-.025 512-.025s-16.848 3.587-22.64 9.385l-128 128c-5.798 5.792-9.385 13.797-9.385 22.64 0 17.673 14.327 32 32 32h96.026v512h-96.025c-17.673 0-32 14.327-32 32 0 8.843 3.587 16.848 9.385 22.64l128 128c5.792 5.798 13.797 9.385 22.64 9.385s16.848-3.587 22.64-9.385l128-128c5.798-5.792 9.385-13.797 9.385-22.64 0-17.673-14.327-32-32-32H544V192h96c13.254-.003 24.626-8.064 29.481-19.55l.079-.21z"/><glyph unicode="" glyph-name="arrow-u-down-left-fill" data-tags="arrow-u-down-left-fill" d="M928 512c-.159-141.321-114.679-255.841-255.985-256H352V95.975c0-17.673-14.327-32-32-32-8.843 0-16.848 3.587-22.64 9.385l-192 192c-5.798 5.792-9.385 13.797-9.385 22.64s3.587 16.848 9.385 22.64l192 192c5.792 5.798 13.797 9.385 22.64 9.385 17.673 0 32-14.327 32-32v-.027.001-160h320c106.039 0 192 85.961 192 192s-85.961 192-192 192H320c-17.673 0-32 14.327-32 32s14.327 32 32 32h352c141.321-.159 255.841-114.679 256-255.985v-.015z"/><glyph unicode="" glyph-name="arrow-u-down-right-fill" data-tags="arrow-u-down-right-fill" d="M918.64 265.36l-192-192c-5.792-5.798-13.797-9.385-22.64-9.385-17.673 0-32 14.327-32 32v.027-.001 160H352c-141.385 0-256 114.615-256 256s114.615 256 256 256h352c17.673 0 32-14.327 32-32s-14.327-32-32-32H352c-106.039 0-192-85.961-192-192s85.961-192 192-192h320v160.025c0 17.673 14.327 32 32 32 8.843 0 16.848-3.587 22.64-9.385l192-192c5.798-5.792 9.385-13.797 9.385-22.64s-3.587-16.848-9.385-22.64z"/><glyph unicode="" glyph-name="arrow-u-left-down-fill" data-tags="arrow-u-left-down-fill" d="M832 608V256c0-17.673-14.327-32-32-32s-32 14.327-32 32v352c0 106.039-85.961 192-192 192s-192-85.961-192-192V288h160.025c17.673 0 32-14.327 32-32 0-8.843-3.587-16.848-9.385-22.64l-192-192c-5.792-5.798-13.797-9.385-22.64-9.385s-16.848 3.587-22.64 9.385l-192 192c-5.798 5.792-9.385 13.797-9.385 22.64 0 17.673 14.327 32 32 32h160.026v320c0 141.385 114.615 256 256 256s256-114.615 256-256z"/><glyph unicode="" glyph-name="arrow-u-left-up-fill" data-tags="arrow-u-left-up-fill" d="M832 640V288c0-141.385-114.615-256-256-256S320 146.615 320 288v320H159.975c-17.673 0-32 14.327-32 32 0 8.843 3.587 16.848 9.385 22.64l192 192c5.792 5.798 13.797 9.385 22.64 9.385s16.848-3.587 22.64-9.385l192-192c5.798-5.792 9.385-13.797 9.385-22.64 0-17.673-14.327-32-32-32H383.999V288c0-106.039 85.961-192 192-192s192 85.961 192 192v352c0 17.673 14.327 32 32 32s32-14.327 32-32z"/><glyph unicode="" glyph-name="arrow-up-fill" data-tags="arrow-up-fill" d="M829.56 499.76c-4.934-11.696-16.306-19.757-29.56-19.76H544V96c0-17.673-14.327-32-32-32s-32 14.327-32 32v384H223.975c-17.673 0-32 14.327-32 32 0 8.843 3.587 16.848 9.385 22.64l288 288c5.792 5.798 13.797 9.385 22.64 9.385s16.848-3.587 22.64-9.385l288-288c5.785-5.79 9.363-13.786 9.363-22.618 0-4.425-.898-8.639-2.522-12.472l.079.21z"/><glyph unicode="" glyph-name="arrow-up-left-fill" data-tags="arrow-up-left-fill" d="M790.64 169.36c-5.792-5.798-13.797-9.385-22.64-9.385s-16.848 3.587-22.64 9.385L464 450.76l-185.36-185.4c-5.792-5.798-13.797-9.385-22.64-9.385-17.673 0-32 14.327-32 32v.027-.001 416c0 17.673 14.327 32 32 32h416.025c17.673 0 32-14.327 32-32 0-8.843-3.587-16.848-9.385-22.64l-185.4-185.36 281.4-281.36c5.798-5.792 9.385-13.797 9.385-22.64s-3.587-16.848-9.385-22.64z"/><glyph unicode="" glyph-name="arrow-up-right-fill" data-tags="arrow-up-right-fill" d="M800 704V287.975c0-17.673-14.327-32-32-32-8.843 0-16.848 3.587-22.64 9.385L560 450.76l-281.36-281.4c-5.794-5.794-13.799-9.378-22.64-9.378-17.683 0-32.018 14.335-32.018 32.018 0 8.841 3.584 16.846 9.378 22.64L514.76 496l-185.4 185.36c-5.798 5.792-9.385 13.797-9.385 22.64 0 17.673 14.327 32 32 32h416.026c17.673 0 32-14.327 32-32z"/><glyph unicode="" glyph-name="arrow-u-right-down-fill" data-tags="arrow-u-right-down-fill" d="M886.64 233.36l-192-192c-5.792-5.798-13.797-9.385-22.64-9.385s-16.848 3.587-22.64 9.385l-192 192c-5.798 5.792-9.385 13.797-9.385 22.64 0 17.673 14.327 32 32 32h160.026v320c0 106.039-85.961 192-192 192s-192-85.961-192-192V256c0-17.673-14.327-32-32-32s-32 14.327-32 32v352c0 141.385 114.615 256 256 256s256-114.615 256-256V288h160.025c17.673 0 32-14.327 32-32 0-8.843-3.587-16.848-9.385-22.64z"/><glyph unicode="" glyph-name="arrow-u-right-up-fill" data-tags="arrow-u-right-up-fill" d="M893.56 627.76c-4.934-11.696-16.306-19.757-29.56-19.76H704V288c0-141.385-114.615-256-256-256S192 146.615 192 288v352c0 17.673 14.327 32 32 32s32-14.327 32-32V288c0-106.039 85.961-192 192-192s192 85.961 192 192v320H479.975c-17.673 0-32 14.327-32 32 0 8.843 3.587 16.848 9.385 22.64l192 192c5.792 5.798 13.797 9.385 22.64 9.385s16.848-3.587 22.64-9.385l192-192c5.785-5.79 9.363-13.786 9.363-22.618 0-4.425-.898-8.639-2.522-12.472l.079.21z"/><glyph unicode="" glyph-name="arrow-u-up-left-fill" data-tags="arrow-u-up-left-fill" d="M928 384c-.159-141.321-114.679-255.841-255.985-256H320c-17.673 0-32 14.327-32 32s14.327 32 32 32h352c106.039 0 192 85.961 192 192s-85.961 192-192 192H352V415.975c0-17.673-14.327-32-32-32-8.843 0-16.848 3.587-22.64 9.385l-192 192c-5.798 5.792-9.385 13.797-9.385 22.64s3.587 16.848 9.385 22.64l192 192c5.792 5.798 13.797 9.385 22.64 9.385 17.673 0 32-14.327 32-32v-.027.001-160h320c141.321-.159 255.841-114.679 256-255.985v-.015z"/><glyph unicode="" glyph-name="arrow-u-up-right-fill" data-tags="arrow-u-up-right-fill" d="M672 416v160H352c-106.039 0-192-85.961-192-192s85.961-192 192-192h352c17.673 0 32-14.327 32-32s-14.327-32-32-32H352C210.615 128 96 242.615 96 384s114.615 256 256 256h320v160.025c0 17.673 14.327 32 32 32 8.843 0 16.848-3.587 22.64-9.385l192-192c5.798-5.792 9.385-13.797 9.385-22.64s-3.587-16.848-9.385-22.64l-192-192c-5.792-5.798-13.797-9.385-22.64-9.385-17.673 0-32 14.327-32 32v.027-.001z"/><glyph unicode="" glyph-name="article-fill" data-tags="article-fill" d="M864 800H160c-35.346 0-64-28.654-64-64V160c0-35.346 28.654-64 64-64h704c35.346 0 64 28.654 64 64v576c0 35.346-28.654 64-64 64zM704 288H320c-17.673 0-32 14.327-32 32s14.327 32 32 32h384c17.673 0 32-14.327 32-32s-14.327-32-32-32zm0 128H320c-17.673 0-32 14.327-32 32s14.327 32 32 32h384c17.673 0 32-14.327 32-32s-14.327-32-32-32zm0 128H320c-17.673 0-32 14.327-32 32s14.327 32 32 32h384c17.673 0 32-14.327 32-32s-14.327-32-32-32z"/><glyph unicode="" glyph-name="article-medium-fill" data-tags="article-medium-fill" d="M224 384c0-17.673-14.327-32-32-32H96c-17.673 0-32 14.327-32 32s14.327 32 32 32h32v256H96c-17.673 0-32 14.327-32 32s14.327 32 32 32h64.034c11.355 0 21.329-5.914 27.009-14.831l.077-.129L320 508.36l132.88 212.6c5.746 9.087 15.738 15.034 27.119 15.04H544c17.673 0 32-14.327 32-32s-14.327-32-32-32h-32V416h32c17.673 0 32-14.327 32-32s-14.327-32-32-32h-96c-17.673 0-32 14.327-32 32s14.327 32 32 32v176.44l-100.88-161.4c-5.751-9.077-15.742-15.015-27.12-15.015s-21.369 5.938-27.043 14.884l-.077.131L192 592.44V416c17.673 0 32-14.327 32-32zm736 96H672c-17.673 0-32-14.327-32-32v-64c0-17.673 14.327-32 32-32h288c17.673 0 32 14.327 32 32v64c0 17.673-14.327 32-32 32zm0-192H288c-17.673 0-32-14.327-32-32v-64c0-17.673 14.327-32 32-32h672c17.673 0 32 14.327 32 32v64c0 17.673-14.327 32-32 32zm0 384H672c-17.673 0-32-14.327-32-32v-64c0-17.673 14.327-32 32-32h288c17.673 0 32 14.327 32 32v64c0 17.673-14.327 32-32 32z"/><glyph unicode="" glyph-name="article-ny-times-fill" data-tags="article-ny-times-fill" d="M992 576v-64c0-17.673-14.327-32-32-32H640c-17.673 0-32 14.327-32 32v64c0 17.673 14.327 32 32 32h320c17.673 0 32-14.327 32-32zm-32-160H640c-17.673 0-32-14.327-32-32v-64c0-17.673 14.327-32 32-32h320c17.673 0 32 14.327 32 32v64c0 17.673-14.327 32-32 32zm0-192H288c-17.673 0-32-14.327-32-32v-64c0-17.673 14.327-32 32-32h672c17.673 0 32 14.327 32 32v64c0 17.673-14.327 32-32 32zm-640 64c-123.657.137-223.863 100.343-224 223.987v.181c0 30.225 6.041 59.039 16.982 85.3L112.44 596c-29.243 20.495-48.126 54.043-48.126 92 0 61.745 49.965 111.821 111.669 112h.085a31.858 31.858 0 0015.653-4.083l-.161.083 279.72-155.4c23.059 3.78 40.439 23.561 40.439 47.401 0 26.411-21.331 47.84-47.704 47.999H464c-17.673 0-32 14.327-32 32s14.327 32 32 32c61.856 0 112-50.144 112-112s-50.144-112-112-112h-.068a31.858 31.858 0 00-15.653 4.083l.161-.083-160 88.84c-73.79-15.217-128.48-79.654-128.48-156.865 0-77.052 54.466-141.384 126.998-156.593l1.041-.183v156.8c0 17.673 14.327 32 32 32s32-14.327 32-32v-156.76c55.557 11.676 99.864 50.856 118.566 102.324l.354 1.116c4.674 12.25 16.326 20.793 29.974 20.793 17.673 0 32-14.327 32-32 0-3.633-.605-7.124-1.721-10.379l.067.225c-31.779-87.691-114.311-149.231-211.229-149.32h-.011zM144.92 651.44c19.063 23.796 42.335 43.34 68.815 57.731l1.185.589-46.2 25.68c-23.264-3.594-40.866-23.475-40.866-47.467 0-14.599 6.517-27.675 16.801-36.479l.065-.055z"/><glyph unicode="" glyph-name="asterisk-fill" data-tags="asterisk-fill" d="M512 864C282.25 864 96 677.75 96 448S282.25 32 512 32s416 186.25 416 416c-.25 229.65-186.35 415.75-415.976 416H512zm256.48-532.56c9.367-5.697 15.528-15.849 15.528-27.44 0-17.678-14.331-32.008-32.008-32.008a31.86 31.86 0 00-16.621 4.648l.141-.08L544 391.48V184c0-17.673-14.327-32-32-32s-32 14.327-32 32v207.48L288.48 276.56c-4.703-2.87-10.393-4.568-16.48-4.568-17.678 0-32.008 14.331-32.008 32.008 0 11.591 6.161 21.743 15.387 27.36l.141.08L449.8 448 255.52 564.56c-9.367 5.697-15.528 15.849-15.528 27.44 0 17.678 14.331 32.008 32.008 32.008a31.86 31.86 0 0016.621-4.648l-.141.08L480 504.52V712c0 17.673 14.327 32 32 32s32-14.327 32-32V504.52l191.52 114.92c4.703 2.87 10.393 4.568 16.48 4.568 17.678 0 32.008-14.331 32.008-32.008 0-11.591-6.161-21.743-15.387-27.36l-.141-.08L574.2 448z"/><glyph unicode="" glyph-name="asterisk-simple-fill" data-tags="asterisk-simple-fill" d="M512 864C282.25 864 96 677.75 96 448S282.25 32 512 32s416 186.25 416 416c-.25 229.65-186.35 415.75-415.976 416H512zm236.6-349.4L564 435.52l132.52-159.04c4.61-5.507 7.409-12.667 7.409-20.48 0-17.678-14.331-32.009-32.009-32.009-9.865 0-18.687 4.463-24.559 11.479l-.041.05L512 398 376.6 235.52c-5.913-7.067-14.735-11.529-24.6-11.529-17.678 0-32.009 14.331-32.009 32.009a31.877 31.877 0 007.45 20.53l-.041-.05L460 435.52 275.4 514.6c-11.967 4.812-20.262 16.322-20.262 29.77 0 17.673 14.327 32 32 32 4.885 0 9.515-1.095 13.657-3.052l-.195.083 179.4-76.88v183.48c0 17.673 14.327 32 32 32s32-14.327 32-32v-183.48l179.4 76.88c3.947 1.875 8.577 2.97 13.462 2.97 17.673 0 32-14.327 32-32 0-13.448-8.295-24.958-20.047-29.693l-.215-.077z"/><glyph unicode="" glyph-name="at-fill" data-tags="at-fill" d="M928 448v-6.08C926.64 384.88 905.48 320 816 320c-92.56 0-112 69.6-112 128v160.07c0 17.673-14.327 32-32 32-.746 0-1.486-.026-2.219-.076l.099.005c-16.805-1.486-29.884-15.496-29.884-32.56 0-.183.002-.365.004-.547v.027-16c-33.831 30.418-78.815 49.021-128.145 49.021-106.039 0-192-85.961-192-192s85.961-192 192-192c63.464 0 119.736 30.791 154.692 78.25l.372.529c4.389-7.626 8.858-14.16 13.771-20.326l-.251.326c21.48-26.72 62.4-58.72 135.56-58.72l.728-.001c12.769 0 25.283 1.092 37.454 3.187l-1.302-.185c.791.139 1.702.218 2.632.218 8.837 0 16-7.163 16-16 0-3.034-.845-5.872-2.312-8.289l.04.071c-73.936-122.459-206.3-203.079-357.494-203.079-2.85 0-5.694.029-8.53.086l.424-.007c-219.12 4.4-398.84 180.56-407.32 399.56a400.859 400.859 0 00-.32 16.313c0 229.75 186.25 416 416 416 229.706 0 415.928-186.177 416-415.866V448zm-544 0c0-70.692 57.308-128 128-128s128 57.308 128 128c0 70.692-57.308 128-128 128-70.692 0-128-57.308-128-128z"/><glyph unicode="" glyph-name="atom-fill" data-tags="atom-fill" d="M784.48 448c98.6 138.44 148.88 281.52 78.96 351.44s-213 19.64-351.44-78.96c-138.44 98.6-281.52 148.88-351.44 78.96s-19.64-213 78.96-351.44c-98.6-138.44-148.88-281.52-78.96-351.44C183.08 74.04 213.16 64 248.2 64c73.88 0 169.92 44.68 264 111.52C605.88 108.68 701.88 64 776 64c35.04 0 65.16 10.08 87.64 32.56 69.72 69.92 19.44 213-79.16 351.44zm33.72 306.2c30.56-30.56 9.92-129.6-74.08-253.12-27.834 34.319-55.551 65.052-84.766 94.286l.006-.006a1216.834 1216.834 0 01-92.045 82.882L565.08 680c123.52 84 222.56 104.76 253.12 74.2zm-612.4 0c8.8 8.84 23.32 13.4 42.48 13.4 47.28 0 122.76-27.6 210.6-87.6-34.309-27.836-65.027-55.513-94.269-84.669l.029.029a1208.171 1208.171 0 01-82.889-92.053L280 501.08C196 624.6 175.24 723.64 205.8 754.2zm0-612.4c-30.56 30.56-9.8 129.6 74.2 253.12 27.834-34.319 55.551-65.052 84.766-94.286l-.006.006a1223.796 1223.796 0 0191.934-82.885L458.92 216C335.4 132 236.36 111.24 205.8 141.8zM512 400c-26.51 0-48 21.49-48 48s21.49 48 48 48 48-21.49 48-48-21.49-48-48-48zm306.2-258.24c-30.56-30.6-129.6-9.92-253.12 74.08 34.315 27.868 65.046 55.583 94.299 84.779l-.019-.019a1208.262 1208.262 0 0182.885 92.086L744 394.92c84-123.52 104.76-222.56 74.2-253.12z"/><glyph unicode="" glyph-name="baby-fill" data-tags="baby-fill" d="M536.64 863.6c-.25.014-.542.022-.837.022-5.586 0-10.504-2.863-13.366-7.202l-.037-.06C481.2 794.08 480 736.84 480 736c.072-17.619 14.371-31.874 32-31.874 2.381 0 4.7.26 6.933.753l-.212-.039c14.612 3.588 25.282 16.574 25.282 32.053l-.002.407v-.021c.619 17.186 14.7 30.882 31.98 30.882 1.134 0 2.254-.059 3.357-.174l-.138.012c16.294-1.946 28.805-15.684 28.805-32.343 0-.203-.002-.405-.006-.608v.03c-.306-52.787-43.17-95.462-96-95.462-53.02 0-96.002 42.981-96.002 96.002l.002.569v-.029c0 2.52.36 43.12 21.76 96 .726 1.761 1.147 3.806 1.147 5.949 0 8.837-7.163 16-16 16a16.07 16.07 0 01-3.615-.41l.108.021C232.798 809.767 96.034 644.682 96.034 447.653c0-5.027.089-10.034.266-15.018l-.02.723c7.72-220.24 188.64-397.36 409-400.96 1.895-.031 4.131-.049 6.371-.049 229.75 0 416 186.25 416 416 0 220.959-172.269 401.683-389.825 415.19l-1.186.059zM320 448.36c0 26.51 21.49 48 48 48s48-21.49 48-48-21.49-48-48-48-48 21.49-48 48zm321.08-219.08c-36.648-23.181-81.258-36.939-129.08-36.939s-92.432 13.758-130.085 37.531l1.005-.593c-9.033 5.763-14.936 15.732-14.936 27.08 0 17.682 14.334 32.016 32.016 32.016a31.867 31.867 0 0017.209-5.013l-.129.077c26.967-16.984 59.767-27.061 94.92-27.061s67.953 10.077 95.668 27.5l-.748-.439c4.841 3.097 10.746 4.936 17.08 4.936 17.682 0 32.016-14.334 32.016-32.016 0-11.348-5.904-21.317-14.808-27.003l-.129-.077zM656 400.36c-26.51 0-48 21.49-48 48s21.49 48 48 48 48-21.49 48-48-21.49-48-48-48z"/><glyph unicode="" glyph-name="backpack-fill" data-tags="backpack-fill" d="M672 797.68V832c0 53.019-42.981 96-96 96H448c-53.019 0-96-42.981-96-96v-34.32c-109.097-16.348-191.827-109.326-192-221.662V96c0-35.346 28.654-64 64-64h576c35.346 0 64 28.654 64 64v480c-.173 112.354-82.903 205.332-190.765 221.528l-1.235.152zM416 832c0 17.673 14.327 32 32 32h128c17.673 0 32-14.327 32-32v-32H416zm32-160h128c17.673 0 32-14.327 32-32s-14.327-32-32-32H448c-17.673 0-32 14.327-32 32s14.327 32 32 32zM704 96H320v160h224v-32c0-17.673 14.327-32 32-32s32 14.327 32 32v32h96zm0 224H320v32c0 35.346 28.654 64 64 64h256c35.346 0 64-28.654 64-64z"/><glyph unicode="" glyph-name="backspace-fill" data-tags="backspace-fill" d="M864 800H274.12c-23.161-.102-43.428-12.4-54.72-30.799l-.16-.281L36.56 464.48c-2.87-4.703-4.57-10.393-4.57-16.48s1.699-11.777 4.65-16.621l-.08.141 182.68-304.44c11.447-18.685 31.717-30.986 54.866-31.08H864c35.346 0 64 28.654 64 64v576c0 35.346-28.654 64-64 64zM662.64 374.64c5.794-5.794 9.378-13.799 9.378-22.64 0-17.683-14.335-32.018-32.018-32.018-8.841 0-16.846 3.584-22.64 9.378L544 402.76l-73.4-73.4c-5.791-5.786-13.787-9.364-22.62-9.364-17.675 0-32.004 14.329-32.004 32.004 0 8.843 3.586 16.847 9.383 22.64l73.4 73.36-73.4 73.36c-5.797 5.793-9.384 13.797-9.384 22.64 0 17.675 14.329 32.004 32.004 32.004 8.833 0 16.829-3.578 22.62-9.364l73.4-73.4 73.36 73.4c5.794 5.794 13.799 9.378 22.64 9.378 17.683 0 32.018-14.335 32.018-32.018 0-8.841-3.584-16.846-9.378-22.64l-73.4-73.36z"/><glyph unicode="" glyph-name="bag-fill" data-tags="bag-fill" d="M864 704H704c0 106.039-85.961 192-192 192s-192-85.961-192-192H160c-35.346 0-64-28.654-64-64V160c0-35.346 28.654-64 64-64h704c35.346 0 64 28.654 64 64v480c0 35.346-28.654 64-64 64zM384 544c0-17.673-14.327-32-32-32s-32 14.327-32 32v64c0 17.673 14.327 32 32 32s32-14.327 32-32zm128 288c70.692 0 128-57.308 128-128H384c0 70.692 57.308 128 128 128zm192-288c0-17.673-14.327-32-32-32s-32 14.327-32 32v64c0 17.673 14.327 32 32 32s32-14.327 32-32z"/><glyph unicode="" glyph-name="bag-simple-fill" data-tags="bag-simple-fill" d="M864 704H704c0 106.039-85.961 192-192 192s-192-85.961-192-192H160c-35.346 0-64-28.654-64-64V160c0-35.346 28.654-64 64-64h704c35.346 0 64 28.654 64 64v480c0 35.346-28.654 64-64 64zM512 832c70.692 0 128-57.308 128-128H384c0 70.692 57.308 128 128 128z"/><glyph unicode="" glyph-name="balloon-fill" data-tags="balloon-fill" d="M512 896c-194.313-.228-351.772-157.687-352-351.978V544c0-93.72 37.6-197.68 100.52-278 48.32-61.64 106-104 167.64-124.36L386.6 44.6c-1.634-3.715-2.585-8.047-2.585-12.6 0-17.668 14.318-31.991 31.984-32H608c17.667.009 31.985 14.332 31.985 32 0 4.553-.951 8.885-2.665 12.806l.08-.206-41.4 97.04c61.6 20.28 119.32 62.72 167.64 124.36C826.4 346.32 864 450.28 864 544c-.228 194.313-157.687 351.772-351.978 352H512zm197.28-351.56a33.01 33.01 0 00-5.27-.44H704c-15.791.021-28.9 11.477-31.493 26.53l-.027.19c-12.451 68.253-65.468 121.269-132.708 133.566l-1.012.154c-15.398 2.497-27.013 15.697-27.013 31.609 0 17.673 14.327 32 32 32 1.969 0 3.897-.178 5.768-.518l-.196.03c95.09-17.324 168.956-91.189 186.067-184.872l.213-1.408c.278-1.585.437-3.41.437-5.272 0-15.821-11.482-28.961-26.568-31.541l-.189-.027z"/><glyph unicode="" glyph-name="bandaids-fill" data-tags="bandaids-fill" d="M560 448c0-26.51-21.49-48-48-48s-48 21.49-48 48 21.49 48 48 48 48-21.49 48-48zm178.28 0l110.84 110.88c30.136 29.135 48.846 69.926 48.846 115.086 0 88.366-71.634 160-160 160-45.16 0-85.951-18.71-115.043-48.801l-.043-.045L512 674.28 401.12 785.12c-29.135 30.136-69.926 48.846-115.086 48.846-88.366 0-160-71.634-160-160 0-45.16 18.71-85.951 48.801-115.043l.045-.043L285.72 448 174.88 337.12c-30.136-29.135-48.846-69.926-48.846-115.086 0-88.366 71.634-160 160-160 45.16 0 85.951 18.71 115.043 48.801l.043.045L512 221.72l110.88-110.84c29.135-30.136 69.926-48.846 115.086-48.846 88.366 0 160 71.634 160 160 0 45.16-18.71 85.951-48.801 115.043l-.045.043zM512 583.76L647.76 448 512 312.24 376.24 448zm156 156c17.393 17.423 41.438 28.202 68 28.202 53.064 0 96.082-43.017 96.082-96.082 0-26.502-10.73-50.499-28.083-67.881L693.12 493.12 557.24 629zM356 156c-17.403-17.403-41.444-28.167-68-28.167-53.111 0-96.167 43.055-96.167 96.167 0 26.556 10.764 50.597 28.167 68l110.88 110.88 135.76-135.76z"/><glyph unicode="" glyph-name="bank-fill" data-tags="bank-fill" d="M992 128c0-17.673-14.327-32-32-32H64c-17.673 0-32 14.327-32 32s14.327 32 32 32h896c17.673 0 32-14.327 32-32zM65.2 567.28c-.771 2.616-1.214 5.622-1.214 8.731 0 11.477 6.042 21.543 15.119 27.19l.136.079 416 256c4.768 2.976 10.558 4.74 16.76 4.74s11.992-1.764 16.895-4.819l-.135.079 416-256c9.223-5.724 15.273-15.795 15.273-27.28 0-17.673-14.327-32-32-32h-96.033V288h64c17.673 0 32-14.327 32-32s-14.327-32-32-32h-768c-17.673 0-32 14.327-32 32s14.327 32 32 32h64v256H95.99c-14.568 0-26.862 9.735-30.733 23.054l-.056.226zM576 320c0-17.673 14.327-32 32-32s32 14.327 32 32v192c0 17.673-14.327 32-32 32s-32-14.327-32-32zm-192 0c0-17.673 14.327-32 32-32s32 14.327 32 32v192c0 17.673-14.327 32-32 32s-32-14.327-32-32z"/><glyph unicode="" glyph-name="barbell-fill" data-tags="barbell-fill" d="M800 704V192c0-35.346-28.654-64-64-64h-64c-35.346 0-64 28.654-64 64v224H416V192c0-35.346-28.654-64-64-64h-64c-35.346 0-64 28.654-64 64v512c0 35.346 28.654 64 64 64h64c35.346 0 64-28.654 64-64V480h192v224c0 35.346 28.654 64 64 64h64c35.346 0 64-28.654 64-64zm-656-32h-16c-35.346 0-64-28.654-64-64V480H33.08a35.05 35.05 0 01-.483.004c-17.072 0-31.091-13.075-32.588-29.758L0 450.12A30.776 30.776 0 01-.07 448c0-17.673 14.327-32 32-32H64V288c0-35.346 28.654-64 64-64h16c8.837 0 16 7.163 16 16v416c0 8.837-7.163 16-16 16zm880-221.88c-1.507 16.808-15.525 29.882-32.597 29.882-.142 0-.283-.001-.425-.003h-30.979v128c0 35.346-28.654 64-64 64h-16c-8.837 0-16-7.163-16-16v-416c0-8.837 7.163-16 16-16h16c35.346 0 64 28.654 64 64v128h32.07c17.673 0 32 14.327 32 32 0 .746-.026 1.486-.076 2.219l.005-.099z"/><glyph unicode="" glyph-name="barcode-fill" data-tags="barcode-fill" d="M896 800H128c-17.673 0-32-14.327-32-32V128c0-17.673 14.327-32 32-32h768c17.673 0 32 14.327 32 32v640c0 17.673-14.327 32-32 32zm-736-96c0 17.673 14.327 32 32 32h128c17.673 0 32-14.327 32-32s-14.327-32-32-32h-96v-96c0-17.673-14.327-32-32-32s-32 14.327-32 32zm160-544H192c-17.673 0-32 14.327-32 32v128c0 17.673 14.327 32 32 32s32-14.327 32-32v-96h96c17.673 0 32-14.327 32-32s-14.327-32-32-32zm96 192c0-17.673-14.327-32-32-32s-32 14.327-32 32v192c0 17.673 14.327 32 32 32s32-14.327 32-32zm128 0c0-17.673-14.327-32-32-32s-32 14.327-32 32v192c0 17.673 14.327 32 32 32s32-14.327 32-32zm96-32c-17.673 0-32 14.327-32 32v192c0 17.673 14.327 32 32 32s32-14.327 32-32V352c0-17.673-14.327-32-32-32zm224-128c0-17.673-14.327-32-32-32H704c-17.673 0-32 14.327-32 32s14.327 32 32 32h96v96c0 17.673 14.327 32 32 32s32-14.327 32-32zm0 384c0-17.673-14.327-32-32-32s-32 14.327-32 32v96h-96c-17.673 0-32 14.327-32 32s14.327 32 32 32h128c17.673 0 32-14.327 32-32z"/><glyph unicode="" glyph-name="barricade-fill" data-tags="barricade-fill" d="M896 704H128c-35.346 0-64-28.654-64-64V352c0-35.346 28.654-64 64-64h96V160c0-17.673 14.327-32 32-32s32 14.327 32 32v128h448V160c0-17.673 14.327-32 32-32s32 14.327 32 32v128h96c35.346 0 64 28.654 64 64v288c0 35.346-28.654 64-64 64zM128 592l240-240H128zm768-240H656L368 640h288l240-240v-48z"/><glyph unicode="" glyph-name="baseball-cap-fill" data-tags="baseball-cap-fill" d="M512 864c-229.641-.273-415.727-186.359-416-415.974V224c0-53.019 42.981-96 96-96 21.333.037 41.034 6.994 56.986 18.747l-.266-.187C297.32 181.88 382.4 224 512 224s214.68-42.08 263.24-77.4c15.683-11.606 35.407-18.577 56.76-18.577 53.011 0 95.987 42.968 96 95.976V448c-.273 229.641-186.359 415.727-415.974 416H512zM160 448c.239 168.553 118.708 309.368 276.908 343.972l2.332.428c-60.847-86.483-102.123-190.914-115.188-303.939l-.292-3.101c-62.318-18.414-116.653-43.236-166.536-74.503L160 412.48zm704-224c.003-.152.004-.331.004-.51 0-12.171-6.995-22.707-17.185-27.808l-.179-.081c-4.261-2.243-9.31-3.56-14.668-3.56a31.857 31.857 0 00-19.175 6.379l.083-.06C756.64 239.2 658.8 288 512 288s-244.64-48.8-300.88-89.68c-5.261-3.946-11.899-6.32-19.092-6.32a31.848 31.848 0 00-14.843 3.644l.176-.084c-10.369 5.183-17.365 15.719-17.365 27.89 0 .193.002.386.005.579V224v111.72c56.94 41.11 123.591 73.127 195.517 92.174l4.203.946c1.554.287 2.898.648 4.198 1.1l-.198-.06c44.538 11.512 95.667 18.12 148.34 18.12s103.802-6.608 152.604-19.042l-4.264.921a31.268 31.268 0 013.774-1.04l.226-.04c76.084-19.982 142.696-51.985 201.377-94.299l-1.777 1.219zm0 188.52c-47.106 29.644-101.441 54.466-159.06 71.675l-4.7 1.205c-13.364 116.112-54.639 220.528-116.899 309.13l1.419-2.13C745.292 757.368 863.761 616.553 864 448.027V448z"/></font>
</defs>
</svg>
