<svg xmlns="http://www.w3.org/2000/svg"><defs><font id="Phosphor" horiz-adv-x="1024"><font-face units-per-em="1024" ascent="960" descent="-64"/><glyph horiz-adv-x="512"/><glyph unicode="" glyph-name="address-book" data-tags="address-book" d="M332.76 262.4c5.286-4.007 11.974-6.419 19.226-6.419 10.441 0 19.715 5.001 25.556 12.738l.059.081c38.35 50.747 98.585 83.2 166.4 83.2s128.05-32.453 166.021-82.677l.379-.523c5.9-7.807 15.167-12.8 25.6-12.8 17.673 0 32 14.327 32 32 0 7.24-2.404 13.919-6.458 19.28l.058-.08c-28.241 37.584-65.16 67.174-107.866 86.075l-1.734.685c32.079 29.362 52.12 71.421 52.12 118.161 0 88.366-71.634 160-160 160s-160-71.634-160-160c0-46.739 20.041-88.798 51.999-118.051l.121-.109c-44.535-19.552-81.538-49.149-109.34-86.067l-.5-.693c-4.004-5.285-6.414-11.971-6.414-19.219 0-10.422 4.982-19.68 12.695-25.523l.08-.058zM448 512c0 53.019 42.981 96 96 96s96-42.981 96-96-42.981-96-96-96-96 42.981-96 96zm384 352H256c-35.346 0-64-28.654-64-64v-96h-64c-17.673 0-32-14.327-32-32s14.327-32 32-32h64V480h-64c-17.673 0-32-14.327-32-32s14.327-32 32-32h64V256h-64c-17.673 0-32-14.327-32-32s14.327-32 32-32h64V96c0-35.346 28.654-64 64-64h576c35.346 0 64 28.654 64 64v704c0 35.346-28.654 64-64 64zm0-768H256v704h576z"/><glyph unicode="" glyph-name="airplane" data-tags="airplane" d="M942.32 444.64L640 595.76V768c0 70.692-57.308 128-128 128s-128-57.308-128-128V595.76L81.68 444.64C71.113 439.267 64 428.476 64 416.023v-.024.001-128c.01-17.665 14.333-31.982 32-31.982 2.222 0 4.392.227 6.487.658l-.207-.036L384 312.96v-75.72l-54.64-54.6c-5.783-5.79-9.36-13.785-9.36-22.615v-.027.001V31.944c0-17.673 14.327-32 32-32 4.325 0 8.449.858 12.213 2.413L364 2.279l148 59.24 148-59.24c3.551-1.477 7.675-2.335 12-2.335 17.673 0 32 14.327 32 32v.058-.003 128.025c0 8.83-3.577 16.825-9.36 22.615l-54.64 54.6v75.72l281.72-56.32c1.888-.396 4.058-.622 6.28-.622 17.667 0 31.99 14.317 32 31.981v128.024c0 12.453-7.113 23.245-17.498 28.533l-.182.084zM896 327.04l-281.72 56.32c-1.888.396-4.058.622-6.28.622-17.667 0-31.99-14.317-32-31.981V223.975c0-8.83 3.577-16.825 9.36-22.615l54.64-54.6V79.28l-116 46.44c-3.517 1.447-7.601 2.287-11.88 2.287s-8.363-.84-12.094-2.364l.214.077L384 79.28v67.48l54.64 54.6c5.783 5.79 9.36 13.785 9.36 22.615v.027-.001 128c-.01 17.665-14.333 31.982-32 31.982a32.17 32.17 0 01-6.487-.658l.207.036L128 327.041v69.2l302.32 151.12c10.567 5.373 17.68 16.164 17.68 28.617v.024-.001 192c0 35.346 28.654 64 64 64s64-28.654 64-64V575.978c0-12.453 7.113-23.245 17.498-28.533l.182-.084L896 396.241z"/><glyph unicode="" glyph-name="airplane-in-flight" data-tags="airplane-in-flight" d="M896 96c0-17.673-14.327-32-32-32H288c-17.673 0-32 14.327-32 32s14.327 32 32 32h576c17.673 0 32-14.327 32-32zm96 320v-96c0-17.673-14.327-32-32-32H244.28l-.729-.002c-71.788 0-132.463 47.575-152.219 112.916l-.293 1.126-56.28 187.56c-1.714 5.507-2.702 11.838-2.702 18.4 0 35.326 28.621 63.967 63.939 64h32.003c8.825-.004 16.814-3.58 22.6-9.36l86.68-86.64h89.96l-36 107.76c-2.082 6.04-3.285 12.999-3.285 20.24 0 35.346 28.654 64 64 64h32.07c8.83 0 16.825-3.577 22.615-9.36L589.279 576h242.72c88.366 0 160-71.634 160-160zm-64 0c0 53.019-42.981 96-96 96H576c-8.825.004-16.814 3.58-22.6 9.36L370.76 704H352l49.96-149.88c1.041-3.02 1.642-6.5 1.642-10.12 0-17.66-14.305-31.979-31.96-32H223.975c-8.83 0-16.825 3.577-22.615 9.36L114.76 608H96l56.28-187.6c12.036-39.868 48.436-68.401 91.5-68.401l.527.001H928z"/><glyph unicode="" glyph-name="airplane-landing" data-tags="airplane-landing" d="M992 96c0-17.673-14.327-32-32-32H384c-17.673 0-32 14.327-32 32s14.327 32 32 32h576c17.673 0 32-14.327 32-32zm-104.64 97.2L180.84 391.04C112.977 410.67 64.165 472.172 64 545.101v222.904c0 35.346 28.654 64 64 64 7.241 0 14.2-1.202 20.691-3.418l-.451.134 21.88-7.28c9.334-3.167 16.597-10.259 19.928-19.258l.072-.222 42.4-117.48L352 650.441v117.565c0 35.346 28.654 64 64 64 7.241 0 14.2-1.202 20.691-3.418l-.451.134 21.88-7.28c8.824-3.002 15.774-9.495 19.321-17.791l.079-.209 90-214.52 243.36-68C878.892 501.37 927.839 439.784 928 366.741V224.002c-.007-17.668-14.331-31.988-32-31.988a32.02 32.02 0 00-8.866 1.244l.226-.056zM864 366.72c-.12 43.844-29.502 80.792-69.64 92.352l-.68.168-258.28 72c-9.518 2.711-17.082 9.462-20.841 18.232l-.079.208L424 765.32l-8 2.68V607.978c0-17.673-14.327-32-32-32-3.12 0-6.135.446-8.986 1.279l.226-.057-176 50.16c-9.973 2.923-17.786 10.303-21.249 19.778l-.071.222-42.76 118.28L128 768V545.12c.112-43.777 29.399-80.684 69.439-92.311l.681-.169L864 266.2z"/><glyph unicode="" glyph-name="airplane-takeoff" data-tags="airplane-takeoff" d="M704 96c0-17.673-14.327-32-32-32H96c-17.673 0-32 14.327-32 32s14.327 32 32 32h576c17.673 0 32-14.327 32-32zm287.44 491.4c-1.777-9.216-7.304-16.882-14.897-21.48l-.143-.08-589.64-352c-23.202-13.833-51.159-22.03-81.026-22.08h-.014c-42.298.05-80.723 16.596-109.193 43.549l.073-.069-.48.48L52 376.8c-12.287 11.685-19.929 28.154-19.929 46.409 0 25.89 15.373 48.189 37.489 58.268l.401.163 12 5.88c4.115 2.066 8.968 3.275 14.102 3.275 3.656 0 7.17-.613 10.443-1.743l-.225.068 113.04-38.16 80.68 48.8-87.32 84.76c-12.706 11.733-20.635 28.475-20.635 47.069 0 26.222 15.77 48.761 38.344 58.65l.411.161 1.28.52 28.6 10.84c3.322 1.277 7.164 2.017 11.18 2.017s7.858-.74 11.4-2.09l-.22.074 215.76-79.28 206.28 123.12c23.277 14.077 51.397 22.407 81.462 22.407 49.779 0 94.224-22.835 123.432-58.601l.227-.286.48-.6 74.56-95.56c4.209-5.366 6.749-12.215 6.749-19.657 0-2.087-.2-4.128-.582-6.104l.032.201zm-78.96 14.8l-52 66.68c-17.651 21.475-44.216 35.066-73.955 35.066-17.994 0-34.826-4.976-49.196-13.626l.431.24-219.2-130.88c-4.701-2.833-10.376-4.508-16.443-4.508-3.961 0-7.755.714-11.26 2.021l.223-.073L272 637.68l-16-6.12.84-.8L374.28 516.8c5.986-5.821 9.7-13.952 9.7-22.95 0-11.545-6.114-21.662-15.281-27.29l-.139-.08-128.84-77.96c-4.718-2.894-10.431-4.608-16.544-4.608a31.95 31.95 0 00-10.481 1.756l.225-.068-114.68 38.68-.76-.4-1.48-.68c.196-.141.367-.299.517-.476l.003-.004 144-141.04c17.027-16.029 40.028-25.88 65.33-25.88 17.827 0 34.512 4.89 48.787 13.401l-.437-.242z"/><glyph unicode="" glyph-name="airplane-tilt" data-tags="airplane-tilt" d="M741.32 503.16l117.24 110.36c23.166 23.166 37.495 55.17 37.495 90.52 0 70.701-57.314 128.015-128.015 128.015-35.35 0-67.354-14.329-90.52-37.495 0-.24-.44-.44-.68-.68L567.16 677.32l-332 120.8c-3.253 1.221-7.013 1.927-10.938 1.927-8.834 0-16.832-3.58-22.622-9.367l-96-96c-5.785-5.79-9.364-13.786-9.364-22.618 0-11.055 5.606-20.801 14.13-26.549l.114-.072 255.56-170.36-59.28-59.08H224c-8.825-.004-16.814-3.58-22.6-9.36l-96-96c-5.807-5.794-9.4-13.805-9.4-22.655 0-13.348 8.173-24.788 19.788-29.587l.212-.078 147.28-58.92 59.04-147.64c4.93-11.71 16.31-19.782 29.576-19.782 9.097 0 17.307 3.796 23.133 9.89l.011.012 95.48 95.52c5.824 5.77 9.442 13.759 9.48 22.593v82.767l59.04 59.04L709.4 46.241c5.821-8.638 15.567-14.244 26.622-14.244 8.832 0 16.828 3.578 22.619 9.364l96 96c5.788 5.79 9.367 13.788 9.367 22.622a31.95 31.95 0 01-1.999 11.159l.072-.221zm-.28-388.92L570.68 369.76c-5.218 7.844-13.633 13.207-23.341 14.228l-.139.012h-3.16c-8.845-.004-16.85-3.596-22.639-9.399L425.4 278.6c-5.795-5.781-9.384-13.77-9.4-22.597V173.24l-52.28-52.28-46 115.04c-3.323 8.096-9.625 14.397-17.507 17.642l-.213.078-114.96 46L237.28 352h82.745c8.83 0 16.825 3.577 22.615 9.36l96 96c5.8 5.792 9.388 13.798 9.388 22.642 0 11.065-5.616 20.818-14.153 26.565l-.114.072-255.52 170.4 54 53.96 332.88-121.04c3.281-1.244 7.075-1.964 11.037-1.964 9.127 0 17.361 3.821 23.191 9.95l.013.013 123.76 131.64c11.51 11.183 27.239 18.079 44.578 18.079 35.346 0 64-28.654 64-64 0-17.349-6.903-33.086-18.113-44.614l.014.015-131.48-123.72c-6.143-5.842-9.964-14.077-9.964-23.203 0-3.962.72-7.755 2.036-11.257l-.073.221 121.04-332.88z"/><glyph unicode="" glyph-name="airplay" data-tags="airplay" d="M536.32 340.84c-5.904 6.861-14.598 11.179-24.3 11.179s-18.396-4.318-24.265-11.137l-.035-.042-192-224A31.834 31.834 0 01288.004 96c0-17.672 14.325-31.998 31.996-32h384c17.672.002 31.996 14.328 31.996 32a31.88 31.88 0 01-7.751 20.882l.035-.042zM389.56 128L512 270.84 634.44 128zM928 704V256c0-53.019-42.981-96-96-96h-64c-17.673 0-32 14.327-32 32s14.327 32 32 32h64c17.673 0 32 14.327 32 32v448c0 17.673-14.327 32-32 32H192c-17.673 0-32-14.327-32-32V256c0-17.673 14.327-32 32-32h64c17.673 0 32-14.327 32-32s-14.327-32-32-32h-64c-53.019 0-96 42.981-96 96v448c0 53.019 42.981 96 96 96h640c53.019 0 96-42.981 96-96z"/><glyph unicode="" glyph-name="air-traffic-control" data-tags="air-traffic-control" d="M916.44 708.72C904.715 725.304 885.618 736 864.022 736H544v128h64c17.673 0 32 14.327 32 32s-14.327 32-32 32H416c-17.673 0-32-14.327-32-32s14.327-32 32-32h64V736H160c-35.284-.082-63.856-28.704-63.856-64a63.87 63.87 0 014.001-22.323l-.144.442 104.76-288c9.187-24.737 32.563-42.056 59.992-42.12h119.248v-256c0-17.673 14.327-32 32-32s32 14.327 32 32v256h128v-256c0-17.673 14.327-32 32-32s32 14.327 32 32v256h119.28c27.437.064 50.813 17.383 59.856 41.678l.144.442 104.76 288c2.47 6.541 3.899 14.103 3.899 21.998 0 13.7-4.305 26.394-11.635 36.805l.135-.203zM442.72 384l-52.4 288h243.36l-52.4-288zM160 672h165.28l52.36-288H264.72zm599.28-288H646.36l52.36 288H864z"/><glyph unicode="" glyph-name="alarm" data-tags="alarm" d="M512 832c-212.077 0-384-171.923-384-384S299.923 64 512 64s384 171.923 384 384c-.25 211.976-172.023 383.75-383.976 384H512zm0-704c-176.731 0-320 143.269-320 320s143.269 320 320 320 320-143.269 320-320c-.205-176.648-143.351-319.795-319.98-320H512zM246.64 841.36l-128-128c-5.794-5.794-13.799-9.378-22.64-9.378-17.683 0-32.018 14.335-32.018 32.018 0 8.841 3.584 16.846 9.378 22.64l128 128c5.794 5.794 13.799 9.378 22.64 9.378 17.683 0 32.018-14.335 32.018-32.018 0-8.841-3.584-16.846-9.378-22.64zm704-128c-5.792-5.798-13.797-9.385-22.64-9.385s-16.848 3.587-22.64 9.385l-128 128c-5.794 5.794-9.378 13.799-9.378 22.64 0 17.683 14.335 32.018 32.018 32.018 8.841 0 16.846-3.584 22.64-9.378l128-128c5.798-5.792 9.385-13.797 9.385-22.64s-3.587-16.848-9.385-22.64zM736 480c17.673 0 32-14.327 32-32s-14.327-32-32-32H512c-17.673 0-32 14.327-32 32v224c0 17.673 14.327 32 32 32s32-14.327 32-32V480z"/><glyph unicode="" glyph-name="alien" data-tags="alien" d="M512 896c-211.976-.25-383.75-172.023-384-383.976V512c0-96 50.24-220.24 134.44-332C347.16 67.4 440.44 0 512 0s164.84 67.24 249.56 180C845.76 292 896 416 896 512c-.25 211.976-172.023 383.75-383.976 384H512zm198.44-677.68C640.96 126.04 561.24 64 512 64s-128.96 62.04-198.44 154.32C238.6 318 192 430.52 192 512c0 176.731 143.269 320 320 320s320-143.269 320-320c0-81.48-46.6-194-121.56-293.68zM480 416c0 88.366-71.634 160-160 160-35.346 0-64-28.654-64-64 0-88.366 71.634-160 160-160 35.346 0 64 28.654 64 64zm-160 96c53.019 0 96-42.981 96-96-53.019 0-96 42.981-96 96zm384 64c-88.366 0-160-71.634-160-160 0-35.346 28.654-64 64-64 88.366 0 160 71.634 160 160 0 35.346-28.654 64-64 64zm-96-160c0 53.019 42.981 96 96 96 0-53.019-42.981-96-96-96zm0-192c0-17.673-14.327-32-32-32H448c-17.673 0-32 14.327-32 32s14.327 32 32 32h128c17.673 0 32-14.327 32-32z"/><glyph unicode="" glyph-name="align-bottom" data-tags="align-bottom" d="M896 96c0-17.673-14.327-32-32-32H160c-17.673 0-32 14.327-32 32s14.327 32 32 32h704c17.673 0 32-14.327 32-32zM544 256v384c0 35.346 28.654 64 64 64h160c35.346 0 64-28.654 64-64V256c0-35.346-28.654-64-64-64H608c-35.346 0-64 28.654-64 64zm64 0h160v384H608zm-416 0v544c0 35.346 28.654 64 64 64h160c35.346 0 64-28.654 64-64V256c0-35.346-28.654-64-64-64H256c-35.346 0-64 28.654-64 64zm64 0h160v544H256z"/><glyph unicode="" glyph-name="align-bottom-simple" data-tags="align-bottom-simple" d="M832 32c0-17.673-14.327-32-32-32H224c-17.673 0-32 14.327-32 32s14.327 32 32 32h576c17.673 0 32-14.327 32-32zM320 192v608c0 35.346 28.654 64 64 64h256c35.346 0 64-28.654 64-64V192c0-35.346-28.654-64-64-64H384c-35.346 0-64 28.654-64 64zm64 0h256v608H384z"/><glyph unicode="" glyph-name="align-center-horizontal" data-tags="align-center-horizontal" d="M832 416H544v64h192c35.346 0 64 28.654 64 64v160c0 35.346-28.654 64-64 64H544v64c0 17.673-14.327 32-32 32s-32-14.327-32-32v-64H288c-35.346 0-64-28.654-64-64V544c0-35.346 28.654-64 64-64h192v-64H192c-35.346 0-64-28.654-64-64V192c0-35.346 28.654-64 64-64h288V64c0-17.673 14.327-32 32-32s32 14.327 32 32v64h288c35.346 0 64 28.654 64 64v160c0 35.346-28.654 64-64 64zM288 704h448V544H288zm544-512H192v160h640V192z"/><glyph unicode="" glyph-name="align-center-horizontal-simple" data-tags="align-center-horizontal-simple" d="M832 640H544v128c0 17.673-14.327 32-32 32s-32-14.327-32-32V640H192c-35.346 0-64-28.654-64-64V320c0-35.346 28.654-64 64-64h288V128c0-17.673 14.327-32 32-32s32 14.327 32 32v128h288c35.346 0 64 28.654 64 64v256c0 35.346-28.654 64-64 64zm0-320H192v256h640V320z"/><glyph unicode="" glyph-name="align-center-vertical" data-tags="align-center-vertical" d="M896 480h-64v192c0 35.346-28.654 64-64 64H608c-35.346 0-64-28.654-64-64V480h-64v288c0 35.346-28.654 64-64 64H256c-35.346 0-64-28.654-64-64V480h-64c-17.673 0-32-14.327-32-32s14.327-32 32-32h64V128c0-35.346 28.654-64 64-64h160c35.346 0 64 28.654 64 64v288h64V224c0-35.346 28.654-64 64-64h160c35.346 0 64 28.654 64 64v192h64c17.673 0 32 14.327 32 32s-14.327 32-32 32zM416 128H256v640h160zm352 96H608v448h160z"/><glyph unicode="" glyph-name="align-center-vertical-simple" data-tags="align-center-vertical-simple" d="M832 480H704v288c0 35.346-28.654 64-64 64H384c-35.346 0-64-28.654-64-64V480H192c-17.673 0-32-14.327-32-32s14.327-32 32-32h128V128c0-35.346 28.654-64 64-64h256c35.346 0 64 28.654 64 64v288h128c17.673 0 32 14.327 32 32s-14.327 32-32 32zM640 128H384v640h256z"/><glyph unicode="" glyph-name="align-left" data-tags="align-left" d="M192 800V96c0-17.673-14.327-32-32-32s-32 14.327-32 32v704c0 17.673 14.327 32 32 32s32-14.327 32-32zm64-256v160c0 35.346 28.654 64 64 64h384c35.346 0 64-28.654 64-64V544c0-35.346-28.654-64-64-64H320c-35.346 0-64 28.654-64 64zm64 0h384v160H320zm608-192V192c0-35.346-28.654-64-64-64H320c-35.346 0-64 28.654-64 64v160c0 35.346 28.654 64 64 64h544c35.346 0 64-28.654 64-64zm-64-160v160H320V192h544z"/><glyph unicode="" glyph-name="align-left-simple" data-tags="align-left-simple" d="M160 736V160c0-17.673-14.327-32-32-32s-32 14.327-32 32v576c0 17.673 14.327 32 32 32s32-14.327 32-32zm800-160V320c0-35.346-28.654-64-64-64H288c-35.346 0-64 28.654-64 64v256c0 35.346 28.654 64 64 64h608c35.346 0 64-28.654 64-64zm-64-256v256H288V320h608z"/><glyph unicode="" glyph-name="align-right" data-tags="align-right" d="M896 800V96c0-17.673-14.327-32-32-32s-32 14.327-32 32v704c0 17.673 14.327 32 32 32s32-14.327 32-32zm-128-96V544c0-35.346-28.654-64-64-64H320c-35.346 0-64 28.654-64 64v160c0 35.346 28.654 64 64 64h384c35.346 0 64-28.654 64-64zm-64 0H320V544h384zm64-352V192c0-35.346-28.654-64-64-64H160c-35.346 0-64 28.654-64 64v160c0 35.346 28.654 64 64 64h544c35.346 0 64-28.654 64-64zm-64 0H160V192h544z"/><glyph unicode="" glyph-name="align-right-simple" data-tags="align-right-simple" d="M928 736V160c0-17.673-14.327-32-32-32s-32 14.327-32 32v576c0 17.673 14.327 32 32 32s32-14.327 32-32zM800 576V320c0-35.346-28.654-64-64-64H128c-35.346 0-64 28.654-64 64v256c0 35.346 28.654 64 64 64h608c35.346 0 64-28.654 64-64zm-64 0H128V320h608z"/><glyph unicode="" glyph-name="align-top" data-tags="align-top" d="M896 800c0-17.673-14.327-32-32-32H160c-17.673 0-32 14.327-32 32s14.327 32 32 32h704c17.673 0 32-14.327 32-32zm-64-160V256c0-35.346-28.654-64-64-64H608c-35.346 0-64 28.654-64 64v384c0 35.346 28.654 64 64 64h160c35.346 0 64-28.654 64-64zm-64 0H608V256h160zm-288 0V96c0-35.346-28.654-64-64-64H256c-35.346 0-64 28.654-64 64v544c0 35.346 28.654 64 64 64h160c35.346 0 64-28.654 64-64zm-64 0H256V96h160z"/><glyph unicode="" glyph-name="align-top-simple" data-tags="align-top-simple" d="M832 832c0-17.673-14.327-32-32-32H224c-17.673 0-32 14.327-32 32s14.327 32 32 32h576c17.673 0 32-14.327 32-32zM704 672V64c0-35.346-28.654-64-64-64H384c-35.346 0-64 28.654-64 64v608c0 35.346 28.654 64 64 64h256c35.346 0 64-28.654 64-64zm-64 0H384V64h256z"/><glyph unicode="" glyph-name="amazon-logo" data-tags="amazon-logo" d="M992 288V160c0-17.673-14.327-32-32-32s-32 14.327-32 32v50.76l-8.84-8.88C906.76 188.4 757.76 32 512 32c-251.36 0-401.52 163.64-407.8 170.6a31.937 31.937 0 00-8.181 21.4c0 17.718 14.363 32.081 32.081 32.081 9.481 0 18.001-4.113 23.874-10.651l.026-.03C153.08 244 290 96 512 96s358.92 148 360.28 149.44c.355.437.708.828 1.08 1.2l9.4 9.36H832c-17.673 0-32 14.327-32 32s14.327 32 32 32h128c17.673 0 32-14.327 32-32zM640 581.88v42.215c0 79.529-64.471 144-144 144-55.682 0-103.982-31.604-127.942-77.853l-.378-.802c-5.416-10.436-16.139-17.444-28.5-17.444-17.675 0-32.004 14.329-32.004 32.004a31.859 31.859 0 003.588 14.738l-.084-.178C345.845 786.489 415.595 832.112 496 832.112c114.875 0 208-93.125 208-208v-.118.006-368c0-17.673-14.327-32-32-32s-32 14.327-32 32v26.12C602.665 246.155 551.809 224 495.778 224c-114.875 0-208 93.125-208 208s93.125 208 208 208c56.031 0 106.887-22.155 144.287-58.182l-.065.062zM640 432c0 79.529-64.471 144-144 144s-144-64.471-144-144 64.471-144 144-144 144 64.471 144 144z"/><glyph unicode="" glyph-name="anchor" data-tags="anchor" d="M864 416c-17.673 0-32-14.327-32-32 0-88.366-71.634-160-160-160h-.112c-49.257 0-94.163-18.63-128.056-49.229l.168.149V448h128c17.673 0 32 14.327 32 32s-14.327 32-32 32H544v100c55.647 14.719 96 64.615 96 123.935 0 70.692-57.308 128-128 128s-128-57.308-128-128c0-59.321 40.353-109.217 95.107-123.734L480 612V512H352c-17.673 0-32-14.327-32-32s14.327-32 32-32h128V174.92C446.275 205.37 401.369 224 352.112 224h-.118.006c-88.366 0-160 71.634-160 160 0 17.673-14.327 32-32 32s-32-14.327-32-32c.137-123.657 100.343-223.863 223.987-224H352c70.692 0 128-57.308 128-128 0-17.673 14.327-32 32-32s32 14.327 32 32c0 70.692 57.308 128 128 128 123.657.137 223.863 100.343 224 223.987V384c0 17.673-14.327 32-32 32zM448 736c0 35.346 28.654 64 64 64s64-28.654 64-64c0-35.346-28.654-64-64-64-35.346 0-64 28.654-64 64z"/><glyph unicode="" glyph-name="anchor-simple" data-tags="anchor-simple" d="M896 512h-96c-17.673 0-32-14.327-32-32s14.327-32 32-32h62.56c-16.147-169.034-149.521-302.394-317.136-318.41l-1.424-.11V580c55.647 14.719 96 64.615 96 123.935 0 70.692-57.308 128-128 128s-128-57.308-128-128c0-59.321 40.353-109.217 95.107-123.734L480 580V129.48c-169.039 16.126-302.413 149.486-318.45 317.095l-.11 1.425H224c17.673 0 32 14.327 32 32s-14.327 32-32 32h-96c-17.673 0-32-14.327-32-32C96 250.25 282.25 64 512 64s416 186.25 416 416c0 17.673-14.327 32-32 32zM448 704c0 35.346 28.654 64 64 64s64-28.654 64-64c0-35.346-28.654-64-64-64-35.346 0-64 28.654-64 64z"/><glyph unicode="" glyph-name="android-logo" data-tags="android-logo" d="M704 336c0-26.51-21.49-48-48-48s-48 21.49-48 48 21.49 48 48 48 48-21.49 48-48zm-336 48c-26.51 0-48-21.49-48-48s21.49-48 48-48 48 21.49 48 48-21.49 48-48 48zm592-96v-96c0-35.346-28.654-64-64-64H128c-35.346 0-64 28.654-64 64v91.899c0 129.538 54.309 246.392 141.401 329.033l.2.188-100.24 100.24c-5.794 5.794-9.378 13.799-9.378 22.64 0 17.683 14.335 32.018 32.018 32.018 8.841 0 16.846-3.584 22.64-9.378L255.281 654c71.646 51.285 161.054 82.005 257.638 82.005 96.12 0 185.134-30.426 257.936-82.172l-1.374.928 104 104c5.794 5.794 13.799 9.378 22.64 9.378 17.683 0 32.018-14.335 32.018-32.018 0-8.841-3.584-16.846-9.378-22.64l-99.48-99.48c3-2.84 6-5.72 8.96-8.68 81.379-80.668 131.762-192.49 131.762-316.08l-.002-1.307v.067zm-64 0c0 212.077-171.923 384-384 384h-1.36C299.64 671.28 128 497 128 283.48V192h768z"/><glyph unicode="" glyph-name="angular-logo" data-tags="angular-logo" d="M908.32 701.52l-384 160c-3.637 1.574-7.871 2.49-12.32 2.49s-8.683-.916-12.526-2.569l.206.079-384-160C104.024 696.566 96 685.213 96 671.987c0-1.49.102-2.957.299-4.393l-.019.167 64-480c1.466-10.735 8.074-19.659 17.218-24.316l.182-.084 320-160c4.172-2.133 9.1-3.383 14.32-3.383s10.148 1.25 14.502 3.467l-.182-.084 320 160c9.326 4.741 15.934 13.665 17.381 24.234l.019.166 64 480c.178 1.27.28 2.736.28 4.227 0 13.227-8.025 24.579-19.471 29.454l-.209.079zm-105.8-488.48L512 67.76 221.48 213.04 162.96 652 512 797.32 861.04 652zM484 623.52l-160-288c-2.526-4.474-4.014-9.823-4.014-15.52 0-17.681 14.333-32.014 32.014-32.014 11.984 0 22.43 6.585 27.917 16.333l.083.161L424 384h176l44-79.52c5.57-9.909 16.016-16.494 28-16.494 17.681 0 32.014 14.333 32.014 32.014a31.868 31.868 0 01-4.097 15.681l.083-.161-160 288c-5.565 9.917-16.013 16.508-28 16.508s-22.435-6.591-27.917-16.347l-.083-.161zM564.28 448H459.72L512 542.12z"/><glyph unicode="" glyph-name="aperture" data-tags="aperture" d="M806.16 742.16C730.878 817.442 626.877 864.005 512 864.005 282.247 864.005 95.995 677.753 95.995 448c0-114.877 46.563-218.878 121.845-294.16C293.122 78.558 397.123 31.995 512 31.995c229.753 0 416.005 186.252 416.005 416.005 0 114.877-46.563 218.878-121.845 294.16zm-45.24-45.28a354.407 354.407 0 0043.197-52.649l.803-1.271L670.2 484 558.52 796.88c79.747-10.691 149.548-46.891 202.386-99.986l.014-.014zM622.36 428l-72.64-85.48-110.36 20L401.64 468l72.64 85.48 110.36-20zM263.08 696.88c58.444 58.753 137.627 96.825 225.641 102.31l.999.05 70.04-196-326.56 59.48c9.666 12.544 19.451 23.686 29.892 34.172l-.012-.012zM186.6 313.84c-16.683 39.626-26.377 85.688-26.377 134.015 0 56.987 13.479 110.825 37.423 158.501l-.926-2.036 204.84-37.4zm76.48-114.72a354.407 354.407 0 00-43.197 52.649l-.803 1.271L353.8 412 465.48 99.28c-79.73 10.644-149.531 46.79-202.39 99.83l-.01.01zm497.84 0c-58.444-58.753-137.627-96.825-225.641-102.31l-.999-.05-70.04 196 326.56-59.64c-9.661-12.474-19.445-23.563-29.881-34.001l.001.001zM622.44 329.08L837.4 582.16c16.683-39.626 26.377-85.688 26.377-134.015 0-56.987-13.479-110.825-37.423-158.501l.926 2.036z"/><glyph unicode="" glyph-name="apple-logo" data-tags="apple-logo" d="M893.2 281.64c-2.484 5.586-6.317 10.189-11.096 13.531l-.104.069c-67.88 46.64-82 126.2-82 184.76 0 70.68 53.88 132.24 86 162.68 6.166 5.845 10.002 14.095 10.002 23.24s-3.837 17.395-9.988 23.227l-.014.013C835.28 737.04 751.28 768 672 768c-59.64-.047-115.038-18.165-161.027-49.173l1.027.653c-44.755 30.38-99.97 48.502-159.418 48.502-79.551 0-151.523-32.452-203.399-84.839l-.023-.023c-52.724-53.794-85.263-127.543-85.263-208.891 0-2.753.037-5.497.111-8.232l-.009.403c3.429-141.744 64.373-268.613 160.289-358.668l.271-.252c28.452-26.926 66.959-43.481 109.333-43.481l.492.001h350.997c45.771 0 87.035 19.296 116.101 50.198l.077.082c26.772 28.748 50.405 61.024 69.982 95.884l1.298 2.516c28.08 51.32 24.48 59.32 20.36 68.96zM754.68 157.88c-17.373-18.416-41.941-29.881-69.187-29.881l-.435.001H334.054c-25.369 0-48.423 9.915-65.497 26.082l.044-.041c-84.196 78.973-137.56 189.95-140.589 313.413l-.011.547c-.058 1.943-.091 4.23-.091 6.524 0 63.694 25.448 121.445 66.732 163.638l-.041-.042c39.832 40.669 95.31 65.881 156.676 65.881l.764-.001h3.081c52.086-.566 99.76-18.998 137.293-49.444l-.413.324c5.426-4.373 12.404-7.02 20-7.02s14.574 2.647 20.062 7.068l-.062-.048c37.705 30.595 86.283 49.121 139.189 49.121l.856-.002h-.044c53.342-.639 102.977-15.96 145.211-42.098l-1.211.698c-52-58.08-80-121.88-80-182.6 0-95.08 30.56-170.92 88.72-221.2-19.417-38.626-42.774-71.845-70.254-101.15l.214.23zM512.92 840c18.399 69.558 80.768 120 154.919 120h4.16c17.673 0 32-14.327 32-32s-14.327-32-32-32h-4.008c-44.491 0-81.912-30.265-92.801-71.33l-.151-.67c-3.68-13.92-16.161-24.016-31-24.016-17.682 0-32.016 14.334-32.016 32.016 0 2.843.371 5.599 1.066 8.223l-.05-.223z"/><glyph unicode="" glyph-name="apple-podcasts-logo" data-tags="apple-podcasts-logo" d="M616.8 406.68c14.513 20.474 23.2 45.968 23.2 73.491 0 70.692-57.308 128-128 128s-128-57.308-128-128c0-27.523 8.687-53.017 23.468-73.89l-.268.399c-14.024-6.718-25.748-16.188-34.882-27.792l-.158-.208c-12.574-15.927-20.169-36.291-20.169-58.43a94.85 94.85 0 013.117-24.19l-.148.66 48.72-192c11.058-42.139 48.805-72.721 93.695-72.721l.406.001h28.459l.416-.001c44.846 0 82.564 30.522 93.513 71.926l.152.675 48.72 192c1.886 7.062 2.969 15.169 2.969 23.53 0 22.139-7.595 42.503-20.322 58.63l.153-.2c-9.282 11.859-21.008 21.369-34.46 27.867l-.58.253zM512 544c35.346 0 64-28.654 64-64s-28.654-64-64-64c-35.346 0-64 28.654-64 64 0 35.346 28.654 64 64 64zm95-231.64l-48.72-192c-3.825-14.135-16.535-24.362-31.635-24.362l-.385.002H497.8a40.162 40.162 0 00-.365-.002c-15.099 0-27.81 10.228-31.582 24.133l-.053.229-48.72 192c-.63 2.329-.993 5.003-.993 7.762a30.709 30.709 0 006.721 19.221l-.048-.062c6.103 7.774 15.5 12.721 26.053 12.721l.281-.001H575.08l.267.001c10.553 0 19.951-4.948 25.999-12.65l.054-.071c4.122-5.196 6.613-11.848 6.613-19.082a30.86 30.86 0 00-1.062-8.053l.05.216zM288 448v-.147c0-19.845 2.568-39.09 7.391-57.421L295.04 392c.725-2.541 1.142-5.459 1.142-8.474 0-17.673-14.327-32-32-32-15.002 0-27.593 10.323-31.056 24.254l-.046.22c-5.767 21.532-9.08 46.253-9.08 71.747 0 159.058 128.942 288 288 288s288-128.942 288-288c0-25.495-3.313-50.215-9.531-73.755l.451 2.008c-3.678-13.904-16.14-23.989-30.959-24h-.004c-2.841 0-5.597.365-8.223 1.05l.226-.05c-13.916 3.676-24.009 16.153-24.009 30.986 0 2.833.368 5.581 1.059 8.197l-.05-.223c4.471 16.721 7.04 35.919 7.04 55.716 0 123.712-100.288 224-224 224-123.598 0-223.815-100.104-224-223.658V448zm640 0v-.332c0-143.961-73.224-270.819-184.46-345.362l-1.5-.946c-4.88-3.167-10.847-5.051-17.255-5.051-17.673 0-32 14.327-32 32 0 10.873 5.423 20.479 13.711 26.262l.104.069c95.416 63.976 157.38 171.404 157.38 293.304 0 194.404-157.596 352-352 352s-352-157.596-352-352c0-121.9 61.964-229.327 156.113-292.503l1.267-.801c8.654-5.819 14.271-15.573 14.271-26.64 0-17.67-14.322-31.995-31.991-32h-.048a31.537 31.537 0 00-17.743 5.431l.111-.071C169.216 176.971 96 303.92 96 447.969c0 229.75 186.25 416 416 416 229.739 0 415.982-186.231 416-415.966v-.002z"/><glyph unicode="" glyph-name="app-store-logo" data-tags="app-store-logo" d="M257.36 175.72l-37.8-64c-5.673-9.481-15.887-15.729-27.56-15.729-17.678 0-32.009 14.331-32.009 32.009a31.867 31.867 0 004.53 16.426l-.081-.146 37.84 64c5.59 9.82 15.986 16.335 27.903 16.335 17.673 0 32-14.327 32-32a31.848 31.848 0 00-4.901-17.027l.078.133zM928 352H736.8L613.88 560c-5.59 9.82-15.986 16.335-27.903 16.335-17.673 0-32-14.327-32-32a31.848 31.848 0 014.901-17.027l-.078.133 245.64-415.72c5.673-9.481 15.887-15.729 27.56-15.729 17.678 0 32.009 14.331 32.009 32.009a31.867 31.867 0 01-4.53 16.426l.081-.146-84.92 143.72H928c17.673 0 32 14.327 32 32s-14.327 32-32 32zm-358.12 0H361.52l274.04 463.72c2.796 4.656 4.449 10.275 4.449 16.28 0 17.678-14.331 32.009-32.009 32.009-11.673 0-21.887-6.249-27.479-15.584l-.081-.146L512 732.439l-68.44 116c-5.673 9.481-15.887 15.729-27.56 15.729-17.678 0-32.009-14.331-32.009-32.009a31.867 31.867 0 014.53-16.426l-.081.146 86.4-146.2-187.64-317.68H96c-17.673 0-32-14.327-32-32s14.327-32 32-32h473.88c17.673 0 32 14.327 32 32s-14.327 32-32 32z"/><glyph unicode="" glyph-name="app-window" data-tags="app-window" d="M864 800H160c-35.346 0-64-28.654-64-64V160c0-35.346 28.654-64 64-64h704c35.346 0 64 28.654 64 64v576c0 35.346-28.654 64-64 64zm0-640H160v576h704V160zM320 624c0-26.51-21.49-48-48-48s-48 21.49-48 48 21.49 48 48 48 48-21.49 48-48zm160 0c0-26.51-21.49-48-48-48s-48 21.49-48 48 21.49 48 48 48 48-21.49 48-48z"/><glyph unicode="" glyph-name="archive" data-tags="archive" d="M896 768H128c-35.346 0-64-28.654-64-64v-96c0-35.346 28.654-64 64-64V192c0-35.346 28.654-64 64-64h640c35.346 0 64 28.654 64 64v352c35.346 0 64 28.654 64 64v96c0 35.346-28.654 64-64 64zm-64-576H192v352h640zm64 416H128v96h768v-96zM384 416c0 17.673 14.327 32 32 32h192c17.673 0 32-14.327 32-32s-14.327-32-32-32H416c-17.673 0-32 14.327-32 32z"/><glyph unicode="" glyph-name="archive-box" data-tags="archive-box" d="M892.64 686.32l-64 128c-5.373 10.567-16.164 17.68-28.617 17.68H223.977c-12.453 0-23.245-7.113-28.533-17.498l-.084-.182-64-128c-2.115-4.175-3.355-9.102-3.36-14.318V128c0-35.346 28.654-64 64-64h640c35.346 0 64 28.654 64 64v544a32.174 32.174 0 01-3.445 14.505l.085-.185zM243.76 768h536.48l32-64H211.76zM832 128H192v512h640V128zM662.64 374.64c5.798-5.792 9.385-13.797 9.385-22.64s-3.587-16.848-9.385-22.64l-128-128c-5.792-5.798-13.797-9.385-22.64-9.385s-16.848 3.587-22.64 9.385l-128 128c-5.794 5.794-9.378 13.799-9.378 22.64 0 17.683 14.335 32.018 32.018 32.018 8.841 0 16.846-3.584 22.64-9.378l73.36-73.4V544c0 17.673 14.327 32 32 32s32-14.327 32-32V301.24l73.36 73.4c5.792 5.798 13.797 9.385 22.64 9.385s16.848-3.587 22.64-9.385z"/><glyph unicode="" glyph-name="archive-tray" data-tags="archive-tray" d="M832 832H192c-35.346 0-64-28.654-64-64V128c0-35.346 28.654-64 64-64h640c35.346 0 64 28.654 64 64v640c0 35.346-28.654 64-64 64zm0-64V352H717.037c-17.607 0-33.539-7.173-45.033-18.756L594.76 256H429.24L352 333.24C340.502 344.827 324.57 352 306.963 352H192v416zm0-640H192v160h114.76L384 210.76c11.498-11.587 27.43-18.76 45.037-18.76h165.926c17.607 0 33.539 7.173 45.033 18.756L717.24 288H832V128zM361.36 457.36c-5.794 5.794-9.378 13.799-9.378 22.64 0 17.683 14.335 32.018 32.018 32.018 8.841 0 16.846-3.584 22.64-9.378l73.36-73.4V672c0 17.673 14.327 32 32 32s32-14.327 32-32V429.24l73.36 73.4c5.794 5.794 13.799 9.378 22.64 9.378 17.683 0 32.018-14.335 32.018-32.018 0-8.841-3.584-16.846-9.378-22.64l-128-128c-5.792-5.798-13.797-9.385-22.64-9.385s-16.848 3.587-22.64 9.385z"/><glyph unicode="" glyph-name="armchair" data-tags="armchair" d="M864 604.8V672c0 88.366-71.634 160-160 160H320c-88.366 0-160-71.634-160-160v-67.2C86.367 589.456 31.84 525.096 31.84 448s54.527-141.456 127.12-156.618l1.04-.182V160c0-35.346 28.654-64 64-64h576c35.346 0 64 28.654 64 64v131.2c73.633 15.344 128.16 79.704 128.16 156.8s-54.527 141.456-127.12 156.618l-1.04.182zM320 768h384c53.019 0 96-42.981 96-96v-67.2c-73.508-15.509-127.903-79.788-128-156.789V448H352c-.097 77.012-54.492 141.291-126.953 156.615L224 604.8V672c0 53.019 42.981 96 96 96zm513.56-416H832c-17.673 0-32-14.327-32-32V160H224v160c0 17.673-14.327 32-32 32h-1.56c-52.344.878-94.44 43.517-94.44 95.987 0 53.019 42.981 96 96 96 53.015 0 95.993-42.973 96-95.987V287.999c0-17.673 14.327-32 32-32s32 14.327 32 32v96h320v-96c0-17.673 14.327-32 32-32s32 14.327 32 32v160c.007 53.014 42.985 95.987 96 95.987 53.019 0 96-42.981 96-96 0-52.471-42.096-95.11-94.358-95.986l-.082-.001z"/><glyph unicode="" glyph-name="arrow-arc-left" data-tags="arrow-arc-left" d="M928 224c0-17.673-14.327-32-32-32s-32 14.327-32 32c-.025 194.386-157.611 351.957-352 351.957-97.191 0-185.183-39.39-248.88-103.077L173.6 384H352c17.673 0 32-14.327 32-32s-14.327-32-32-32H96c-17.673 0-32 14.327-32 32v256c0 17.673 14.327 32 32 32s32-14.327 32-32V428.92l89.92 89.32C293.194 593.476 397.163 640.007 512 640.007c229.75 0 416-186.25 416-416v-.008z"/><glyph unicode="" glyph-name="arrow-arc-right" data-tags="arrow-arc-right" d="M960 608V352c0-17.673-14.327-32-32-32H672c-17.673 0-32 14.327-32 32s14.327 32 32 32h178.4l-89.44 88.84C697.255 536.574 609.231 575.997 512 575.997c-194.403 0-351.998-157.594-352-351.997 0-17.673-14.327-32-32-32s-32 14.327-32 32v.007c0 229.75 186.25 416 416 416 114.877 0 218.878-46.564 294.16-121.847L896 428.92V608c0 17.673 14.327 32 32 32s32-14.327 32-32z"/><glyph unicode="" glyph-name="arrow-bend-double-up-left" data-tags="arrow-bend-double-up-left" d="M342.64 374.64c5.794-5.794 9.378-13.799 9.378-22.64 0-17.683-14.335-32.018-32.018-32.018-8.841 0-16.846 3.584-22.64 9.378l-192 192c-5.798 5.792-9.385 13.797-9.385 22.64s3.587 16.848 9.385 22.64l192 192c5.794 5.794 13.799 9.378 22.64 9.378 17.683 0 32.018-14.335 32.018-32.018 0-8.841-3.584-16.846-9.378-22.64L173.24 544zM512 576H397.24l137.4 137.36c5.794 5.794 9.378 13.799 9.378 22.64 0 17.683-14.335 32.018-32.018 32.018-8.841 0-16.846-3.584-22.64-9.378l-192-192c-5.798-5.792-9.385-13.797-9.385-22.64s3.587-16.848 9.385-22.64l192-192c5.794-5.794 13.799-9.378 22.64-9.378 17.683 0 32.018 14.335 32.018 32.018 0 8.841-3.584 16.846-9.378 22.64L397.24 512H512c194.313-.228 351.772-157.687 352-351.978V160c0-17.673 14.327-32 32-32s32 14.327 32 32c-.25 229.65-186.35 415.75-415.976 416H512z"/><glyph unicode="" glyph-name="arrow-bend-double-up-right" data-tags="arrow-bend-double-up-right" d="M918.64 521.36l-192-192c-5.794-5.794-13.799-9.378-22.64-9.378-17.683 0-32.018 14.335-32.018 32.018 0 8.841 3.584 16.846 9.378 22.64L850.76 544l-169.4 169.36c-5.794 5.794-9.378 13.799-9.378 22.64 0 17.683 14.335 32.018 32.018 32.018 8.841 0 16.846-3.584 22.64-9.378l192-192c5.798-5.792 9.385-13.797 9.385-22.64s-3.587-16.848-9.385-22.64zm-192 45.28l-192 192c-5.794 5.794-13.799 9.378-22.64 9.378-17.683 0-32.018-14.335-32.018-32.018 0-8.841 3.584-16.846 9.378-22.64L626.76 576H512c-229.65-.25-415.75-186.35-416-415.976V160c0-17.673 14.327-32 32-32s32 14.327 32 32c.228 194.313 157.687 351.772 351.978 352H626.76l-137.4-137.36c-5.794-5.794-9.378-13.799-9.378-22.64 0-17.683 14.335-32.018 32.018-32.018 8.841 0 16.846 3.584 22.64 9.378l192 192c5.798 5.792 9.385 13.797 9.385 22.64s-3.587 16.848-9.385 22.64z"/><glyph unicode="" glyph-name="arrow-bend-down-left" data-tags="arrow-bend-down-left" d="M928 736c-.25-229.65-186.35-415.75-415.976-416H205.24l137.4-137.36c5.794-5.794 9.378-13.799 9.378-22.64 0-17.683-14.335-32.018-32.018-32.018-8.841 0-16.846 3.584-22.64 9.378l-192 192c-5.798 5.792-9.385 13.797-9.385 22.64s3.587 16.848 9.385 22.64l192 192c5.794 5.794 13.799 9.378 22.64 9.378 17.683 0 32.018-14.335 32.018-32.018 0-8.841-3.584-16.846-9.378-22.64L205.24 384H512c194.313.228 351.772 157.687 352 351.978V736c0 17.673 14.327 32 32 32s32-14.327 32-32z"/><glyph unicode="" glyph-name="arrow-bend-down-right" data-tags="arrow-bend-down-right" d="M918.64 329.36l-192-192c-5.794-5.794-13.799-9.378-22.64-9.378-17.683 0-32.018 14.335-32.018 32.018 0 8.841 3.584 16.846 9.378 22.64L818.76 320H512c-229.65.25-415.75 186.35-416 415.976V736c0 17.673 14.327 32 32 32s32-14.327 32-32c.228-194.313 157.687-351.772 351.978-352H818.76l-137.4 137.36c-5.794 5.794-9.378 13.799-9.378 22.64 0 17.683 14.335 32.018 32.018 32.018 8.841 0 16.846-3.584 22.64-9.378l192-192c5.798-5.792 9.385-13.797 9.385-22.64s-3.587-16.848-9.385-22.64z"/><glyph unicode="" glyph-name="arrow-bend-left-down" data-tags="arrow-bend-left-down" d="M832 832c0-17.673-14.327-32-32-32-194.313-.228-351.772-157.687-352-351.978V141.24l137.36 137.4c5.794 5.794 13.799 9.378 22.64 9.378 17.683 0 32.018-14.335 32.018-32.018 0-8.841-3.584-16.846-9.378-22.64l-192-192c-5.792-5.798-13.797-9.385-22.64-9.385s-16.848 3.587-22.64 9.385l-192 192c-5.794 5.794-9.378 13.799-9.378 22.64 0 17.683 14.335 32.018 32.018 32.018 8.841 0 16.846-3.584 22.64-9.378L384 141.24V448c.25 229.65 186.35 415.75 415.976 416H800c17.673 0 32-14.327 32-32z"/><glyph unicode="" glyph-name="arrow-bend-left-up" data-tags="arrow-bend-left-up" d="M832 64c0-17.673-14.327-32-32-32-229.65.25-415.75 186.35-416 415.976V754.76l-137.36-137.4c-5.794-5.794-13.799-9.378-22.64-9.378-17.683 0-32.018 14.335-32.018 32.018 0 8.841 3.584 16.846 9.378 22.64l192 192c5.792 5.798 13.797 9.385 22.64 9.385s16.848-3.587 22.64-9.385l192-192c5.794-5.794 9.378-13.799 9.378-22.64 0-17.683-14.335-32.018-32.018-32.018-8.841 0-16.846 3.584-22.64 9.378L448 754.76V448c.228-194.313 157.687-351.772 351.978-352H800c17.673 0 32-14.327 32-32z"/><glyph unicode="" glyph-name="arrow-bend-right-down" data-tags="arrow-bend-right-down" d="M822.64 233.36l-192-192c-5.792-5.798-13.797-9.385-22.64-9.385s-16.848 3.587-22.64 9.385l-192 192c-5.794 5.794-9.378 13.799-9.378 22.64 0 17.683 14.335 32.018 32.018 32.018 8.841 0 16.846-3.584 22.64-9.378L576 141.24V448c-.228 194.313-157.687 351.772-351.978 352H224c-17.673 0-32 14.327-32 32s14.327 32 32 32c229.65-.25 415.75-186.35 416-415.976V141.24l137.36 137.4c5.794 5.794 13.799 9.378 22.64 9.378 17.683 0 32.018-14.335 32.018-32.018 0-8.841-3.584-16.846-9.378-22.64z"/><glyph unicode="" glyph-name="arrow-bend-right-up" data-tags="arrow-bend-right-up" d="M822.64 617.36c-5.792-5.798-13.797-9.385-22.64-9.385s-16.848 3.587-22.64 9.385L640 754.76V448c-.25-229.65-186.35-415.75-415.976-416H224c-17.673 0-32 14.327-32 32s14.327 32 32 32c194.313.228 351.772 157.687 352 351.978V754.76l-137.36-137.4c-5.794-5.794-13.799-9.378-22.64-9.378-17.683 0-32.018 14.335-32.018 32.018 0 8.841 3.584 16.846 9.378 22.64l192 192c5.792 5.798 13.797 9.385 22.64 9.385s16.848-3.587 22.64-9.385l192-192c5.798-5.792 9.385-13.797 9.385-22.64s-3.587-16.848-9.385-22.64z"/><glyph unicode="" glyph-name="arrow-bend-up-left" data-tags="arrow-bend-up-left" d="M928 160c0-17.673-14.327-32-32-32s-32 14.327-32 32c-.228 194.313-157.687 351.772-351.978 352H205.24l137.4-137.36c5.794-5.794 9.378-13.799 9.378-22.64 0-17.683-14.335-32.018-32.018-32.018-8.841 0-16.846 3.584-22.64 9.378l-192 192c-5.798 5.792-9.385 13.797-9.385 22.64s3.587 16.848 9.385 22.64l192 192c5.794 5.794 13.799 9.378 22.64 9.378 17.683 0 32.018-14.335 32.018-32.018 0-8.841-3.584-16.846-9.378-22.64L205.24 576H512c229.65-.25 415.75-186.35 416-415.976V160z"/><glyph unicode="" glyph-name="arrow-bend-up-right" data-tags="arrow-bend-up-right" d="M918.64 521.36l-192-192c-5.794-5.794-13.799-9.378-22.64-9.378-17.683 0-32.018 14.335-32.018 32.018 0 8.841 3.584 16.846 9.378 22.64L818.76 512H512c-194.313-.228-351.772-157.687-352-351.978V160c0-17.673-14.327-32-32-32s-32 14.327-32 32c.25 229.65 186.35 415.75 415.976 416H818.76l-137.4 137.36c-5.794 5.794-9.378 13.799-9.378 22.64 0 17.683 14.335 32.018 32.018 32.018 8.841 0 16.846-3.584 22.64-9.378l192-192c5.798-5.792 9.385-13.797 9.385-22.64s-3.587-16.848-9.385-22.64z"/><glyph unicode="" glyph-name="arrow-circle-down" data-tags="arrow-circle-down" d="M512 864C282.25 864 96 677.75 96 448S282.25 32 512 32s416 186.25 416 416c-.25 229.65-186.35 415.75-415.976 416H512zm0-768c-194.404 0-352 157.596-352 352s157.596 352 352 352 352-157.596 352-352c-.228-194.313-157.687-351.772-351.978-352H512zm150.64 342.64c5.798-5.792 9.385-13.797 9.385-22.64s-3.587-16.848-9.385-22.64l-128-128c-5.792-5.798-13.797-9.385-22.64-9.385s-16.848 3.587-22.64 9.385l-128 128c-5.794 5.794-9.378 13.799-9.378 22.64 0 17.683 14.335 32.018 32.018 32.018 8.841 0 16.846-3.584 22.64-9.378l73.36-73.4V608c0 17.673 14.327 32 32 32s32-14.327 32-32V365.24l73.36 73.4c5.792 5.798 13.797 9.385 22.64 9.385s16.848-3.587 22.64-9.385z"/><glyph unicode="" glyph-name="arrow-circle-down-left" data-tags="arrow-circle-down-left" d="M512 864C282.25 864 96 677.75 96 448S282.25 32 512 32s416 186.25 416 416c-.25 229.65-186.35 415.75-415.976 416H512zm0-768c-194.404 0-352 157.596-352 352s157.596 352 352 352 352-157.596 352-352c-.228-194.313-157.687-351.772-351.978-352H512zm150.64 502.64c5.798-5.792 9.385-13.797 9.385-22.64s-3.587-16.848-9.385-22.64L461.24 352H576c17.673 0 32-14.327 32-32s-14.327-32-32-32H384c-17.673 0-32 14.327-32 32v192c0 17.673 14.327 32 32 32s32-14.327 32-32V397.24l201.36 201.4c5.792 5.798 13.797 9.385 22.64 9.385s16.848-3.587 22.64-9.385z"/><glyph unicode="" glyph-name="arrow-circle-down-right" data-tags="arrow-circle-down-right" d="M512 864C282.25 864 96 677.75 96 448S282.25 32 512 32s416 186.25 416 416c-.25 229.65-186.35 415.75-415.976 416H512zm0-768c-194.404 0-352 157.596-352 352s157.596 352 352 352 352-157.596 352-352c-.228-194.313-157.687-351.772-351.978-352H512zm160 416V320c0-17.673-14.327-32-32-32H448c-17.673 0-32 14.327-32 32s14.327 32 32 32h114.76l-201.4 201.36c-5.794 5.794-9.378 13.799-9.378 22.64 0 17.683 14.335 32.018 32.018 32.018 8.841 0 16.846-3.584 22.64-9.378L608 397.24V512c0 17.673 14.327 32 32 32s32-14.327 32-32z"/><glyph unicode="" glyph-name="arrow-circle-left" data-tags="arrow-circle-left" d="M512 864C282.25 864 96 677.75 96 448S282.25 32 512 32s416 186.25 416 416c-.25 229.65-186.35 415.75-415.976 416H512zm0-768c-194.404 0-352 157.596-352 352s157.596 352 352 352 352-157.596 352-352c-.228-194.313-157.687-351.772-351.978-352H512zm192 352c0-17.673-14.327-32-32-32H429.24l73.4-73.36c5.794-5.794 9.378-13.799 9.378-22.64 0-17.683-14.335-32.018-32.018-32.018-8.841 0-16.846 3.584-22.64 9.378l-128 128c-5.798 5.792-9.385 13.797-9.385 22.64s3.587 16.848 9.385 22.64l128 128c5.794 5.794 13.799 9.378 22.64 9.378 17.683 0 32.018-14.335 32.018-32.018 0-8.841-3.584-16.846-9.378-22.64L429.24 480H672c17.673 0 32-14.327 32-32z"/><glyph unicode="" glyph-name="arrow-circle-right" data-tags="arrow-circle-right" d="M512 864C282.25 864 96 677.75 96 448S282.25 32 512 32s416 186.25 416 416c-.25 229.65-186.35 415.75-415.976 416H512zm0-768c-194.404 0-352 157.596-352 352s157.596 352 352 352 352-157.596 352-352c-.228-194.313-157.687-351.772-351.978-352H512zm182.64 374.64c5.798-5.792 9.385-13.797 9.385-22.64s-3.587-16.848-9.385-22.64l-128-128c-5.794-5.794-13.799-9.378-22.64-9.378-17.683 0-32.018 14.335-32.018 32.018 0 8.841 3.584 16.846 9.378 22.64l73.4 73.36H352c-17.673 0-32 14.327-32 32s14.327 32 32 32h242.76l-73.4 73.36c-5.794 5.794-9.378 13.799-9.378 22.64 0 17.683 14.335 32.018 32.018 32.018 8.841 0 16.846-3.584 22.64-9.378z"/><glyph unicode="" glyph-name="arrow-circle-up" data-tags="arrow-circle-up" d="M512 864C282.25 864 96 677.75 96 448S282.25 32 512 32s416 186.25 416 416c-.25 229.65-186.35 415.75-415.976 416H512zm0-768c-194.404 0-352 157.596-352 352s157.596 352 352 352 352-157.596 352-352c-.228-194.313-157.687-351.772-351.978-352H512zm150.64 406.64c5.794-5.794 9.378-13.799 9.378-22.64 0-17.683-14.335-32.018-32.018-32.018-8.841 0-16.846 3.584-22.64 9.378L544 530.76V288c0-17.673-14.327-32-32-32s-32 14.327-32 32v242.76l-73.36-73.4c-5.794-5.794-13.799-9.378-22.64-9.378-17.683 0-32.018 14.335-32.018 32.018 0 8.841 3.584 16.846 9.378 22.64l128 128c5.792 5.798 13.797 9.385 22.64 9.385s16.848-3.587 22.64-9.385z"/><glyph unicode="" glyph-name="arrow-circle-up-left" data-tags="arrow-circle-up-left" d="M512 864C282.25 864 96 677.75 96 448S282.25 32 512 32s416 186.25 416 416c-.25 229.65-186.35 415.75-415.976 416H512zm0-768c-194.404 0-352 157.596-352 352s157.596 352 352 352 352-157.596 352-352c-.228-194.313-157.687-351.772-351.978-352H512zm150.64 246.64c5.794-5.794 9.378-13.799 9.378-22.64 0-17.683-14.335-32.018-32.018-32.018-8.841 0-16.846 3.584-22.64 9.378L416 498.76V384c0-17.673-14.327-32-32-32s-32 14.327-32 32v192c0 17.673 14.327 32 32 32h192c17.673 0 32-14.327 32-32s-14.327-32-32-32H461.24z"/><glyph unicode="" glyph-name="arrow-circle-up-right" data-tags="arrow-circle-up-right" d="M672 576V384c0-17.673-14.327-32-32-32s-32 14.327-32 32v114.76l-201.36-201.4c-5.794-5.794-13.799-9.378-22.64-9.378-17.683 0-32.018 14.335-32.018 32.018 0 8.841 3.584 16.846 9.378 22.64L562.76 544H448c-17.673 0-32 14.327-32 32s14.327 32 32 32h192c17.673 0 32-14.327 32-32zm256-128c0-229.75-186.25-416-416-416S96 218.25 96 448s186.25 416 416 416c229.65-.25 415.75-186.35 416-415.976V448zm-64 0c0 194.404-157.596 352-352 352S160 642.404 160 448 317.596 96 512 96c194.313.228 351.772 157.687 352 351.978V448z"/><glyph unicode="" glyph-name="arrow-clockwise" data-tags="arrow-clockwise" d="M960 736V544c0-17.673-14.327-32-32-32H736c-17.673 0-32 14.327-32 32s14.327 32 32 32h109.6l-107.36 98.4c-57.905 57.883-137.887 93.683-226.231 93.683-176.731 0-320-143.269-320-320s143.269-320 320-320c85.071 0 162.388 33.196 219.705 87.341l-.154-.144a31.893 31.893 0 0022 8.756c17.682 0 32.016-14.334 32.016-32.016 0-9.154-3.842-17.411-10.002-23.246l-.015-.014c-68.29-64.864-160.837-104.761-262.702-104.761l-.905.001h-5.233c-209.803 2.965-378.741 173.736-378.741 383.964 0 212.077 171.923 384 384 384 105.786 0 201.582-42.776 271.032-111.975l-.011.011 113-103.2V736c0 17.673 14.327 32 32 32s32-14.327 32-32z"/><glyph unicode="" glyph-name="arrow-counter-clockwise" data-tags="arrow-counter-clockwise" d="M896 448v-.035C896 237.702 727.007 66.91 517.434 64.003L517.16 64H512l-.952-.001c-101.855 0-194.388 39.914-262.811 104.954l.162-.153c-6.174 5.849-10.016 14.106-10.016 23.26 0 17.682 14.334 32.016 32.016 32.016a31.906 31.906 0 0022.015-8.77l-.015.014c57.164-54.001 134.481-87.197 219.551-87.197 176.731 0 320 143.269 320 320s-143.269 320-320 320c-88.344 0-168.327-35.8-226.232-93.684l.001.001c-.327-.353-.666-.68-1.024-.986l-.016-.014L178.359 576h109.64c17.673 0 32-14.327 32-32s-14.327-32-32-32h-192c-17.673 0-32 14.327-32 32v192c0 17.673 14.327 32 32 32s32-14.327 32-32V616.8l113 103.2c69.437 69.175 165.224 111.943 271 111.943 212.057 0 383.968-171.89 384-383.94V448z"/><glyph unicode="" glyph-name="arrow-down" data-tags="arrow-down" d="M822.64 361.36l-288-288c-5.792-5.798-13.797-9.385-22.64-9.385s-16.848 3.587-22.64 9.385l-288 288c-5.794 5.794-9.378 13.799-9.378 22.64 0 17.683 14.335 32.018 32.018 32.018 8.841 0 16.846-3.584 22.64-9.378L480 173.24V800c0 17.673 14.327 32 32 32s32-14.327 32-32V173.24l233.36 233.4c5.794 5.794 13.799 9.378 22.64 9.378 17.683 0 32.018-14.335 32.018-32.018 0-8.841-3.584-16.846-9.378-22.64z"/><glyph unicode="" glyph-name="arrow-down-left" data-tags="arrow-down-left" d="M790.64 681.36L333.24 224H672c17.673 0 32-14.327 32-32s-14.327-32-32-32H256c-17.673 0-32 14.327-32 32v416c0 17.673 14.327 32 32 32s32-14.327 32-32V269.24l457.36 457.4c5.794 5.794 13.799 9.378 22.64 9.378 17.683 0 32.018-14.335 32.018-32.018 0-8.841-3.584-16.846-9.378-22.64z"/><glyph unicode="" glyph-name="arrow-down-right" data-tags="arrow-down-right" d="M800 608V192c0-17.673-14.327-32-32-32H352c-17.673 0-32 14.327-32 32s14.327 32 32 32h338.76l-457.4 457.36c-5.794 5.794-9.378 13.799-9.378 22.64 0 17.683 14.335 32.018 32.018 32.018 8.841 0 16.846-3.584 22.64-9.378L736 269.24V608c0 17.673 14.327 32 32 32s32-14.327 32-32z"/><glyph unicode="" glyph-name="arrow-elbow-down-left" data-tags="arrow-elbow-down-left" d="M800 832V256c0-17.673-14.327-32-32-32H269.24l137.4-137.36c5.794-5.794 9.378-13.799 9.378-22.64 0-17.683-14.335-32.018-32.018-32.018-8.841 0-16.846 3.584-22.64 9.378l-192 192c-5.798 5.792-9.385 13.797-9.385 22.64s3.587 16.848 9.385 22.64l192 192c5.794 5.794 13.799 9.378 22.64 9.378 17.683 0 32.018-14.335 32.018-32.018 0-8.841-3.584-16.846-9.378-22.64L269.24 288H736v544c0 17.673 14.327 32 32 32s32-14.327 32-32z"/><glyph unicode="" glyph-name="arrow-elbow-down-right" data-tags="arrow-elbow-down-right" d="M854.64 233.36l-192-192c-5.794-5.794-13.799-9.378-22.64-9.378-17.683 0-32.018 14.335-32.018 32.018 0 8.841 3.584 16.846 9.378 22.64L754.76 224H256c-17.673 0-32 14.327-32 32v576c0 17.673 14.327 32 32 32s32-14.327 32-32V288h466.76l-137.4 137.36c-5.794 5.794-9.378 13.799-9.378 22.64 0 17.683 14.335 32.018 32.018 32.018 8.841 0 16.846-3.584 22.64-9.378l192-192c5.798-5.792 9.385-13.797 9.385-22.64s-3.587-16.848-9.385-22.64z"/><glyph unicode="" glyph-name="arrow-elbow-left" data-tags="arrow-elbow-left" d="M950.64 553.36l-384-384c-5.792-5.798-13.797-9.385-22.64-9.385s-16.848 3.587-22.64 9.385L128 562.76V352c0-17.673-14.327-32-32-32s-32 14.327-32 32v288c0 17.673 14.327 32 32 32h288c17.673 0 32-14.327 32-32s-14.327-32-32-32H173.24L544 237.24l361.36 361.4c5.794 5.794 13.799 9.378 22.64 9.378 17.683 0 32.018-14.335 32.018-32.018 0-8.841-3.584-16.846-9.378-22.64z"/><glyph unicode="" glyph-name="arrow-elbow-left-down" data-tags="arrow-elbow-left-down" d="M928 704c0-17.673-14.327-32-32-32H352V205.24l137.36 137.4c5.794 5.794 13.799 9.378 22.64 9.378 17.683 0 32.018-14.335 32.018-32.018 0-8.841-3.584-16.846-9.378-22.64l-192-192c-5.792-5.798-13.797-9.385-22.64-9.385s-16.848 3.587-22.64 9.385l-192 192c-5.794 5.794-9.378 13.799-9.378 22.64 0 17.683 14.335 32.018 32.018 32.018 8.841 0 16.846-3.584 22.64-9.378L288 205.24V704c0 17.673 14.327 32 32 32h576c17.673 0 32-14.327 32-32z"/><glyph unicode="" glyph-name="arrow-elbow-left-up" data-tags="arrow-elbow-left-up" d="M928 192c0-17.673-14.327-32-32-32H320c-17.673 0-32 14.327-32 32v498.76l-137.36-137.4c-5.794-5.794-13.799-9.378-22.64-9.378-17.683 0-32.018 14.335-32.018 32.018 0 8.841 3.584 16.846 9.378 22.64l192 192c5.792 5.798 13.797 9.385 22.64 9.385s16.848-3.587 22.64-9.385l192-192c5.794-5.794 9.378-13.799 9.378-22.64 0-17.683-14.335-32.018-32.018-32.018-8.841 0-16.846 3.584-22.64 9.378L352 690.76V224h544c17.673 0 32-14.327 32-32z"/><glyph unicode="" glyph-name="arrow-elbow-right" data-tags="arrow-elbow-right" d="M960 640V352c0-17.673-14.327-32-32-32s-32 14.327-32 32v210.76l-393.36-393.4c-5.792-5.798-13.797-9.385-22.64-9.385s-16.848 3.587-22.64 9.385l-384 384c-5.794 5.794-9.378 13.799-9.378 22.64 0 17.683 14.335 32.018 32.018 32.018 8.841 0 16.846-3.584 22.64-9.378L480 237.24 850.76 608H640c-17.673 0-32 14.327-32 32s14.327 32 32 32h288c17.673 0 32-14.327 32-32z"/><glyph unicode="" glyph-name="arrow-elbow-right-down" data-tags="arrow-elbow-right-down" d="M918.64 297.36l-192-192c-5.792-5.798-13.797-9.385-22.64-9.385s-16.848 3.587-22.64 9.385l-192 192c-5.794 5.794-9.378 13.799-9.378 22.64 0 17.683 14.335 32.018 32.018 32.018 8.841 0 16.846-3.584 22.64-9.378L672 205.24V672H128c-17.673 0-32 14.327-32 32s14.327 32 32 32h576c17.673 0 32-14.327 32-32V205.24l137.36 137.4c5.794 5.794 13.799 9.378 22.64 9.378 17.683 0 32.018-14.335 32.018-32.018 0-8.841-3.584-16.846-9.378-22.64z"/><glyph unicode="" glyph-name="arrow-elbow-right-up" data-tags="arrow-elbow-right-up" d="M918.64 553.36c-5.792-5.798-13.797-9.385-22.64-9.385s-16.848 3.587-22.64 9.385L736 690.76V192c0-17.673-14.327-32-32-32H128c-17.673 0-32 14.327-32 32s14.327 32 32 32h544v466.76l-137.36-137.4c-5.794-5.794-13.799-9.378-22.64-9.378-17.683 0-32.018 14.335-32.018 32.018 0 8.841 3.584 16.846 9.378 22.64l192 192c5.792 5.798 13.797 9.385 22.64 9.385s16.848-3.587 22.64-9.385l192-192c5.798-5.792 9.385-13.797 9.385-22.64s-3.587-16.848-9.385-22.64z"/><glyph unicode="" glyph-name="arrow-elbow-up-left" data-tags="arrow-elbow-up-left" d="M800 640V64c0-17.673-14.327-32-32-32s-32 14.327-32 32v544H269.24l137.4-137.36c5.794-5.794 9.378-13.799 9.378-22.64 0-17.683-14.335-32.018-32.018-32.018-8.841 0-16.846 3.584-22.64 9.378L169.12 617.64c-.64.64-1.28 1.36-1.88 2.08l-.92 1.24c-.301.372-.604.789-.885 1.222l-.035.058-.92 1.48c-.22.333-.446.726-.65 1.133l-.03.067c-.28.48-.52 1-.76 1.52s-.4.84-.6 1.32-.36 1-.56 1.48l-.52 1.44-.36 1.56c0 .52-.28 1-.4 1.48s0 1.24-.24 1.84 0 .84-.2 1.28c-.096.947-.15 2.047-.15 3.16s.054 2.213.161 3.297l-.011-.137c0 .44 0 .84.2 1.28s0 1.24.24 1.84.24.96.4 1.48l.36 1.56.52 1.44c.2.48.36 1 .56 1.48s.4.88.6 1.32.48 1.04.76 1.52c.234.474.46.867.707 1.244l-.027-.044.92 1.48c.316.491.619.908.942 1.308l-.022-.028.92 1.24c.6.72 1.24 1.44 1.88 2.08l.24.28 192 192c5.794 5.794 13.799 9.378 22.64 9.378 17.683 0 32.018-14.335 32.018-32.018 0-8.841-3.584-16.846-9.378-22.64L269.24 672H768c17.673 0 32-14.327 32-32z"/><glyph unicode="" glyph-name="arrow-elbow-up-right" data-tags="arrow-elbow-up-right" d="M854.64 617.36l-192-192c-5.794-5.794-13.799-9.378-22.64-9.378-17.683 0-32.018 14.335-32.018 32.018 0 8.841 3.584 16.846 9.378 22.64L754.76 608H288V64c0-17.673-14.327-32-32-32s-32 14.327-32 32v576c0 17.673 14.327 32 32 32h498.76l-137.4 137.36c-5.794 5.794-9.378 13.799-9.378 22.64 0 17.683 14.335 32.018 32.018 32.018 8.841 0 16.846-3.584 22.64-9.378l192-192c5.798-5.792 9.385-13.797 9.385-22.64s-3.587-16.848-9.385-22.64z"/><glyph unicode="" glyph-name="arrow-fat-down" data-tags="arrow-fat-down" d="M925.56 428.24c-4.934 11.696-16.306 19.757-29.56 19.76H736v320c0 35.346-28.654 64-64 64H352c-35.346 0-64-28.654-64-64V448H127.975c-17.673 0-32-14.327-32-32 0-8.843 3.587-16.848 9.385-22.64l384-384C495.152 3.562 503.157-.025 512-.025s16.848 3.587 22.64 9.385l384 384c5.785 5.79 9.363 13.786 9.363 22.618 0 4.425-.898 8.639-2.522 12.472l.079-.21zM512 77.24L205.24 384H320c17.673 0 32 14.327 32 32v352h320V416c0-17.673 14.327-32 32-32h114.76z"/><glyph unicode="" glyph-name="arrow-fat-left" data-tags="arrow-fat-left" d="M832 672H512v160.025c0 17.673-14.327 32-32 32-8.843 0-16.848-3.587-22.64-9.385l-384-384c-5.798-5.792-9.385-13.797-9.385-22.64s3.587-16.848 9.385-22.64l384-384c5.792-5.798 13.797-9.385 22.64-9.385 17.673 0 32 14.327 32 32v.027-.001 160h320c35.346 0 64 28.654 64 64v320c0 35.346-28.654 64-64 64zm0-384H480c-17.673 0-32-14.327-32-32V141.24L141.24 448 448 754.76V640c0-17.673 14.327-32 32-32h352z"/><glyph unicode="" glyph-name="arrow-fat-line-down" data-tags="arrow-fat-line-down" d="M925.56 428.24c-4.934 11.696-16.306 19.757-29.56 19.76H736v224c0 17.673-14.327 32-32 32H320c-17.673 0-32-14.327-32-32V448H127.975c-17.673 0-32-14.327-32-32 0-8.843 3.587-16.848 9.385-22.64l384-384C495.152 3.562 503.157-.025 512-.025s16.848 3.587 22.64 9.385l384 384c5.785 5.79 9.363 13.786 9.363 22.618 0 4.425-.898 8.639-2.522 12.472l.079-.21zM512 77.24L205.24 384H320c17.673 0 32 14.327 32 32v224h320V416c0-17.673 14.327-32 32-32h114.76zM288 800c0 17.673 14.327 32 32 32h384c17.673 0 32-14.327 32-32s-14.327-32-32-32H320c-17.673 0-32 14.327-32 32z"/><glyph unicode="" glyph-name="arrow-fat-line-left" data-tags="arrow-fat-line-left" d="M736 672H512v160.025c0 17.673-14.327 32-32 32-8.843 0-16.848-3.587-22.64-9.385l-384-384c-5.798-5.792-9.385-13.797-9.385-22.64s3.587-16.848 9.385-22.64l384-384c5.792-5.798 13.797-9.385 22.64-9.385 17.673 0 32 14.327 32 32v.027-.001 160h224c17.673 0 32 14.327 32 32v384c0 17.673-14.327 32-32 32zm-32-384H480c-17.673 0-32-14.327-32-32V141.24L141.24 448 448 754.76V640c0-17.673 14.327-32 32-32h224zm192 352V256c0-17.673-14.327-32-32-32s-32 14.327-32 32v384c0 17.673 14.327 32 32 32s32-14.327 32-32z"/><glyph unicode="" glyph-name="arrow-fat-line-right" data-tags="arrow-fat-line-right" d="M950.64 470.64l-384 384c-5.792 5.798-13.797 9.385-22.64 9.385-17.673 0-32-14.327-32-32v-.027.001-160H288c-17.673 0-32-14.327-32-32v-384c0-17.673 14.327-32 32-32h224V63.974c0-17.673 14.327-32 32-32 8.843 0 16.848 3.587 22.64 9.385l384 384c5.798 5.792 9.385 13.797 9.385 22.64s-3.587 16.848-9.385 22.64zM576 141.24V256c0 17.673-14.327 32-32 32H320v320h224c17.673 0 32 14.327 32 32v114.76L882.76 448zM192 640V256c0-17.673-14.327-32-32-32s-32 14.327-32 32v384c0 17.673 14.327 32 32 32s32-14.327 32-32z"/><glyph unicode="" glyph-name="arrow-fat-lines-down" data-tags="arrow-fat-lines-down" d="M925.56 428.24c-4.934 11.696-16.306 19.757-29.56 19.76H736v96c0 17.673-14.327 32-32 32H320c-17.673 0-32-14.327-32-32v-96H127.975c-17.673 0-32-14.327-32-32 0-8.843 3.587-16.848 9.385-22.64l384-384C495.152 3.562 503.157-.025 512-.025s16.848 3.587 22.64 9.385l384 384c5.785 5.79 9.363 13.786 9.363 22.618 0 4.425-.898 8.639-2.522 12.472l.079-.21zM512 77.24L205.24 384H320c17.673 0 32 14.327 32 32v96h320v-96c0-17.673 14.327-32 32-32h114.76zM288 800c0 17.673 14.327 32 32 32h384c17.673 0 32-14.327 32-32s-14.327-32-32-32H320c-17.673 0-32 14.327-32 32zm0-128c0 17.673 14.327 32 32 32h384c17.673 0 32-14.327 32-32s-14.327-32-32-32H320c-17.673 0-32 14.327-32 32z"/><glyph unicode="" glyph-name="arrow-fat-lines-left" data-tags="arrow-fat-lines-left" d="M608 672h-96v160.025c0 17.673-14.327 32-32 32-8.843 0-16.848-3.587-22.64-9.385l-384-384c-5.798-5.792-9.385-13.797-9.385-22.64s3.587-16.848 9.385-22.64l384-384c5.792-5.798 13.797-9.385 22.64-9.385 17.673 0 32 14.327 32 32v.027-.001 160h96c17.673 0 32 14.327 32 32v384c0 17.673-14.327 32-32 32zm-32-384h-96c-17.673 0-32-14.327-32-32V141.24L141.24 448 448 754.76V640c0-17.673 14.327-32 32-32h96zm320 352V256c0-17.673-14.327-32-32-32s-32 14.327-32 32v384c0 17.673 14.327 32 32 32s32-14.327 32-32zm-128 0V256c0-17.673-14.327-32-32-32s-32 14.327-32 32v384c0 17.673 14.327 32 32 32s32-14.327 32-32z"/><glyph unicode="" glyph-name="arrow-fat-lines-right" data-tags="arrow-fat-lines-right" d="M950.64 470.64l-384 384c-5.792 5.798-13.797 9.385-22.64 9.385-17.673 0-32-14.327-32-32v-.027.001-160h-96c-17.673 0-32-14.327-32-32v-384c0-17.673 14.327-32 32-32h96V63.974c0-17.673 14.327-32 32-32 8.843 0 16.848 3.587 22.64 9.385l384 384c5.798 5.792 9.385 13.797 9.385 22.64s-3.587 16.848-9.385 22.64zM576 141.24V256c0 17.673-14.327 32-32 32h-96v320h96c17.673 0 32 14.327 32 32v114.76L882.76 448zM192 640V256c0-17.673-14.327-32-32-32s-32 14.327-32 32v384c0 17.673 14.327 32 32 32s32-14.327 32-32zm128 0V256c0-17.673-14.327-32-32-32s-32 14.327-32 32v384c0 17.673 14.327 32 32 32s32-14.327 32-32z"/><glyph unicode="" glyph-name="arrow-fat-lines-up" data-tags="arrow-fat-lines-up" d="M918.64 502.64l-384 384c-5.792 5.798-13.797 9.385-22.64 9.385s-16.848-3.587-22.64-9.385l-384-384c-5.798-5.792-9.385-13.797-9.385-22.64 0-17.673 14.327-32 32-32h160.026v-96c0-17.673 14.327-32 32-32h384c17.673 0 32 14.327 32 32v96h160.025c17.673 0 32 14.327 32 32 0 8.843-3.587 16.848-9.385 22.64zM704 512c-17.673 0-32-14.327-32-32v-96H352v96c0 17.673-14.327 32-32 32H205.24L512 818.76 818.76 512zm32-416c0-17.673-14.327-32-32-32H320c-17.673 0-32 14.327-32 32s14.327 32 32 32h384c17.673 0 32-14.327 32-32zm0 128c0-17.673-14.327-32-32-32H320c-17.673 0-32 14.327-32 32s14.327 32 32 32h384c17.673 0 32-14.327 32-32z"/><glyph unicode="" glyph-name="arrow-fat-line-up" data-tags="arrow-fat-line-up" d="M918.64 502.64l-384 384c-5.792 5.798-13.797 9.385-22.64 9.385s-16.848-3.587-22.64-9.385l-384-384c-5.798-5.792-9.385-13.797-9.385-22.64 0-17.673 14.327-32 32-32h160.026V224c0-17.673 14.327-32 32-32h384c17.673 0 32 14.327 32 32v224h160.025c17.673 0 32 14.327 32 32 0 8.843-3.587 16.848-9.385 22.64zM704 512c-17.673 0-32-14.327-32-32V256H352v224c0 17.673-14.327 32-32 32H205.24L512 818.76 818.76 512zm32-416c0-17.673-14.327-32-32-32H320c-17.673 0-32 14.327-32 32s14.327 32 32 32h384c17.673 0 32-14.327 32-32z"/><glyph unicode="" glyph-name="arrow-fat-right" data-tags="arrow-fat-right" d="M950.64 470.64l-384 384c-5.792 5.798-13.797 9.385-22.64 9.385-17.673 0-32-14.327-32-32v-.027.001-160H192c-35.346 0-64-28.654-64-64v-320c0-35.346 28.654-64 64-64h320V63.974c0-17.673 14.327-32 32-32 8.843 0 16.848 3.587 22.64 9.385l384 384c5.798 5.792 9.385 13.797 9.385 22.64s-3.587 16.848-9.385 22.64zM576 141.24V256c0 17.673-14.327 32-32 32H192v320h352c17.673 0 32 14.327 32 32v114.76L882.76 448z"/><glyph unicode="" glyph-name="arrow-fat-up" data-tags="arrow-fat-up" d="M918.64 502.64l-384 384c-5.792 5.798-13.797 9.385-22.64 9.385s-16.848-3.587-22.64-9.385l-384-384c-5.798-5.792-9.385-13.797-9.385-22.64 0-17.673 14.327-32 32-32h160.026V128c0-35.346 28.654-64 64-64h320c35.346 0 64 28.654 64 64v320h160.025c17.673 0 32 14.327 32 32 0 8.843-3.587 16.848-9.385 22.64zM704 512c-17.673 0-32-14.327-32-32V128H352v352c0 17.673-14.327 32-32 32H205.24L512 818.76 818.76 512z"/><glyph unicode="" glyph-name="arrow-left" data-tags="arrow-left" d="M896 448c0-17.673-14.327-32-32-32H237.24l233.4-233.36c5.794-5.794 9.378-13.799 9.378-22.64 0-17.683-14.335-32.018-32.018-32.018-8.841 0-16.846 3.584-22.64 9.378l-288 288c-5.798 5.792-9.385 13.797-9.385 22.64s3.587 16.848 9.385 22.64l288 288c5.794 5.794 13.799 9.378 22.64 9.378 17.683 0 32.018-14.335 32.018-32.018 0-8.841-3.584-16.846-9.378-22.64L237.24 480H864c17.673 0 32-14.327 32-32z"/><glyph unicode="" glyph-name="arrow-line-down" data-tags="arrow-line-down" d="M201.36 489.36c-5.794 5.794-9.378 13.799-9.378 22.64 0 17.683 14.335 32.018 32.018 32.018 8.841 0 16.846-3.584 22.64-9.378L480 301.24V832c0 17.673 14.327 32 32 32s32-14.327 32-32V301.24l233.36 233.4c5.794 5.794 13.799 9.378 22.64 9.378 17.683 0 32.018-14.335 32.018-32.018 0-8.841-3.584-16.846-9.378-22.64l-288-288c-5.792-5.798-13.797-9.385-22.64-9.385s-16.848 3.587-22.64 9.385zM864 128H160c-17.673 0-32-14.327-32-32s14.327-32 32-32h704c17.673 0 32 14.327 32 32s-14.327 32-32 32z"/><glyph unicode="" glyph-name="arrow-line-down-left" data-tags="arrow-line-down-left" d="M896 800c0-17.673-14.327-32-32-32H160c-17.673 0-32 14.327-32 32s14.327 32 32 32h704c17.673 0 32-14.327 32-32zM681.36 630.64L288 237.24V544c0 17.673-14.327 32-32 32s-32-14.327-32-32V160c0-17.673 14.327-32 32-32h384c17.673 0 32 14.327 32 32s-14.327 32-32 32H333.24l393.4 393.36c5.794 5.794 9.378 13.799 9.378 22.64 0 17.683-14.335 32.018-32.018 32.018-8.841 0-16.846-3.584-22.64-9.378z"/><glyph unicode="" glyph-name="arrow-line-down-right" data-tags="arrow-line-down-right" d="M896 800c0-17.673-14.327-32-32-32H160c-17.673 0-32 14.327-32 32s14.327 32 32 32h704c17.673 0 32-14.327 32-32zM768 576c-17.673 0-32-14.327-32-32V237.24l-393.36 393.4c-5.794 5.794-13.799 9.378-22.64 9.378-17.683 0-32.018-14.335-32.018-32.018 0-8.841 3.584-16.846 9.378-22.64L690.76 192H384c-17.673 0-32-14.327-32-32s14.327-32 32-32h384c17.673 0 32 14.327 32 32v384c0 17.673-14.327 32-32 32z"/><glyph unicode="" glyph-name="arrow-line-left" data-tags="arrow-line-left" d="M928 448c0-17.673-14.327-32-32-32H365.24l233.4-233.36c5.794-5.794 9.378-13.799 9.378-22.64 0-17.683-14.335-32.018-32.018-32.018-8.841 0-16.846 3.584-22.64 9.378l-288 288c-5.798 5.792-9.385 13.797-9.385 22.64s3.587 16.848 9.385 22.64l288 288c5.794 5.794 13.799 9.378 22.64 9.378 17.683 0 32.018-14.335 32.018-32.018 0-8.841-3.584-16.846-9.378-22.64L365.24 480H896c17.673 0 32-14.327 32-32zM160 832c-17.673 0-32-14.327-32-32V96c0-17.673 14.327-32 32-32s32 14.327 32 32v704c0 17.673-14.327 32-32 32z"/><glyph unicode="" glyph-name="arrow-line-right" data-tags="arrow-line-right" d="M758.64 470.64c5.798-5.792 9.385-13.797 9.385-22.64s-3.587-16.848-9.385-22.64l-288-288c-5.794-5.794-13.799-9.378-22.64-9.378-17.683 0-32.018 14.335-32.018 32.018 0 8.841 3.584 16.846 9.378 22.64L658.76 416H128c-17.673 0-32 14.327-32 32s14.327 32 32 32h530.76l-233.4 233.36c-5.794 5.794-9.378 13.799-9.378 22.64 0 17.683 14.335 32.018 32.018 32.018 8.841 0 16.846-3.584 22.64-9.378zM864 832c-17.673 0-32-14.327-32-32V96c0-17.673 14.327-32 32-32s32 14.327 32 32v704c0 17.673-14.327 32-32 32z"/><glyph unicode="" glyph-name="arrow-line-up" data-tags="arrow-line-up" d="M822.64 406.64c5.794-5.794 9.378-13.799 9.378-22.64 0-17.683-14.335-32.018-32.018-32.018-8.841 0-16.846 3.584-22.64 9.378L544 594.76V64c0-17.673-14.327-32-32-32s-32 14.327-32 32v530.76l-233.36-233.4c-5.794-5.794-13.799-9.378-22.64-9.378-17.683 0-32.018 14.335-32.018 32.018 0 8.841 3.584 16.846 9.378 22.64l288 288c5.792 5.798 13.797 9.385 22.64 9.385s16.848-3.587 22.64-9.385zM864 832H160c-17.673 0-32-14.327-32-32s14.327-32 32-32h704c17.673 0 32 14.327 32 32s-14.327 32-32 32z"/><glyph unicode="" glyph-name="arrow-line-up-left" data-tags="arrow-line-up-left" d="M896 96c0-17.673-14.327-32-32-32H160c-17.673 0-32 14.327-32 32s14.327 32 32 32h704c17.673 0 32-14.327 32-32zM256 320c17.673 0 32 14.327 32 32v306.76l393.36-393.4c5.794-5.794 13.799-9.378 22.64-9.378 17.683 0 32.018 14.335 32.018 32.018 0 8.841-3.584 16.846-9.378 22.64L333.24 704H640c17.673 0 32 14.327 32 32s-14.327 32-32 32H256c-17.673 0-32-14.327-32-32V352c0-17.673 14.327-32 32-32z"/><glyph unicode="" glyph-name="arrow-line-up-right" data-tags="arrow-line-up-right" d="M896 96c0-17.673-14.327-32-32-32H160c-17.673 0-32 14.327-32 32s14.327 32 32 32h704c17.673 0 32-14.327 32-32zM320 256h.025c8.83 0 16.825 3.577 22.615 9.36L736 658.76V352c0-17.673 14.327-32 32-32s32 14.327 32 32v384c0 17.673-14.327 32-32 32H384c-17.673 0-32-14.327-32-32s14.327-32 32-32h306.76l-393.4-393.36c-5.798-5.792-9.385-13.797-9.385-22.64 0-17.673 14.327-32 32-32h.027-.001z"/><glyph unicode="" glyph-name="arrow-right" data-tags="arrow-right" d="M886.64 425.36l-288-288c-5.794-5.794-13.799-9.378-22.64-9.378-17.683 0-32.018 14.335-32.018 32.018 0 8.841 3.584 16.846 9.378 22.64L786.76 416H160c-17.673 0-32 14.327-32 32s14.327 32 32 32h626.76l-233.4 233.36c-5.794 5.794-9.378 13.799-9.378 22.64 0 17.683 14.335 32.018 32.018 32.018 8.841 0 16.846-3.584 22.64-9.378l288-288c5.798-5.792 9.385-13.797 9.385-22.64s-3.587-16.848-9.385-22.64z"/><glyph unicode="" glyph-name="arrows-clockwise" data-tags="arrows-clockwise" d="M790.68 214.52c5.763-5.786 9.325-13.767 9.325-22.58s-3.563-16.794-9.326-22.581l.001.001C786.32 165.08 683.28 64 512 64c-149.56 0-258.12 89.6-320 159.4V128c0-17.673-14.327-32-32-32s-32 14.327-32 32v192c0 17.673 14.327 32 32 32h192c17.673 0 32-14.327 32-32s-14.327-32-32-32H221.76C271.04 226.6 372 128 512 128c144 0 232.56 85.84 233.44 86.72 5.78 5.727 13.737 9.266 22.52 9.266 8.883 0 16.92-3.619 22.718-9.464l.002-.002zM864 800c-17.673 0-32-14.327-32-32v-95.4C770.12 742.4 661.56 832 512 832c-171.28 0-274.32-101.08-278.64-105.36-5.818-5.798-9.418-13.819-9.418-22.68 0-17.683 14.335-32.018 32.018-32.018 8.822 0 16.81 3.568 22.601 9.339l-.001-.001C279.44 682.16 368 768 512 768c140 0 240.96-98.6 290.24-160H672c-17.673 0-32-14.327-32-32s14.327-32 32-32h192c17.673 0 32 14.327 32 32v192c0 17.673-14.327 32-32 32z"/><glyph unicode="" glyph-name="arrows-counter-clockwise" data-tags="arrows-counter-clockwise" d="M352 544H160c-17.673 0-32 14.327-32 32v192c0 17.673 14.327 32 32 32s32-14.327 32-32v-95.4C253.88 742.4 362.44 832 512 832c171.28 0 274.32-101.08 278.64-105.36 5.818-5.798 9.418-13.819 9.418-22.68 0-17.683-14.335-32.018-32.018-32.018-8.822 0-16.81 3.568-22.601 9.339l.001-.001C744.36 682.36 655.68 768 512 768c-140 0-240.92-98.6-290.24-160H352c17.673 0 32-14.327 32-32s-14.327-32-32-32zm512-192H672c-17.673 0-32-14.327-32-32s14.327-32 32-32h130.24C752.92 226.6 652 128 512 128c-143.68 0-232.36 85.64-233.44 86.72-5.79 5.77-13.778 9.338-22.6 9.338-17.683 0-32.018-14.335-32.018-32.018 0-8.861 3.6-16.882 9.417-22.679l.001-.001C237.68 165.08 340.72 64 512 64c149.56 0 258.12 89.6 320 159.4V128c0-17.673 14.327-32 32-32s32 14.327 32 32v192c0 17.673-14.327 32-32 32z"/><glyph unicode="" glyph-name="arrows-down-up" data-tags="arrows-down-up" d="M470.64 278.64c5.798-5.792 9.385-13.797 9.385-22.64s-3.587-16.848-9.385-22.64l-128-128c-5.792-5.798-13.797-9.385-22.64-9.385s-16.848 3.587-22.64 9.385l-128 128c-5.794 5.794-9.378 13.799-9.378 22.64 0 17.683 14.335 32.018 32.018 32.018 8.841 0 16.846-3.584 22.64-9.378l73.36-73.4V768c0 17.673 14.327 32 32 32s32-14.327 32-32V205.24l73.36 73.4c5.792 5.798 13.797 9.385 22.64 9.385s16.848-3.587 22.64-9.385zm384 384l-128 128c-5.792 5.798-13.797 9.385-22.64 9.385s-16.848-3.587-22.64-9.385l-128-128c-5.794-5.794-9.378-13.799-9.378-22.64 0-17.683 14.335-32.018 32.018-32.018 8.841 0 16.846 3.584 22.64 9.378l73.36 73.4V128c0-17.673 14.327-32 32-32s32 14.327 32 32v562.76l73.36-73.4c5.794-5.794 13.799-9.378 22.64-9.378 17.683 0 32.018 14.335 32.018 32.018 0 8.841-3.584 16.846-9.378 22.64z"/><glyph unicode="" glyph-name="arrows-horizontal" data-tags="arrows-horizontal" d="M950.64 425.36l-128-128c-5.794-5.794-13.799-9.378-22.64-9.378-17.683 0-32.018 14.335-32.018 32.018 0 8.841 3.584 16.846 9.378 22.64l73.4 73.36H173.24l73.4-73.36c5.794-5.794 9.378-13.799 9.378-22.64 0-17.683-14.335-32.018-32.018-32.018-8.841 0-16.846 3.584-22.64 9.378l-128 128c-5.798 5.792-9.385 13.797-9.385 22.64s3.587 16.848 9.385 22.64l128 128c5.794 5.794 13.799 9.378 22.64 9.378 17.683 0 32.018-14.335 32.018-32.018 0-8.841-3.584-16.846-9.378-22.64L173.24 480h677.52l-73.4 73.36c-5.794 5.794-9.378 13.799-9.378 22.64 0 17.683 14.335 32.018 32.018 32.018 8.841 0 16.846-3.584 22.64-9.378l128-128c5.798-5.792 9.385-13.797 9.385-22.64s-3.587-16.848-9.385-22.64z"/><glyph unicode="" glyph-name="arrows-in" data-tags="arrows-in" d="M576 544v160c0 17.673 14.327 32 32 32s32-14.327 32-32v-82.76l169.36 169.4c5.794 5.794 13.799 9.378 22.64 9.378 17.683 0 32.018-14.335 32.018-32.018 0-8.841-3.584-16.846-9.378-22.64L685.24 576H768c17.673 0 32-14.327 32-32s-14.327-32-32-32H608c-17.673 0-32 14.327-32 32zM416 384H256c-17.673 0-32-14.327-32-32s14.327-32 32-32h82.76l-169.4-169.36c-5.794-5.794-9.378-13.799-9.378-22.64 0-17.683 14.335-32.018 32.018-32.018 8.841 0 16.846 3.584 22.64 9.378L384 274.76V192c0-17.673 14.327-32 32-32s32 14.327 32 32v160c0 17.673-14.327 32-32 32zm269.24-64H768c17.673 0 32 14.327 32 32s-14.327 32-32 32H608c-17.673 0-32-14.327-32-32V192c0-17.673 14.327-32 32-32s32 14.327 32 32v82.76l169.36-169.4c5.794-5.794 13.799-9.378 22.64-9.378 17.683 0 32.018 14.335 32.018 32.018 0 8.841-3.584 16.846-9.378 22.64zM416 736c-17.673 0-32-14.327-32-32v-82.76l-169.36 169.4c-5.794 5.794-13.799 9.378-22.64 9.378-17.683 0-32.018-14.335-32.018-32.018 0-8.841 3.584-16.846 9.378-22.64L338.76 576H256c-17.673 0-32-14.327-32-32s14.327-32 32-32h160c17.673 0 32 14.327 32 32v160c0 17.673-14.327 32-32 32z"/><glyph unicode="" glyph-name="arrows-in-cardinal" data-tags="arrows-in-cardinal" d="M361.36 681.36c-5.794 5.794-9.378 13.799-9.378 22.64 0 17.683 14.335 32.018 32.018 32.018 8.841 0 16.846-3.584 22.64-9.378l73.36-73.4V864c0 17.673 14.327 32 32 32s32-14.327 32-32V653.24l73.36 73.4c5.794 5.794 13.799 9.378 22.64 9.378 17.683 0 32.018-14.335 32.018-32.018 0-8.841-3.584-16.846-9.378-22.64l-128-128c-5.792-5.798-13.797-9.385-22.64-9.385s-16.848 3.587-22.64 9.385zm173.28-338.72c-5.792 5.798-13.797 9.385-22.64 9.385s-16.848-3.587-22.64-9.385l-128-128c-5.794-5.794-9.378-13.799-9.378-22.64 0-17.683 14.335-32.018 32.018-32.018 8.841 0 16.846 3.584 22.64 9.378l73.36 73.4V32c0-17.673 14.327-32 32-32s32 14.327 32 32v210.76l73.36-73.4c5.794-5.794 13.799-9.378 22.64-9.378 17.683 0 32.018 14.335 32.018 32.018 0 8.841-3.584 16.846-9.378 22.64zM928 480H717.24l73.4 73.36c5.794 5.794 9.378 13.799 9.378 22.64 0 17.683-14.335 32.018-32.018 32.018-8.841 0-16.846-3.584-22.64-9.378l-128-128c-5.798-5.792-9.385-13.797-9.385-22.64s3.587-16.848 9.385-22.64l128-128c5.794-5.794 13.799-9.378 22.64-9.378 17.683 0 32.018 14.335 32.018 32.018 0 8.841-3.584 16.846-9.378 22.64L717.24 416H928c17.673 0 32 14.327 32 32s-14.327 32-32 32zm-521.36-9.36l-128 128c-5.794 5.794-13.799 9.378-22.64 9.378-17.683 0-32.018-14.335-32.018-32.018 0-8.841 3.584-16.846 9.378-22.64l73.4-73.36H96c-17.673 0-32-14.327-32-32s14.327-32 32-32h210.76l-73.4-73.36c-5.794-5.794-9.378-13.799-9.378-22.64 0-17.683 14.335-32.018 32.018-32.018 8.841 0 16.846 3.584 22.64 9.378l128 128c5.798 5.792 9.385 13.797 9.385 22.64s-3.587 16.848-9.385 22.64z"/><glyph unicode="" glyph-name="arrows-in-line-horizontal" data-tags="arrows-in-line-horizontal" d="M544 800V96c0-17.673-14.327-32-32-32s-32 14.327-32 32v704c0 17.673 14.327 32 32 32s32-14.327 32-32zM278.64 598.64c-5.794 5.794-13.799 9.378-22.64 9.378-17.683 0-32.018-14.335-32.018-32.018 0-8.841 3.584-16.846 9.378-22.64l73.4-73.36H64c-17.673 0-32-14.327-32-32s14.327-32 32-32h242.76l-73.4-73.36c-5.794-5.794-9.378-13.799-9.378-22.64 0-17.683 14.335-32.018 32.018-32.018 8.841 0 16.846 3.584 22.64 9.378l128 128c5.798 5.792 9.385 13.797 9.385 22.64s-3.587 16.848-9.385 22.64zM960 480H717.24l73.4 73.36c5.794 5.794 9.378 13.799 9.378 22.64 0 17.683-14.335 32.018-32.018 32.018-8.841 0-16.846-3.584-22.64-9.378l-128-128c-5.798-5.792-9.385-13.797-9.385-22.64s3.587-16.848 9.385-22.64l128-128c5.794-5.794 13.799-9.378 22.64-9.378 17.683 0 32.018 14.335 32.018 32.018 0 8.841-3.584 16.846-9.378 22.64L717.24 416H960c17.673 0 32 14.327 32 32s-14.327 32-32 32z"/><glyph unicode="" glyph-name="arrows-in-line-vertical" data-tags="arrows-in-line-vertical" d="M896 448c0-17.673-14.327-32-32-32H160c-17.673 0-32 14.327-32 32s14.327 32 32 32h704c17.673 0 32-14.327 32-32zM489.36 553.36c5.792-5.798 13.797-9.385 22.64-9.385s16.848 3.587 22.64 9.385l128 128c5.794 5.794 9.378 13.799 9.378 22.64 0 17.683-14.335 32.018-32.018 32.018-8.841 0-16.846-3.584-22.64-9.378L544 653.24V896c0 17.673-14.327 32-32 32s-32-14.327-32-32V653.24l-73.36 73.4c-5.794 5.794-13.799 9.378-22.64 9.378-17.683 0-32.018-14.335-32.018-32.018 0-8.841 3.584-16.846 9.378-22.64zm45.28-210.72c-5.792 5.798-13.797 9.385-22.64 9.385s-16.848-3.587-22.64-9.385l-128-128c-5.794-5.794-9.378-13.799-9.378-22.64 0-17.683 14.335-32.018 32.018-32.018 8.841 0 16.846 3.584 22.64 9.378l73.36 73.4V0c0-17.673 14.327-32 32-32s32 14.327 32 32v242.76l73.36-73.4c5.794-5.794 13.799-9.378 22.64-9.378 17.683 0 32.018 14.335 32.018 32.018 0 8.841-3.584 16.846-9.378 22.64z"/><glyph unicode="" glyph-name="arrows-in-simple" data-tags="arrows-in-simple" d="M854.64 745.36L653.24 544H768c17.673 0 32-14.327 32-32s-14.327-32-32-32H576c-17.673 0-32 14.327-32 32v192c0 17.673 14.327 32 32 32s32-14.327 32-32V589.24l201.36 201.4c5.794 5.794 13.799 9.378 22.64 9.378 17.683 0 32.018-14.335 32.018-32.018 0-8.841-3.584-16.846-9.378-22.64zM448 416H256c-17.673 0-32-14.327-32-32s14.327-32 32-32h114.76l-201.4-201.36c-5.794-5.794-9.378-13.799-9.378-22.64 0-17.683 14.335-32.018 32.018-32.018 8.841 0 16.846 3.584 22.64 9.378L416 306.76V192c0-17.673 14.327-32 32-32s32 14.327 32 32v192c0 17.673-14.327 32-32 32z"/><glyph unicode="" glyph-name="arrows-left-right" data-tags="arrows-left-right" d="M854.64 233.36l-128-128c-5.794-5.794-13.799-9.378-22.64-9.378-17.683 0-32.018 14.335-32.018 32.018 0 8.841 3.584 16.846 9.378 22.64l73.4 73.36H192c-17.673 0-32 14.327-32 32s14.327 32 32 32h562.76l-73.4 73.36c-5.794 5.794-9.378 13.799-9.378 22.64 0 17.683 14.335 32.018 32.018 32.018 8.841 0 16.846-3.584 22.64-9.378l128-128c5.798-5.792 9.385-13.797 9.385-22.64s-3.587-16.848-9.385-22.64zm-557.28 256c5.794-5.794 13.799-9.378 22.64-9.378 17.683 0 32.018 14.335 32.018 32.018 0 8.841-3.584 16.846-9.378 22.64L269.24 608H832c17.673 0 32 14.327 32 32s-14.327 32-32 32H269.24l73.4 73.36c5.794 5.794 9.378 13.799 9.378 22.64 0 17.683-14.335 32.018-32.018 32.018-8.841 0-16.846-3.584-22.64-9.378l-128-128c-5.798-5.792-9.385-13.797-9.385-22.64s3.587-16.848 9.385-22.64z"/><glyph unicode="" glyph-name="arrows-merge" data-tags="arrows-merge" d="M768 800V543.975c0-8.83-3.577-16.825-9.36-22.615L544 306.76V109.24l73.36 73.4c5.794 5.794 13.799 9.378 22.64 9.378 17.683 0 32.018-14.335 32.018-32.018 0-8.841-3.584-16.846-9.378-22.64l-128-128C528.848 3.562 520.843-.025 512-.025s-16.848 3.587-22.64 9.385l-128 128c-5.794 5.794-9.378 13.799-9.378 22.64 0 17.683 14.335 32.018 32.018 32.018 8.841 0 16.846-3.584 22.64-9.378l73.36-73.4v197.52l-214.64 214.6c-5.783 5.79-9.36 13.785-9.36 22.615v.027-.001 256c0 17.673 14.327 32 32 32s32-14.327 32-32v-242.76l192-192 192 192v242.76c0 17.673 14.327 32 32 32s32-14.327 32-32z"/><glyph unicode="" glyph-name="arrows-out" data-tags="arrows-out" d="M864 768V576c0-17.673-14.327-32-32-32s-32 14.327-32 32v114.76l-169.36-169.4c-5.794-5.794-13.799-9.378-22.64-9.378-17.683 0-32.018 14.335-32.018 32.018 0 8.841 3.584 16.846 9.378 22.64L754.76 736H640c-17.673 0-32 14.327-32 32s14.327 32 32 32h192c17.673 0 32-14.327 32-32zM393.36 374.64L224 205.24V320c0 17.673-14.327 32-32 32s-32-14.327-32-32V128c0-17.673 14.327-32 32-32h192c17.673 0 32 14.327 32 32s-14.327 32-32 32H269.24l169.4 169.36c5.794 5.794 9.378 13.799 9.378 22.64 0 17.683-14.335 32.018-32.018 32.018-8.841 0-16.846-3.584-22.64-9.378zM832 352c-17.673 0-32-14.327-32-32V205.24l-169.36 169.4c-5.794 5.794-13.799 9.378-22.64 9.378-17.683 0-32.018-14.335-32.018-32.018 0-8.841 3.584-16.846 9.378-22.64L754.76 160H640c-17.673 0-32-14.327-32-32s14.327-32 32-32h192c17.673 0 32 14.327 32 32v192c0 17.673-14.327 32-32 32zM269.24 736H384c17.673 0 32 14.327 32 32s-14.327 32-32 32H192c-17.673 0-32-14.327-32-32V576c0-17.673 14.327-32 32-32s32 14.327 32 32v114.76l169.36-169.4c5.794-5.794 13.799-9.378 22.64-9.378 17.683 0 32.018 14.335 32.018 32.018 0 8.841-3.584 16.846-9.378 22.64z"/><glyph unicode="" glyph-name="arrows-out-cardinal" data-tags="arrows-out-cardinal" d="M361.36 713.36c-5.798 5.792-9.385 13.797-9.385 22.64s3.587 16.848 9.385 22.64l128 128c5.792 5.798 13.797 9.385 22.64 9.385s16.848-3.587 22.64-9.385l128-128c5.794-5.794 9.378-13.799 9.378-22.64 0-17.683-14.335-32.018-32.018-32.018-8.841 0-16.846 3.584-22.64 9.378L544 786.76V576c0-17.673-14.327-32-32-32s-32 14.327-32 32v210.76l-73.36-73.4c-5.792-5.798-13.797-9.385-22.64-9.385s-16.848 3.587-22.64 9.385zm256-530.72L544 109.24V320c0 17.673-14.327 32-32 32s-32-14.327-32-32V109.24l-73.36 73.4c-5.794 5.794-13.799 9.378-22.64 9.378-17.683 0-32.018-14.335-32.018-32.018 0-8.841 3.584-16.846 9.378-22.64l128-128C495.152 3.562 503.157-.025 512-.025s16.848 3.587 22.64 9.385l128 128c5.794 5.794 9.378 13.799 9.378 22.64 0 17.683-14.335 32.018-32.018 32.018-8.841 0-16.846-3.584-22.64-9.378zm333.28 288l-128 128c-5.794 5.794-13.799 9.378-22.64 9.378-17.683 0-32.018-14.335-32.018-32.018 0-8.841 3.584-16.846 9.378-22.64l73.4-73.36H640c-17.673 0-32-14.327-32-32s14.327-32 32-32h210.76l-73.4-73.36c-5.794-5.794-9.378-13.799-9.378-22.64 0-17.683 14.335-32.018 32.018-32.018 8.841 0 16.846 3.584 22.64 9.378l128 128c5.798 5.792 9.385 13.797 9.385 22.64s-3.587 16.848-9.385 22.64zM173.24 416H384c17.673 0 32 14.327 32 32s-14.327 32-32 32H173.24l73.4 73.36c5.794 5.794 9.378 13.799 9.378 22.64 0 17.683-14.335 32.018-32.018 32.018-8.841 0-16.846-3.584-22.64-9.378l-128-128c-5.798-5.792-9.385-13.797-9.385-22.64s3.587-16.848 9.385-22.64l128-128c5.794-5.794 13.799-9.378 22.64-9.378 17.683 0 32.018 14.335 32.018 32.018 0 8.841-3.584 16.846-9.378 22.64z"/><glyph unicode="" glyph-name="arrows-out-line-horizontal" data-tags="arrows-out-line-horizontal" d="M544 800V96c0-17.673-14.327-32-32-32s-32 14.327-32 32v704c0 17.673 14.327 32 32 32s32-14.327 32-32zM384 480H141.24l73.4 73.36c5.794 5.794 9.378 13.799 9.378 22.64 0 17.683-14.335 32.018-32.018 32.018-8.841 0-16.846-3.584-22.64-9.378l-128-128c-5.798-5.792-9.385-13.797-9.385-22.64s3.587-16.848 9.385-22.64l128-128c5.794-5.794 13.799-9.378 22.64-9.378 17.683 0 32.018 14.335 32.018 32.018 0 8.841-3.584 16.846-9.378 22.64L141.24 416H384c17.673 0 32 14.327 32 32s-14.327 32-32 32zm598.64-9.36l-128 128c-5.794 5.794-13.799 9.378-22.64 9.378-17.683 0-32.018-14.335-32.018-32.018 0-8.841 3.584-16.846 9.378-22.64l73.4-73.36H640c-17.673 0-32-14.327-32-32s14.327-32 32-32h242.76l-73.4-73.36c-5.794-5.794-9.378-13.799-9.378-22.64 0-17.683 14.335-32.018 32.018-32.018 8.841 0 16.846 3.584 22.64 9.378l128 128c5.798 5.792 9.385 13.797 9.385 22.64s-3.587 16.848-9.385 22.64z"/><glyph unicode="" glyph-name="arrows-out-line-vertical" data-tags="arrows-out-line-vertical" d="M896 448c0-17.673-14.327-32-32-32H160c-17.673 0-32 14.327-32 32s14.327 32 32 32h704c17.673 0 32-14.327 32-32zM406.64 745.36l73.36 73.4V576c0-17.673 14.327-32 32-32s32 14.327 32 32v242.76l73.36-73.4c5.794-5.794 13.799-9.378 22.64-9.378 17.683 0 32.018 14.335 32.018 32.018 0 8.841-3.584 16.846-9.378 22.64l-128 128c-5.792 5.798-13.797 9.385-22.64 9.385s-16.848-3.587-22.64-9.385l-128-128c-5.794-5.794-9.378-13.799-9.378-22.64 0-17.683 14.335-32.018 32.018-32.018 8.841 0 16.846 3.584 22.64 9.378zm210.72-594.72L544 77.24V320c0 17.673-14.327 32-32 32s-32-14.327-32-32V77.24l-73.36 73.4c-5.794 5.794-13.799 9.378-22.64 9.378-17.683 0-32.018-14.335-32.018-32.018 0-8.841 3.584-16.846 9.378-22.64l128-128c5.792-5.798 13.797-9.385 22.64-9.385s16.848 3.587 22.64 9.385l128 128c5.794 5.794 9.378 13.799 9.378 22.64 0 17.683-14.335 32.018-32.018 32.018-8.841 0-16.846-3.584-22.64-9.378z"/><glyph unicode="" glyph-name="arrows-out-simple" data-tags="arrows-out-simple" d="M864 768V576c0-17.673-14.327-32-32-32s-32 14.327-32 32v114.76l-201.36-201.4c-5.794-5.794-13.799-9.378-22.64-9.378-17.683 0-32.018 14.335-32.018 32.018 0 8.841 3.584 16.846 9.378 22.64L754.76 736H640c-17.673 0-32 14.327-32 32s14.327 32 32 32h192c17.673 0 32-14.327 32-32zM425.36 406.64L224 205.24V320c0 17.673-14.327 32-32 32s-32-14.327-32-32V128c0-17.673 14.327-32 32-32h192c17.673 0 32 14.327 32 32s-14.327 32-32 32H269.24l201.4 201.36c5.794 5.794 9.378 13.799 9.378 22.64 0 17.683-14.335 32.018-32.018 32.018-8.841 0-16.846-3.584-22.64-9.378z"/><glyph unicode="" glyph-name="arrow-square-down" data-tags="arrow-square-down" d="M832 832H192c-35.346 0-64-28.654-64-64V128c0-35.346 28.654-64 64-64h640c35.346 0 64 28.654 64 64v640c0 35.346-28.654 64-64 64zm0-704H192v640h640V128zM662.64 438.64c5.798-5.792 9.385-13.797 9.385-22.64s-3.587-16.848-9.385-22.64l-128-128c-5.792-5.798-13.797-9.385-22.64-9.385s-16.848 3.587-22.64 9.385l-128 128c-5.794 5.794-9.378 13.799-9.378 22.64 0 17.683 14.335 32.018 32.018 32.018 8.841 0 16.846-3.584 22.64-9.378l73.36-73.4V608c0 17.673 14.327 32 32 32s32-14.327 32-32V365.24l73.36 73.4c5.792 5.798 13.797 9.385 22.64 9.385s16.848-3.587 22.64-9.385z"/><glyph unicode="" glyph-name="arrow-square-down-left" data-tags="arrow-square-down-left" d="M832 832H192c-35.346 0-64-28.654-64-64V128c0-35.346 28.654-64 64-64h640c35.346 0 64 28.654 64 64v640c0 35.346-28.654 64-64 64zm0-704H192v640h640zM352 320v192c0 17.673 14.327 32 32 32s32-14.327 32-32V397.24l201.36 201.4c5.794 5.794 13.799 9.378 22.64 9.378 17.683 0 32.018-14.335 32.018-32.018 0-8.841-3.584-16.846-9.378-22.64L461.24 352H576c17.673 0 32-14.327 32-32s-14.327-32-32-32H384c-17.673 0-32 14.327-32 32z"/><glyph unicode="" glyph-name="arrow-square-down-right" data-tags="arrow-square-down-right" d="M832 832H192c-35.346 0-64-28.654-64-64V128c0-35.346 28.654-64 64-64h640c35.346 0 64 28.654 64 64v640c0 35.346-28.654 64-64 64zm0-704H192v640h640zM361.36 553.36c-5.794 5.794-9.378 13.799-9.378 22.64 0 17.683 14.335 32.018 32.018 32.018 8.841 0 16.846-3.584 22.64-9.378L608 397.24V512c0 17.673 14.327 32 32 32s32-14.327 32-32V320c0-17.673-14.327-32-32-32H448c-17.673 0-32 14.327-32 32s14.327 32 32 32h114.76z"/><glyph unicode="" glyph-name="arrow-square-in" data-tags="arrow-square-in" d="M512 416V160c0-17.673-14.327-32-32-32s-32 14.327-32 32v178.72L182.64 73.36c-5.794-5.794-13.799-9.378-22.64-9.378-17.683 0-32.018 14.335-32.018 32.018 0 8.841 3.584 16.846 9.378 22.64L402.72 384H224c-17.673 0-32 14.327-32 32s14.327 32 32 32h256c17.673 0 32-14.327 32-32zm320 416H320c-35.346 0-64-28.654-64-64V576c0-17.673 14.327-32 32-32s32 14.327 32 32v192h512V256H640c-17.673 0-32-14.327-32-32s14.327-32 32-32h192c35.346 0 64 28.654 64 64v512c0 35.346-28.654 64-64 64z"/><glyph unicode="" glyph-name="arrow-square-left" data-tags="arrow-square-left" d="M832 832H192c-35.346 0-64-28.654-64-64V128c0-35.346 28.654-64 64-64h640c35.346 0 64 28.654 64 64v640c0 35.346-28.654 64-64 64zm0-704H192v640h640zM329.36 425.36c-5.798 5.792-9.385 13.797-9.385 22.64s3.587 16.848 9.385 22.64l128 128c5.794 5.794 13.799 9.378 22.64 9.378 17.683 0 32.018-14.335 32.018-32.018 0-8.841-3.584-16.846-9.378-22.64L429.24 480H672c17.673 0 32-14.327 32-32s-14.327-32-32-32H429.24l73.4-73.36c5.794-5.794 9.378-13.799 9.378-22.64 0-17.683-14.335-32.018-32.018-32.018-8.841 0-16.846 3.584-22.64 9.378z"/><glyph unicode="" glyph-name="arrow-square-out" data-tags="arrow-square-out" d="M896 544c0-17.673-14.327-32-32-32s-32 14.327-32 32v178.72L566.68 457.36c-5.794-5.794-13.799-9.378-22.64-9.378-17.683 0-32.018 14.335-32.018 32.018 0 8.841 3.584 16.846 9.378 22.64L786.72 768H608c-17.673 0-32 14.327-32 32s14.327 32 32 32h256c17.673 0 32-14.327 32-32zm-160-96c-17.673 0-32-14.327-32-32V128H192v512h288c17.673 0 32 14.327 32 32s-14.327 32-32 32H192c-35.346 0-64-28.654-64-64V128c0-35.346 28.654-64 64-64h512c35.346 0 64 28.654 64 64v288c0 17.673-14.327 32-32 32z"/><glyph unicode="" glyph-name="arrow-square-right" data-tags="arrow-square-right" d="M832 832H192c-35.346 0-64-28.654-64-64V128c0-35.346 28.654-64 64-64h640c35.346 0 64 28.654 64 64v640c0 35.346-28.654 64-64 64zm0-704H192v640h640zM320 448c0 17.673 14.327 32 32 32h242.76l-73.4 73.36c-5.794 5.794-9.378 13.799-9.378 22.64 0 17.683 14.335 32.018 32.018 32.018 8.841 0 16.846-3.584 22.64-9.378l128-128c5.798-5.792 9.385-13.797 9.385-22.64s-3.587-16.848-9.385-22.64l-128-128c-5.794-5.794-13.799-9.378-22.64-9.378-17.683 0-32.018 14.335-32.018 32.018 0 8.841 3.584 16.846 9.378 22.64l73.4 73.36H352c-17.673 0-32 14.327-32 32z"/><glyph unicode="" glyph-name="arrow-square-up" data-tags="arrow-square-up" d="M832 832H192c-35.346 0-64-28.654-64-64V128c0-35.346 28.654-64 64-64h640c35.346 0 64 28.654 64 64v640c0 35.346-28.654 64-64 64zm0-704H192v640h640zM361.36 457.36c-5.798 5.792-9.385 13.797-9.385 22.64s3.587 16.848 9.385 22.64l128 128c5.792 5.798 13.797 9.385 22.64 9.385s16.848-3.587 22.64-9.385l128-128c5.794-5.794 9.378-13.799 9.378-22.64 0-17.683-14.335-32.018-32.018-32.018-8.841 0-16.846 3.584-22.64 9.378L544 530.76V288c0-17.673-14.327-32-32-32s-32 14.327-32 32v242.76l-73.36-73.4c-5.792-5.798-13.797-9.385-22.64-9.385s-16.848 3.587-22.64 9.385z"/><glyph unicode="" glyph-name="arrow-square-up-left" data-tags="arrow-square-up-left" d="M832 832H192c-35.346 0-64-28.654-64-64V128c0-35.346 28.654-64 64-64h640c35.346 0 64 28.654 64 64v640c0 35.346-28.654 64-64 64zm0-704H192v640h640zM352 384v192c0 17.673 14.327 32 32 32h192c17.673 0 32-14.327 32-32s-14.327-32-32-32H461.24l201.4-201.36c5.794-5.794 9.378-13.799 9.378-22.64 0-17.683-14.335-32.018-32.018-32.018-8.841 0-16.846 3.584-22.64 9.378L416 498.76V384c0-17.673-14.327-32-32-32s-32 14.327-32 32z"/><glyph unicode="" glyph-name="arrow-square-up-right" data-tags="arrow-square-up-right" d="M832 832H192c-35.346 0-64-28.654-64-64V128c0-35.346 28.654-64 64-64h640c35.346 0 64 28.654 64 64v640c0 35.346-28.654 64-64 64zm0-704H192v640h640zM361.36 297.36c-5.798 5.792-9.385 13.797-9.385 22.64s3.587 16.848 9.385 22.64L562.76 544H448c-17.673 0-32 14.327-32 32s14.327 32 32 32h192c17.673 0 32-14.327 32-32V384c0-17.673-14.327-32-32-32s-32 14.327-32 32v114.76l-201.36-201.4c-5.792-5.798-13.797-9.385-22.64-9.385s-16.848 3.587-22.64 9.385z"/><glyph unicode="" glyph-name="arrows-split" data-tags="arrows-split" d="M918.64 201.36l-128-128c-5.792-5.798-13.797-9.385-22.64-9.385s-16.848 3.587-22.64 9.385l-128 128c-5.794 5.794-9.378 13.799-9.378 22.64 0 17.683 14.335 32.018 32.018 32.018 8.841 0 16.846-3.584 22.64-9.378l73.36-73.4v229.52l-224 224-224-224V173.24l73.36 73.4c5.794 5.794 13.799 9.378 22.64 9.378 17.683 0 32.018-14.335 32.018-32.018 0-8.841-3.584-16.846-9.378-22.64l-128-128c-5.792-5.798-13.797-9.385-22.64-9.385s-16.848 3.587-22.64 9.385l-128 128c-5.794 5.794-9.378 13.799-9.378 22.64 0 17.683 14.335 32.018 32.018 32.018 8.841 0 16.846-3.584 22.64-9.378l73.36-73.4v242.785c0 8.83 3.577 16.825 9.36 22.615L480 685.24V864c0 17.673 14.327 32 32 32s32-14.327 32-32V685.24l246.64-246.6c5.783-5.79 9.36-13.785 9.36-22.615v-.027.001-242.76l73.36 73.4c5.794 5.794 13.799 9.378 22.64 9.378 17.683 0 32.018-14.335 32.018-32.018 0-8.841-3.584-16.846-9.378-22.64z"/><glyph unicode="" glyph-name="arrows-vertical" data-tags="arrows-vertical" d="M662.64 182.64c5.798-5.792 9.385-13.797 9.385-22.64s-3.587-16.848-9.385-22.64l-128-128C528.848 3.562 520.843-.025 512-.025s-16.848 3.587-22.64 9.385l-128 128c-5.794 5.794-9.378 13.799-9.378 22.64 0 17.683 14.335 32.018 32.018 32.018 8.841 0 16.846-3.584 22.64-9.378l73.36-73.4v677.52l-73.36-73.4c-5.794-5.794-13.799-9.378-22.64-9.378-17.683 0-32.018 14.335-32.018 32.018 0 8.841 3.584 16.846 9.378 22.64l128 128c5.792 5.798 13.797 9.385 22.64 9.385s16.848-3.587 22.64-9.385l128-128c5.794-5.794 9.378-13.799 9.378-22.64 0-17.683-14.335-32.018-32.018-32.018-8.841 0-16.846 3.584-22.64 9.378L544 786.76V109.24l73.36 73.4c5.792 5.798 13.797 9.385 22.64 9.385s16.848-3.587 22.64-9.385z"/><glyph unicode="" glyph-name="arrow-u-down-left" data-tags="arrow-u-down-left" d="M928 512c-.159-141.321-114.679-255.841-255.985-256H205.24l137.4-137.36c5.794-5.794 9.378-13.799 9.378-22.64 0-17.683-14.335-32.018-32.018-32.018-8.841 0-16.846 3.584-22.64 9.378l-192 192c-5.798 5.792-9.385 13.797-9.385 22.64s3.587 16.848 9.385 22.64l192 192c5.794 5.794 13.799 9.378 22.64 9.378 17.683 0 32.018-14.335 32.018-32.018 0-8.841-3.584-16.846-9.378-22.64L205.24 320H672c106.039 0 192 85.961 192 192s-85.961 192-192 192H320c-17.673 0-32 14.327-32 32s14.327 32 32 32h352c141.321-.159 255.841-114.679 256-255.985V512z"/><glyph unicode="" glyph-name="arrow-u-down-right" data-tags="arrow-u-down-right" d="M918.64 265.36l-192-192c-5.794-5.794-13.799-9.378-22.64-9.378-17.683 0-32.018 14.335-32.018 32.018 0 8.841 3.584 16.846 9.378 22.64L818.76 256H352C210.615 256 96 370.615 96 512s114.615 256 256 256h352c17.673 0 32-14.327 32-32s-14.327-32-32-32H352c-106.039 0-192-85.961-192-192s85.961-192 192-192h466.76l-137.4 137.36c-5.794 5.794-9.378 13.799-9.378 22.64 0 17.683 14.335 32.018 32.018 32.018 8.841 0 16.846-3.584 22.64-9.378l192-192c5.798-5.792 9.385-13.797 9.385-22.64s-3.587-16.848-9.385-22.64z"/><glyph unicode="" glyph-name="arrow-u-left-down" data-tags="arrow-u-left-down" d="M832 608V256c0-17.673-14.327-32-32-32s-32 14.327-32 32v352c0 106.039-85.961 192-192 192s-192-85.961-192-192V141.24l137.36 137.4c5.794 5.794 13.799 9.378 22.64 9.378 17.683 0 32.018-14.335 32.018-32.018 0-8.841-3.584-16.846-9.378-22.64l-192-192c-5.792-5.798-13.797-9.385-22.64-9.385s-16.848 3.587-22.64 9.385l-192 192c-5.794 5.794-9.378 13.799-9.378 22.64 0 17.683 14.335 32.018 32.018 32.018 8.841 0 16.846-3.584 22.64-9.378L320 141.24V608c0 141.385 114.615 256 256 256s256-114.615 256-256z"/><glyph unicode="" glyph-name="arrow-u-left-up" data-tags="arrow-u-left-up" d="M832 640V288c0-141.385-114.615-256-256-256S320 146.615 320 288v466.76l-137.36-137.4c-5.794-5.794-13.799-9.378-22.64-9.378-17.683 0-32.018 14.335-32.018 32.018 0 8.841 3.584 16.846 9.378 22.64l192 192c5.792 5.798 13.797 9.385 22.64 9.385s16.848-3.587 22.64-9.385l192-192c5.794-5.794 9.378-13.799 9.378-22.64 0-17.683-14.335-32.018-32.018-32.018-8.841 0-16.846 3.584-22.64 9.378L384 754.76V288c0-106.039 85.961-192 192-192s192 85.961 192 192v352c0 17.673 14.327 32 32 32s32-14.327 32-32z"/><glyph unicode="" glyph-name="arrow-up" data-tags="arrow-up" d="M822.64 489.36c-5.792-5.798-13.797-9.385-22.64-9.385s-16.848 3.587-22.64 9.385L544 722.76V96c0-17.673-14.327-32-32-32s-32 14.327-32 32v626.76l-233.36-233.4c-5.794-5.794-13.799-9.378-22.64-9.378-17.683 0-32.018 14.335-32.018 32.018 0 8.841 3.584 16.846 9.378 22.64l288 288c5.792 5.798 13.797 9.385 22.64 9.385s16.848-3.587 22.64-9.385l288-288c5.798-5.792 9.385-13.797 9.385-22.64s-3.587-16.848-9.385-22.64z"/><glyph unicode="" glyph-name="arrow-up-left" data-tags="arrow-up-left" d="M790.64 169.36c-5.792-5.798-13.797-9.385-22.64-9.385s-16.848 3.587-22.64 9.385L288 626.76V288c0-17.673-14.327-32-32-32s-32 14.327-32 32v416c0 17.673 14.327 32 32 32h416c17.673 0 32-14.327 32-32s-14.327-32-32-32H333.24l457.4-457.36c5.798-5.792 9.385-13.797 9.385-22.64s-3.587-16.848-9.385-22.64z"/><glyph unicode="" glyph-name="arrow-up-right" data-tags="arrow-up-right" d="M800 704V288c0-17.673-14.327-32-32-32s-32 14.327-32 32v338.76l-457.36-457.4c-5.794-5.794-13.799-9.378-22.64-9.378-17.683 0-32.018 14.335-32.018 32.018 0 8.841 3.584 16.846 9.378 22.64L690.76 672H352c-17.673 0-32 14.327-32 32s14.327 32 32 32h416c17.673 0 32-14.327 32-32z"/><glyph unicode="" glyph-name="arrow-u-right-down" data-tags="arrow-u-right-down" d="M886.64 233.36l-192-192c-5.792-5.798-13.797-9.385-22.64-9.385s-16.848 3.587-22.64 9.385l-192 192c-5.794 5.794-9.378 13.799-9.378 22.64 0 17.683 14.335 32.018 32.018 32.018 8.841 0 16.846-3.584 22.64-9.378L640 141.24V608c0 106.039-85.961 192-192 192s-192-85.961-192-192V256c0-17.673-14.327-32-32-32s-32 14.327-32 32v352c0 141.385 114.615 256 256 256s256-114.615 256-256V141.24l137.36 137.4c5.794 5.794 13.799 9.378 22.64 9.378 17.683 0 32.018-14.335 32.018-32.018 0-8.841-3.584-16.846-9.378-22.64z"/><glyph unicode="" glyph-name="arrow-u-right-up" data-tags="arrow-u-right-up" d="M886.64 617.36c-5.792-5.798-13.797-9.385-22.64-9.385s-16.848 3.587-22.64 9.385L704 754.76V288c0-141.385-114.615-256-256-256S192 146.615 192 288v352c0 17.673 14.327 32 32 32s32-14.327 32-32V288c0-106.039 85.961-192 192-192s192 85.961 192 192v466.76l-137.36-137.4c-5.794-5.794-13.799-9.378-22.64-9.378-17.683 0-32.018 14.335-32.018 32.018 0 8.841 3.584 16.846 9.378 22.64l192 192c5.792 5.798 13.797 9.385 22.64 9.385s16.848-3.587 22.64-9.385l192-192c5.798-5.792 9.385-13.797 9.385-22.64s-3.587-16.848-9.385-22.64z"/><glyph unicode="" glyph-name="arrow-u-up-left" data-tags="arrow-u-up-left" d="M928 384c-.159-141.321-114.679-255.841-255.985-256H320c-17.673 0-32 14.327-32 32s14.327 32 32 32h352c106.039 0 192 85.961 192 192s-85.961 192-192 192H205.24l137.4-137.36c5.794-5.794 9.378-13.799 9.378-22.64 0-17.683-14.335-32.018-32.018-32.018-8.841 0-16.846 3.584-22.64 9.378l-192 192c-5.798 5.792-9.385 13.797-9.385 22.64s3.587 16.848 9.385 22.64l192 192c5.794 5.794 13.799 9.378 22.64 9.378 17.683 0 32.018-14.335 32.018-32.018 0-8.841-3.584-16.846-9.378-22.64L205.24 640H672c141.321-.159 255.841-114.679 256-255.985V384z"/><glyph unicode="" glyph-name="arrow-u-up-right" data-tags="arrow-u-up-right" d="M681.36 438.64L818.76 576H352c-106.039 0-192-85.961-192-192s85.961-192 192-192h352c17.673 0 32-14.327 32-32s-14.327-32-32-32H352C210.615 128 96 242.615 96 384s114.615 256 256 256h466.76l-137.4 137.36c-5.794 5.794-9.378 13.799-9.378 22.64 0 17.683 14.335 32.018 32.018 32.018 8.841 0 16.846-3.584 22.64-9.378l192-192c5.798-5.792 9.385-13.797 9.385-22.64s-3.587-16.848-9.385-22.64l-192-192c-5.794-5.794-13.799-9.378-22.64-9.378-17.683 0-32.018 14.335-32.018 32.018 0 8.841 3.584 16.846 9.378 22.64z"/><glyph unicode="" glyph-name="article" data-tags="article" d="M864 800H160c-35.346 0-64-28.654-64-64V160c0-35.346 28.654-64 64-64h704c35.346 0 64 28.654 64 64v576c0 35.346-28.654 64-64 64zm0-640H160v576h704V160zM736 576c0-17.673-14.327-32-32-32H320c-17.673 0-32 14.327-32 32s14.327 32 32 32h384c17.673 0 32-14.327 32-32zm0-128c0-17.673-14.327-32-32-32H320c-17.673 0-32 14.327-32 32s14.327 32 32 32h384c17.673 0 32-14.327 32-32zm0-128c0-17.673-14.327-32-32-32H320c-17.673 0-32 14.327-32 32s14.327 32 32 32h384c17.673 0 32-14.327 32-32z"/><glyph unicode="" glyph-name="article-medium" data-tags="article-medium" d="M224 416c0-17.673-14.327-32-32-32H96c-17.673 0-32 14.327-32 32s14.327 32 32 32h32v256H96c-17.673 0-32 14.327-32 32s14.327 32 32 32h64.034c11.355 0 21.329-5.914 27.009-14.831l.077-.129L320 540.36l132.88 212.6c5.746 9.087 15.738 15.034 27.119 15.04H544c17.673 0 32-14.327 32-32s-14.327-32-32-32h-32V448h32c17.673 0 32-14.327 32-32s-14.327-32-32-32h-96c-17.673 0-32 14.327-32 32s14.327 32 32 32v176.44l-100.88-161.4c-5.751-9.077-15.742-15.015-27.12-15.015s-21.369 5.938-27.043 14.884l-.077.131L192 624.44V448c17.673 0 32-14.327 32-32zm448 96h288c17.673 0 32 14.327 32 32s-14.327 32-32 32H672c-17.673 0-32-14.327-32-32s14.327-32 32-32zm288-64H672c-17.673 0-32-14.327-32-32s14.327-32 32-32h288c17.673 0 32 14.327 32 32s-14.327 32-32 32zm0-128H288c-17.673 0-32-14.327-32-32s14.327-32 32-32h672c17.673 0 32 14.327 32 32s-14.327 32-32 32zm0-128H288c-17.673 0-32-14.327-32-32s14.327-32 32-32h672c17.673 0 32 14.327 32 32s-14.327 32-32 32z"/><glyph unicode="" glyph-name="article-ny-times" data-tags="article-ny-times" d="M608 544c0 17.673 14.327 32 32 32h320c17.673 0 32-14.327 32-32s-14.327-32-32-32H640c-17.673 0-32 14.327-32 32zm352-96H640c-17.673 0-32-14.327-32-32s14.327-32 32-32h320c17.673 0 32 14.327 32 32s-14.327 32-32 32zm0-128H640c-17.673 0-32-14.327-32-32s14.327-32 32-32h320c17.673 0 32 14.327 32 32s-14.327 32-32 32zm0-128H288c-17.673 0-32-14.327-32-32s14.327-32 32-32h672c17.673 0 32 14.327 32 32s-14.327 32-32 32zm-640 64c-123.657.137-223.863 100.343-224 223.987v.181c0 30.225 6.041 59.039 16.982 85.3L112.44 564c-29.243 20.495-48.126 54.043-48.126 92 0 61.745 49.965 111.821 111.669 112h.085a31.858 31.858 0 0015.653-4.083l-.161.083 279.72-155.4c23.059 3.78 40.439 23.561 40.439 47.401 0 26.411-21.331 47.84-47.704 47.999H464c-17.673 0-32 14.327-32 32s14.327 32 32 32c61.856 0 112-50.144 112-112s-50.144-112-112-112h-.068a31.858 31.858 0 00-15.653 4.083l.161-.083-160 88.84c-73.79-15.217-128.48-79.654-128.48-156.865 0-77.052 54.466-141.384 126.998-156.593l1.041-.183v156.8c0 17.673 14.327 32 32 32s32-14.327 32-32v-156.76c55.557 11.676 99.864 50.856 118.566 102.324l.354 1.116c4.674 12.25 16.326 20.793 29.974 20.793 17.673 0 32-14.327 32-32 0-3.633-.605-7.124-1.721-10.379l.067.225c-31.779-87.691-114.311-149.231-211.229-149.32h-.011zM144.92 619.44c19.063 23.796 42.335 43.34 68.815 57.731l1.185.589-46.2 25.68c-23.264-3.594-40.866-23.475-40.866-47.467 0-14.599 6.517-27.675 16.801-36.479l.065-.055z"/><glyph unicode="" glyph-name="asterisk" data-tags="asterisk" d="M859.44 239.52c-5.69-9.389-15.853-15.567-27.458-15.567a31.855 31.855 0 00-16.682 4.687l.14-.08L544 391.48V96c0-17.673-14.327-32-32-32s-32 14.327-32 32v295.48L208.48 228.56c-4.766-2.972-10.552-4.734-16.751-4.734-17.673 0-32 14.327-32 32 0 11.713 6.293 21.956 15.683 27.533l.148.081L449.8 448 175.56 612.56c-9.537 5.658-15.831 15.901-15.831 27.614 0 17.673 14.327 32 32 32a31.847 31.847 0 0016.886-4.813l-.136.079 271.52-162.92V800c0 17.673 14.327 32 32 32s32-14.327 32-32V504.52l271.52 162.92c4.766 2.972 10.552 4.734 16.751 4.734 17.673 0 32-14.327 32-32 0-11.713-6.293-21.956-15.683-27.533l-.148-.081L574.199 448l274.24-164.56c9.386-5.691 15.561-15.852 15.561-27.455a31.85 31.85 0 00-4.641-16.607l.08.142z"/><glyph unicode="" glyph-name="asterisk-simple" data-tags="asterisk-simple" d="M844 546.28l-280.52-112 197.88-254.44c4.371-5.425 7.016-12.402 7.016-19.996 0-17.673-14.327-32-32-32-10.396 0-19.634 4.957-25.479 12.637l-.057.079L512 396 313.28 140.36c-5.914-7.345-14.904-12.004-24.984-12.004-17.673 0-32 14.327-32 32a31.859 31.859 0 006.521 19.363l-.057-.079 197.88 254.44L180 546.28c-11.856 4.88-20.051 16.343-20.051 29.72 0 17.701 14.35 32.051 32.051 32.051 4.325 0 8.449-.856 12.213-2.409l-.213.078 276-110.44V800c0 17.673 14.327 32 32 32s32-14.327 32-32V495.28l276 110.44c3.551 1.475 7.675 2.331 12 2.331 17.701 0 32.051-14.35 32.051-32.051 0-13.377-8.195-24.84-19.838-29.642l-.213-.078z"/><glyph unicode="" glyph-name="at" data-tags="at" d="M512 864C282.25 864 96 677.75 96 448S282.25 32 512 32c86.04 0 176.4 25.92 241.72 69.32 8.665 5.82 14.292 15.583 14.292 26.66 0 17.68-14.332 32.012-32.012 32.012a31.87 31.87 0 01-17.835-5.424l.115.073C664 118.481 584.84 96.001 512 96.001c-194.404 0-352 157.596-352 352s157.596 352 352 352 352-157.596 352-352c0-105.8-43.52-128-80-128s-80 22.2-80 128v160c0 17.673-14.327 32-32 32s-32-14.327-32-32v-17.04c-33.834 30.432-78.829 49.045-128.171 49.045-106.039 0-192-85.961-192-192s85.961-192 192-192c61.606 0 116.436 29.015 151.568 74.126l.322.43c24-48 65.4-74.56 120.28-74.56 90.16 0 144 71.76 144 192-.25 229.65-186.35 415.75-415.976 416h-.024zm0-544c-70.692 0-128 57.308-128 128s57.308 128 128 128c70.692 0 128-57.308 128-128 0-70.692-57.308-128-128-128z"/><glyph unicode="" glyph-name="atom" data-tags="atom" d="M784.48 448c98.6 138.44 148.88 281.52 78.96 351.44s-213 19.64-351.44-78.96c-138.44 98.6-281.52 148.88-351.44 78.96s-19.64-213 78.96-351.44c-98.6-138.44-148.88-281.52-78.96-351.44C183.08 74.04 213.16 64 248.2 64c73.92 0 169.92 44.68 264 111.52C605.88 108.68 701.88 64 776 64c35.04 0 65.16 10.08 87.64 32.56 69.72 69.92 19.44 213-79.16 351.44zm33.72 306.2c30.56-30.56 9.92-129.6-74.08-253.12-27.834 34.319-55.551 65.052-84.766 94.286l.006-.006a1208.171 1208.171 0 01-92.053 82.889L565.08 680c123.52 84 222.56 104.8 253.12 74.2zM705.16 448c-29.62-37.304-59.408-70.603-91.006-102.086l-.034-.034a1163.378 1163.378 0 00-99.763-89.229L512 254.84c-37.304 29.62-70.603 59.408-102.086 91.006l-.034.034a1163.378 1163.378 0 00-89.229 99.763L318.84 448c57.586 72.177 120.984 135.575 190.767 191.314L512 641.16c37.304-29.62 70.603-59.408 102.086-91.006l.034-.034a1163.378 1163.378 0 0089.229-99.763L705.16 448zM205.8 754.2c8.8 8.84 23.32 13.4 42.48 13.4 47.28 0 122.76-27.6 210.6-87.6-34.309-27.836-65.027-55.513-94.269-84.669l.029.029a1208.171 1208.171 0 01-82.889-92.053L280 501.08C196 624.6 175.24 723.64 205.8 754.2zm0-612.4c-30.56 30.56-9.8 129.6 74.2 253.12 27.834-34.319 55.551-65.052 84.766-94.286l-.006.006a1223.796 1223.796 0 0191.934-82.885L458.92 216C335.4 132 236.36 111.2 205.8 141.8zm612.4 0c-30.56-30.6-129.6-9.92-253.12 74.08 34.315 27.868 65.046 55.583 94.299 84.779l-.019-.019a1208.171 1208.171 0 0182.889 92.053L744 394.92c84-123.52 104.76-222.56 74.2-253.12zM560 448c0-26.51-21.49-48-48-48s-48 21.49-48 48 21.49 48 48 48 48-21.49 48-48z"/><glyph unicode="" glyph-name="baby" data-tags="baby" d="M368 400c-26.51 0-48 21.49-48 48s21.49 48 48 48 48-21.49 48-48-21.49-48-48-48zm288 96c-26.51 0-48-21.49-48-48s21.49-48 48-48 48 21.49 48 48-21.49 48-48 48zm-49.08-180.92c-26.967-16.984-59.767-27.061-94.92-27.061s-67.953 10.077-95.668 27.5l.748-.439c-4.841 3.097-10.746 4.936-17.08 4.936-17.682 0-32.016-14.334-32.016-32.016 0-11.348 5.904-21.317 14.808-27.003l.129-.077c36.648-23.181 81.258-36.939 129.08-36.939s92.432 13.758 130.085 37.531l-1.005-.593c9.033 5.763 14.936 15.732 14.936 27.08 0 17.682-14.334 32.016-32.016 32.016a31.867 31.867 0 01-17.209-5.013l.129.077zM928 448c0-229.75-186.25-416-416-416S96 218.25 96 448s186.25 416 416 416c229.65-.25 415.75-186.35 416-415.976V448zm-64 0c-.239 188.807-148.907 342.813-335.569 351.61l-.791.03C481.28 734.48 480 672.48 480 672c0-17.673 14.327-32 32-32s32 14.327 32 32c0 17.673 14.327 32 32 32s32-14.327 32-32c0-53.019-42.981-96-96-96s-96 42.981-96 96c0 2.92.52 57.2 33.84 122.52C283.987 763.961 160 620.486 160 448.052c0-194.404 157.596-352 352-352 194.386 0 351.971 157.566 352 351.946v.003z"/></font>
</defs>
</svg>
