<svg xmlns="http://www.w3.org/2000/svg" version="1.0" width="20" height="20"><path d="M8.22 3.364c-3.236.06-5.136.208-5.732.448-.54.22-.992.632-1.26 1.14C.88 5.612.696 7.06.652 9.48c-.032 1.932.072 3.688.292 4.8.236 1.212.888 1.904 2.012 2.14 1.024.216 3.74.344 7.304.34 3.64 0 6.232-.12 7.32-.34a2.88 2.88 0 001.124-.556 2.63 2.63 0 00.672-1.008c.32-.944.516-3.692.428-5.972-.12-3.096-.372-4.068-1.224-4.712-.392-.296-.664-.404-1.272-.512-.752-.128-2.56-.24-4.468-.28-2.232-.044-3.032-.048-4.62-.016zm2.58 5.248c1.348.776 2.448 1.428 2.448 1.448-.004.032-4.864 2.86-4.916 2.86-.004 0-.012-1.288-.012-2.86s.008-2.86.016-2.86 1.116.636 2.464 1.412zM8.22 3.364c-3.236.06-5.136.208-5.732.448-.54.22-.992.632-1.26 1.14C.88 5.612.696 7.06.652 9.48c-.032 1.932.072 3.688.292 4.8.236 1.212.888 1.904 2.012 2.14 1.024.216 3.74.344 7.304.34 3.64 0 6.232-.12 7.32-.34a2.88 2.88 0 001.124-.556 2.63 2.63 0 00.672-1.008c.32-.944.516-3.692.428-5.972-.12-3.096-.372-4.068-1.224-4.712-.392-.296-.664-.404-1.272-.512-.752-.128-2.56-.24-4.468-.28-2.232-.044-3.032-.048-4.62-.016zm2.58 5.248c1.348.776 2.448 1.428 2.448 1.448-.004.032-4.864 2.86-4.916 2.86-.004 0-.012-1.288-.012-2.86s.008-2.86.016-2.86 1.116.636 2.464 1.412z"/></svg>