<svg xmlns="http://www.w3.org/2000/svg" viewBox="0 0 42 42"><g fill="#fff"><path d="M42 3.7c0-2-1.6-3.7-3.7-3.7H3.7C1.6 0 0 1.6 0 3.7v34.7c0 2 1.6 3.7 3.7 3.7h20.9c.3 0 .5-.1.7-.3.4-.2.8-.4 1.1-.8l14.4-14.4c.3-.3.6-.7.8-1.1.2-.2.3-.4.3-.7V3.7zM2 38.3V3.7C2 2.7 2.7 2 3.7 2h34.7c.9 0 1.6.7 1.6 1.7v20H27.4c-2.1 0-3.8 1.7-3.8 3.8V40h-20c-.9 0-1.6-.7-1.6-1.7zm23.6.6V27.4c0-1 .8-1.8 1.8-1.8h11.5L25.6 38.9z"/><path d="M33.7 12H11.9c-.6 0-1-.4-1-1s.4-1 1-1h21.8c.6 0 1 .4 1 1s-.4 1-1 1zM21 21.1h-9.1c-.6 0-1-.4-1-1s.4-1 1-1H21c.6 0 1 .4 1 1s-.4 1-1 1z"/></g></svg>