<svg xmlns="http://www.w3.org/2000/svg" width="10" height="25"><path d="M9.23 6.4c-.2 0-.39-.08-.54-.25L5 2.09 1.31 6.15c-.3.33-.79.33-1.09 0-.3-.33-.3-.87 0-1.2L4.45.29c.3-.33.79-.33 1.09 0l4.23 4.66c.3.33.3.87 0 1.2a.74.74 0 01-.54.25zM5 25.04c-.2 0-.39-.08-.54-.25L.23 20.13c-.3-.33-.3-.87 0-1.2.3-.33.79-.33 1.09 0L5 23l3.69-4.06c.3-.33.79-.33 1.09 0 .3.33.3.87 0 1.2L5.55 24.8c-.16.16-.35.24-.55.24zM7.96 9.98H2.04c-.23 0-.42-.21-.42-.47s.18-.46.42-.46h5.92c.23 0 .42.21.42.47s-.18.46-.42.46zm0 6.06H2.04c-.23 0-.42-.21-.42-.47s.19-.47.42-.47h5.92c.23 0 .42.21.42.47s-.18.47-.42.47zm0-3.03H2.04c-.23 0-.42-.21-.42-.47s.19-.47.42-.47h5.92c.23 0 .42.21.42.47s-.18.47-.42.47z" fill="#fff"/></svg>