<svg aria-hidden="true" class="icon icon--instagram" xmlns="http://www.w3.org/2000/svg" width="20" height="20"><path d="M17.738 16.91a.79.79 0 01-.795.796H3.018a.79.79 0 01-.795-.795V8.47H4.06a5.68 5.68 0 00-.26 1.707 6.223 6.223 0 0012.44 0 5.68 5.68 0 00-.26-1.707h1.758v8.44zm-3.7-6.942a4.02 4.02 0 11-4.025-3.895 3.96 3.96 0 014.025 3.895zm3.7-4.69a.9.9 0 01-.9.9H14.57a.9.9 0 01-.9-.9v-2.15a.9.9 0 01.9-.9h2.268a.9.9 0 01.9.9v2.15zm2.267-2.71A2.58 2.58 0 0017.438 0H2.562A2.58 2.58 0 000 2.57v14.875a2.58 2.58 0 002.567 2.566h14.876a2.58 2.58 0 002.567-2.565V2.57z" fill-rule="evenodd"/></svg>