<svg xmlns="http://www.w3.org/2000/svg" viewBox="0 0 42 45"><g fill="#fff"><path d="M24.7 44.3c-6.6 0-14-2.9-18.5-7.7C-2 28.3-2 14.8 6.2 6.5 10.5 2.1 16.5-.2 22.6 0 28.1.2 33 2.5 36.4 6.5c3.9 4.6 5.6 8.2 5 11.3-.7 3.6-4.3 5.5-7.4 7.1-2.6 1.3-4.8 2.5-4.6 4 .3 3.3 3.1 3.4 6.7 3.1 1.7-.1 2.9-.2 3.5.6.2.2.4.7.2 1.4-1.8 5.2-5.5 8.6-10.9 9.8-1.4.4-2.8.5-4.2.5zM21.8 2C16.5 2 11.4 4.1 7.6 7.9.2 15.4.2 27.7 7.6 35.3c5.1 5.3 14 8.2 20.9 6.7 3.1-.7 7.2-2.6 9.2-8-.4 0-1 0-1.5.1-2.9.2-8.4.6-8.9-5-.2-2.9 2.8-4.5 5.7-6 2.9-1.5 5.9-3 6.4-5.7.5-2.4-1.1-5.6-4.5-9.6-3-3.6-7.4-5.6-12.4-5.8h-.7z"/><path d="M11.7 28.5c-2.1 0-3.9-1.7-3.9-3.9 0-2.1 1.7-3.9 3.9-3.9s3.9 1.7 3.9 3.9-1.8 3.9-3.9 3.9zm0-5.7c-1 0-1.9.8-1.9 1.9s.8 1.9 1.9 1.9 1.9-.8 1.9-1.9-.9-1.9-1.9-1.9zm7.1 14.8c-2.1 0-3.9-1.7-3.9-3.9 0-1.4.7-2.7 1.9-3.3 1.2-.7 2.7-.7 3.9 0 1.2.7 1.9 2 1.9 3.3 0 2.2-1.7 3.9-3.8 3.9zm0-5.7c-.3 0-.6.1-.9.2-.6.3-.9.9-.9 1.6 0 1 .8 1.9 1.9 1.9 1 0 1.9-.8 1.9-1.9 0-.7-.4-1.3-.9-1.6-.5-.1-.8-.2-1.1-.2zm6.8-17.3c-2.1 0-3.9-1.7-3.9-3.9s1.7-3.9 3.9-3.9 3.9 1.7 3.9 3.9-1.7 3.9-3.9 3.9zm0-5.7c-1 0-1.9.8-1.9 1.9 0 1 .8 1.9 1.9 1.9s1.9-.8 1.9-1.9c0-1.1-.8-1.9-1.9-1.9zm-12.1 8.7c-2.1 0-3.9-1.7-3.9-3.9s1.7-3.9 3.9-3.9 3.9 1.7 3.9 3.9-1.8 3.9-3.9 3.9zm0-5.7c-1 0-1.9.8-1.9 1.9 0 1 .8 1.9 1.9 1.9 1 0 1.9-.8 1.9-1.9 0-1.1-.9-1.9-1.9-1.9z"/></g></svg>