<svg xmlns="http://www.w3.org/2000/svg" viewBox="0 0 42 42"><path d="M7.6 15.3c-2.7 0-5-2.2-5-5 0-2.7 2.2-5 5-5 2.7 0 5 2.2 5 5 0 2.7-2.2 5-5 5zm0-8c-1.6 0-3 1.3-3 3s1.3 3 3 3 3-1.3 3-3-1.3-3-3-3zm2.7 31.8H5c-.5 0-.9-.4-1-.9l-1.2-9.7H1c-.6 0-1-.4-1-1v-4c0-4.2 3.4-7.6 7.6-7.6.6 0 1 .4 1 1s-.4 1-1 1c-3.1 0-5.6 2.5-5.6 5.6v3h1.7c.5 0 .9.4 1 .9l1.2 9.7h4.4c.6 0 1 .4 1 1s-.5 1-1 1zm23.8-23.8c-2.7 0-5-2.2-5-5 0-2.7 2.2-5 5-5s5 2.2 5 5c0 2.7-2.2 5-5 5zm0-8c-1.6 0-3 1.3-3 3s1.3 3 3 3 3-1.3 3-3-1.3-3-3-3zm2.7 31.8h-5.3c-.6 0-1-.4-1-1s.4-1 1-1h4.4l1.2-9.7c.1-.5.5-.9 1-.9h1.7v-3c0-3.1-2.5-5.6-5.6-5.6-.6 0-1-.4-1-1s.4-1 1-1c4.2 0 7.6 3.4 7.6 7.6v4c0 .6-.4 1-1 1H39l-1.2 9.7c-.1.5-.5.9-1 .9zM20.9 12.6c-3.5 0-6.3-2.8-6.3-6.3S17.4 0 20.9 0s6.3 2.8 6.3 6.3-2.8 6.3-6.3 6.3zm0-10.6c-2.4 0-4.3 1.9-4.3 4.3s1.9 4.3 4.3 4.3 4.3-1.9 4.3-4.3S23.3 2 20.9 2zm4 39.8h-8c-.5 0-.9-.4-1-.9l-1.2-12.4h-3.1c-.6 0-1-.4-1-1v-4c0-5.7 4.6-10.3 10.3-10.3s10.3 4.6 10.3 10.3v4c0 .6-.4 1-1 1h-3.1l-1.2 12.4c-.1.5-.5.9-1 .9zm-7.1-2H24l1.2-12.4c.1-.5.5-.9 1-.9h3v-3c0-4.6-3.7-8.3-8.3-8.3s-8.3 3.7-8.3 8.3v3h3c.5 0 .9.4 1 .9l1.2 12.4z" fill="#fff"/></svg>