<svg xmlns="http://www.w3.org/2000/svg" width="42" height="42"><g fill="#fff"><path d="M21.5 7C15.7 7 11 11.7 11 17.5S15.7 28 21.5 28 32 23.3 32 17.5 27.3 7 21.5 7zm0 19c-4.7 0-8.5-3.8-8.5-8.5S16.8 9 21.5 9s8.5 3.8 8.5 8.5-3.8 8.5-8.5 8.5z"/><path d="M21 0C9.4 0 0 9.4 0 21c0 11.1 8.7 20.2 19.6 20.9H21c11.6 0 21-9.4 21-21C42 9.4 32.6 0 21 0zm-7.6 38.1c-.8-.4-1.8-1.1-3-2.1 2.9-2.5 6.7-4 10.5-4 3.9 0 7.7 1.5 10.6 4a10.8 10.8 0 01-2.9 2.1c-1.7.6-4.5 1.3-8.5 1.9h-.3c-3-.7-5.2-1.4-6.4-1.9zm20.2-2.9C30.3 31.9 25.7 30 21 30s-9.3 1.9-12.6 5.2C4.5 31.7 2 26.6 2 21 2 10.5 10.5 2 21 2s19 8.5 19 19c0 5.6-2.5 10.7-6.4 14.2z"/></g></svg>