<svg xmlns="http://www.w3.org/2000/svg" width="42" height="42"><path fill="#fff" d="M34.3 42c-3.5 0-6.4-2.3-7.4-5.6l-4.5 4.5c-1.4 1.4-3.8 1.4-5.2 0l-3.7-3.7c-.2-.2-.3-.6-.3-.9.1-.3.3-.6.6-.7 2.3-1 3.8-3.4 3.4-6-.3-2.5-2.3-4.5-4.9-4.9-2.5-.3-5 1.1-6 3.4-.1.3-.4.5-.7.6-.3.1-.7 0-.9-.3L.9 24.7c-1.4-1.4-1.4-3.8 0-5.2L5.4 15c-3.2-.9-5.5-3.9-5.5-7.4 0-4.2 3.4-7.7 7.7-7.7 3.5 0 6.4 2.3 7.4 5.5L19.5.9c1.4-1.4 3.8-1.4 5.2 0l3.7 3.8c.2.2.3.6.3.9-.1.3-.3.6-.6.7-2.3 1-3.8 3.4-3.4 6 .3 2.5 2.3 4.5 4.9 4.9 2.5.3 5-1.1 6-3.4.1-.3.4-.5.7-.6.3-.1.7 0 .9.3l3.8 3.7c1.4 1.4 1.4 3.8 0 5.2l-4.5 4.5c3.2.9 5.5 3.9 5.5 7.4 0 4.3-3.4 7.7-7.7 7.7zm-6.6-8.7c.1 0 .3 0 .4.1.4.2.6.5.6.9 0 3.1 2.5 5.7 5.7 5.7s5.7-2.5 5.7-5.7c0-3.1-2.5-5.7-5.7-5.7-.4 0-.8-.2-.9-.6-.2-.4-.1-.8.2-1.1l5.9-5.9c.6-.6.6-1.7 0-2.4l-2.8-2.8c-1.6 2.4-4.5 3.7-7.4 3.4-3.4-.5-6.1-3.2-6.6-6.6-.4-2.9 1-5.8 3.4-7.4l-2.8-2.8c-.6-.6-1.7-.6-2.4 0l-5.9 5.9c-.3.3-.7.4-1.1.2-.4-.2-.6-.5-.6-.9 0-3.1-2.5-5.7-5.7-5.7C4.6 1.9 2 4.4 2 7.6c0 3.1 2.5 5.7 5.7 5.7.4 0 .8.2.9.6.2.4.1.8-.2 1.1l-5.9 5.9c-.6.6-.6 1.7 0 2.4l2.8 2.8c1.6-2.4 4.5-3.7 7.4-3.4 3.4.5 6.1 3.2 6.6 6.6.4 2.9-1 5.8-3.4 7.4l2.8 2.8c.6.6 1.7.6 2.4 0l5.9-5.9c.2-.2.4-.3.7-.3z"/></svg>