<svg xmlns="http://www.w3.org/2000/svg" viewBox="0 0 42 42"><g fill="#fff"><path d="M20.9 25.9c-.6 0-1-.4-1-1v-1.8c0-1.5 1-2.9 2.4-3.4 2.1-.7 3.3-2.9 2.8-5s-2.5-3.6-4.7-3.3c-2.2.2-3.8 2.1-3.8 4.3 0 .6-.4 1-1 1s-1-.4-1-1c0-3.2 2.4-5.9 5.6-6.3 3.2-.4 6.1 1.6 6.8 4.8.7 3.1-1 6.3-4 7.4-.7.2-1.1.9-1.1 1.6V25c0 .4-.5.9-1 .9zm0 6.6c-.9 0-1.7-.7-1.7-1.7 0-.9.7-1.7 1.7-1.7s1.7.7 1.7 1.7c-.1.9-.8 1.7-1.7 1.7zm0-2c-.2 0-.3.2-.3.3 0 .2.2.3.3.3.2 0 .3-.2.3-.3 0-.2-.1-.3-.3-.3z"/><path d="M20.9 41.8C9.4 41.8 0 32.4 0 20.9 0 9.4 9.4 0 20.9 0c11.5 0 20.9 9.4 20.9 20.9 0 11.5-9.4 20.9-20.9 20.9zm0-39.8C10.5 2 2 10.5 2 20.9c0 10.4 8.5 18.9 18.9 18.9 10.4 0 18.9-8.5 18.9-18.9C39.8 10.5 31.3 2 20.9 2z"/></g></svg>