<svg xmlns="http://www.w3.org/2000/svg" width="42" height="42"><path fill="#fff" d="M32.6 42c-2.8 0-5.5-1.3-7.2-3.5-1.8-2.2-2.4-5-1.9-7.7L11.1 18.4c-3.2.7-6.6-.5-8.8-2.9C.1 13-.6 9.5.4 6.3c.2-.6.7-1.1 1.3-1.2.6-.1 1.3 0 1.7.5l4 4h2.1v-2l-4-4c-.4-.4-.6-1.1-.5-1.7.1-.6.6-1.1 1.2-1.3 3.2-1.1 6.7-.4 9.2 1.8 2.5 2.2 3.6 5.6 3 8.8l12.4 12.3c3.3-.7 6.6.5 8.8 3 2.2 2.5 2.9 6 1.8 9.2-.2.6-.7 1.1-1.3 1.2-.6.1-1.3-.1-1.7-.5l-4-4h-2.1v2.1l4 4c.4.4.6 1.1.5 1.7-.2.6-.6 1.1-1.2 1.3-1 .3-1.9.5-3 .5zM11.2 16.5c.5 0 .9.2 1.3.5L25 29.5c.4.5.6 1.1.5 1.7-.5 2.2.1 4.4 1.5 6.1 1.4 1.7 3.4 2.7 5.6 2.7.7 0 1.4-.1 2.1-.3l-3.9-3.9c-.3-.3-.5-.8-.5-1.3v-2.4c0-1 .8-1.8 1.8-1.8h2.4c.5 0 .9.2 1.3.5l3.9 3.9c.7-2.4.2-5.1-1.5-7-1.7-2-4.4-2.9-7-2.3-.6.1-1.2 0-1.7-.5L17 12.5c-.4-.5-.6-1.1-.5-1.7.5-2.6-.3-5.2-2.3-7-1.9-1.7-4.6-2.3-7-1.5l3.9 3.9c.3.3.5.8.5 1.3v2.4c0 1-.8 1.8-1.8 1.8H7.4c-.5 0-1-.2-1.3-.5L2.2 7.3c-.7 2.4-.1 5 1.6 6.9 1.7 2 4.4 2.8 7 2.3h.4zM35 39.6zm4.9-4.6zm-5.4-2.7zm-11-1.6c0 .1 0 .1 0 0 0 .1 0 .1 0 0zm7.2-7.2zm-19.4-5zm7.2-7.2zM2.4 7zM7 2.1z"/></svg>