<?xml version="1.0" encoding="UTF-8"?>
<svg width="300px" height="200px" viewBox="0 0 300 200" version="1.1" xmlns="http://www.w3.org/2000/svg" xmlns:xlink="http://www.w3.org/1999/xlink">
    <!-- Generator: Sketch 59.1 (86144) - https://sketch.com -->
    <title>Group 38@2x</title>
    <desc>Created with Sketch.</desc>
    <defs>
        <rect id="path-1" x="0" y="107" width="300" height="78"></rect>
        <mask id="mask-2" maskContentUnits="userSpaceOnUse" maskUnits="objectBoundingBox" x="0" y="0" width="300" height="78" fill="white">
            <use xlink:href="#path-1"></use>
        </mask>
    </defs>
    <g id="Page-1" stroke="none" stroke-width="1" fill="none" fill-rule="evenodd">
        <g id="Scholar's-Edge-Paragraph-Thumbnails" transform="translate(-1000.000000, -1493.000000)">
            <g id="Group-38" transform="translate(1000.000000, 1493.000000)">
                <rect id="Rectangle-Copy-32" fill="#FFFFFF" x="0" y="0" width="300" height="200"></rect>
                <use id="Rectangle-Copy-33" stroke="#AAAEB2" mask="url(#mask-2)" stroke-width="4" fill="#4B4687" stroke-dasharray="5,5" xlink:href="#path-1"></use>
                <g id="Group-7-Copy-6" transform="translate(53.000000, 31.000000)" fill="#767676">
                    <rect id="Rectangle" x="0" y="0" width="194" height="4"></rect>
                    <rect id="Rectangle-Copy-3" x="0" y="24" width="194" height="4"></rect>
                    <rect id="Rectangle-Copy-2" x="0" y="12" width="194" height="4"></rect>
                    <rect id="Rectangle-Copy-4" x="0" y="36" width="194" height="4"></rect>
                </g>
                <g id="Group-30" transform="translate(35.000000, 123.000000)" fill="#FFFFFF">
                    <polygon id="Path-6" points="0 40 20 14 35 33 40 30 31 17 43 2 71 38"></polygon>
                    <g id="Group-8" transform="translate(115.000000, 0.000000)">
                        <rect id="Rectangle" x="0" y="29" width="50" height="2"></rect>
                        <rect id="Rectangle-Copy-60" x="0" y="37" width="50" height="2"></rect>
                        <rect id="Rectangle-Copy-61" x="0" y="45" width="50" height="2"></rect>
                        <rect id="Rectangle-Copy-29" x="0" y="0" width="128" height="8"></rect>
                        <rect id="Rectangle-Copy-62" x="0" y="14" width="90" height="8"></rect>
                    </g>
                </g>
                <g id="Group-32" transform="translate(127.000000, 115.000000)" fill="#EEF1FC" fill-opacity="0.491313374">
                    <path d="M13.9999112,17 C11.6003161,17 10,14.995962 10,12.0229881 C10,7.30413184 12.6671402,2.90913234 17.3335168,0 L19,2.19773218 C16.0001065,4.46023571 14.3336234,7.04597617 14.1338436,10.0189501 C16.1338791,9.95448869 17.7332363,11.3763593 17.7332363,13.3799324 C17.7332363,15.4484318 16.1338791,17 13.9999112,17" id="Fill-1"></path>
                    <path d="M3.99991121,17 C1.6003161,17 0,14.995962 0,12.0229881 C0,7.30413184 2.66714022,2.90913234 7.33351683,0 L9,2.19773218 C6.00010655,4.46023571 4.33362338,7.04597617 4.13384359,10.0189501 C6.1338791,9.95448869 7.73323626,11.3763593 7.73323626,13.3799324 C7.73323626,15.4484318 6.1338791,17 3.99991121,17" id="Fill-1-Copy"></path>
                </g>
            </g>
        </g>
    </g>
</svg>