<svg xmlns="http://www.w3.org/2000/svg" width="32" height="32" viewBox="0 0 32 32" fill="none">
  <path d="M21.334 23.9998H10.6673V21.3332H21.334V23.9998ZM21.334 15.9998H10.6673V18.6665H21.334V15.9998ZM24.0007 3.99984H21.334V6.6665H24.0007V26.6665H8.00065V6.6665H10.6673V3.99984H8.00065C7.29341 3.99984 6.61513 4.28079 6.11503 4.78089C5.61494 5.28098 5.33398 5.95926 5.33398 6.6665V26.6665C5.33398 27.3737 5.61494 28.052 6.11503 28.5521C6.61513 29.0522 7.29341 29.3332 8.00065 29.3332H24.0007C24.7079 29.3332 25.3862 29.0522 25.8863 28.5521C26.3864 28.052 26.6673 27.3737 26.6673 26.6665V6.6665C26.6673 5.95926 26.3864 5.28098 25.8863 4.78089C25.3862 4.28079 24.7079 3.99984 24.0007 3.99984ZM18.6673 6.6665V5.33317C18.6673 4.62593 18.3864 3.94765 17.8863 3.44755C17.3862 2.94746 16.7079 2.6665 16.0007 2.6665C15.2934 2.6665 14.6151 2.94746 14.115 3.44755C13.6149 3.94765 13.334 4.62593 13.334 5.33317V6.6665C12.6267 6.6665 11.9485 6.94745 11.4484 7.44755C10.9483 7.94765 10.6673 8.62593 10.6673 9.33317V10.6665H21.334V9.33317C21.334 8.62593 21.053 7.94765 20.5529 7.44755C20.0528 6.94745 19.3746 6.6665 18.6673 6.6665Z" fill="#222222"/>
</svg>