<svg width="32" height="32" viewBox="0 0 32 32" fill="none" xmlns="http://www.w3.org/2000/svg">
<path d="M21.333 24.0003H10.6663V21.3337H21.333V24.0003ZM21.333 16.0003H10.6663V18.667H21.333V16.0003ZM23.9997 4.00033H21.333V6.66699H23.9997V26.667H7.99967V6.66699H10.6663V4.00033H7.99967C7.29243 4.00033 6.61415 4.28128 6.11406 4.78137C5.61396 5.28147 5.33301 5.95975 5.33301 6.66699V26.667C5.33301 27.3742 5.61396 28.0525 6.11406 28.5526C6.61415 29.0527 7.29243 29.3337 7.99967 29.3337H23.9997C24.7069 29.3337 25.3852 29.0527 25.8853 28.5526C26.3854 28.0525 26.6663 27.3742 26.6663 26.667V6.66699C26.6663 5.95975 26.3854 5.28147 25.8853 4.78137C25.3852 4.28128 24.7069 4.00033 23.9997 4.00033ZM18.6663 6.66699V5.33366C18.6663 4.62641 18.3854 3.94814 17.8853 3.44804C17.3852 2.94794 16.7069 2.66699 15.9997 2.66699C15.2924 2.66699 14.6142 2.94794 14.1141 3.44804C13.614 3.94814 13.333 4.62641 13.333 5.33366V6.66699C12.6258 6.66699 11.9475 6.94794 11.4474 7.44804C10.9473 7.94814 10.6663 8.62641 10.6663 9.33366V10.667H21.333V9.33366C21.333 8.62641 21.0521 7.94814 20.552 7.44804C20.0519 6.94794 19.3736 6.66699 18.6663 6.66699Z" fill="#222222"/>
</svg>
