<svg width="19" height="16" fill="none" xmlns="http://www.w3.org/2000/svg"><path d="M.25 2c0-1.103.897-2 2-2h5v4a1 1 0 001 1h4v3.928l-2.713 2.713a2.486 2.486 0 00-.656 1.162l-.584 2.34c-.072.288-.056.588.04.86L2.25 16c-1.103 0-2-.897-2-2V2zm12 2h-4V0l4 4zm5.181 3.366l.45.45a1.253 1.253 0 010 1.768l-.919.92-2.218-2.22.918-.918a1.252 1.252 0 011.77 0zM9.997 13.03l4.037-4.037 2.22 2.219-4.038 4.034a.99.99 0 01-.466.262l-1.878.47a.495.495 0 01-.475-.132.495.495 0 01-.131-.475l.468-1.878a1.01 1.01 0 01.263-.466v.003z"/></svg>