<svg width="32" height="32" viewBox="0 0 32 32" fill="none" xmlns="http://www.w3.org/2000/svg">
<path d="M6.58618 12.4136C6.40041 12.2279 6.25305 12.0074 6.15251 11.7647C6.05197 11.522 6.00023 11.2619 6.00023 10.9993C6.00023 10.7366 6.05197 10.4765 6.15251 10.2338C6.25305 9.9911 6.40041 9.7706 6.58618 9.58488L14.5862 1.58488C14.9613 1.20976 15.4701 0.999023 16.0006 0.999023C16.531 0.999023 17.0398 1.20976 17.4149 1.58488C17.79 1.95999 18.0008 2.46876 18.0008 2.99925C18.0008 3.52975 17.79 4.03851 17.4149 4.41363L9.41493 12.4136C9.2292 12.5994 9.0087 12.7468 8.76602 12.8473C8.52334 12.9478 8.26323 12.9996 8.00055 12.9996C7.73787 12.9996 7.47776 12.9478 7.23508 12.8473C6.9924 12.7468 6.7719 12.5994 6.58618 12.4136ZM30.4149 14.5849C30.2292 14.3991 30.0087 14.2518 29.766 14.1512C29.5233 14.0507 29.2632 13.9989 29.0005 13.9989C28.7379 13.9989 28.4778 14.0507 28.2351 14.1512C27.9924 14.2518 27.7719 14.3991 27.5862 14.5849L19.5862 22.5849C19.2114 22.9599 19.0009 23.4684 19.0009 23.9986C19.0009 24.5288 19.2114 25.0373 19.5862 25.4124C19.7719 25.5981 19.9924 25.7455 20.2351 25.846C20.4778 25.9466 20.7379 25.9983 21.0005 25.9983C21.2632 25.9983 21.5233 25.9466 21.766 25.846C22.0087 25.7455 22.2292 25.5981 22.4149 25.4124L30.4149 17.4124C30.7897 17.0373 31.0002 16.5288 31.0002 15.9986C31.0002 15.4684 30.7897 14.9599 30.4149 14.5849ZM25.7074 12.2924L19.7074 6.29238C19.5199 6.10498 19.2657 5.99971 19.0006 5.99971C18.7354 5.99971 18.4812 6.10498 18.2937 6.29238L11.2937 13.2924C11.1063 13.4799 11.001 13.7341 11.001 13.9993C11.001 14.2644 11.1063 14.5186 11.2937 14.7061L12.8749 16.2924L3.58618 25.5861C3.22694 25.9643 3.02962 26.4678 3.0363 26.9893C3.04297 27.5108 3.25312 28.0091 3.62192 28.3779C3.99072 28.7467 4.48901 28.9568 5.01053 28.9635C5.53205 28.9702 6.03555 28.7729 6.41368 28.4136L15.7074 19.1249L17.2937 20.7111C17.4812 20.8985 17.7354 21.0038 18.0006 21.0038C18.2657 21.0038 18.5199 20.8985 18.7074 20.7111L25.7074 13.7111C25.801 13.6182 25.8752 13.5077 25.9259 13.3859C25.9765 13.2642 26.0026 13.1336 26.0026 13.0018C26.0026 12.8699 25.9765 12.7393 25.9259 12.6176C25.8752 12.4958 25.801 12.3853 25.7074 12.2924Z" fill="#222222"/>
</svg>
