<svg xmlns="http://www.w3.org/2000/svg" width="32" height="32" viewBox="0 0 32 32" fill="none">
  <g clip-path="url(#clip0_1350_1500)">
    <path d="M10.6671 14.3468H9.89373C8.83841 14.3087 7.7865 14.4878 6.80329 14.8732C5.82009 15.2585 4.92657 15.8418 4.17818 16.5868L3.96484 16.8357V24.1957H7.59151V20.0179L8.0804 19.4668L8.30262 19.209C9.45989 18.0202 10.9006 17.1453 12.4893 16.6668C11.6939 16.0616 11.0666 15.2629 10.6671 14.3468Z" fill="#222222"/>
    <path d="M27.8587 16.56C27.1103 15.8149 26.2168 15.2316 25.2336 14.8463C24.2504 14.461 23.1985 14.2818 22.1432 14.32C21.8195 14.3209 21.4961 14.3387 21.1743 14.3733C20.7672 15.2328 20.1571 15.9802 19.3965 16.5511C21.0925 17.0203 22.6288 17.9421 23.8409 19.2177L24.0632 19.4666L24.5432 20.0177V24.2044H28.0454V16.8089L27.8587 16.56Z" fill="#222222"/>
    <path d="M9.8659 12.6135H10.1415C10.0134 11.5141 10.2063 10.4012 10.6969 9.40912C11.1874 8.417 11.9546 7.58806 12.9059 7.02237C12.5611 6.49557 12.0853 6.06736 11.5253 5.77966C10.9652 5.49196 10.3401 5.35464 9.711 5.38115C9.08193 5.40766 8.47054 5.59709 7.93668 5.93089C7.40281 6.26468 6.96479 6.73141 6.66551 7.28535C6.36622 7.8393 6.21592 8.46147 6.22934 9.09095C6.24276 9.72044 6.41942 10.3356 6.74204 10.8763C7.06466 11.417 7.52217 11.8647 8.06977 12.1754C8.61736 12.4862 9.23628 12.6494 9.8659 12.649V12.6135Z" fill="#222222"/>
    <path d="M21.7151 11.9466C21.7259 12.1509 21.7259 12.3556 21.7151 12.5599C21.8857 12.5869 22.058 12.6018 22.2307 12.6043H22.3995C23.0264 12.5709 23.6339 12.3757 24.163 12.0378C24.692 11.6999 25.1245 11.2308 25.4184 10.6761C25.7123 10.1214 25.8576 9.50004 25.8401 8.87254C25.8226 8.24504 25.6429 7.63276 25.3185 7.09532C24.9941 6.55787 24.5361 6.11358 23.9891 5.80569C23.442 5.4978 22.8246 5.33681 22.1968 5.33839C21.5691 5.33997 20.9524 5.50407 20.4069 5.8147C19.8614 6.12534 19.4057 6.57193 19.084 7.111C19.8885 7.63628 20.55 8.35305 21.0093 9.19702C21.4685 10.041 21.711 10.9857 21.7151 11.9466Z" fill="#222222"/>
    <path d="M15.8835 15.9291C18.0779 15.9291 19.8568 14.1502 19.8568 11.9558C19.8568 9.76134 18.0779 7.98242 15.8835 7.98242C13.6891 7.98242 11.9102 9.76134 11.9102 11.9558C11.9102 14.1502 13.6891 15.9291 15.8835 15.9291Z" fill="#222222"/>
    <path d="M16.0969 18.0446C14.9361 17.9977 13.7777 18.1862 12.6916 18.5986C11.6055 19.0111 10.614 19.639 9.77691 20.4446L9.55469 20.6935V26.3201C9.55816 26.5034 9.5977 26.6842 9.67106 26.8522C9.74441 27.0202 9.85015 27.1721 9.98222 27.2992C10.1143 27.4263 10.2701 27.5262 10.4408 27.5931C10.6115 27.66 10.7936 27.6926 10.9769 27.689H21.1902C21.3735 27.6926 21.5557 27.66 21.7264 27.5931C21.897 27.5262 22.0529 27.4263 22.1849 27.2992C22.317 27.1721 22.4227 27.0202 22.4961 26.8522C22.5695 26.6842 22.609 26.5034 22.6125 26.3201V20.7113L22.3991 20.4446C21.5674 19.6365 20.5794 19.0068 19.4957 18.5941C18.412 18.1814 17.2554 17.9944 16.0969 18.0446Z" fill="#222222"/>
  </g>
  <defs>
    <clipPath id="clip0_1350_1500">
      <rect width="32" height="32" fill="white"/>
    </clipPath>
  </defs>
</svg>
