<svg width="32" height="32" viewBox="0 0 32 32" fill="none" xmlns="http://www.w3.org/2000/svg">
<g clip-path="url(#clip0_2947_2206)">
<path d="M10.6671 14.3468H9.89373C8.83841 14.3087 7.7865 14.4878 6.80329 14.8732C5.82009 15.2585 4.92657 15.8418 4.17818 16.5868L3.96484 16.8357V24.1957H7.59151V20.0179L8.0804 19.4668L8.30262 19.209C9.45989 18.0202 10.9006 17.1453 12.4893 16.6668C11.6939 16.0616 11.0666 15.2629 10.6671 14.3468Z" fill="#222222"/>
<path d="M27.8577 16.5605C27.1093 15.8154 26.2158 15.2321 25.2326 14.8468C24.2494 14.4615 23.1975 14.2823 22.1422 14.3205C21.8185 14.3214 21.4951 14.3392 21.1733 14.3738C20.7663 15.2333 20.1561 15.9807 19.3955 16.5516C21.0915 17.0208 22.6278 17.9426 23.84 19.2182L24.0622 19.4671L24.5422 20.0182V24.2049H28.0444V16.8093L27.8577 16.5605Z" fill="#222222"/>
<path d="M9.86688 12.6135H10.1424C10.0144 11.5141 10.2073 10.4012 10.6978 9.40912C11.1884 8.417 11.9556 7.58806 12.9069 7.02237C12.562 6.49557 12.0863 6.06736 11.5263 5.77966C10.9662 5.49196 10.341 5.35464 9.71198 5.38115C9.08291 5.40766 8.47151 5.59709 7.93765 5.93089C7.40379 6.26468 6.96577 6.73141 6.66648 7.28535C6.3672 7.8393 6.2169 8.46147 6.23032 9.09095C6.24373 9.72044 6.4204 10.3356 6.74302 10.8763C7.06564 11.417 7.52314 11.8647 8.07074 12.1754C8.61834 12.4862 9.23726 12.6494 9.86688 12.649V12.6135Z" fill="#222222"/>
<path d="M21.7151 11.947C21.7259 12.1513 21.7259 12.3561 21.7151 12.5604C21.8857 12.5874 22.058 12.6023 22.2307 12.6048H22.3995C23.0264 12.5714 23.6339 12.3762 24.163 12.0383C24.692 11.7004 25.1245 11.2313 25.4184 10.6766C25.7123 10.1219 25.8576 9.50053 25.8401 8.87303C25.8226 8.24552 25.6429 7.63325 25.3185 7.0958C24.9941 6.55836 24.5361 6.11407 23.9891 5.80618C23.442 5.49829 22.8246 5.3373 22.1968 5.33888C21.5691 5.34046 20.9524 5.50455 20.4069 5.81519C19.8614 6.12583 19.4057 6.57242 19.084 7.11149C19.8885 7.63676 20.55 8.35354 21.0093 9.1975C21.4685 10.0415 21.711 10.9862 21.7151 11.947Z" fill="#222222"/>
<path d="M15.8845 15.9291C18.0789 15.9291 19.8578 14.1502 19.8578 11.9558C19.8578 9.76134 18.0789 7.98242 15.8845 7.98242C13.6901 7.98242 11.9111 9.76134 11.9111 11.9558C11.9111 14.1502 13.6901 15.9291 15.8845 15.9291Z" fill="#222222"/>
<path d="M16.0979 18.0441C14.937 17.9972 13.7787 18.1857 12.6926 18.5981C11.6065 19.0106 10.615 19.6385 9.77789 20.4441L9.55566 20.693V26.3197C9.55913 26.5029 9.59867 26.6837 9.67203 26.8517C9.74539 27.0197 9.85112 27.1716 9.9832 27.2987C10.1153 27.4258 10.2711 27.5257 10.4418 27.5926C10.6124 27.6595 10.7946 27.6921 10.9779 27.6885H21.1912C21.3745 27.6921 21.5567 27.6595 21.7273 27.5926C21.898 27.5257 22.0538 27.4258 22.1859 27.2987C22.318 27.1716 22.4237 27.0197 22.4971 26.8517C22.5704 26.6837 22.61 26.5029 22.6134 26.3197V20.7108L22.4001 20.4441C21.5684 19.636 20.5804 19.0063 19.4967 18.5937C18.413 18.181 17.2564 17.994 16.0979 18.0441Z" fill="#222222"/>
</g>
<defs>
<clipPath id="clip0_2947_2206">
<rect width="32" height="32" fill="white"/>
</clipPath>
</defs>
</svg>
