<svg xmlns="http://www.w3.org/2000/svg" width="21" height="16" viewBox="0 0 21 16" fill="none">
  <g clip-path="url(#clip0_477_5875)">
    <path d="M5 0C5.66304 0 6.29893 0.263392 6.76777 0.732233C7.23661 1.20107 7.5 1.83696 7.5 2.5C7.5 3.16304 7.23661 3.79893 6.76777 4.26777C6.29893 4.73661 5.66304 5 5 5C4.33696 5 3.70107 4.73661 3.23223 4.26777C2.76339 3.79893 2.5 3.16304 2.5 2.5C2.5 1.83696 2.76339 1.20107 3.23223 0.732233C3.70107 0.263392 4.33696 0 5 0ZM16.5 0C17.163 0 17.7989 0.263392 18.2678 0.732233C18.7366 1.20107 19 1.83696 19 2.5C19 3.16304 18.7366 3.79893 18.2678 4.26777C17.7989 4.73661 17.163 5 16.5 5C15.837 5 15.2011 4.73661 14.7322 4.26777C14.2634 3.79893 14 3.16304 14 2.5C14 1.83696 14.2634 1.20107 14.7322 0.732233C15.2011 0.263392 15.837 0 16.5 0ZM0.5 9.33438C0.5 7.49375 1.99375 6 3.83437 6H5.16875C5.66562 6 6.1375 6.10938 6.5625 6.30312C6.52187 6.52812 6.50313 6.7625 6.50313 7C6.50313 8.19375 7.02812 9.26562 7.85625 10H1.16562C0.8 10 0.5 9.7 0.5 9.33438ZM13.1656 10H13.1438C13.975 9.26562 14.4969 8.19375 14.4969 7C14.4969 6.7625 14.475 6.53125 14.4375 6.30312C14.8625 6.10625 15.3344 6 15.8313 6H17.1656C19.0063 6 20.5 7.49375 20.5 9.33438C20.5 9.70312 20.2 10 19.8344 10H13.1687H13.1656ZM7.5 7C7.5 6.20435 7.81607 5.44129 8.37868 4.87868C8.94129 4.31607 9.70435 4 10.5 4C11.2956 4 12.0587 4.31607 12.6213 4.87868C13.1839 5.44129 13.5 6.20435 13.5 7C13.5 7.79565 13.1839 8.55871 12.6213 9.12132C12.0587 9.68393 11.2956 10 10.5 10C9.70435 10 8.94129 9.68393 8.37868 9.12132C7.81607 8.55871 7.5 7.79565 7.5 7ZM4.5 15.1656C4.5 12.8656 6.36562 11 8.66562 11H12.3313C14.6344 11 16.5 12.8656 16.5 15.1656C16.5 15.625 16.1281 16 15.6656 16H5.33125C4.87188 16 4.49688 15.6281 4.49688 15.1656H4.5Z" fill="currentColor"/>
  </g>
  <defs>
    <clipPath id="clip0_477_5875">
      <rect width="20" height="16" fill="white" transform="translate(0.5)"/>
    </clipPath>
  </defs>
</svg>
