<svg width="32" height="32" viewBox="0 0 32 32" fill="none" xmlns="http://www.w3.org/2000/svg">
<path d="M16 2C19.713 2 23.274 3.475 25.8995 6.1005C28.525 8.72601 30 12.287 30 16C30 19.713 28.525 23.274 25.8995 25.8995C23.274 28.525 19.713 30 16 30C12.287 30 8.72601 28.525 6.1005 25.8995C3.475 23.274 2 19.713 2 16C2 12.287 3.475 8.72601 6.1005 6.1005C8.72601 3.475 12.287 2 16 2ZM16.742 7.984C15.114 7.984 13.838 8.446 12.892 9.37C11.924 10.294 11.462 11.57 11.462 13.198H13.97C13.97 12.274 14.146 11.548 14.52 11.042C14.938 10.426 15.62 10.14 16.588 10.14C17.336 10.14 17.93 10.338 18.348 10.756C18.744 11.174 18.964 11.746 18.964 12.472C18.964 13.022 18.766 13.55 18.37 14.034L18.106 14.342C16.676 15.618 15.818 16.542 15.532 17.136C15.224 17.73 15.092 18.456 15.092 19.292V19.6H17.622V19.292C17.622 18.764 17.732 18.302 17.952 17.862C18.15 17.466 18.436 17.092 18.832 16.762C19.888 15.838 20.526 15.244 20.724 15.024C21.252 14.32 21.538 13.418 21.538 12.318C21.538 10.976 21.098 9.92 20.218 9.15C19.338 8.358 18.172 7.984 16.742 7.984ZM16.346 20.678C15.8974 20.6659 15.4623 20.832 15.136 21.14C14.9749 21.2918 14.8483 21.4764 14.7648 21.6814C14.6813 21.8863 14.6428 22.1069 14.652 22.328C14.652 22.812 14.806 23.208 15.136 23.516C15.4599 23.8304 15.8947 24.0043 16.346 24C16.83 24 17.226 23.846 17.556 23.538C17.7205 23.3831 17.8506 23.1953 17.9378 22.9869C18.025 22.7784 18.0673 22.5539 18.062 22.328C18.0662 22.1075 18.0255 21.8884 17.9423 21.6842C17.8591 21.4799 17.7351 21.2948 17.578 21.14C17.2432 20.8314 16.8012 20.6657 16.346 20.678Z" fill="#222222"/>
</svg>
