<svg width="20" height="20" viewBox="0 0 20 20" fill="none" xmlns="http://www.w3.org/2000/svg">
<path d="M12.2422 1.28477C13.2578 1.48789 13.918 2.47617 13.7148 3.4918L13.625 3.93711C13.418 4.98008 13.0352 5.97227 12.5 6.87461H18.125C19.1602 6.87461 20 7.71445 20 8.74961C20 9.47227 19.5898 10.1012 18.9883 10.4137C19.4141 10.7574 19.6875 11.2848 19.6875 11.8746C19.6875 12.7887 19.0312 13.5504 18.168 13.7145C18.3398 13.9996 18.4375 14.3316 18.4375 14.6871C18.4375 15.5191 17.8945 16.2262 17.1445 16.4684C17.1719 16.5973 17.1875 16.734 17.1875 16.8746C17.1875 17.9098 16.3477 18.7496 15.3125 18.7496H11.5039C10.7617 18.7496 10.0391 18.5309 9.42188 18.1207L7.91797 17.1168C6.875 16.4215 6.25 15.2496 6.25 13.9957V9.65195C6.25 8.51133 6.76953 7.43711 7.65625 6.72227L7.94531 6.4918C8.98047 5.66367 9.6875 4.49961 9.94531 3.20273L10.0352 2.75742C10.2383 1.7418 11.2266 1.08164 12.2422 1.28477ZM1.25 7.49961H3.75C4.44141 7.49961 5 8.0582 5 8.74961V17.4996C5 18.191 4.44141 18.7496 3.75 18.7496H1.25C0.558594 18.7496 0 18.191 0 17.4996V8.74961C0 8.0582 0.558594 7.49961 1.25 7.49961Z" fill="#222"/>
</svg>
