<svg width="21" height="16" fill="none" xmlns="http://www.w3.org/2000/svg"><path d="M5 0a2.5 2.5 0 110 5 2.5 2.5 0 010-5zm11.5 0a2.5 2.5 0 110 5 2.5 2.5 0 010-5zM.5 9.334A3.336 3.336 0 013.834 6H5.17c.497 0 .969.11 1.394.303A4.001 4.001 0 007.857 10H1.165A.668.668 0 01.5 9.334zM13.166 10h-.022a3.99 3.99 0 001.353-3 4.28 4.28 0 00-.06-.697A3.304 3.304 0 0115.832 6h1.335A3.336 3.336 0 0120.5 9.334c0 .37-.3.666-.666.666h-6.668zM7.5 7a3 3 0 116 0 3 3 0 01-6 0zm-3 8.166C4.5 12.866 6.366 11 8.666 11h3.665a4.167 4.167 0 014.169 4.166.834.834 0 01-.834.834H5.33a.834.834 0 01-.834-.834H4.5z"/></svg>