<?xml version="1.0" encoding="UTF-8"?>
<svg width="300px" height="200px" viewBox="0 0 300 200" version="1.1" xmlns="http://www.w3.org/2000/svg" xmlns:xlink="http://www.w3.org/1999/xlink">
    <!-- Generator: Sketch 59.1 (86144) - https://sketch.com -->
    <title>Group 34@2x</title>
    <desc>Created with Sketch.</desc>
    <defs>
        <rect id="path-1" x="0" y="0" width="105" height="85"></rect>
        <mask id="mask-2" maskContentUnits="userSpaceOnUse" maskUnits="objectBoundingBox" x="0" y="0" width="105" height="85" fill="white">
            <use xlink:href="#path-1"></use>
        </mask>
    </defs>
    <g id="Page-1" stroke="none" stroke-width="1" fill="none" fill-rule="evenodd">
        <g id="Scholar's-Edge-Paragraph-Thumbnails" transform="translate(-620.000000, -1161.000000)">
            <g id="Group-34" transform="translate(620.000000, 1161.000000)">
                <rect id="Rectangle" fill="#FFFFFF" x="0" y="0" width="300" height="200"></rect>
                <g id="Group-3" transform="translate(53.000000, 126.000000)" fill="#767676">
                    <g id="Group-16">
                        <rect id="Rectangle" x="0" y="0" width="194" height="4"></rect>
                        <rect id="Rectangle-Copy-3" x="0" y="24" width="194" height="4"></rect>
                        <rect id="Rectangle-Copy-2" x="0" y="12" width="194" height="4"></rect>
                        <rect id="Rectangle-Copy-4" x="0" y="36" width="194" height="4"></rect>
                    </g>
                </g>
                <g id="Group-29" transform="translate(21.000000, 22.000000)">
                    <polygon id="Path-6" fill="#1476D0" points="17 58 37 32 52 51 57 48 48 35 60 20 88 56"></polygon>
                    <g id="Group-8" transform="translate(123.000000, 15.000000)" fill="#767676">
                        <g id="Group-7-Copy" transform="translate(0.000000, 20.000000)">
                            <rect id="Rectangle" x="0" y="0" width="128" height="4"></rect>
                            <rect id="Rectangle-Copy-3" x="0" y="24" width="128" height="4"></rect>
                            <rect id="Rectangle-Copy-2" x="0" y="12" width="128" height="4"></rect>
                        </g>
                        <rect id="Rectangle-Copy-29" x="0" y="0" width="128" height="12"></rect>
                    </g>
                    <use id="Rectangle-Copy-30" stroke="#AAAEB2" mask="url(#mask-2)" stroke-width="4" stroke-dasharray="5,5" xlink:href="#path-1"></use>
                </g>
            </g>
        </g>
    </g>
</svg>