<svg class="icon icon--facebook" height="512" viewBox="0 0 24 24" width="512" xmlns="http://www.w3.org/2000/svg"><path d="M2.707 24h8.804a.75.75 0 00.75-.75l-.011-7a.75.75 0 00-.75-.75H9.25V13h2.25a.75.75 0 00.75-.75V9.433A4.438 4.438 0 0116.683 5h2.067v2.5H17.5c-.965 0-1.75.785-1.75 1.75v3c0 .414.336.75.75.75h3.04l-.625 2.5H16.5a.75.75 0 00-.75.75v7c0 .414.336.75.75.75h4.793A2.71 2.71 0 0024 21.293V2.707A2.71 2.71 0 0021.293 0H2.707A2.71 2.71 0 000 2.707v18.587A2.71 2.71 0 002.707 24zM1.5 2.707c0-.666.541-1.207 1.207-1.207h18.587c.666 0 1.207.541 1.207 1.207v18.587c0 .666-.541 1.207-1.207 1.207H17.25V17h2.25a.75.75 0 00.728-.568l1-4a.75.75 0 00-.728-.932h-3.25V9.25c0-.136.114-.25.25-.25h2a.75.75 0 00.75-.75v-4a.75.75 0 00-.75-.75h-2.817a5.94 5.94 0 00-5.933 5.933V11.5H8.5a.75.75 0 00-.75.75v4c0 .414.336.75.75.75h2.25v5.5H2.707A1.208 1.208 0 011.5 21.293z"/></svg>