<svg xmlns="http://www.w3.org/2000/svg" viewBox="0 0 512 512"><path d="M196.165 53.195c-75.163 0-136.312 61.149-136.312 136.312s61.15 136.312 136.312 136.312 136.312-61.149 136.312-136.312S271.328 53.195 196.165 53.195zm0 246.026c-60.496 0-109.714-49.217-109.714-109.714S135.67 79.793 196.165 79.793s109.714 49.217 109.714 109.714-49.217 109.714-109.714 109.714z"/><path d="M493.676 443.893L349.931 300.149c23.122-32.11 35.74-70.953 35.74-110.643C385.672 85.012 300.66 0 196.165 0S6.659 85.012 6.659 189.506s85.012 189.507 189.507 189.507c33.349 0 65.797-8.715 94.494-25.293l146.593 146.594c7.535 7.535 17.554 11.686 28.212 11.686s20.675-4.151 28.212-11.686c15.553-15.555 15.553-40.865-.001-56.421zm-18.807 37.614a13.21 13.21 0 01-9.404 3.895 13.21 13.21 0 01-9.404-3.895L302.037 327.483a13.28 13.28 0 00-9.407-3.895 13.26 13.26 0 00-7.296 2.184c-26.543 17.431-57.375 26.644-89.169 26.644-89.829 0-162.909-73.08-162.909-162.909s73.08-162.909 162.909-162.909 162.909 73.08 162.909 162.909c0 37.585-13.166 74.285-37.071 103.34a13.3 13.3 0 00.864 17.852l152 152c5.185 5.187 5.185 13.623.002 18.808z"/></svg>