<svg height="368pt" class="icon icon--instagram" viewBox="0 0 368 368" width="368pt" xmlns="http://www.w3.org/2000/svg"><path d="M328 0H40C17.945 0 0 17.945 0 40v288c0 22.055 17.945 40 40 40h288c22.055 0 40-17.945 40-40V40c0-22.055-17.945-40-40-40zm24 40v56h-86.695C243.895 76.207 215.383 64 184 64c-14.04 0-27.465 2.55-40 7V16h184c13.23 0 24 10.77 24 24zM102.695 96H80V16h48v61.953c-9.23 4.895-17.695 11.008-25.305 18.047zM184 80c57.344 0 104 46.656 104 104s-46.656 104-104 104S80 241.344 80 184 126.656 80 184 80zM40 16h24v80H16V40c0-13.23 10.77-24 24-24zm288 336H40c-13.23 0-24-10.77-24-24V112h72.23C73.09 132.078 64 156.969 64 184c0 66.168 53.832 120 120 120s120-53.832 120-120c0-27.031-9.09-51.922-24.23-72H352v216c0 13.23-10.77 24-24 24zm0 0"/><path d="M184 240c30.879 0 56-25.121 56-56s-25.121-56-56-56-56 25.121-56 56 25.121 56 56 56zm0-96c22.055 0 40 17.945 40 40s-17.945 40-40 40-40-17.945-40-40 17.945-40 40-40zm0 0"/></svg>