<svg viewBox="0 -45 512 512" class="icon icon--twitter" xmlns="http://www.w3.org/2000/svg"><path d="M194.816 422.71c-85.453 0-152.992-14.929-185.304-40.952l-.63-.508-.57-.57C.638 373-1.877 362.926 1.418 353.043l.3-.82c4-10.004 13.802-16.739 24.423-16.801 21.859-.379 40.984-2.985 58.34-8.043-27.684-12.875-46.915-35.168-58.356-67.434-3.848-10.062-.527-21.218 8.34-27.87 2.187-1.645 4.66-2.887 7.277-3.72-15.383-17.757-26.746-37.964-33.11-59.335l-.198-.665-.137-.68c-2.16-10.808 2.672-21.921 11.527-26.706 3.715-2.133 7.75-3.239 11.801-3.332-4.367-9.407-7.543-19.063-9.426-28.778-5.226-26.921-.914-53.91 12.813-80.214l3.175-6.352a17.759 17.759 0 0113.004-9.563 17.76 17.76 0 0115.356 4.958l5.785 5.792c45.703 47.915 86.64 70.649 157.418 86.204 3.16-27.168 14.906-52.422 33.855-72.297C286.156 13.738 316.27.469 348.398.016h.211c23.442 0 52.52 13.382 70.106 22.82 15.086-4.938 33.262-12.582 52.12-20.664 8.825-4.14 19.704-2.246 26.642 4.691 6.8 6.801 8.687 16.39 5.078 25.711a126.223 126.223 0 01-4.657 11.227c2.582 1.183 4.946 2.789 6.942 4.785 6.035 6.035 8.55 15.48 6.406 24.066l-.23.817c-7.227 23.289-21.11 42.258-39.47 54.164C468.48 290.918 345.52 422.71 194.817 422.71zM38.305 365.036c30.449 17.227 88.476 27.649 156.511 27.649 65.41 0 127.137-28.082 173.805-79.075 47.05-51.41 72.961-119.68 72.961-192.234v-.816c0-6.57 3.617-12.567 9.438-15.653C462.828 98.652 472.39 88 478.61 74.38c-6.415 1.012-12.934-1.563-16.93-6.93a17.621 17.621 0 01-.13-20.957 97.453 97.453 0 006.692-10.59c-16.285 6.84-31.75 12.973-45.176 17.047-4.878 1.477-10.316.899-14.773-1.59-23.902-13.316-46.164-21.277-59.586-21.316-49.527.758-89.797 43.176-89.797 94.605 0 5.317-2.36 10.301-6.465 13.68a17.646 17.646 0 01-14.672 3.695c-81.609-16.078-129.968-40.187-180.257-90.722-7.207 17.27-9.176 34.664-5.844 51.84 3.379 17.398 12.367 34.832 25.996 50.414 5.18 5.914 5.867 14.375 1.71 21.05-4.14 6.653-12.01 9.762-19.577 7.735-5.914-1.586-11.352-3.668-16.508-6.344 10.504 22.816 28.57 43.918 51.281 59.48 6.582 4.512 9.332 12.922 6.692 20.454-2.645 7.543-10.032 12.398-18.016 11.804-8.7-.644-16.406-2.296-23.5-5.082 12.734 25.934 33.082 40.203 64.43 45.657a17.72 17.72 0 0114.465 14.668 17.714 17.714 0 01-9.2 18.43c-26.718 14.163-55.922 21.765-91.14 23.628zm0 0"/></svg>