<?xml version="1.0" encoding="UTF-8"?>
<svg width="300px" height="200px" viewBox="0 0 300 200" version="1.1" xmlns="http://www.w3.org/2000/svg" xmlns:xlink="http://www.w3.org/1999/xlink">
    <!-- Generator: Sketch 59.1 (86144) - https://sketch.com -->
    <title>Group 13</title>
    <desc>Created with Sketch.</desc>
    <defs>
        <rect id="path-1" x="0" y="100" width="300" height="85"></rect>
        <mask id="mask-2" maskContentUnits="userSpaceOnUse" maskUnits="objectBoundingBox" x="0" y="0" width="300" height="85" fill="white">
            <use xlink:href="#path-1"></use>
        </mask>
    </defs>
    <g id="Page-1" stroke="none" stroke-width="1" fill="none" fill-rule="evenodd">
        <g id="Scholar's-Edge-Paragraph-Thumbnails" transform="translate(-240.000000, -439.000000)">
            <g id="Group-13" transform="translate(240.000000, 439.000000)">
                <rect id="Rectangle-Copy-16" fill="#FFFFFF" x="0" y="0" width="300" height="200"></rect>
                <use id="Rectangle-Copy-30" stroke="#AAAEB2" mask="url(#mask-2)" stroke-width="4" stroke-dasharray="5,5" xlink:href="#path-1"></use>
                <g id="Group-7-Copy-2" transform="translate(53.000000, 31.000000)" fill="#767676">
                    <rect id="Rectangle" x="0" y="0" width="194" height="4"></rect>
                    <rect id="Rectangle-Copy-3" x="0" y="24" width="194" height="4"></rect>
                    <rect id="Rectangle-Copy-2" x="0" y="12" width="194" height="4"></rect>
                    <rect id="Rectangle-Copy-4" x="0" y="36" width="194" height="4"></rect>
                </g>
                <rect id="Rectangle-Copy-29" stroke="#979797" x="52.5" y="119.5" width="89" height="11"></rect>
                <rect id="Rectangle-Copy-31" stroke="#979797" x="158.5" y="119.5" width="89" height="11"></rect>
                <rect id="Rectangle-Copy-29" stroke="#979797" x="52.5" y="144.5" width="89" height="11"></rect>
                <rect id="Rectangle-Copy-11" fill="#4B4687" x="53" y="162" width="50" height="12" rx="6"></rect>
                <rect id="Rectangle-Copy-12" fill="#767676" x="53" y="111" width="33" height="4"></rect>
                <rect id="Rectangle-Copy-14" fill="#767676" x="159" y="111" width="33" height="4"></rect>
                <rect id="Rectangle-Copy-13" fill="#767676" x="53" y="138" width="33" height="4"></rect>
                <rect id="Rectangle-Copy-21" fill="#767676" x="159" y="138" width="33" height="4"></rect>
                <rect id="Rectangle-Copy-23" fill="#767676" x="174" y="149" width="18" height="4"></rect>
                <rect id="Rectangle-Copy-25" fill="#767676" x="214" y="149" width="18" height="4"></rect>
                <circle id="Oval" stroke="#979797" cx="165" cy="151" r="4.5"></circle>
                <circle id="Oval-Copy-2" stroke="#979797" cx="205" cy="151" r="4.5"></circle>
                <circle id="Oval-Copy-2" fill="#464646" cx="205" cy="151" r="2"></circle>
            </g>
        </g>
    </g>
</svg>