<svg width="300" height="200" xmlns="http://www.w3.org/2000/svg" xmlns:xlink="http://www.w3.org/1999/xlink"><defs><path id="a" d="M0 100h300v85H0z"/><mask id="b" maskContentUnits="userSpaceOnUse" maskUnits="objectBoundingBox" x="0" y="0" width="300" height="85" fill="#fff"><use xlink:href="#a"/></mask></defs><g fill="none" fill-rule="evenodd"><path fill="#FFF" d="M0 0h300v200H0z"/><use stroke="#AAAEB2" mask="url(#b)" stroke-width="4" stroke-dasharray="5,5" xlink:href="#a"/><g fill="#767676"><path d="M53 31h194v4H53zM53 55h194v4H53zM53 43h194v4H53zM53 67h194v4H53z"/></g><path fill="#E6E6E6" d="M53 111h88v63H53z"/><path fill="#767676" d="M150 117h38v4h-38z"/><path fill="#1476D0" d="M150 165h38v4h-38z"/><path fill="#767676" d="M150 141h57v4h-57zM150 129h97v4h-97zM150 153h57v4h-57z"/><path d="M54 173c10.58-10.79 25.74-5.34 39.18-11.66C116.91 150.17 107.49 121.6 140 121" stroke="#FFF" stroke-width="2" stroke-linecap="round"/><path d="M78.74 164.53c3.77-9.06 7.62-13.6 5.25-23.48C80.85 127.98 66.47 127.43 67 112M85.61 163.89C89.84 149.79 96.04 144.5 108 147M92 162c26.03.57 18.26-5.01 47 10" stroke="#FFF" stroke-width="2" stroke-linecap="round"/><path d="M97 147c5.33-6.07 8-10.87 8-14.4 0-5.3-3.58-8.6-8-8.6s-8 3.3-8 8.6c0 3.53 2.67 8.33 8 14.4z" fill="#0091DA"/><circle fill="#1476D0" cx="97" cy="133" r="3"/></g></svg>