<?xml version="1.0" encoding="UTF-8"?>
<svg width="300px" height="200px" viewBox="0 0 300 200" version="1.1" xmlns="http://www.w3.org/2000/svg" xmlns:xlink="http://www.w3.org/1999/xlink">
    <!-- Generator: Sketch 59.1 (86144) - https://sketch.com -->
    <title>Group 25</title>
    <desc>Created with Sketch.</desc>
    <defs>
        <rect id="path-1" x="0" y="107" width="300" height="78"></rect>
        <mask id="mask-2" maskContentUnits="userSpaceOnUse" maskUnits="objectBoundingBox" x="0" y="0" width="300" height="78" fill="white">
            <use xlink:href="#path-1"></use>
        </mask>
    </defs>
    <g id="Page-1" stroke="none" stroke-width="1" fill="none" fill-rule="evenodd">
        <g id="Scholar's-Edge-Paragraph-Thumbnails" transform="translate(-616.000000, -92.000000)">
            <g id="Group-25" transform="translate(616.000000, 92.000000)">
                <rect id="Rectangle-Copy-8" fill="#FFFFFF" x="0" y="0" width="300" height="200"></rect>
                <use id="Rectangle-Copy-9" stroke="#AAAEB2" mask="url(#mask-2)" stroke-width="4" stroke-dasharray="5,5" xlink:href="#path-1"></use>
                <g id="Group-7-Copy-4" transform="translate(53.000000, 31.000000)" fill="#767676">
                    <rect id="Rectangle" x="0" y="0" width="194" height="4"></rect>
                    <rect id="Rectangle-Copy-3" x="0" y="24" width="194" height="4"></rect>
                    <rect id="Rectangle-Copy-2" x="0" y="12" width="194" height="4"></rect>
                    <rect id="Rectangle-Copy-4" x="0" y="36" width="194" height="4"></rect>
                </g>
                <g id="Group-11" transform="translate(39.000000, 117.000000)">
                    <g id="Group-10">
                        <rect id="Rectangle" fill="#EEF1FC" x="0" y="0" width="70" height="58"></rect>
                        <rect id="Rectangle-Copy-5" fill="#767676" x="6" y="8" width="47" height="8"></rect>
                        <rect id="Rectangle" fill="#767676" transform="translate(35.000000, 24.000000) scale(-1, 1) translate(-35.000000, -24.000000) " x="6" y="22" width="58" height="4"></rect>
                        <rect id="Rectangle-Copy-10" fill="#767676" transform="translate(35.000000, 33.000000) scale(-1, 1) translate(-35.000000, -33.000000) " x="6" y="31" width="58" height="4"></rect>
                        <rect id="Rectangle-Copy-19" fill="#4B4687" x="6" y="42" width="50" height="12" rx="6"></rect>
                    </g>
                    <g id="Group-10-Copy" transform="translate(76.000000, 0.000000)">
                        <rect id="Rectangle" fill="#EEF1FC" x="0" y="0" width="70" height="58"></rect>
                        <rect id="Rectangle-Copy-5" fill="#767676" x="6" y="8" width="47" height="8"></rect>
                        <rect id="Rectangle" fill="#767676" transform="translate(35.000000, 24.000000) scale(-1, 1) translate(-35.000000, -24.000000) " x="6" y="22" width="58" height="4"></rect>
                        <rect id="Rectangle-Copy-10" fill="#767676" transform="translate(35.000000, 33.000000) scale(-1, 1) translate(-35.000000, -33.000000) " x="6" y="31" width="58" height="4"></rect>
                        <rect id="Rectangle-Copy-19" fill="#4B4687" x="6" y="42" width="50" height="12" rx="6"></rect>
                    </g>
                    <g id="Group-10-Copy-2" transform="translate(152.000000, 0.000000)">
                        <rect id="Rectangle" fill="#EEF1FC" x="0" y="0" width="70" height="58"></rect>
                        <rect id="Rectangle-Copy-5" fill="#767676" x="6" y="8" width="47" height="8"></rect>
                        <rect id="Rectangle" fill="#767676" transform="translate(35.000000, 24.000000) scale(-1, 1) translate(-35.000000, -24.000000) " x="6" y="22" width="58" height="4"></rect>
                        <rect id="Rectangle-Copy-10" fill="#767676" transform="translate(35.000000, 33.000000) scale(-1, 1) translate(-35.000000, -33.000000) " x="6" y="31" width="58" height="4"></rect>
                        <rect id="Rectangle-Copy-19" fill="#4B4687" x="6" y="42" width="50" height="12" rx="6"></rect>
                    </g>
                </g>
            </g>
        </g>
    </g>
</svg>