<svg width="300" height="200" xmlns="http://www.w3.org/2000/svg" xmlns:xlink="http://www.w3.org/1999/xlink"><defs><path id="a" d="M0 107h300v78H0z"/><mask id="b" maskContentUnits="userSpaceOnUse" maskUnits="objectBoundingBox" x="0" y="0" width="300" height="78" fill="#fff"><use xlink:href="#a"/></mask></defs><g fill="none" fill-rule="evenodd"><path fill="#FFF" d="M0 0h300v200H0z"/><path fill="#767676" d="M88 144l10-8v16zM219 144l-10 8v-16z"/><use stroke="#AAAEB2" mask="url(#b)" stroke-width="4" stroke-dasharray="5,5" xlink:href="#a"/><g fill="#767676"><path d="M53 31h194v4H53zM53 55h194v4H53zM53 43h194v4H53zM53 67h194v4H53z"/></g><path fill="#1476D0" d="M108 112h91v48h-91z"/><path fill="#FFF" d="M127.34 150l14.74-19.16 11.05 14 3.69-2.2-6.64-9.59 8.85-11.05 20.63 26.53z"/><path fill="#767676" d="M172 163h27v15h-27zM108 163h27v15h-27zM140 163h27v15h-27z"/><path fill="#FFF" d="M112 175l5.35-6.84 4.02 5 1.33-.8-2.4-3.41 3.2-3.95 7.5 9.47zM144 175l5.35-6.84 4.02 5 1.33-.8-2.4-3.41 3.2-3.95 7.5 9.47zM176 175l5.35-6.84 4.02 5 1.33-.8-2.4-3.41 3.2-3.95 7.5 9.47z"/></g></svg>