<?xml version="1.0" encoding="UTF-8"?>
<svg width="300px" height="200px" viewBox="0 0 300 200" version="1.1" xmlns="http://www.w3.org/2000/svg" xmlns:xlink="http://www.w3.org/1999/xlink">
    <!-- Generator: Sketch 59.1 (86144) - https://sketch.com -->
    <title>Group 23</title>
    <desc>Created with Sketch.</desc>
    <defs>
        <rect id="path-1" x="0" y="107" width="300" height="78"></rect>
        <mask id="mask-2" maskContentUnits="userSpaceOnUse" maskUnits="objectBoundingBox" x="0" y="0" width="300" height="78" fill="white">
            <use xlink:href="#path-1"></use>
        </mask>
    </defs>
    <g id="Page-1" stroke="none" stroke-width="1" fill="none" fill-rule="evenodd">
        <g id="Scholar's-Edge-Paragraph-Thumbnails" transform="translate(-1380.000000, -92.000000)">
            <g id="Group-23" transform="translate(1380.000000, 92.000000)">
                <rect id="Rectangle-Copy-16" fill="#FFFFFF" x="0" y="0" width="300" height="200"></rect>
                <use id="Rectangle-Copy-30" stroke="#AAAEB2" mask="url(#mask-2)" stroke-width="4" stroke-dasharray="5,5" xlink:href="#path-1"></use>
                <g id="Group-7-Copy-2" transform="translate(53.000000, 31.000000)" fill="#767676">
                    <rect id="Rectangle" x="0" y="0" width="194" height="4"></rect>
                    <rect id="Rectangle-Copy-3" x="0" y="24" width="194" height="4"></rect>
                    <rect id="Rectangle-Copy-2" x="0" y="12" width="194" height="4"></rect>
                    <rect id="Rectangle-Copy-4" x="0" y="36" width="194" height="4"></rect>
                </g>
                <g id="Group-12" transform="translate(53.000000, 122.000000)">
                    <g id="Group-8-Copy" fill="#767676">
                        <rect id="Rectangle-Copy-29" x="0" y="0" width="104" height="12"></rect>
                    </g>
                    <rect id="Rectangle-Copy-29" fill="#E6E6E6" x="0" y="18" width="194" height="12"></rect>
                    <rect id="Rectangle-Copy-29" fill="#E6E6E6" x="0" y="36" width="194" height="12"></rect>
                    <rect id="Rectangle-Copy-2" fill="#767676" x="5" y="22" width="92" height="4"></rect>
                    <rect id="Rectangle-Copy-18" fill="#767676" x="5" y="40" width="92" height="4"></rect>
                    <polyline id="Path-7" stroke="#767676" stroke-width="2" stroke-linecap="round" stroke-linejoin="round" points="104 26 108 22 112 26"></polyline>
                    <polyline id="Path-7-Copy" stroke="#767676" stroke-width="2" stroke-linecap="round" stroke-linejoin="round" points="104 44 108 40 112 44"></polyline>
                </g>
            </g>
        </g>
    </g>
</svg>