<svg version="1.1" xmlns="http://www.w3.org/2000/svg" xmlns:xlink="http://www.w3.org/1999/xlink" width="493px" height="64.3px" viewBox="0 0 493 64.3">
<g>
  <g>
    <path fill="#FFFFFF" d="M165.8,34.9c-1.9,0-3.5-0.6-4.4-0.9l-0.4-4h0.8c0.2,0.9,1,2.2,1.8,2.8c0.6,0.4,1.7,1.1,2.6,1.1
      c1.8,0,2.9-1.2,2.9-2.5c0-1.5-1.2-2.1-2.8-2.8c-3.3-1.4-4.7-2.4-4.7-4.7c0-2.6,2.6-4.3,6-4.3c1.7,0,2.9,0.4,3.7,0.8v3.9h-0.8
      c-0.1-1-0.5-2.2-1.4-2.7c-0.3-0.2-1.3-0.8-2.3-0.8c-1.8,0-2.8,1.2-2.8,2.3c0,1.4,0.9,2.1,3,3c3.1,1.2,4.5,2.3,4.5,4.6
      C171.7,33.2,169,34.9,165.8,34.9z"/>
    <path fill="#FFFFFF" d="M188.1,34.1l-0.5,0.2c-1.4,0.5-2.2,0.7-4.6,0.7c-4.8,0-8.3-3.4-8.3-7.8c0-4.5,3.7-7.6,8.3-7.6
      c1.9,0,3.3,0.3,4.6,0.7l0.8,0.2v4.1h-0.8c-0.1-1-0.5-2.1-1.4-2.7c-0.5-0.3-1.5-1.1-3.4-1.1c-3.2,0-5.1,2.8-5.1,5.9
      c0,4.3,2.4,7.2,6.2,7.2c1.2,0,2.1-0.5,2.5-0.9c0.9-0.7,1.6-1.8,1.8-2.8l0.8,0.1L188.1,34.1z"/>
    <path fill="#FFFFFF" d="M201.7,34.6v-0.8c1,0,2-0.4,2.3-0.8v-5.3h-7.7V33c0.2,0.4,1.2,0.7,2.2,0.7v0.8h-7.1v-0.8
      c0.9,0,1.9-0.4,2.2-0.7V21.3c-0.2-0.4-1.2-0.7-2.2-0.8v-0.7h7.1v0.7c-1,0.1-2,0.4-2.2,0.8v5h7.7v-5c-0.4-0.3-1.3-0.7-2.3-0.8v-0.7
      h7.2v0.7c-1,0.1-2,0.4-2.3,0.8V33c0.3,0.4,1.2,0.7,2.3,0.8v0.8H201.7L201.7,34.6z"/>
    <path fill="#FFFFFF" d="M218.4,34.9c-4.7,0-7.4-3.2-7.4-7.7s3.7-7.8,8.4-7.8c4.8,0,7.4,3.3,7.4,7.5
      C226.8,31.7,223.1,34.9,218.4,34.9z M218.2,20.6c-2.1,0-4.2,2.4-4.2,5.9c0,4.2,2,7.2,5.6,7.2c2.2,0,4.4-2.3,4.4-5.9
      C223.9,23.5,221.7,20.6,218.2,20.6z"/>
    <path fill="#FFFFFF" d="M237.1,34.9c-4.7,0-7.4-3.2-7.4-7.7s3.7-7.8,8.4-7.8c4.8,0,7.4,3.3,7.4,7.5
      C245.6,31.7,241.9,34.9,237.1,34.9z M236.9,20.6c-2.1,0-4.2,2.4-4.2,5.9c0,4.2,2,7.2,5.6,7.2c2.2,0,4.4-2.3,4.4-5.9
      C242.7,23.5,240.4,20.6,236.9,20.6z"/>
    <path fill="#FFFFFF" d="M247.3,34.6v-0.8c0.9-0.1,2.3-0.4,2.7-1V21.3c-0.2-0.4-1.1-0.7-2.2-0.7v-0.8h7.3v0.8
      c-1,0.1-2.2,0.4-2.4,0.8v12l4.1-0.1c1.5,0,2.6-1.6,2.6-3.4h0.8v4.8L247.3,34.6L247.3,34.6z"/>
    <path fill="#FFFFFF" d="M277.1,34.9c-4.7,0-7.4-3.2-7.4-7.7s3.7-7.8,8.4-7.8c4.8,0,7.4,3.3,7.4,7.5
      C285.6,31.7,281.9,34.9,277.1,34.9z M276.9,20.6c-2.1,0-4.2,2.4-4.2,5.9c0,4.2,2,7.2,5.6,7.2c2.2,0,4.4-2.3,4.4-5.9
      C282.7,23.5,280.4,20.6,276.9,20.6z"/>
    <path fill="#FFFFFF" d="M298.5,23.6c-0.1-2-0.9-2.5-2.6-2.5h-3.2v5.6l3-0.1c1.5-0.1,2.1-0.1,2.3-1.8h0.7v5.1h-0.8
      c-0.2-1.9-0.8-1.9-2.3-1.9c-0.5,0-1.1,0-1.6,0h-1.5v4.8c0.3,0.6,1.6,1,2.6,1.1v0.8h-7.8v-0.8c1.1-0.1,2.2-0.3,2.5-1V21.4
      c-0.3-0.4-1.3-0.8-2.3-0.8v-0.8h9.6c0.5,0,1,0,1.4-0.2h0.6v4H298.5L298.5,23.6z"/>
    <path fill="#FFFFFF" d="M321.3,34.6v-0.8c1-0.1,2.2-0.4,2.4-0.8c-0.1-2.8-0.3-5.7-0.4-8.5v-2.1c-0.2,0.4-0.5,1.1-0.6,1.5L318,34.6
      h-1l-4-11c-0.2-0.5-0.3-0.9-0.5-1.4c0,0.2,0,0.4,0,0.6s0,0.5,0,0.7l-0.6,9.4c0.2,0.4,1.3,0.9,2.3,0.9v0.8H308v-0.8
      c1-0.1,2-0.5,2.3-1l0.6-8.2c0-0.1,0-0.3,0-0.4s0-0.3,0-0.4c0.1-0.7,0.1-1.6,0.1-1.7c0-0.2,0-0.5,0-0.7l0,0c-0.2-0.4-1-0.7-2.1-0.8
      v-0.8h5.3l0.8,2.3c1,2.9,2.2,6,3.2,8.8c1.2-2.9,2.5-5.8,3.7-8.6l1-2.5h4.7v0.8c-0.9,0.1-1.7,0.5-2.1,0.8v0.5c0,0.2,0.1,2,0.2,2.8
      l0.5,8.4c0.4,0.4,1.4,0.8,2.3,0.8v0.8L321.3,34.6L321.3,34.6z"/>
    <path fill="#FFFFFF" d="M339.7,34.6v-0.8c0.9-0.1,1.9-0.4,2.2-0.8c-0.5-1.4-1-2.8-1.5-4.2h-4.6l-1.5,4c0.3,0.5,1.2,0.9,2.2,1v0.8
      h-6.1v-0.8c1-0.1,1.8-0.2,2.2-0.8l0,0l0.2-0.3c0.6-1.5,1.3-3.1,1.9-4.9l0.4-1l0.4-1.1c0.7-1.8,1.3-3.4,1.7-4.6
      c0.2-0.6,0.2-0.9,0.3-1.3c0,0,0-0.1,0-0.2h2.9c0.1,0.8,0.1,1.2,0.3,1.8l1.5,4.7l0.5,1.6c0.5,1.6,1.1,3,1.8,4.8l0.1,0.3
      c0.2,0.6,1.1,0.9,2.2,0.9v0.8L339.7,34.6L339.7,34.6z M338.5,22.9l-0.3-1c-0.1,0.3-0.2,0.7-0.3,1l-1.7,4.7h3.8L338.5,22.9z"/>
    <path fill="#FFFFFF" d="M365.9,20.6c-0.9,0.1-1.9,0.6-2.2,1v8.8c0,1.2,0.1,3.4,0.1,4.4h-1.5l-9-11l-0.9-1.2l0.1,1v5.3
      c0,0.6,0,1.3,0.1,1.9c0,0.2,0,0.5,0,0.8v0.2c0,0.3,0.1,0.8,0.1,1c0.4,0.4,1.6,0.9,2.6,1v0.8h-6.5v-0.8c1-0.1,2-0.5,2.3-0.9v-8.3
      c0-1.1,0-2.2-0.1-3.1l0,0c-0.3-0.5-1.2-0.9-2.2-0.9v-0.8h4.8l1.3,1.7l7.4,9v-5.1c0-0.9-0.1-2.1-0.1-3c0-0.3,0-0.5,0-0.7v-0.2
      c-0.4-0.4-1.6-0.9-2.6-1v-0.8h6.4L365.9,20.6L365.9,20.6z"/>
    <path fill="#FFFFFF" d="M376.1,34.6v-0.8c0.9-0.1,1.9-0.4,2.2-0.8c-0.5-1.4-1-2.8-1.5-4.2h-4.6l-1.5,4c0.3,0.5,1.2,0.9,2.2,1v0.8
      h-6.1v-0.8c1-0.1,1.8-0.2,2.2-0.8l0,0l0.2-0.3c0.6-1.5,1.3-3.1,1.9-4.9l0.4-1l0.4-1.1c0.7-1.8,1.3-3.4,1.7-4.6
      c0.2-0.6,0.2-0.9,0.3-1.3c0,0,0-0.1,0-0.2h2.9c0.1,0.8,0.1,1.2,0.3,1.8l1.6,4.7l0.5,1.6c0.5,1.6,1.1,3,1.8,4.8l0.1,0.3
      c0.2,0.6,1.1,0.9,2.2,0.9v0.8L376.1,34.6L376.1,34.6z M374.8,22.9l-0.3-1c-0.1,0.3-0.2,0.7-0.3,1l-1.7,4.7h3.8L374.8,22.9z"/>
    <path fill="#FFFFFF" d="M399.5,28.8c-0.9,0.1-1.5,0.4-1.8,0.8v3.8c-1.6,0.8-3.5,1.5-6.3,1.5c-4.6,0-7.6-3.6-7.6-7.8
      c0-4.5,3.8-7.6,8.4-7.6c1.8,0,3.1,0.3,4.3,0.6l1,0.2v4h-0.8c-0.1-0.6-0.4-1.7-1.2-2.4c0,0-0.1,0-0.1-0.1l0,0
      c-0.4-0.4-1.5-1.3-3.6-1.3c-3.4,0-5.1,3-5.1,6.2c0,4,1.9,7,5.3,7c1.1,0,2.4-0.8,2.9-1.2v-3c-0.4-0.4-1.8-0.8-2.7-0.8V28h7.2
      L399.5,28.8L399.5,28.8z"/>
    <path fill="#FFFFFF" d="M406.1,34.6l-5.3,0.1v-0.8c1.1-0.1,2.6-0.4,3-1.1V21.3c-0.2-0.4-1.2-0.7-2.2-0.7v-0.8h9.6
      c0.6,0,1.1-0.1,1.4-0.2h0.6v4h-0.7c-0.1-2-0.9-2.5-2.6-2.5h-3.3v5.3h3c1.5,0,2.2,0,2.4-1.7h0.7v4.9H412c-0.2-1.9-0.7-1.9-2.3-1.9
      h-3v4.9c0.1,0.2,0.3,0.6,0.5,0.7c0.4,0,1.3,0,1.8,0c0.6,0,1.4,0,1.9,0c1.5,0,2.5-0.7,2.6-2.6h0.7v3.9H406.1L406.1,34.6z"/>
    <path fill="#FFFFFF" d="M429.9,34.6v-0.8c1-0.1,2.2-0.4,2.4-0.8c-0.1-2.8-0.3-5.7-0.4-8.5v-2.1c-0.1,0.4-0.5,1.1-0.6,1.5
      l-4.7,10.6h-1l-4-11c-0.2-0.5-0.3-0.9-0.5-1.4c0,0.2,0,0.4,0,0.6s0,0.5,0,0.7l-0.6,9.4c0.2,0.4,1.3,0.9,2.3,0.9v0.8h-6.1v-0.8
      c1-0.1,2-0.5,2.3-1l0.6-8.2c0-0.1,0-0.3,0-0.4s0-0.3,0-0.4c0.1-0.7,0.1-1.6,0.1-1.7c0-0.2,0-0.5,0-0.7l0,0c-0.2-0.4-1-0.7-2.1-0.8
      v-0.8h5.3l0.8,2.3c1,2.9,2.2,6,3.2,8.8c1.2-2.9,2.5-5.8,3.7-8.6l1-2.5h4.7v0.8c-0.9,0.1-1.7,0.5-2.1,0.8v0.5c0,0.2,0.1,2,0.2,2.8
      l0.5,8.4c0.4,0.4,1.4,0.8,2.3,0.8v0.8H429.9z"/>
    <path fill="#FFFFFF" d="M444.6,34.6l-5.3,0.1v-0.8c1.1-0.1,2.6-0.4,2.9-1.1V21.3c-0.2-0.4-1.2-0.7-2.2-0.7v-0.8h9.6
      c0.6,0,1.1-0.1,1.4-0.2h0.6v4h-0.7c-0.1-2-0.9-2.5-2.6-2.5H445v5.3h3c1.5,0,2.2,0,2.4-1.7h0.7v4.9h-0.7c-0.2-1.9-0.7-1.9-2.3-1.9
      h-3v4.9c0.1,0.2,0.3,0.6,0.5,0.7c0.4,0,1.3,0,1.8,0c0.6,0,1.4,0,1.9,0c1.5,0,2.5-0.7,2.6-2.6h0.7v3.9H444.6L444.6,34.6z"/>
    <path fill="#FFFFFF" d="M472.3,20.6c-0.9,0.1-1.9,0.6-2.2,1v8.8c0,1.2,0.1,3.4,0.2,4.4h-1.5l-9-11l-0.9-1.2l0.1,1v5.3
      c0,0.6,0,1.3,0.1,1.9c0,0.2,0,0.5,0,0.8v0.2c0,0.3,0.1,0.8,0.1,1c0.4,0.4,1.6,0.9,2.6,1v0.8h-6.5v-0.8c1-0.1,2-0.5,2.3-0.9v-8.3
      c0-1.1,0-2.2-0.1-3.1l0,0c-0.3-0.5-1.2-0.9-2.2-0.9v-0.8h4.8l1.3,1.7l7.4,9v-5.1c0-0.9-0.1-2.1-0.1-3c0-0.3,0-0.5,0-0.7v-0.2
      c-0.4-0.4-1.6-0.9-2.6-1v-0.8h6.4L472.3,20.6L472.3,20.6z"/>
    <path fill="#FFFFFF" d="M488.7,24.1c-0.1-1.9-1.1-2.9-2.7-3h-1.2c-0.4,0-0.8,0-1.2,0v11.5c0.5,1,1.8,1.2,2.9,1.2v0.8H478v-0.8
      c1-0.1,2.5-0.3,2.9-0.9V21.1c-0.3,0-0.9,0-1.2,0h-1.2c-1.6,0-2.7,1.1-2.7,3H475v-4.5h0.6c0.3,0.1,0.6,0.2,1.4,0.2h10.5
      c0.5,0,1.1-0.1,1.4-0.2h0.6v4.5H488.7L488.7,24.1z"/>
  </g>
  <g>
    <path fill="#FFFFFF" d="M141,19.6c-1.9,0-3.2,1.5-3.6,3.8l6.5-0.1C144,21.3,142.8,19.6,141,19.6L141,19.6z M140.7,34.7
      c-3.9,0-6.9-3.1-6.9-7.4c0-5.3,3.2-8.9,7.8-8.9c3.7,0,5.7,2.1,5.7,5.4v0.7l-10-0.1c-0.1,0.4-0.1,1.1-0.1,1.9
      c0,3.8,2.4,6.3,5.5,6.3c1.9,0,2.9-0.7,4.3-1.9l0.6,0.9C145.5,33.4,143.8,34.7,140.7,34.7L140.7,34.7z M123.6,34.4v-0.9
      c1.7-0.1,2.1-0.5,2.4-1.1V13.2c0-1.3-0.2-1.8-2.7-2v-0.7l6.8-1.7l0.2,0.6l-1.1,1.3v21.7c0.4,0.7,1.1,1,2.6,1.1v0.9H123.6
      L123.6,34.4z M112.3,28.7c-0.1,0.6-0.3,1.1-0.3,1.9c0,1.1,0.6,2.2,1.9,2.2c1.1,0,1.7-0.4,2.7-1.2v-5
      C115.7,27.1,113.3,28.1,112.3,28.7L112.3,28.7z M119.7,34.7c-2,0-3-1.4-3-2.3c-1.3,1.3-2.9,2.3-4.4,2.3c-2,0-3.7-1.2-3.7-3.3
      c0-1,0.3-2.1,0.8-3l7.4-2.7V23c0-1.7-0.8-3.3-2.4-3.3c-1,0-2,1.2-2,3.1l-3.3,0.6V23c1.1-3.3,4.8-4.6,6.6-4.6
      c3.4,0,4.6,1.8,4.6,4.5l-0.1,7.8c0,1.5,0.8,1.9,1.5,1.9c0.6,0,1.2-0.4,1.9-1.1v1.1C122.4,33.5,121,34.7,119.7,34.7L119.7,34.7z
       M107.5,14.2l-6.1,10.3v6.9c0.7,1.7,2.5,1.9,4.2,2v1h-12v-1c1.7-0.1,3.8-0.3,4.3-1.4v-7.2l-6.2-10.5c-1.1-1.8-2.1-2.4-4.2-2.5v-1
      h10.4v1c-2,0.1-2.6,0.5-3.2,0.9l5.8,10l5.7-10c-0.6-0.4-1.4-0.9-3.3-1v-1h8.9v1C109.8,11.8,108.6,12.5,107.5,14.2L107.5,14.2z"/>
  </g>
</g>
<g>
  <g>
    <path fill="#86B2D8" d="M51.5,1v17.6c0,0.2,0,0.3,0,0.5c0,9.2-0.2,31.4-25.1,43.7l-0.1,0.1l-0.1-0.1C1.2,50.5,1,28.3,1,19.1
      c0-0.2,0-0.3,0-0.5V1H51.5 M52.5,0h-1H1H0v1v17.6v0.5C0,27.8,0,51,25.7,63.7l0.1,0.1l0.4,0.2l0.4-0.2l0.1-0.1
      C52.5,51,52.5,27.8,52.5,19.1v-0.3v-0.2V1V0L52.5,0z"/>
  </g>
  <g>
    <path fill="#FFFFFF" d="M51.5,18.6c0,0.2,0,0.3,0,0.5c0,9.2-0.2,31.4-25.1,43.7l-0.1,0.1l-0.1-0.1C1.2,50.5,1,28.3,1,19.1
      c0-0.2,0-0.3,0-0.5V1h50.5V18.6z"/>
  </g>
  <g>
    <path fill="#002856" d="M51.5,19.1c0,9.4-0.3,31.5-25.2,43.9l0,0C1.3,50.6,1,28.4,1,19.1H51.5z"/>
  </g>
  <rect x="1" y="1" fill="#002856" width="50.5" height="17.1"/>
  <g>
    <path d="M25.5,3c0.5,0.2,0.9,1,0.9,1s0.3-1,1.5-1.1s3.1,0.8,4.6-0.4l0.9,1.3l0.5-0.3l0.6,0.6V6c0.1,0.3,0.4,0.5,0.8,0.6
      c0,0,0.1-0.3,0-0.7c-0.3-0.7-0.2-1.3,0.2-1.7c0.1,0.1,0.6,0.3,0.9,0.2C36,4.9,35.9,5.3,36,5.8c0.2,0.6,0,1.3-0.3,1.7
      c-0.3,0.3-0.8,0.2-1.1,0l-0.2-0.1v4.8c0.1,0.2,0.2,0.5,0.4,0.6c0.5-0.2,0.1-0.9,0.2-1.3c0-0.3,0.2-0.5,0.3-0.7
      c0.2,0.1,0.8,0.2,0.9,0.2c0,0.2-0.3,0.6-0.2,1c0.2,1.3-0.4,1.9-0.7,2c-0.4,0.1-0.7-0.1-1-0.3v2.5l-6.8-0.1c0,0.3-0.1,0.9-1.2,0.9
      s-1.2-0.7-1.3-0.9c-2.4,0-7-0.1-7-0.1v-2.1l0,0c-0.3,0.2-0.5,0.4-0.8,0.3c-0.4-0.1-0.6-0.6-0.6-1.2c-0.1-0.6,0.2-1.2-0.3-1.7
      c0.2-0.1,0.3-0.1,0.5-0.2c0.2,0,0.5-0.1,0.5-0.1c0.4,0.5,0.1,1.4,0.1,1.6c0,0.2,0.1,0.4,0.1,0.4c0.2-0.2,0.4-0.2,0.6-0.5V7.7l0,0
      c-0.3,0.1-0.6,0.3-0.9,0.2c-0.3-0.1-0.6-0.5-0.8-1.2c-0.1-0.8,0.2-1.7-0.1-2.2l0.9-0.3c0.4,0.7,0.1,1.6,0,2.3c0,0.1,0,0.2,0.1,0.3
      c0.2-0.1,0.5-0.3,0.7-0.4V4.2l0.6-0.5h0.6c0,0,0.6-0.8,0.7-1C21.7,3.4,23.8,2.6,25.5,3"/>
    <path fill="#FFFFFF" d="M25.6,3.5c0.4,0.2,0.6,0.6,0.6,1V15c-0.8-1.4-1.7-0.8-4.5-0.8c-0.6,0-1.4-0.3-1.6-0.6c0-3.5,0-10.6,0-10.6
      C21.8,3.9,23.9,2.8,25.6,3.5"/>
    <path fill="#FFFFFF" d="M32.3,13.8c0,0-0.2,0.4-1.6,0.4c-1.3,0.1-3.4-0.7-4.2,0.8V4.3c0.1-0.4,0.4-0.7,0.8-0.8
      c1.3-0.4,1.8,0.1,3.1,0c1.2-0.1,1.7-0.3,2-0.6L32.3,13.8z"/>
    <path fill="#BB9905" d="M33.2,15c-0.3-0.3-0.6-0.8-0.6-1.2V3.1L33.2,4V15z"/>
    <path fill="#BB9905" d="M19.9,11.3v2.5c-0.1,0.3-0.3,0.6-0.5,0.8V9.1c0-1.7,0-3.8,0.1-5.4L20,3.1L19.9,11.3z"/>
    <polygon fill="#FFFFFF" points="19.3,3.8 19.2,15.1 25,15.2 25.2,15.5 18.8,15.3 18.9,3.8 		"/>
    <polygon fill="#FFFFFF" points="18.7,5.8 18.6,15.4 18.4,15.6 18.4,4.2 18.7,3.9 		"/>
    <g>
      <path fill="#FFFFFF" d="M33.7,3.9l-0.1,11.6c-2,0-6.2-0.1-6.2-0.1l0.1-0.2h5.8V4L33.7,3.9z"/>
      <path fill="#FFFFFF" d="M34.3,4.3c0,0-0.1,10.7-0.2,11.7l-0.3-0.4L34,3.9L34.3,4.3z"/>
      <path fill="#FFFFFF" d="M17.2,5.1c0,0.5-0.3,1.1,0,1.6c0,0-0.1,0.1-0.3,0.1c-0.2,0-0.3-0.3-0.3-0.5c-0.1-0.6,0.2-0.9,0.1-1.7
        l0.5-0.2L17.2,5.1z"/>
      <path fill="#FFFFFF" d="M35.9,4.7c-0.3,0.6,0.1,1.2,0,1.8c-0.1,0.1-0.3,0.1-0.5,0.1c0.2-0.4,0-0.6-0.2-1.3
        c-0.1-0.5,0.2-0.8,0.2-0.8S35.6,4.7,35.9,4.7"/>
      <path fill="#FFFFFF" d="M35.8,6.9c0,0.1-0.1,0.5-0.4,0.6c-0.3,0.1-0.8-0.2-1-0.3c0-0.2,0-0.5,0-0.7C34.7,6.8,35.3,7.1,35.8,6.9"
        />
      <path fill="#FFFFFF" d="M18.1,7.2c-0.3,0.2-0.8,0.5-1.1,0.2c-0.1-0.1-0.2-0.2-0.2-0.4c0.5,0,1-0.2,1.4-0.5L18.1,7.2z"/>
      <path fill="#FFFFFF" d="M35.9,11.3c-0.3,0.9,0,1.4-0.2,1.7c-0.2,0.4-0.8,0.1-0.8,0.1s0.2,0,0.3-0.3s-0.2-1.1,0.2-1.6L35.9,11.3z"
        />
      <path fill="#FFFFFF" d="M17.3,11.5c0.1,0.4,0,0.8,0,1.2l0.1,0.3c-0.1,0.1-0.3,0-0.4,0c-0.3-0.5,0.2-1.1-0.2-1.6l0.4-0.1
        C17.1,11.3,17.2,11.4,17.3,11.5"/>
      <path fill="#FFFFFF" d="M35.7,13.3c-0.1,0.2-0.2,0.5-0.5,0.5s-0.7-0.1-0.9-0.4v-0.6C34.7,13.2,35.1,13.5,35.7,13.3"/>
      <path fill="#FFFFFF" d="M18.1,13.4c-0.3,0.2-0.7,0.5-0.9,0.3c-0.2-0.1-0.3-0.3-0.3-0.5c0.4,0.1,0.9-0.2,1.2-0.5L18.1,13.4z"/>
      <path fill="#BB9905" d="M26.2,15.4c0.1,0.3,0,0.3,0,0.4c-0.5,0.1-0.8-0.3-1.1-0.7c0,0-3.9-0.2-5.6-0.2c0.2-0.3,0.6-0.6,0.6-1
        C21.5,15.2,25.3,13.4,26.2,15.4"/>
      <path fill="#BB9905" d="M32.9,15.1c-1.9,0.1-3.8,0-5.6,0.1c-0.2,0.3-0.5,0.7-0.9,0.6c0.5-1.7,2.1-1.3,4.3-1.3
        c1.2,0,1.6-0.5,1.6-0.5C32.4,14.4,32.8,14.8,32.9,15.1"/>
      <path fill="#FFFFFF" d="M25.3,15.6c0,0,0,0.1,0.1,0.1c-0.4,0.1-6.9,0-6.9,0l0.4-0.2L25.3,15.6z"/>
      <path fill="#FFFFFF" d="M33.6,15.7l0.3,0.3l-6.7-0.2l0.1-0.1C27.3,15.7,31.5,15.7,33.6,15.7"/>
      <path fill="#FFFFFF" d="M26.3,16.2c0.3,0,0.6-0.1,0.8-0.3c0.2,0.3-0.1,0.7-0.8,0.7c-0.8,0-1.1-0.5-0.9-0.8
        C25.7,16.1,26.1,16.2,26.3,16.2"/>
    </g>
    <path d="M23.7,11.5c-0.2,0-0.4-0.1-0.6-0.1s-0.5,0-0.7,0.1c0-0.5,0.1-0.9,0.2-1.2c0.6,0.1,0.9,0.1,1,0.2
      C23.7,10.7,23.6,10.9,23.7,11.5 M24,10.7c0-0.8-0.4-0.9-1.1-0.9c-0.5,0-0.6-0.1-0.7-0.4h-0.1c-0.1,0.2-0.2,0.3-0.2,0.5
      s0.1,0.3,0.3,0.4c-0.3,0.4-0.3,1-0.3,1.7c0.3,0,0.6-0.1,0.9-0.1s0.6,0,0.9,0.1C23.9,11.5,24,11.1,24,10.7"/>
    <path d="M29.9,11.5c-0.2-0.1-0.4-0.1-0.7-0.1c-0.2,0-0.4,0-0.6,0.1c0,0,0-0.3,0-0.4c0-0.2,0.1-0.5,0.2-0.7c0.5,0,0.8,0,1,0.1
      C29.9,10.6,29.9,10.9,29.9,11.5 M30.2,10.6c0-0.7-0.3-0.8-0.6-0.8c-0.2,0-0.8,0-1.1-0.1c-0.1,0-0.1-0.2-0.1-0.4h-0.1
      c-0.1,0.2-0.2,0.3-0.2,0.5s0.1,0.4,0.3,0.5c-0.3,0.5-0.2,1-0.3,1.7c0.3,0,0.7-0.1,1-0.1s0.6,0,0.8,0.1
      C30.1,11.5,30.2,11.4,30.2,10.6"/>
    <path d="M25,10.2c0-0.3-0.3-0.5-0.4-0.7V9.2h-0.1c-0.1,0.2-0.3,0.4-0.3,0.6c0,0.1,0,0.3,0.2,0.4c0.1,0.1,0.2,0.2,0.2,0.3
      c0,0,0,0.2,0,0.3h0.1C24.8,10.5,25,10.3,25,10.2"/>
    <path d="M31.2,10c0-0.3-0.4-0.3-0.4-0.6c0-0.1,0-0.2,0-0.3h-0.1c-0.1,0.2-0.3,0.4-0.3,0.6c0,0.1,0,0.3,0.2,0.4
      c0.1,0.1,0.2,0.2,0.2,0.2s0,0.3,0,0.4h0.1C31,10.4,31.2,10.1,31.2,10"/>
    <path d="M28.6,7.7c-0.3-0.3,0-1.1-0.3-1.6C28.2,6,28.1,6,27.9,6h-0.6c-0.2,0-0.2-0.2-0.3-0.4l0,0c-0.1,0.1-0.1,0.3-0.1,0.4
      c0,0.4,0.3,0.6,0.5,0.6c0.3,0,0.6-0.1,0.7,0.1c0,0.1,0.1,0.2,0.1,0.6s0,0.7,0,0.9h0.1C28.4,8.1,28.5,7.9,28.6,7.7"/>
    <path d="M24.8,7.7c-0.3-0.3-0.1-1.6-0.3-1.7c-0.1-0.1-0.2-0.1-0.4-0.1c-0.2,0-0.3,0-0.5,0s-0.3-0.1-0.4-0.5h-0.1
      c0,0.2-0.1,0.3-0.1,0.4c0,0.3,0,0.5,0.3,0.6c-0.1,0.2-0.1,0.3-0.1,0.5s0,0.3,0,0.6c-0.3,0.1-0.3,0.1-0.4,0.2s-0.1,0.2-0.1,0.4
      c0.7,0,0.9-0.1,0.9-0.3c0-0.2-0.2-0.6-0.2-1c0-0.2,0.1-0.2,0.1-0.3c0.2,0,0.4-0.1,0.7,0c0.1,0.1,0.2,0.4,0.2,0.7
      c0,0.4,0,0.7,0,0.9h0.1C24.6,8.1,24.8,7.9,24.8,7.7"/>
    <path d="M29.6,7.8L29.6,7.8c-0.1-0.1-0.1-0.1-0.1-0.2c-0.1-0.1-0.1-0.4-0.1-0.6c0-0.1,0-0.2,0.1-0.3c0.1-0.1,0.1-0.2,0.1-0.5
      C29.6,6,29.4,6,29.2,6c-0.2,0-0.3-0.1-0.3-0.2s-0.1-0.2-0.1-0.2h-0.1c-0.1,0.2-0.1,0.3-0.1,0.5c0,0.4,0.1,0.6,0.6,0.6
      c0,0.4-0.1,0.7-0.1,1.1c0,0.2,0,0.3,0,0.5h0.1C29.4,8.1,29.5,8,29.6,7.8"/>
    <path d="M22.9,6.7c0-0.4-0.3-0.4-0.6-0.6C22.2,6,22,5.9,22,5.5h-0.1c-0.2,0.2-0.3,0.4-0.4,0.6c-0.2,0-0.5-0.2-0.4-0.6H21
      c-0.2,0.1-0.2,0.3-0.2,0.5s0.1,0.4,0.4,0.6c-0.1,0.2-0.4,0.5-0.4,0.7s0.1,0.5,0.1,0.6s0,0.2-0.1,0.3c0,0,0,0.1,0.1,0.1
      C21,8.1,21.2,8,21.2,7.6c0-0.2-0.1-0.3-0.1-0.5s0.2-0.5,0.4-0.7c0.4,0.2,1,0.3,1,0.8c0,0.1-0.1,0.4-0.2,0.5s-0.2,0.1-0.4,0.1h-0.5
      c-0.1,0.2-0.1,0.3-0.2,0.5h0.1c0.1,0,0.2,0,0.3,0c0.2,0,0.3,0,0.4,0c0.3,0,0.4-0.2,0.6-0.6C22.7,7.4,22.9,7,22.9,6.7"/>
    <path d="M25.8,7.7L25.8,7.7c-0.1-0.1-0.1-0.1-0.1-0.2c-0.1-0.1-0.1-0.4-0.1-0.6c0-0.1,0-0.2,0-0.3c0-0.1,0.2-0.2,0.2-0.5
      C25.8,6,25.6,6,25.4,6c-0.1,0-0.2-0.1-0.3-0.2L25,5.6h-0.1c0,0.2-0.1,0.3-0.1,0.5c0,0.4,0.1,0.5,0.6,0.5c0,0.2-0.1,0.4-0.1,0.7
      c0,0.3,0,0.7-0.1,0.9h0.1C25.7,8,25.7,8,25.8,7.7"/>
    <path d="M31.8,7.5c0-0.2-0.1-0.4-0.3-0.5c-0.1,0-0.2-0.2-0.1-0.1c0.2-0.1,0.4-0.3,0.4-0.6c0-0.1,0-0.2-0.1-0.3
      c-0.1,0-0.2-0.1-0.2-0.2s0-0.2,0-0.2h-0.1c-0.1,0.1-0.3,0.3-0.3,0.5c0,0.4,0.5,0.3,0.2,0.8c-0.5-0.2-1.1-0.5-1-1.2h-0.1
      C30,5.8,30,6.1,30,6.2c0,0.4,0.3,0.7,0.5,0.8c-0.2,0-0.2,0-0.3,0.1C30.1,7.2,30,7.3,30,7.5c0,0.1,0,0.3,0,0.4L29.9,8v0.1
      c0.3,0,0.8,0.1,0.8-0.3c0-0.1-0.2-0.3-0.2-0.4c0-0.2,0.1-0.3,0.2-0.4c0.4,0.2,0.9,0.4,0.9,0.8c0,0.1,0,0.2-0.1,0.3h0.1
      C31.7,7.9,31.8,7.7,31.8,7.5"/>
  </g>
  <g>
    <path fill="#FFFFFF" d="M37.2,46.1c1.2,1.2,3.2,1.2,4.4,0s1.2-3.2,0-4.4s-3.2-1.2-4.4,0C36,42.9,36,44.9,37.2,46.1"/>
    <path fill="#FFFFFF" d="M30.3,53c1.2,1.2,3.2,1.2,4.4,0s1.2-3.2,0-4.4s-3.2-1.2-4.4,0C29.1,49.8,29.1,51.8,30.3,53"/>
    <path fill="#FFFFFF" d="M17.7,48.6c-1.2,1.2-1.2,3.2,0,4.4s3.2,1.2,4.4,0c1.2-1.2,1.2-3.2,0-4.4C21,47.3,19,47.3,17.7,48.6"/>
    <path fill="#FFFFFF" d="M10.9,41.7c-1.2,1.2-1.2,3.2,0,4.4s3.2,1.2,4.4,0s1.2-3.2,0-4.4C14.1,40.5,12.1,40.5,10.9,41.7"/>
  </g>
  <g>
    <path fill="#86B2D8" d="M17.7,26.7c1.2,1.2,3.2,1.2,4.4,0c1.2-1.2,1.2-3.2,0-4.4C21,21,19,21,17.7,22.2
      C16.5,23.5,16.5,25.5,17.7,26.7"/>
    <path fill="#86B2D8" d="M10.9,33.6c1.2,1.2,3.2,1.2,4.4,0s1.2-3.2,0-4.4c-1.2-1.2-3.2-1.2-4.4,0C9.6,30.4,9.6,32.3,10.9,33.6"/>
    <path fill="#86B2D8" d="M37.2,29.1c-1.2,1.2-1.2,3.2,0,4.4s3.2,1.2,4.4,0s1.2-3.2,0-4.4C40.4,27.9,38.4,27.9,37.2,29.1"/>
    <path fill="#86B2D8" d="M30.3,22.2c-1.2,1.2-1.2,3.2,0,4.4c1.2,1.2,3.2,1.2,4.4,0s1.2-3.2,0-4.4C33.5,21,31.5,21,30.3,22.2"/>
  </g>
  <polygon fill="#FFFFFF" points="37.7,37.3 26.2,25.8 14.8,37.3 	"/>
  <polygon fill="#86B2D8" points="14.8,37.9 26.2,49.4 37.7,37.9 	"/>
</g>
</svg>
