<svg aria-hidden="true" class="icon icon--instagram" xmlns="http://www.w3.org/2000/svg" width="20" height="20" viewBox="0 0 216 216"><path d="M144.2 209.8H72.1c-2.9-.2-5.8-.6-8.7-.7-31.9-1.6-52.4-20.6-56.1-52.2-.5-4.4-.8-8.7-1.2-13.1V71.7c.2-2.7.5-5.4.7-8.1 1-14.3 4.6-27.6 14.4-38.7C32.4 12.3 47 6.9 63.3 6.6c29.9-.5 59.8-.5 89.7 0 14.2.2 27.4 4.6 38.3 14.5 12.4 11.2 17.8 25.8 18 41.9.5 29.9.8 59.8 0 89.7-.9 31.9-20.4 52.2-51.9 56-4.4.4-8.8.7-13.2 1.1zm-35.8-19.1c14.4 0 28.8 0 43.1-.1 1.8 0 3.6-.3 5.4-.6 17.5-2.2 28.9-12.1 32.6-28.5 1-4.3 1.5-8.7 1.6-13.1.3-20.2.6-40.3.6-60.5 0-9.7-.3-19.5-1.3-29.2-1.9-18.2-12.6-29.9-30.6-32.7-10-1.6-20.3-1.8-30.5-1.8-21.3-.1-42.6-.1-63.9.6C40 25.7 26.5 39.5 25.3 65c-.4 7.2-.7 14.5-.6 21.7.1 21.3 0 42.6.7 63.9.9 25.3 14.6 39 39.9 40 14.4.5 28.8.1 43.1.1z"/><path d="M108.2 160.1c-29.1 0-52.4-23.3-52.4-52.5 0-28.9 23.4-52.2 52.3-52.3 29.1 0 52.4 23.3 52.4 52.5.1 29-23.3 52.3-52.3 52.3zm34-52.4c0-18.7-15.3-33.9-33.9-34-18.7 0-34 15.2-34.1 33.8-.1 18.8 15.3 34.2 34.1 34.1 18.7.1 33.9-15.2 33.9-33.9zm32.7-54.2c-.1 6.8-5.7 12.2-12.5 12.1-6.7-.1-12-5.6-12-12.3 0-6.8 5.5-12.3 12.4-12.2 6.8 0 12.2 5.5 12.1 12.4z"/></svg>