<?xml version="1.0" encoding="UTF-8"?>
<svg width="50px" height="50px" viewBox="0 0 50 50" version="1.1" xmlns="http://www.w3.org/2000/svg" xmlns:xlink="http://www.w3.org/1999/xlink">
    <title>37283ABC-4D4F-4C58-AF28-F2601B68DCC5@3x</title>
    <g id="Home" stroke="none" stroke-width="1" fill="none" fill-rule="evenodd">
        <g id="Rain-Generic-Desktop" transform="translate(-1839.000000, -39.000000)" stroke="#FFFFFF">
            <g id="Group-2" transform="translate(1840.000000, 40.000000)">
                <circle id="Oval-Copy" cx="24" cy="24" r="24"></circle>
                <path d="M16.0821451,21.7830707 C16.0821451,24.9339529 18.6364397,27.4882475 21.7873218,27.4882475 C24.938204,27.4882475 27.4924986,24.9339529 27.4924986,21.7830707 C27.4924986,18.6321886 24.938204,16.077894 21.7873218,16.077894 C18.6364397,16.077894 16.0821451,18.6321886 16.0821451,21.7830707 Z" id="Path" stroke-width="2" stroke-linecap="round" stroke-linejoin="round"></path>
                <path d="M29.9926564,27.1070922 L36.2690138,33.3812399 C37.0649714,34.1775027 37.0647241,35.4682525 36.2684613,36.2642102 C35.4721985,37.0601679 34.1814488,37.0599206 33.385491,36.2636579 L27.1102385,29.9884053 L27.1102385,29.9884053 C22.9110771,32.7146406 17.3312974,31.8306384 14.1804532,27.9399449 C11.0296091,24.0492514 11.3246359,18.4075884 14.8641064,14.8667603 C18.4035768,11.3259321 24.0451262,11.0287417 27.9370279,14.1780935 C31.8289295,17.3274453 32.7150715,22.9068856 29.9904468,27.1070922 L29.9926564,27.1070922 Z" id="Path" stroke-width="2" stroke-linejoin="round"></path>
            </g>
        </g>
    </g>
</svg>
