<svg height="368pt" class="icon icon--instagram" viewBox="0 0 368 368" width="368pt" xmlns="http://www.w3.org/2000/svg"><path d="m328 0h-288c-22.054688 0-40 17.945312-40 40v288c0 22.054688 17.945312 40 40 40h288c22.054688 0 40-17.945312 40-40v-288c0-22.054688-17.945312-40-40-40zm24 40v56h-86.695312c-21.410157-19.792969-49.921876-32-81.304688-32-14.039062 0-27.464844 2.550781-40 7v-55h184c13.230469 0 24 10.769531 24 24zm-249.304688 56h-22.695312v-80h48v61.953125c-9.230469 4.894531-17.695312 11.007813-25.304688 18.046875zm81.304688-16c57.34375 0 104 46.65625 104 104s-46.65625 104-104 104-104-46.65625-104-104 46.65625-104 104-104zm-144-64h24v80h-48v-56c0-13.230469 10.769531-24 24-24zm288 336h-288c-13.230469 0-24-10.769531-24-24v-216h72.230469c-15.140625 20.078125-24.230469 44.96875-24.230469 72 0 66.167969 53.832031 120 120 120s120-53.832031 120-120c0-27.03125-9.089844-51.921875-24.230469-72h72.230469v216c0 13.230469-10.769531 24-24 24zm0 0"/><path d="m184 240c30.878906 0 56-25.121094 56-56s-25.121094-56-56-56-56 25.121094-56 56 25.121094 56 56 56zm0-96c22.054688 0 40 17.945312 40 40s-17.945312 40-40 40-40-17.945312-40-40 17.945312-40 40-40zm0 0"/></svg>
