<svg xmlns="http://www.w3.org/2000/svg" width="16" height="16"><path fill="#fff" d="M3.51 13.925a.501.501 0 00.706.001l3.432-3.431a.503.503 0 01.708 0l3.432 3.431a.502.502 0 00.707-.001l1.405-1.417a.51.51 0 00-.002-.709l-3.397-3.4a.509.509 0 01-.002-.708l3.401-3.43a.514.514 0 000-.709l-1.407-1.418a.501.501 0 00-.707-.001l-3.43 3.431a.503.503 0 01-.708 0L4.216 2.133a.5.5 0 00-.706.001L2.103 3.551a.506.506 0 000 .71L5.506 7.69a.504.504 0 01-.001.708l-3.4 3.399a.505.505 0 00-.001.709l1.406 1.419z"/></svg>