<svg xmlns="http://www.w3.org/2000/svg" width="16" height="16"><path fill="#FFF" d="M15.002 11.277V9.263c0-1.456-.824-2.25-2.25-2.25h-3.5a.25.25 0 01-.25-.25v-2.04a1.99 1.99 0 001-1.723A2 2 0 006 3c0 .738.405 1.376 1 1.722v2.042a.25.25 0 01-.25.25h-3.5C1.888 7.014 1 7.932 1 9.266v2.012c-.595.353-1 .984-1 1.729a2 2 0 004 0c0-.732-.405-1.377-1-1.729V9.266a.25.25 0 01.25-.25h3.536c.118.018.214.11.214.234v2.027c-.595.347-1 .983-1 1.723a2.001 2.001 0 004.002 0c0-.738-.404-1.376-1-1.723V9.25c0-.124.098-.216.215-.234h3.535a.25.25 0 01.25.25v2.012a2 2 0 00-1 1.729 2 2 0 004 0c0-.745-.404-1.384-1-1.73z"/></svg>