<svg xmlns="http://www.w3.org/2000/svg" viewBox="0 0 59.5 59.5"><path d="M55 18.3H41.2V9.1c0-2.5-2-4.6-4.6-4.6H27C26.1 1.8 23.6 0 20.6 0s-5.5 1.8-6.4 4.6H4.6C2 4.6 0 6.6 0 9.1v36.7c0 2.5 2 4.6 4.6 4.6h13.8V55c0 2.5 2 4.6 4.6 4.6h32c2.5 0 4.6-2 4.6-4.6V23c-.1-2.6-2.1-4.7-4.6-4.7zM20.6 4.6c1.4 0 2.3.9 2.3 2.3s-.9 2.3-2.3 2.3-2.3-.9-2.3-2.3.9-2.3 2.3-2.3zm-2.3 18.3v22.9H4.6V9.1h4.6V16H32V9.1h4.6v9.2H22.9c-2.5 0-4.6 2.1-4.6 4.6zm25.2 27.5h-16v-4.6h16v4.6zm6.8-9.2H27.5v-4.6h22.9c-.1.1-.1 4.6-.1 4.6zm0-9.1H27.5v-4.6h22.9c-.1 0-.1 4.6-.1 4.6z" fill="#00adef"/></svg>