<svg xmlns="http://www.w3.org/2000/svg" width="16" height="16"><path fill="#009FE3" d="M11.002 11v2.529c0 .275-.225.471-.5.471h-3c-.827 0-1.112-.754-.604-1.316l.81-.725a1.417 1.417 0 00-.097-2.01c-.383-.344-1.027-.728-2.111-.728s-1.727.386-2.109.731a1.423 1.423 0 00-.097 2.015l.808.717C4.611 13.246 4.325 14 3.5 14h-3c-.276 0-.5-.193-.5-.471V4.5A.5.5 0 01.5 4h3c.825 0 1.111-.768.602-1.332l-.808-.73a1.42 1.42 0 01.097-2.014C3.773-.42 4.416-.807 5.5-.807s1.728.387 2.111.731c.608.548.606 1.45.097 2.014l-.81.73C6.389 3.232 6.675 4 7.501 4h3c.274 0 .5.224.5.5V7c0 .825.642 1.111 1.233.602l.771-.808c.599-.51 1.547-.513 2.127.097.364.383.772 1.025.772 2.109s-.408 1.727-.771 2.109c-.58.604-1.529.604-2.127.097l-.77-.808c-.593-.509-1.234-.223-1.234.602z"/></svg>