<svg xmlns="http://www.w3.org/2000/svg" width="10px" height="25px" viewBox="0 0 10 25">
  <g>
    <path d="M9.23,6.4c-0.2,0-0.39-0.08-0.54-0.25L5,2.09L1.31,6.15c-0.3,0.33-0.79,0.33-1.09,0c-0.3-0.33-0.3-0.87,0-1.2l4.23-4.66
      c0.3-0.33,0.79-0.33,1.09,0l4.23,4.66c0.3,0.33,0.3,0.87,0,1.2C9.62,6.31,9.43,6.4,9.23,6.4z"/>
    <path d="M5,25.04c-0.2,0-0.39-0.08-0.54-0.25l-4.23-4.66c-0.3-0.33-0.3-0.87,0-1.2c0.3-0.33,0.79-0.33,1.09,0L5,23l3.69-4.06
      c0.3-0.33,0.79-0.33,1.09,0c0.3,0.33,0.3,0.87,0,1.2l-4.23,4.66C5.39,24.96,5.2,25.04,5,25.04z"/>
  </g>
  <g>
    <path d="M7.96,9.98H2.04c-0.23,0-0.42-0.21-0.42-0.47S1.8,9.05,2.04,9.05h5.92c0.23,0,0.42,0.21,0.42,0.47S8.2,9.98,7.96,9.98z"/>
    <path d="M7.96,16.04H2.04c-0.23,0-0.42-0.21-0.42-0.47c0-0.26,0.19-0.47,0.42-0.47h5.92c0.23,0,0.42,0.21,0.42,0.47
      C8.38,15.83,8.2,16.04,7.96,16.04z"/>
    <path d="M7.96,13.01H2.04c-0.23,0-0.42-0.21-0.42-0.47s0.19-0.47,0.42-0.47h5.92c0.23,0,0.42,0.21,0.42,0.47S8.2,13.01,7.96,13.01z"/>
  </g>
</svg>
