<?xml version="1.0" encoding="utf-8"?>
<!-- Generator: Adobe Illustrator 21.1.0, SVG Export Plug-In . SVG Version: 6.00 Build 0)  -->
<!DOCTYPE svg PUBLIC "-//W3C//DTD SVG 1.1//EN" "http://www.w3.org/Graphics/SVG/1.1/DTD/svg11.dtd">
<svg version="1.1" id="Ebene_1" xmlns="http://www.w3.org/2000/svg" xmlns:xlink="http://www.w3.org/1999/xlink" x="0px" y="0px"
	 viewBox="0 0 59.5 59.5" style="enable-background:new 0 0 59.5 59.5;" xml:space="preserve">
<style type="text/css">
	.st0{fill:#DAE0E2;}
</style>
<path class="st0" d="M55,18.3H41.2v-4.5V9.1c0-2.5-2-4.6-4.6-4.6H27C26.1,1.8,23.6,0,20.6,0s-5.5,1.8-6.4,4.6H4.6C2,4.6,0,6.6,0,9.1
	v36.7c0,2.5,2,4.6,4.6,4.6h13.8V55c0,2.5,2,4.6,4.6,4.6H55c2.5,0,4.6-2,4.6-4.6v-32C59.5,20.4,57.5,18.3,55,18.3z M20.6,4.6
	c1.4,0,2.3,0.9,2.3,2.3S22,9.2,20.6,9.2c-1.4,0-2.3-0.9-2.3-2.3S19.2,4.6,20.6,4.6z M18.3,22.9v22.9H4.6V9.1h4.6V16H32V9.1h4.6v4.6
	v4.6H22.9C20.4,18.3,18.3,20.4,18.3,22.9z M43.5,50.4H27.5v-4.6h16L43.5,50.4L43.5,50.4z M50.3,41.2H27.5v-4.6h22.9
	C50.3,36.7,50.3,41.2,50.3,41.2z M50.3,32.1H27.5v-4.6h22.9C50.3,27.5,50.3,32.1,50.3,32.1z"/>
</svg>
