<?xml version="1.0" encoding="UTF-8" standalone="no"?>
<svg width="27px" height="27px" viewBox="0 0 27 27" version="1.1" xmlns="http://www.w3.org/2000/svg" xmlns:xlink="http://www.w3.org/1999/xlink">
    <!-- Generator: Sketch 42 (36781) - http://www.bohemiancoding.com/sketch -->
    <title>Icons / Settings</title>
    <desc>Created with Sketch.</desc>
    <defs></defs>
    <g id="Thunder-Backend-UI-UX" stroke="none" stroke-width="1" fill="none" fill-rule="evenodd">
        <g id="07-Tablet-Menu-768px-AdvanceTray-open" transform="translate(-731.000000, -45.000000)" fill="#FFFFFF">
            <g id="Icons-/-Settings" transform="translate(731.000000, 45.000000)">
                <path d="M3.2784956,14.6652892 L1.63291701,12.994443 C1.24690647,12.6025054 1.21530412,11.9373746 1.56089909,11.5106003 L2.60132477,10.2257816 C2.94756091,9.79821558 3.60813024,9.6879005 4.07522768,9.97844052 L5.94176605,11.139449 C6.49839527,10.7408879 7.11200015,10.4198026 7.76760272,10.1915045 L8.01598687,7.98978091 C8.07765535,7.44314001 8.57467106,7 9.12382689,7 L10.7770797,7 C11.3272543,7 11.828695,7.44393526 11.8968569,7.98978091 L12.1591904,10.0905659 C12.8692037,10.3015947 13.5344986,10.6200254 14.1371271,11.0275101 L15.8629344,9.92535978 C16.3265634,9.62927292 16.9837299,9.73664962 17.3293249,10.1634239 L18.3697506,11.4482426 C18.7159867,11.8758086 18.6865511,12.5448787 18.305245,12.9413623 L16.8722597,14.4313863 C17.1566293,15.1429086 17.3365112,15.9094102 17.3924099,16.7109616 L19.3214938,17.3916818 C19.8402519,17.5747372 20.1602301,18.1586992 20.0366969,18.6937802 L19.664796,20.3046602 C19.5410336,20.840734 18.9956767,21.229459 18.448488,21.1730854 L16.4408846,20.966254 C16.0639851,21.6345216 15.5885924,22.2374152 15.0349779,22.7542118 L15.7332503,24.7191512 C15.9174546,25.2375024 15.6649996,25.8536714 15.1714217,26.0944055 L13.6854879,26.8191438 C13.1909942,27.0603245 12.5456939,26.8811352 12.2451474,26.4204126 L11.0823734,24.637939 C10.7674323,24.6803973 10.4461546,24.7023068 10.1198711,24.7023068 C9.7276294,24.7023068 9.34262186,24.670644 8.96716078,24.6096823 L7.7973882,26.4503543 C7.50232934,26.9146382 6.86135479,27.0950525 6.36777679,26.8543184 L4.88184304,26.1295801 C4.38734932,25.8883994 4.13126584,25.2695759 4.30928528,24.7490929 L5.04436668,22.599904 C4.56260494,22.1222916 4.14513506,21.5772931 3.80650493,20.9797806 L1.54802264,21.239637 C1.00151972,21.3025165 0.457933152,20.9179241 0.334399968,20.3828431 L-0.0375009872,18.7719631 C-0.16126336,18.2358894 0.15849426,17.6474369 0.675016823,17.4582334 L2.85096679,16.6611775 C2.9040984,15.964619 3.05089609,15.2949393 3.2784956,14.6652892 Z M10.0254316,21.9072057 C12.5422012,21.9072057 14.582446,19.8215234 14.582446,17.2487039 C14.582446,14.6758844 12.5422012,12.5902021 10.0254316,12.5902021 C7.5086621,12.5902021 5.46841726,14.6758844 5.46841726,17.2487039 C5.46841726,19.8215234 7.5086621,21.9072057 10.0254316,21.9072057 Z" id="Combined-Shape"></path>
                <path d="M18.6392478,3.83264462 L18.1722338,3.35845972 C17.7827393,2.96298453 17.7446794,2.29947256 18.0942576,1.86777947 L17.9868543,2.0004115 C18.3332838,1.57260671 18.9924804,1.46114675 19.468752,1.75739318 L19.970883,2.06972452 C20.2491976,1.87044395 20.5560001,1.70990128 20.8838014,1.59575224 L20.9511553,0.998714389 C21.0133804,0.447139662 21.5050742,0 22.0605594,0 L21.8898939,0 C22.4403758,0 22.9418423,0.442147964 23.011343,0.998714389 L23.0795952,1.54528296 C23.4346018,1.65079737 23.7672493,1.81001269 24.0685635,2.01375505 L24.504153,1.73557503 C24.9719666,1.43681577 25.6288924,1.53753953 25.9784705,1.96923262 L25.8710672,1.8366006 C26.2174967,2.26440538 26.1894663,2.9323708 25.8006712,3.33664158 L25.4361298,3.71569314 C25.5783147,4.0714543 25.6682556,4.45470509 25.696205,4.85548079 L26.1826217,5.02712379 C26.706062,5.21183136 27.0311345,5.79150763 26.9061775,6.3327558 L26.9445689,6.16646441 C26.8207374,6.70283749 26.2771163,7.09198983 25.7191803,7.03450901 L25.2204423,6.98312699 C25.0319926,7.31726079 24.7942962,7.61870758 24.517489,7.87710591 L24.696849,8.38182544 C24.882716,8.90485519 24.6367976,9.52228604 24.1375308,9.76579473 L24.290924,9.69097989 C23.7961541,9.93229527 23.1516141,9.75472377 22.8451646,9.28495228 L22.5411867,8.81896952 C22.3837162,8.84019865 22.2230773,8.85115338 22.0599355,8.85115338 C21.8638147,8.85115338 21.6713109,8.835322 21.4835804,8.80484116 L21.1706418,9.29725942 C20.8729198,9.76573382 20.2349752,9.95207591 19.7357084,9.70856721 L19.8891015,9.78338206 C19.3943317,9.54206668 19.1374415,8.92483826 19.3189573,8.39413258 L19.5221833,7.799952 C19.2813025,7.56114578 19.0725675,7.28864656 18.9032525,6.98989028 L18.2777081,7.06186416 C17.7262726,7.12531122 17.179986,6.74680402 17.055029,6.20555586 L17.0934204,6.37184724 C16.969589,5.83547416 17.2875993,5.24739853 17.8142667,5.05447894 L18.4254834,4.83058874 C18.4520492,4.48230949 18.525448,4.14746966 18.6392478,3.83264462 Z M22.0127158,7.45360285 C23.2711006,7.45360285 24.291223,6.4107617 24.291223,5.12435196 C24.291223,3.83794221 23.2711006,2.79510107 22.0127158,2.79510107 C20.754331,2.79510107 19.7342086,3.83794221 19.7342086,5.12435196 C19.7342086,6.4107617 20.754331,7.45360285 22.0127158,7.45360285 Z" id="Combined-Shape-Copy"></path>
            </g>
        </g>
    </g>
</svg>