<?xml version="1.0" encoding="UTF-8" standalone="no"?><svg xmlns="http://www.w3.org/2000/svg" xmlns:xlink="http://www.w3.org/1999/xlink"><symbol id="barchart--primary-blue-intense" xmlns="http://www.w3.org/2000/svg" width="16" height="16"><path fill="#009FE3" d="M4 13.529c0 .275-.225.5-.5.5h-3a.501.501 0 0 1-.5-.5v-4.25c0-.274.225-.5.5-.5h3c.275 0 .5.226.5.5v4.25zm6.002 0c0 .275-.225.5-.5.5H6.5a.501.501 0 0 1-.5-.5v-13c0-.275.225-.5.5-.5h3.002c.275 0 .5.225.5.5v13zm6 0c0 .275-.225.5-.5.5h-3a.501.501 0 0 1-.5-.5v-9.5c0-.275.225-.5.5-.5h3c.275 0 .5.225.5.5v9.5z"></path></symbol><symbol id="caret-down" xmlns="http://www.w3.org/2000/svg" width="16" height="16"><path fill="#333" d="M3.8 5.4c-.165-.22-.075-.4.2-.4h8.002c.275 0 .365.18.199.4l-3.898 5.2c-.166.221-.436.221-.6 0L3.8 5.4z"></path></symbol><symbol id="chevron-disc-left--gray-light" xmlns="http://www.w3.org/2000/svg" width="16" height="16"><path fill="#BFBFBF" d="M8.002 1a7 7 0 1 0 0 14 7 7 0 1 0 0-14zm2.348 10.482l-.977.977a.504.504 0 0 1-.707 0L4.558 8.354a.503.503 0 0 1 0-.708l4.108-4.105a.502.502 0 0 1 .707 0l.979.977a.508.508 0 0 1 0 .707L7.93 7.646a.502.502 0 0 0 0 .708l2.419 2.421a.5.5 0 0 1 .001.707z"></path></symbol><symbol id="barchart--white" xmlns="http://www.w3.org/2000/svg" width="16" height="16"><path fill="#FFF" d="M4 13.529c0 .275-.225.5-.5.5h-3a.501.501 0 0 1-.5-.5v-4.25c0-.274.225-.5.5-.5h3c.275 0 .5.226.5.5v4.25zm6.002 0c0 .275-.225.5-.5.5H6.5a.501.501 0 0 1-.5-.5v-13c0-.275.225-.5.5-.5h3.002c.275 0 .5.225.5.5v13zm6 0c0 .275-.225.5-.5.5h-3a.501.501 0 0 1-.5-.5v-9.5c0-.275.225-.5.5-.5h3c.275 0 .5.225.5.5v9.5z"></path></symbol><symbol id="chevron-disc-down--white" xmlns="http://www.w3.org/2000/svg" width="16" height="16"><path fill="#FFF" d="M8.002 1a7 7 0 1 0 0 14 7 7 0 0 0 0-14zm4.459 6.336l-4.105 4.105a.513.513 0 0 1-.708 0L3.541 7.336a.502.502 0 0 1 0-.707l.977-.978a.502.502 0 0 1 .707 0l2.422 2.421a.502.502 0 0 0 .708 0l2.422-2.42a.502.502 0 0 1 .707 0l.977.977a.504.504 0 0 1 0 .707z"></path></symbol><symbol id="chevron-disc-right--white" xmlns="http://www.w3.org/2000/svg" width="16" height="16"><path fill="#FFF" d="M8.002 1A7.001 7.001 0 1 0 8 15.002 7.001 7.001 0 0 0 8.002 1zm3.441 7.357l-4.106 4.104a.509.509 0 0 1-.708 0l-.978-.979a.502.502 0 0 1 0-.707l2.423-2.421a.502.502 0 0 0 0-.708L5.652 5.225a.502.502 0 0 1 0-.707l.977-.977a.503.503 0 0 1 .708 0l4.106 4.108a.509.509 0 0 1 0 .708z"></path></symbol><symbol id="chevron-disc-up--primary-blue-intense" xmlns="http://www.w3.org/2000/svg" width="16" height="16"><path fill="#009FE3" d="M8.002 1A7.001 7.001 0 1 0 8 15.002 7.001 7.001 0 0 0 8.002 1zm4.462 8.37l-.979.979a.51.51 0 0 1-.707 0L8.356 7.93a.503.503 0 0 0-.708 0l-2.423 2.417a.504.504 0 0 1-.707 0l-.977-.976a.502.502 0 0 1 0-.707l4.106-4.106a.503.503 0 0 1 .708 0l4.109 4.105a.51.51 0 0 1 0 .707z"></path></symbol><symbol id="chevron-disc-right--gray-light" xmlns="http://www.w3.org/2000/svg" width="16" height="16"><path fill="#BFBFBF" d="M8.002 1A7.001 7.001 0 1 0 8 15.002 7.001 7.001 0 0 0 8.002 1zm3.441 7.357l-4.106 4.104a.509.509 0 0 1-.708 0l-.978-.979a.502.502 0 0 1 0-.707l2.423-2.421a.502.502 0 0 0 0-.708L5.652 5.225a.502.502 0 0 1 0-.707l.977-.977a.503.503 0 0 1 .708 0l4.106 4.108a.509.509 0 0 1 0 .708z"></path></symbol><symbol id="chevron-left--white" xmlns="http://www.w3.org/2000/svg" width="16" height="16"><path fill="#FFF" d="M7.951 7.645a.508.508 0 0 0 0 .71l3.258 3.29a.506.506 0 0 1-.002.709l-1.371 1.371a.507.507 0 0 1-.707 0L3.794 8.354a.503.503 0 0 1 0-.708l5.335-5.369a.501.501 0 0 1 .707-.001l1.371 1.371a.506.506 0 0 1 .002.709L7.951 7.645z"></path></symbol><symbol id="chevron-right--white" xmlns="http://www.w3.org/2000/svg" width="16" height="16"><path fill="#FFF" d="M8.053 8.355a.509.509 0 0 0 0-.711l-3.26-3.289a.506.506 0 0 1 .002-.709l1.371-1.371a.501.501 0 0 1 .706.001l5.335 5.369a.502.502 0 0 1 0 .708l-5.335 5.37a.506.506 0 0 1-.706.002l-1.371-1.371a.506.506 0 0 1-.002-.709l3.26-3.29z"></path></symbol><symbol id="chevron-left" xmlns="http://www.w3.org/2000/svg" width="16" height="16"><path fill="#0074bd" d="M7.951 7.645a.508.508 0 0 0 0 .71l3.258 3.29a.506.506 0 0 1-.002.709l-1.371 1.371a.507.507 0 0 1-.707 0L3.794 8.354a.503.503 0 0 1 0-.708l5.335-5.369a.501.501 0 0 1 .707-.001l1.371 1.371a.506.506 0 0 1 .002.709L7.951 7.645z"></path></symbol><symbol id="chevron-right" xmlns="http://www.w3.org/2000/svg" width="16" height="16"><path fill="#0074bd" d="M8.053 8.355a.509.509 0 0 0 0-.711l-3.26-3.289a.506.506 0 0 1 .002-.709l1.371-1.371a.501.501 0 0 1 .706.001l5.335 5.369a.502.502 0 0 1 0 .708l-5.335 5.37a.506.506 0 0 1-.706.002l-1.371-1.371a.506.506 0 0 1-.002-.709l3.26-3.29z"></path></symbol><symbol id="error" xmlns="http://www.w3.org/2000/svg" width="16" height="16" fill="#e32700"><path d="M8.002 1a7 7 0 1 0 0 14 7 7 0 0 0 0-14zm4.025 9.284c.062.063.1.149.1.239a.34.34 0 0 1-.1.24l-1.262 1.262a.34.34 0 0 1-.48 0L8.002 9.742l-2.286 2.283a.34.34 0 0 1-.48 0l-1.261-1.262a.336.336 0 0 1 0-.478L6.258 8 3.975 5.716a.34.34 0 0 1 0-.48l1.262-1.262a.34.34 0 0 1 .48 0l2.285 2.284 2.283-2.284a.34.34 0 0 1 .48 0l1.262 1.262c.062.063.1.149.1.24a.345.345 0 0 1-.1.24L9.744 8l2.283 2.284z"></path></symbol><symbol id="ex" xmlns="http://www.w3.org/2000/svg" width="16" height="16"><path fill="#fff" d="M3.51 13.925a.501.501 0 0 0 .706.001l3.432-3.431a.503.503 0 0 1 .708 0l3.432 3.431a.502.502 0 0 0 .707-.001l1.405-1.417a.51.51 0 0 0-.002-.709l-3.397-3.4a.509.509 0 0 1-.002-.708l3.401-3.43a.514.514 0 0 0 0-.709l-1.407-1.418a.501.501 0 0 0-.707-.001l-3.43 3.431a.503.503 0 0 1-.708 0L4.216 2.133a.5.5 0 0 0-.706.001L2.103 3.551a.506.506 0 0 0 0 .71L5.506 7.69a.504.504 0 0 1-.001.708l-3.4 3.399a.505.505 0 0 0-.001.709l1.406 1.419z"></path></symbol><symbol id="field_help" height="24" width="24" xmlns="http://www.w3.org/2000/svg"><path d="M0 0h24v24H0z" fill="none"></path><path d="M12 2C6.48 2 2 6.48 2 12s4.48 10 10 10 10-4.48 10-10S17.52 2 12 2zm1 17h-2v-2h2v2zm2.07-7.75l-.9.92C13.45 12.9 13 13.5 13 15h-2v-.5c0-1.1.45-2.1 1.17-2.83l1.24-1.26c.37-.36.59-.86.59-1.41 0-1.1-.9-2-2-2s-2 .9-2 2H8c0-2.21 1.79-4 4-4s4 1.79 4 4c0 .88-.36 1.68-.93 2.25z"></path></symbol><symbol id="file--primary-blue-intense" xmlns="http://www.w3.org/2000/svg" width="16" height="16"><path fill="#009FE3" d="M12.502 7h-5A.503.503 0 0 1 7 6.5v-5c0-.275-.225-.5-.5-.5h-3c-.275 0-.5.225-.5.5v12.029c0 .275.225.5.5.5h9.002c.275 0 .5-.225.5-.5V7.5c0-.275-.225-.5-.5-.5zm-4-1h4c.275 0 .34-.159.146-.354L8.355 1.354c-.195-.195-.353-.129-.353.146v4c0 .275.225.5.5.5z"></path></symbol><symbol id="file--white" xmlns="http://www.w3.org/2000/svg" width="16" height="16"><path fill="#FFF" d="M12.502 7h-5A.503.503 0 0 1 7 6.5v-5c0-.275-.225-.5-.5-.5h-3c-.275 0-.5.225-.5.5v12.029c0 .275.225.5.5.5h9.002c.275 0 .5-.225.5-.5V7.5c0-.275-.225-.5-.5-.5zm-4-1h4c.275 0 .34-.159.146-.354L8.355 1.354c-.195-.195-.353-.129-.353.146v4c0 .275.225.5.5.5z"></path></symbol><symbol id="hamburger--gray-light" xmlns="http://www.w3.org/2000/svg" width="16" height="16"><path fill="#BFBFBF" d="M14.752 6H1.25C.56 6 0 6.56 0 7.25v.5C0 8.439.56 9 1.25 9h13.502c.689 0 1.25-.561 1.25-1.25v-.5c0-.69-.561-1.25-1.25-1.25zm0-6H1.25C.56 0 0 .56 0 1.25v.5C0 2.44.56 3 1.25 3h13.502c.689 0 1.25-.56 1.25-1.25v-.5c0-.69-.561-1.25-1.25-1.25zm0 12H1.25C.56 12 0 12.561 0 13.25v.5C0 14.439.56 15 1.25 15h13.502c.689 0 1.25-.561 1.25-1.25v-.5c0-.689-.561-1.25-1.25-1.25z"></path></symbol><symbol id="hamburger--white" xmlns="http://www.w3.org/2000/svg" width="16" height="16"><path fill="#fff" d="M14.752 6H1.25C.56 6 0 6.56 0 7.25v.5C0 8.439.56 9 1.25 9h13.502c.689 0 1.25-.561 1.25-1.25v-.5c0-.69-.561-1.25-1.25-1.25zm0-6H1.25C.56 0 0 .56 0 1.25v.5C0 2.44.56 3 1.25 3h13.502c.689 0 1.25-.56 1.25-1.25v-.5c0-.69-.561-1.25-1.25-1.25zm0 12H1.25C.56 12 0 12.561 0 13.25v.5C0 14.439.56 15 1.25 15h13.502c.689 0 1.25-.561 1.25-1.25v-.5c0-.689-.561-1.25-1.25-1.25z"></path></symbol><symbol id="line-dashed-left-color" xmlns="http://www.w3.org/2000/svg" viewBox="0 0 10 2"><path d="M6 2H0V0h6v2z" fill="#00adef"></path></symbol><symbol id="line-dashed-right" xmlns="http://www.w3.org/2000/svg" viewBox="0 0 10 2"><path d="M10 2H4V0h6v2z" fill="#dae0e3"></path></symbol><symbol id="line-dashed-left" xmlns="http://www.w3.org/2000/svg" viewBox="0 0 10 2"><path d="M6 2H0V0h6v2z" fill="#dae0e3"></path></symbol><symbol id="orgchart--primary-blue-intense" xmlns="http://www.w3.org/2000/svg" width="16" height="16"><path fill="#009fe3" d="M15.002 11.277V9.263c0-1.456-.824-2.25-2.25-2.25h-3.5a.25.25 0 0 1-.25-.25v-2.04a1.99 1.99 0 0 0 1-1.723A2 2 0 0 0 6 3c0 .738.405 1.376 1 1.722v2.042a.25.25 0 0 1-.25.25h-3.5C1.888 7.014 1 7.932 1 9.266v2.012c-.595.353-1 .984-1 1.729a2 2 0 0 0 4 0c0-.732-.405-1.377-1-1.729V9.266a.25.25 0 0 1 .25-.25h3.536c.118.018.214.11.214.234v2.027c-.595.347-1 .983-1 1.723a2.001 2.001 0 0 0 4.002 0c0-.738-.404-1.376-1-1.723V9.25c0-.124.098-.216.215-.234h3.535a.25.25 0 0 1 .25.25v2.012a2 2 0 0 0-1 1.729 2 2 0 0 0 4 0c0-.745-.404-1.384-1-1.73z"></path></symbol><symbol id="line-dashed-right-color" xmlns="http://www.w3.org/2000/svg" viewBox="0 0 10 2"><path d="M10 2H4V0h6v2z" fill="#00adef"></path></symbol><symbol id="move" width="22" height="11" xmlns="http://www.w3.org/2000/svg"><path d="M0 1.454h22m-22 8h22m-19-4h16" stroke-width="2" stroke="#BFBFBF" fill="none"></path></symbol><symbol id="paintbrush--primary-blue-intense" xmlns="http://www.w3.org/2000/svg" width="16" height="16"><path fill="#009FE3" d="M8.184 7.928L6.279 9.911 2.741 7.475l4.714-4.713 2.623 3.183-1.894 1.983zM6.438.405c-.236-.416-.803-.649-1.346.083C4.833.837.365 5.252.182 5.471c-.182.218-.294.721.044.976.34.258 5.611 3.933 5.611 3.933l-.225.229c.7.729.816.854 1.046.863.75.016 2.035-1.457 2.578-.854.541.604 3.537 3.979 3.537 3.979.51.531 1.305.559 1.815.041.521-.521.541-1.311.025-1.848 0 0-2.742-2.635-3.904-3.619-.578-.479.869-2.051.854-2.839-.008-.238-.125-.361-.823-1.095l-.22.243c0 .003-3.846-4.659-4.082-5.075z"></path></symbol><symbol id="paintbrush--white" xmlns="http://www.w3.org/2000/svg" width="16" height="16"><path fill="#FFF" d="M8.184 7.928L6.279 9.911 2.741 7.475l4.714-4.713 2.623 3.183-1.894 1.983zM6.438.405c-.236-.416-.803-.649-1.346.083C4.833.837.365 5.252.182 5.471c-.182.218-.294.721.044.976.34.258 5.611 3.933 5.611 3.933l-.225.229c.7.729.816.854 1.046.863.75.016 2.035-1.457 2.578-.854.541.604 3.537 3.979 3.537 3.979.51.531 1.305.559 1.815.041.521-.521.541-1.311.025-1.848 0 0-2.742-2.635-3.904-3.619-.578-.479.869-2.051.854-2.839-.008-.238-.125-.361-.823-1.095l-.22.243c0 .003-3.846-4.659-4.082-5.075z"></path></symbol><symbol id="paste-color" xmlns="http://www.w3.org/2000/svg" viewBox="0 0 59.5 59.5"><path d="M55 18.3H41.2V9.1c0-2.5-2-4.6-4.6-4.6H27C26.1 1.8 23.6 0 20.6 0s-5.5 1.8-6.4 4.6H4.6C2 4.6 0 6.6 0 9.1v36.7c0 2.5 2 4.6 4.6 4.6h13.8V55c0 2.5 2 4.6 4.6 4.6h32c2.5 0 4.6-2 4.6-4.6V23c-.1-2.6-2.1-4.7-4.6-4.7zM20.6 4.6c1.4 0 2.3.9 2.3 2.3s-.9 2.3-2.3 2.3-2.3-.9-2.3-2.3.9-2.3 2.3-2.3zm-2.3 18.3v22.9H4.6V9.1h4.6V16H32V9.1h4.6v9.2H22.9c-2.5 0-4.6 2.1-4.6 4.6zm25.2 27.5h-16v-4.6h16v4.6zm6.8-9.2H27.5v-4.6h22.9c-.1.1-.1 4.6-.1 4.6zm0-9.1H27.5v-4.6h22.9c-.1 0-.1 4.6-.1 4.6z" fill="#00adef"></path></symbol><symbol id="push-left--white" xmlns="http://www.w3.org/2000/svg" width="16" height="16"><path fill="#FFF" d="M2.5 2H.009v12.029H2.5a.5.5 0 0 0 .5-.5V2.5a.5.5 0 0 0-.5-.5zm12.002 4.029h-4a.501.501 0 0 1-.5-.5v-1c0-.275-.16-.341-.354-.146L6.354 7.675a.503.503 0 0 0 0 .708l3.294 3.293c.188.193.354.129.354-.146v-1c0-.271.227-.5.5-.5h4c.275 0 .5-.225.5-.5v-3a.502.502 0 0 0-.5-.501z"></path></symbol><symbol id="people--white" xmlns="http://www.w3.org/2000/svg" width="16" height="16"><path fill="#FFF" d="M6.722 11.291l.451-.17-.165-.32c-.536-1.039-.685-1.934-.761-2.672-.082-.808-.144-2.831 1.053-4.189.244-.278.493-.493.743-.675.012-.826-.135-1.766-.646-2.345-.618-.7-1.4-.787-1.4-.787L5.5.078l-.498.055S4.219.22 3.604.92c-.617.702-.717 1.948-.625 2.855.06.583.17 1.263.574 2.05.274.533.341.617.355 1.01.022.595.027 1.153-.671 1.538-.697.383-1.564.508-2.403 1.088-.596.41-.709 1.033-.78 1.459l-.051.41a.443.443 0 0 0 .448.498h5.012c.457-.24.89-.402 1.259-.537zm-1.658 3.805c.07-.427.184-1.05.78-1.46.838-.581 1.708-.706 2.404-1.089.699-.385.693-.943.672-1.537-.014-.393-.08-.477-.354-1.01-.406-.787-.515-1.467-.576-2.049-.093-.909.008-2.155.625-2.856.615-.7 1.398-.787 1.398-.787l.492-.055h.002l.496.055s.781.087 1.396.787c.615.701.72 1.947.623 2.855-.062.583-.172 1.262-.571 2.049-.271.533-.341.617-.354 1.01-.021.595-.062 1.22.637 1.604.697.385 1.604.527 2.438 1.104.923.641.822 1.783.822 1.783a.557.557 0 0 1-.542.5H5.461a.441.441 0 0 1-.448-.496l.051-.408z"></path></symbol><symbol id="people--primary-blue-intense" xmlns="http://www.w3.org/2000/svg" width="16" height="16"><path fill="#009FE3" d="M6.722 11.291l.451-.17-.165-.32c-.536-1.039-.685-1.934-.761-2.672-.082-.808-.144-2.831 1.053-4.189.244-.278.493-.493.743-.675.012-.826-.135-1.766-.646-2.345-.618-.7-1.4-.787-1.4-.787L5.5.078l-.498.055S4.219.22 3.604.92c-.617.702-.717 1.948-.625 2.855.06.583.17 1.263.574 2.05.274.533.341.617.355 1.01.022.595.027 1.153-.671 1.538-.697.383-1.564.508-2.403 1.088-.596.41-.709 1.033-.78 1.459l-.051.41a.443.443 0 0 0 .448.498h5.012c.457-.24.89-.402 1.259-.537zm-1.658 3.805c.07-.427.184-1.05.78-1.46.838-.581 1.708-.706 2.404-1.089.699-.385.693-.943.672-1.537-.014-.393-.08-.477-.354-1.01-.406-.787-.515-1.467-.576-2.049-.093-.909.008-2.155.625-2.856.615-.7 1.398-.787 1.398-.787l.492-.055h.002l.496.055s.781.087 1.396.787c.615.701.72 1.947.623 2.855-.062.583-.172 1.262-.571 2.049-.271.533-.341.617-.354 1.01-.021.595-.062 1.22.637 1.604.697.385 1.604.527 2.438 1.104.923.641.822 1.783.822 1.783a.557.557 0 0 1-.542.5H5.461a.441.441 0 0 1-.448-.496l.051-.408z"></path></symbol><symbol id="orgchart--white" xmlns="http://www.w3.org/2000/svg" width="16" height="16"><path fill="#FFF" d="M15.002 11.277V9.263c0-1.456-.824-2.25-2.25-2.25h-3.5a.25.25 0 0 1-.25-.25v-2.04a1.99 1.99 0 0 0 1-1.723A2 2 0 0 0 6 3c0 .738.405 1.376 1 1.722v2.042a.25.25 0 0 1-.25.25h-3.5C1.888 7.014 1 7.932 1 9.266v2.012c-.595.353-1 .984-1 1.729a2 2 0 0 0 4 0c0-.732-.405-1.377-1-1.729V9.266a.25.25 0 0 1 .25-.25h3.536c.118.018.214.11.214.234v2.027c-.595.347-1 .983-1 1.723a2.001 2.001 0 0 0 4.002 0c0-.738-.404-1.376-1-1.723V9.25c0-.124.098-.216.215-.234h3.535a.25.25 0 0 1 .25.25v2.012a2 2 0 0 0-1 1.729 2 2 0 0 0 4 0c0-.745-.404-1.384-1-1.73z"></path></symbol><symbol id="push-right--white" xmlns="http://www.w3.org/2000/svg" width="16" height="16"><path fill="#FFF" d="M13.51 2a.5.5 0 0 0-.5.5v11.029c0 .275.225.5.5.5h2.492V2H13.51zM6.362 4.382c-.194-.194-.353-.128-.353.147v1c0 .275-.225.5-.5.5h-4c-.275 0-.5.225-.5.5v3c0 .271.225.5.5.5h4c.275 0 .5.225.5.5v1c0 .271.159.34.354.146l3.295-3.293a.505.505 0 0 0 0-.708L6.362 4.382z"></path></symbol><symbol id="paste" xmlns="http://www.w3.org/2000/svg" viewBox="0 0 59.5 59.5"><path d="M55 18.3H41.2V9.1c0-2.5-2-4.6-4.6-4.6H27C26.1 1.8 23.6 0 20.6 0s-5.5 1.8-6.4 4.6H4.6C2 4.6 0 6.6 0 9.1v36.7c0 2.5 2 4.6 4.6 4.6h13.8V55c0 2.5 2 4.6 4.6 4.6h32c2.5 0 4.6-2 4.6-4.6V23c-.1-2.6-2.1-4.7-4.6-4.7zM20.6 4.6c1.4 0 2.3.9 2.3 2.3s-.9 2.3-2.3 2.3-2.3-.9-2.3-2.3.9-2.3 2.3-2.3zm-2.3 18.3v22.9H4.6V9.1h4.6V16H32V9.1h4.6v9.2H22.9c-2.5 0-4.6 2.1-4.6 4.6zm25.2 27.5h-16v-4.6h16v4.6zm6.8-9.2H27.5v-4.6h22.9c-.1.1-.1 4.6-.1 4.6zm0-9.1H27.5v-4.6h22.9c-.1 0-.1 4.6-.1 4.6z" fill="#dae0e2"></path></symbol><symbol id="push-up--white" xmlns="http://www.w3.org/2000/svg" width="16" height="16"><path fill="#FFF" d="M1.986.019V2.51a.5.5 0 0 0 .5.5h11.032a.5.5 0 0 0 .5-.5V.019H1.986zm6.356 6.315a.503.503 0 0 0-.708 0L4.34 9.627c-.194.195-.129.353.146.353h1c.275 0 .5.227.5.5v4.02c0 .275.225.5.5.5h3.002c.271 0 .5-.225.5-.5v-4.02c0-.274.225-.5.5-.5h1c.271 0 .34-.158.145-.354L8.342 6.334z"></path></symbol><symbol id="puzzlepiece--primary-blue-intense" xmlns="http://www.w3.org/2000/svg" width="16" height="16"><path fill="#009FE3" d="M11.002 11v2.529c0 .275-.225.471-.5.471h-3c-.827 0-1.112-.754-.604-1.316l.81-.725a1.417 1.417 0 0 0-.097-2.01c-.383-.344-1.027-.728-2.111-.728s-1.727.386-2.109.731a1.423 1.423 0 0 0-.097 2.015l.808.717C4.611 13.246 4.325 14 3.5 14h-3c-.276 0-.5-.193-.5-.471V4.5A.5.5 0 0 1 .5 4h3c.825 0 1.111-.768.602-1.332l-.808-.73a1.42 1.42 0 0 1 .097-2.014C3.773-.42 4.416-.807 5.5-.807s1.728.387 2.111.731c.608.548.606 1.45.097 2.014l-.81.73C6.389 3.232 6.675 4 7.501 4h3c.274 0 .5.224.5.5V7c0 .825.642 1.111 1.233.602l.771-.808c.599-.51 1.547-.513 2.127.097.364.383.772 1.025.772 2.109s-.408 1.727-.771 2.109c-.58.604-1.529.604-2.127.097l-.77-.808c-.593-.509-1.234-.223-1.234.602z"></path></symbol><symbol id="puzzlepiece--white" xmlns="http://www.w3.org/2000/svg" width="16" height="16"><path fill="#FFF" d="M11.002 11v2.529c0 .275-.225.471-.5.471h-3c-.827 0-1.112-.754-.604-1.316l.81-.725a1.417 1.417 0 0 0-.097-2.01c-.383-.344-1.027-.728-2.111-.728s-1.727.386-2.109.731a1.423 1.423 0 0 0-.097 2.015l.808.717C4.611 13.246 4.325 14 3.5 14h-3c-.276 0-.5-.193-.5-.471V4.5A.5.5 0 0 1 .5 4h3c.825 0 1.111-.768.602-1.332l-.808-.73a1.42 1.42 0 0 1 .097-2.014C3.773-.42 4.416-.807 5.5-.807s1.728.387 2.111.731c.608.548.606 1.45.097 2.014l-.81.73C6.389 3.232 6.675 4 7.501 4h3c.274 0 .5.224.5.5V7c0 .825.642 1.111 1.233.602l.771-.808c.599-.51 1.547-.513 2.127.097.364.383.772 1.025.772 2.109s-.408 1.727-.771 2.109c-.58.604-1.529.604-2.127.097l-.77-.808c-.593-.509-1.234-.223-1.234.602z"></path></symbol><symbol id="required" xmlns="http://www.w3.org/2000/svg" width="16" height="16"><path fill="#E00" d="M0 7.562l1.114-3.438c2.565.906 4.43 1.688 5.59 2.35-.306-2.921-.467-4.93-.484-6.027h3.511c-.05 1.597-.234 3.6-.558 6.003 1.664-.838 3.566-1.613 5.714-2.325L16 7.562c-2.05.678-4.06 1.131-6.028 1.356.984.856 2.372 2.381 4.166 4.575l-2.906 2.059c-.935-1.274-2.041-3.009-3.316-5.206-1.194 2.275-2.244 4.013-3.147 5.206l-2.856-2.059c1.872-2.307 3.211-3.832 4.017-4.575A86.77 86.77 0 0 1 0 7.562"></path></symbol><symbol id="questionmark-disc--gray-light" xmlns="http://www.w3.org/2000/svg" width="16" height="16"><path fill="#BFBFBF" d="M8.002 1a7 7 0 1 0 0 14 7 7 0 0 0 0-14zm3 5c0 .551-.16 1.085-.477 1.586l-.158.22c-.07.093-.189.241-.361.393a9.67 9.67 0 0 1-.545.447l-.203.189-.141.129-.096.17L9 9.369v.63H6.999v-.704c.026-.396.078-.73.204-.999a2.83 2.83 0 0 1 .439-.688l.225-.21-.01-.015.176-.14.137-.128c.186-.139.357-.277.516-.417l.148-.18A.948.948 0 0 0 9.002 6 1.001 1.001 0 0 0 7 6H5a3 3 0 0 1 6.002 0zm-1.75 6.619a.627.627 0 0 1-.625.625h-1.25a.627.627 0 0 1-.626-.625v-1.238c0-.344.281-.625.626-.625h1.25c.344 0 .625.281.625.625v1.238z"></path></symbol><symbol id="questionmark-disc--white" xmlns="http://www.w3.org/2000/svg" width="16" height="16"><path fill="#FFF" d="M8.002 1a7 7 0 1 0 0 14 7 7 0 0 0 0-14zm3 5c0 .551-.16 1.085-.477 1.586l-.158.22c-.07.093-.189.241-.361.393a9.67 9.67 0 0 1-.545.447l-.203.189-.141.129-.096.17L9 9.369v.63H6.999v-.704c.026-.396.078-.73.204-.999a2.83 2.83 0 0 1 .439-.688l.225-.21-.01-.015.176-.14.137-.128c.186-.139.357-.277.516-.417l.148-.18A.948.948 0 0 0 9.002 6 1.001 1.001 0 0 0 7 6H5a3 3 0 0 1 6.002 0zm-1.75 6.619a.627.627 0 0 1-.625.625h-1.25a.627.627 0 0 1-.626-.625v-1.238c0-.344.281-.625.626-.625h1.25c.344 0 .625.281.625.625v1.238z"></path></symbol><symbol id="questionmark-disc--primary-blue-intense" xmlns="http://www.w3.org/2000/svg" width="16" height="16"><path fill="#009FE3" d="M8.002 1a7 7 0 1 0 0 14 7 7 0 0 0 0-14zm3 5c0 .551-.16 1.085-.477 1.586l-.158.22c-.07.093-.189.241-.361.393a9.67 9.67 0 0 1-.545.447l-.203.189-.141.129-.096.17L9 9.369v.63H6.999v-.704c.026-.396.078-.73.204-.999a2.83 2.83 0 0 1 .439-.688l.225-.21-.01-.015.176-.14.137-.128c.186-.139.357-.277.516-.417l.148-.18A.948.948 0 0 0 9.002 6 1.001 1.001 0 0 0 7 6H5a3 3 0 0 1 6.002 0zm-1.75 6.619a.627.627 0 0 1-.625.625h-1.25a.627.627 0 0 1-.626-.625v-1.238c0-.344.281-.625.626-.625h1.25c.344 0 .625.281.625.625v1.238z"></path></symbol><symbol id="settings-gears--white" width="27" height="27" xmlns="http://www.w3.org/2000/svg"><path d="M3.278 14.665l-1.645-1.67a1.142 1.142 0 0 1-.072-1.484l1.04-1.285a1.159 1.159 0 0 1 1.474-.248l1.867 1.161a7.208 7.208 0 0 1 1.826-.947l.248-2.202c.062-.547.559-.99 1.108-.99h1.653c.55 0 1.052.444 1.12.99l.262 2.1c.71.212 1.375.53 1.978.938l1.726-1.103a1.142 1.142 0 0 1 1.466.238l1.04 1.285a1.159 1.159 0 0 1-.064 1.493l-1.433 1.49a7.55 7.55 0 0 1 .52 2.28l1.93.68c.518.184.838.768.715 1.303l-.372 1.61c-.124.537-.67.925-1.217.87l-2.007-.208a7.46 7.46 0 0 1-1.406 1.788l.698 1.965a1.142 1.142 0 0 1-.562 1.375l-1.486.725a1.159 1.159 0 0 1-1.44-.399l-1.163-1.782a7.201 7.201 0 0 1-2.115-.028l-1.17 1.84a1.142 1.142 0 0 1-1.43.404l-1.485-.724a1.159 1.159 0 0 1-.573-1.38l.735-2.15a7.464 7.464 0 0 1-1.237-1.62l-2.259.26a1.142 1.142 0 0 1-1.214-.857l-.372-1.611a1.159 1.159 0 0 1 .713-1.314l2.176-.797c.053-.696.2-1.366.427-1.996zm6.747 7.242c2.517 0 4.557-2.085 4.557-4.658 0-2.573-2.04-4.659-4.557-4.659-2.516 0-4.557 2.086-4.557 4.659s2.04 4.658 4.557 4.658zM18.64 3.833l-.468-.475a1.142 1.142 0 0 1-.078-1.49L17.987 2a1.16 1.16 0 0 1 1.482-.243l.502.313c.278-.2.585-.36.913-.474l.067-.597A1.142 1.142 0 0 1 22.061 0h-.171c.55 0 1.052.442 1.121.999l.069.546c.355.106.687.265.989.469l.435-.278a1.142 1.142 0 0 1 1.474.233l-.107-.132a1.16 1.16 0 0 1-.07 1.5l-.365.379c.142.355.232.739.26 1.14l.487.171c.523.185.848.765.723 1.306l.039-.167a1.16 1.16 0 0 1-1.226.869l-.499-.052a3.73 3.73 0 0 1-.703.894l.18.505c.186.523-.06 1.14-.56 1.384l.154-.075a1.16 1.16 0 0 1-1.446-.406l-.304-.466a3.6 3.6 0 0 1-1.057-.014l-.313.492a1.142 1.142 0 0 1-1.435.412l.153.074a1.16 1.16 0 0 1-.57-1.389l.203-.594a3.732 3.732 0 0 1-.619-.81l-.625.072a1.142 1.142 0 0 1-1.223-.856l.038.166a1.16 1.16 0 0 1 .721-1.318l.611-.223c.027-.349.1-.684.214-.998zm3.373 3.62c1.258 0 2.278-1.042 2.278-2.329 0-1.286-1.02-2.329-2.278-2.329-1.259 0-2.279 1.043-2.279 2.33 0 1.286 1.02 2.329 2.279 2.329z" fill="#FFF" fill-rule="evenodd"></path></symbol><symbol id="twistie-down--primary-blue-darker" xmlns="http://www.w3.org/2000/svg" width="16" height="16"><path fill="#07364A" d="M2.611 5.393C2.441 5.177 2.527 5 2.802 5h10.397c.275 0 .361.177.191.393l-5.08 6.464c-.17.216-.452.216-.622 0L2.611 5.393z"></path></symbol><symbol id="twistie-down--primary-blue-intense" xmlns="http://www.w3.org/2000/svg" width="16" height="16"><path fill="#009FE3" d="M2.611 5.393C2.441 5.177 2.527 5 2.802 5h10.397c.275 0 .361.177.191.393l-5.08 6.464c-.17.216-.452.216-.622 0L2.611 5.393z"></path></symbol><symbol id="twistie-up--primary-blue-intense" xmlns="http://www.w3.org/2000/svg" width="16" height="16"><path fill="#009FE3" d="M13.391 10.607c.17.216.084.393-.191.393H2.802c-.275 0-.361-.177-.191-.393l5.08-6.464c.17-.216.45-.216.62 0l5.08 6.464z"></path></symbol><symbol id="wrench--primary-blue-intense" xmlns="http://www.w3.org/2000/svg" width="16" height="16"><path fill="#009FE3" d="M14.416 11.586l-.01-.008v-.001L8.75 5.921c.15-.449.252-.921.252-1.421C9.002 2.015 6.986 0 4.5 0c-.505 0-.981.102-1.434.255l2.431 2.431-.588 2.196-2.196.588L.268 3.025A4.458 4.458 0 0 0 0 4.5 4.5 4.5 0 0 0 4.5 9c.5 0 .972-.102 1.421-.251l5.667 5.665a2 2 0 1 0 2.828-2.828z"></path></symbol><symbol id="move--primary-blue" width="22" height="11" viewBox="0 0 22 11" xmlns="http://www.w3.org/2000/svg"><title>Group 2</title><path d="M0 1.454h22m-22 8h22m-19-4h16" stroke-width="2" stroke="#009FE3" fill="none"></path></symbol><symbol id="wrench--white" xmlns="http://www.w3.org/2000/svg" width="16" height="16"><path fill="#FFF" d="M14.416 11.586l-.01-.008v-.001L8.75 5.921c.15-.449.252-.921.252-1.421C9.002 2.015 6.986 0 4.5 0c-.505 0-.981.102-1.434.255l2.431 2.431-.588 2.196-2.196.588L.268 3.025A4.458 4.458 0 0 0 0 4.5 4.5 4.5 0 0 0 4.5 9c.5 0 .972-.102 1.421-.251l5.667 5.665a2 2 0 1 0 2.828-2.828z"></path></symbol><symbol id="twistie-up--primary-blue-darker" xmlns="http://www.w3.org/2000/svg" width="16" height="16"><path fill="#07364A" d="M13.391 10.607c.17.216.084.393-.191.393H2.802c-.275 0-.361-.177-.191-.393l5.08-6.464c.17-.216.45-.216.62 0l5.08 6.464z"></path></symbol><symbol id="thunder-infinity" version="1.1" id="Ebene_1" xmlns="http://www.w3.org/2000/svg" xmlns:xlink="http://www.w3.org/1999/xlink" x="0px" y="0px" viewBox="0 0 124.1 80.5" enable-background="new 0 0 124.1 80.5" xml:space="preserve"><g><path fill="#A2DAF8" d="M87.3,80.3c-20.6,0-30.4-12.3-32.5-17.1c-1.8-4.4-2.8-10-3-17l0,0v-2c0-0.1,0-0.3,0-0.4v-7
		c0-3.8-0.3-7-0.9-9.5c-0.6-2.6-1.6-4.6-2.9-6.1c-1.3-1.5-2.9-2.6-4.9-3.2c-1.9-0.6-4.2-0.9-6.8-0.9c-2.6,0-4.9,0.3-6.8,0.9
		c-1.9,0.6-3.6,1.7-4.9,3.2c-1.3,1.5-2.3,3.5-2.9,6.1c-0.6,2.6-0.9,5.8-0.9,9.8v39.8c-0.1,0-0.2,0-0.3,0c-3.4,0-6.5-8.3-9.8-8.3
		c-3.4,0-7-22.9-10.5-23.5v-8.6c0-8,1-14.5,3.1-19.3c2-4.8,10.4-8.5,13.9-11c3.4-2.5,6.9-6.1,19.9-6.1c20.6,0,30.4,12.3,32.5,17.1
		c1.8,4.4,2.8,10,3,17l0,0v2c0,0.1,0,0.3,0,0.4v7c0,3.8,0.3,7,0.9,9.5c0.6,2.6,1.6,4.6,2.9,6.1c1.3,1.5,2.9,2.6,4.9,3.2
		c1.9,0.6,4.2,0.9,6.8,0.9c2.6,0,4.9-0.3,6.8-0.9c1.9-0.6,3.6-1.7,4.9-3.2c1.3-1.5,2.3-3.5,2.9-6.1c0.6-2.6,0.9-5.8,0.9-9.8V3.5
		c0.1,0,0.2,0,0.3,0c3.4,0,6.5,8.3,9.8,8.3c3.4,0,7,22.9,10.5,23.5v8.6c0,8-1,14.5-3.1,19.3c-2,4.8-10.4,8.5-13.9,11
		C103.7,76.8,100.3,80.3,87.3,80.3"></path><path fill="#009FE3" d="M124.1,76.8V36.4c0-8-1-14.5-3.1-19.3c-2-4.8-4.8-8.5-8.2-11c-3.4-2.5-7.4-4.2-12-4.9
		c-4.1-0.7-8.5-1-12.9-1.1C83.5,0.1,79.1,0.4,75,1.1c-4.6,0.8-8.6,2.4-12,4.9c-3.4,2.5-6.2,6.2-8.2,11c-2,4.8-3.1,11.3-3.1,19.3v7.4
		c0,3.8-0.3,7-0.9,9.5c-0.6,2.6-1.6,4.6-2.9,6.1C46.6,60.9,45,62,43,62.6c-1.9,0.6-4.2,0.9-6.8,0.9c-2.6,0-4.9-0.3-6.8-0.9
		c-1.9-0.6-3.6-1.7-4.9-3.2c-1.3-1.5-2.3-3.5-2.9-6.1c-0.6-2.6-0.9-5.8-0.9-9.8V3.7c-3.5-0.6-6.9-0.9-10.3-0.9
		C6.9,2.8,3.5,3.1,0,3.7v40.4c0,8,1,14.5,3.1,19.3c2,4.8,4.8,8.5,8.2,11c3.4,2.5,7.4,4.2,12,4.9c4.1,0.7,8.5,1,12.9,1.1
		c4.5-0.1,8.8-0.4,12.9-1.1c4.6-0.8,8.6-2.4,12-4.9c3.4-2.5,6.2-6.2,8.2-11c1.9-4.4,2.9-10.3,3-17.4l0,0v-1.5c0-0.1,0-0.3,0-0.4l0,0
		V37c0-4,0.3-7.2,0.9-9.8c0.6-2.6,1.6-4.6,2.9-6.1c1.3-1.5,2.9-2.6,4.9-3.2c1.9-0.6,4.2-0.9,6.8-0.9c2.6,0,4.9,0.3,6.8,0.9
		c1.9,0.6,3.6,1.7,4.9,3.2c1.3,1.5,2.3,3.5,2.9,6.1c0.6,2.6,0.9,5.8,0.9,9.8v39.8c3.5,0.6,6.9,0.9,10.3,0.9
		C117.2,77.7,120.6,77.4,124.1,76.8L124.1,76.8z"></path></g></symbol><symbol id="d8-logo" xmlns="http://www.w3.org/2000/svg" width="47.411" height="53.531" viewBox="0 0 47.411 53.531"><circle fill="#CCC" cx="22.308" cy="41.593" r="8.449"></circle><path fill="#CCC" d="M32.813 31.532c2.503 2.614 4.044 6.156 4.044 10.06 0 4.945-2.47 9.31-6.24 11.94 6.97-2.15 12.733-7.388 15.314-13.73 3.57-8.776.247-15.38-5.33-21.37.17.776.264 1.58.264 2.406 0 5.078-3.405 9.36-8.05 10.694z"></path><circle fill="#CCC" cx="29.735" cy="20.838" r="6.463"></circle><path fill="#CCC" d="M11.178 50.96c-2.134-2.53-3.42-5.798-3.42-9.368 0-7.448 5.598-13.584 12.814-14.442-1.238-1.794-1.965-3.968-1.965-6.312 0-6.145 4.982-11.128 11.13-11.128.507 0 1.006.037 1.495.103C27.59 6.67 23.957 3.483 21.09 0 22.553 15.257 7.192 9.713 1.514 23.773c-3.81 9.433-.376 21.095 9.663 27.188z"></path></symbol><symbol id="php-logo" xmlns="http://www.w3.org/2000/svg" width="66" height="33.447" viewBox="0 0 66 33.447"><g fill="#CCC"><path d="M49.5 12.255h-2.7l-1.473 7h2.4c1.59 0 2.773-.342 3.55-.94.78-.6 1.304-1.62 1.577-3.023.26-1.345.142-1.975-.357-2.528-.5-.553-1.498-.51-2.996-.51z"></path><path d="M33 0C14.775 0 0 7.488 0 16.724s14.775 16.724 33 16.724 33-7.488 33-16.724S51.225 0 33 0zm-9.328 19.982c-.787.737-1.662 1.376-2.625 1.69-.963.313-2.19.583-3.68.583H13.99l-.935 5H9.11l3.52-18h7.584c2.28 0 3.946.34 4.992 1.537 1.046 1.197 1.36 2.74.944 4.885-.172.884-.462 1.628-.87 2.36-.413.732-.947 1.338-1.608 1.945zm11.51 2.273l1.558-8.124c.177-.91.112-1.29-.196-1.62-.308-.33-.962-.255-1.963-.255h-3.126l-2.016 10h-3.913l3.52-18h3.912l-.935 5h3.486c2.193 0 3.706.124 4.54.888.832.765 1.08 1.99.748 3.703l-1.637 8.41h-3.977zm21.747-6.708c-.173.884-.463 1.692-.872 2.424-.41.734-.944 1.404-1.605 2.01-.787.738-1.662 1.377-2.625 1.69-.963.314-2.19.584-3.68.584h-3.377l-.934 5h-3.944l3.518-18h7.584c2.282 0 3.946.34 4.992 1.537 1.046 1.2 1.36 2.61.943 4.757z"></path><path d="M18.72 12.255h-2.703l-1.473 7h2.4c1.59 0 2.773-.342 3.552-.94.778-.6 1.303-1.62 1.576-3.023.26-1.345.142-1.975-.357-2.528-.5-.553-1.497-.51-2.996-.51z"></path></g></symbol><symbol id="database" xmlns="http://www.w3.org/2000/svg" width="38.847" height="44.262" viewBox="0 0 38.847 44.262"><path fill="#CCC" d="M19.745 0c5.74.123 12.272.953 16.9 4.668 1.865 1.498 2.786 3.91 1.597 6.126-1.255 2.34-4.13 3.733-6.518 4.6-5.63 2.04-12.113 2.38-18.014 1.573-2.92-.4-5.91-1.103-8.58-2.374C2.94 13.553.39 11.788.037 9.19c-.532-3.925 4.23-6.23 7.264-7.3C11.287.482 15.54.037 19.745 0c4.302.092-3.334.03 0 0z"></path><path fill="#CCC" d="M6.76 17.5c3.702 1.427 7.65 1.972 11.6 2.09 4.058.12 8.107-.424 12.023-1.523 4.227-1.186 7.227-3.624 8.463-6.145v5.965c-.076.524-.197 1.028-.384 1.5-.718 1.81-2.594 2.974-4.235 3.848-4.293 2.286-9.5 3.04-14.31 3.083-4.803.043-9.902-.542-14.3-2.575-1.906-.88-3.9-2.02-4.988-3.887-.66-1.135-.626-2.21-.626-3.486v-4.38c1.232 2.64 3.94 4.422 6.757 5.51z"></path><path fill="#CCC" d="M6.76 26.436c3.702 1.428 7.65 1.973 11.6 2.09 4.058.12 8.107-.423 12.023-1.522 4.227-1.186 7.227-3.624 8.463-6.145v5.964c-.076.524-.197 1.028-.384 1.5-.718 1.81-2.594 2.974-4.235 3.848-4.293 2.286-9.5 3.04-14.31 3.083-4.803.043-9.902-.542-14.3-2.575-1.906-.88-3.9-2.02-4.988-3.887-.66-1.135-.626-2.21-.626-3.486v-4.38c1.232 2.64 3.94 4.422 6.757 5.51z"></path><path fill="#CCC" d="M6.76 35.374c3.702 1.428 7.65 1.973 11.6 2.09 4.058.12 8.107-.423 12.023-1.522 4.227-1.186 7.227-3.624 8.463-6.145v5.965c-.076.524-.197 1.028-.384 1.5-.718 1.81-2.594 2.974-4.235 3.848-4.293 2.286-9.5 3.04-14.31 3.083-4.803.043-9.902-.542-14.3-2.575-1.906-.88-3.9-2.02-4.988-3.887-.66-1.134-.626-2.21-.626-3.485v-4.38c1.232 2.64 3.94 4.422 6.757 5.51z"></path></symbol><symbol id="clock" xmlns="http://www.w3.org/2000/svg" width="42.659" height="46.603" viewBox="0 0 42.659 46.603"><path fill="#CCC" d="M24.15 3.73V0h-8v3.915C6.15 6.13 0 14.717 0 24.978 0 36.92 9.975 46.603 21.918 46.603s20.74-9.682 20.74-21.625c0-10.576-8.507-19.372-18.507-21.25zm7 24.072H17.83V11h5v12.802h8.32v4z"></path></symbol><symbol id="server" xmlns="http://www.w3.org/2000/svg" width="44" height="34" viewBox="0 0 44 34"><path fill="#CCC" d="M29.98 7.018H7.17c-1.208 0-2.197-.748-2.197-2s.99-2 2.2-2h22.81c1.208 0 2.198.748 2.198 2s-.99 2-2.2 2zM37.61 7c-1.104 0-2-.895-2-2s.896-2 2-2 2 .895 2 2-.894 2-2 2zM0 0v10h44V0H0zM29.98 31.018H7.17c-1.208 0-2.197-.748-2.197-2s.99-2 2.2-2h22.81c1.208 0 2.198.748 2.198 2s-.99 2-2.2 2zM37.61 31c-1.104 0-2-.895-2-2s.896-2 2-2 2 .895 2 2-.894 2-2 2zM0 24v10h44V24H0zM29.98 19.018H7.17c-1.208 0-2.197-.748-2.197-2s.99-2 2.2-2h22.81c1.208 0 2.198.748 2.198 2s-.99 2-2.2 2zM37.61 19c-1.104 0-2-.895-2-2s.896-2 2-2 2 .895 2 2-.894 2-2 2zM0 12v10h44V12H0z"></path></symbol></svg>