<svg width="300" height="200" xmlns="http://www.w3.org/2000/svg" xmlns:xlink="http://www.w3.org/1999/xlink"><defs><path id="a" d="M0 0h300v95H0z"/><mask id="b" maskContentUnits="userSpaceOnUse" maskUnits="objectBoundingBox" x="0" y="0" width="300" height="95" fill="#fff"><use xlink:href="#a"/></mask></defs><g fill="none" fill-rule="evenodd"><path fill="#FFF" d="M0 0h300v200H0z"/><use stroke="#AAAEB2" mask="url(#b)" stroke-width="4" fill="#1476D0" stroke-dasharray="5,5" xlink:href="#a"/><path fill="#FFF" opacity=".06" d="M7 45l20-26 15 19 5-3-9-13L50 7l28 36zM79 45l20-26 15 19 5-3-9-13 12-15 28 36zM150 45l20-26 15 19 5-3-9-13 12-15 28 36zM221 45l20-26 15 19 5-3-9-13 12-15 28 36zM7 89l20-26 15 19 5-3-9-13 12-15 28 36zM79 89l20-26 15 19 5-3-9-13 12-15 28 36zM150 89l20-26 15 19 5-3-9-13 12-15 28 36zM221 89l20-26 15 19 5-3-9-13 12-15 28 36z"/><g fill="#767676"><path d="M53 125h194v4H53zM53 149h194v4H53zM53 137h194v4H53zM53 161h194v4H53z"/></g><path fill="#E6E6E6" d="M91 16h119v63H91z"/><g transform="translate(101 24)"><rect fill="#4B4687" x="25" y="36" width="50" height="12" rx="6"/><path fill="#767676" d="M30 0h39v4H30zM0 24h99v4H0zM12 12h76v4H12z"/></g></g></svg>