<?xml version="1.0" encoding="utf-8"?>
<!-- Generator: Adobe Illustrator 18.0.0, SVG Export Plug-In . SVG Version: 6.00 Build 0)  -->
<!DOCTYPE svg PUBLIC "-//W3C//DTD SVG 1.1//EN" "http://www.w3.org/Graphics/SVG/1.1/DTD/svg11.dtd">
<svg version="1.1" id="Layer_1" xmlns="http://www.w3.org/2000/svg" xmlns:xlink="http://www.w3.org/1999/xlink" x="0px" y="0px"
	 viewBox="287.5 37.5 225 225" enable-background="new 287.5 37.5 225 225" xml:space="preserve">
<path fill="#cccccc" d="M400,37.5c-62.104,0-112.5,50.396-112.5,112.5S337.896,262.5,400,262.5S512.5,212.104,512.5,150
	S462.104,37.5,400,37.5z M400,50.104c55.198,0,99.896,44.698,99.896,99.896S455.198,249.896,400,249.896
	S300.104,205.198,300.104,150S344.802,50.104,400,50.104"/>
<path fill="#cccccc" d="M430.24,191.25c-2.385-4.771-4.604-9.073-5.333-10.052c-0.771-1.24-2.51-2.875-6.531-4.177
	c-0.312-1.427-0.562-2.937-0.667-4.521c-0.125-1.448-0.198-2.719-0.24-3.833c11.906-9.5,20.031-28.375,20.031-49.865
	C437.5,87.906,420.698,75,400,75s-37.5,12.896-37.5,43.802c0,21.667,8.26,40.677,20.333,50.104c-0.042,1.062-0.115,2.26-0.229,3.594
	c-0.104,1.594-0.333,3.104-0.646,4.49c-4.083,1.302-5.917,2.958-6.854,4.208c-0.74,0.865-3,5.229-5.406,10.073
	c-13.948,3.323-26.208,8.875-35.688,16.031c15.885,18.594,39.594,30.302,65.99,30.302s50.104-11.698,66-30.302
	C456.5,200.135,444.219,194.573,430.24,191.25z"/>
</svg>
