<svg width="300" height="200" xmlns="http://www.w3.org/2000/svg" xmlns:xlink="http://www.w3.org/1999/xlink"><defs><path id="a" d="M0 100h300v85H0z"/><mask id="b" maskContentUnits="userSpaceOnUse" maskUnits="objectBoundingBox" x="0" y="0" width="300" height="85" fill="#fff"><use xlink:href="#a"/></mask></defs><g fill="none" fill-rule="evenodd"><path fill="#FFF" d="M0 0h300v200H0z"/><g fill="#767676"><path d="M53 31h194v4H53zM53 55h194v4H53zM53 43h194v4H53zM53 67h194v4H53z"/></g><path fill="#1476D0" d="M53 115h45v25H53z"/><path fill="#FFF" d="M63.37 133.19l7.05-8.9 5.28 6.5 1.76-1.02-3.17-4.45 4.23-5.13 9.85 12.31z"/><path fill="#1476D0" d="M53 145h45v25H53z"/><path fill="#FFF" d="M63.37 163.19l7.05-8.9 5.28 6.5 1.76-1.02-3.17-4.45 4.23-5.13 9.85 12.31z"/><path fill="#1476D0" d="M103 115h45v25h-45z"/><path fill="#FFF" d="M113.37 133.19l7.05-8.9 5.28 6.5 1.76-1.02-3.17-4.45 4.23-5.13 9.85 12.31z"/><path fill="#1476D0" d="M103 145h45v25h-45z"/><path fill="#FFF" d="M113.37 163.19l7.05-8.9 5.28 6.5 1.76-1.02-3.17-4.45 4.23-5.13 9.85 12.31z"/><g><path fill="#1476D0" d="M153 115h45v25h-45z"/><path fill="#FFF" d="M163.37 133.19l7.05-8.9 5.28 6.5 1.76-1.02-3.17-4.45 4.23-5.13 9.85 12.31z"/></g><g><path fill="#1476D0" d="M153 145h45v25h-45z"/><path fill="#FFF" d="M163.37 163.19l7.05-8.9 5.28 6.5 1.76-1.02-3.17-4.45 4.23-5.13 9.85 12.31z"/></g><g><path fill="#1476D0" d="M203 115h45v25h-45z"/><path fill="#FFF" d="M213.37 133.19l7.05-8.9 5.28 6.5 1.76-1.02-3.17-4.45 4.23-5.13 9.85 12.31z"/></g><g><path fill="#1476D0" d="M203 145h45v25h-45z"/><path fill="#FFF" d="M213.37 163.19l7.05-8.9 5.28 6.5 1.76-1.02-3.17-4.45 4.23-5.13 9.85 12.31z"/></g><use stroke="#AAAEB2" mask="url(#b)" stroke-width="4" stroke-dasharray="5,5" xlink:href="#a"/></g></svg>