<svg width="300" height="200" xmlns="http://www.w3.org/2000/svg" xmlns:xlink="http://www.w3.org/1999/xlink"><defs><path id="a" d="M0 77h300v108H0z"/><mask id="b" maskContentUnits="userSpaceOnUse" maskUnits="objectBoundingBox" x="0" y="0" width="300" height="108" fill="#fff"><use xlink:href="#a"/></mask></defs><g fill="none" fill-rule="evenodd"><g fill="#767676"><path d="M53 122h194v4H53zM53 146h194v4H53zM53 134h194v4H53zM53 158h194v4H53z"/></g><path fill="#1476D0" d="M29 67l20-26 15 19 5-3-9-13 12-15 28 36z"/><path fill="#FFF" d="M0 0h300v200H0z"/><use stroke="#AAAEB2" mask="url(#b)" stroke-width="4" stroke-dasharray="5,5" xlink:href="#a"/><path fill="#767676" d="M53 88h22v22H53z"/><g fill="#767676"><path d="M247 93H85v4h162zM247 102H85v4h162z"/></g><path fill="#767676" d="M53 120h22v22H53zM53 152h22v22H53z"/><g fill="#767676"><path d="M247 125H85v4h162zM247 134H85v4h162z"/></g><g fill="#767676"><path d="M247 157H85v4h162zM247 166H85v4h162z"/></g><g fill="#767676"><path d="M53 18h194v4H53zM53 42h194v4H53zM53 30h194v4H53zM53 54h194v4H53z"/></g></g></svg>