<?xml version="1.0" encoding="UTF-8"?>
<svg width="120px" height="74px" viewBox="0 0 120 74" version="1.1" xmlns="http://www.w3.org/2000/svg" xmlns:xlink="http://www.w3.org/1999/xlink">
    <title>9E8B8CB6-C7E6-4DDD-8BF2-550AB031024C@3x</title>
    <defs>
        <polygon id="path-1" points="0.238095238 0 119.380952 0 119.380952 73.7142857 0.238095238 73.7142857"></polygon>
    </defs>
    <g id="Home" stroke="none" stroke-width="1" fill="none" fill-rule="evenodd">
        <g id="Rain-Generic-Desktop" transform="translate(-28.000000, -27.000000)">
            <g id="Group" transform="translate(28.000000, 27.000000)">
                <g id="Group-3" transform="translate(0.000000, -0.000000)">
                    <mask id="mask-2" fill="white">
                        <use xlink:href="#path-1"></use>
                    </mask>
                    <g id="Clip-2"></g>
                    <path d="M43.6691989,43.597991 C51.6801775,59.5792105 80.2696851,52.202789 75.6730535,32.7089878 C110.902254,40.2877422 90.1830016,58.7667976 58.435942,58.1556906 C25.6617021,58.771933 6.09289139,39.5112768 42.4766426,32.4727616 C41.9384001,36.5101763 42.2034127,40.3267709 43.6691989,43.597991 M49.8569326,19.2687411 C52.7956953,13.2326468 56.4216415,7.58992058 59.0871742,3.74456802 C65.2605275,13.3887616 76.7916528,29.8177839 72.2813044,42.6027595 C61.3130738,58.728796 33.4056139,48.1489411 49.8569326,19.2687411 M59.8370158,71.1327284 C-4.38434704,71.0063987 -20.3795977,29.3288983 45.2079148,22.2831935 C44.7343848,23.5197866 44.308105,24.7594609 43.9301026,25.9950269 C-12.6202782,33.0735979 7.68296639,65.618386 58.4554584,64.9620879 C108.168928,65.6717937 129.82805,33.8100076 74.205213,26.1501146 C73.7922865,24.8087603 73.3197836,23.4602165 72.7959217,22.115781 C139.515387,28.3172337 125.390631,70.9098541 59.8370158,71.1327284 M71.6742409,19.4115039 C58.1431956,-6.76955437 59.741488,-6.22109863 46.3172695,19.5676187 C-26.1698127,26.883443 -6.64003484,74.2529691 59.8390702,73.7096487 C127.712059,74.134856 145.286085,25.8152895 71.6742409,19.4115039" id="Fill-1" fill="#FEFEFE" mask="url(#mask-2)"></path>
                </g>
            </g>
        </g>
    </g>
</svg>