<svg xmlns="http://www.w3.org/2000/svg" width="42px" height="36px" viewBox="0 0 42 36">
  <path fill="#ffffff" d="M41,34h-1.7V10.1c0-1.3-1-2.3-2.3-2.3h-5.3c-1.3,0-2.3,1-2.3,2.3V34H26V2.3C26,1,25,0,23.7,0h-5.3C17,0,16,1,16,2.3V34h-3.3
    V18c0-1.3-1-2.3-2.3-2.3H5c-1.3,0-2.3,1-2.3,2.3v16H1c-0.6,0-1,0.4-1,1c0,0.5,0.5,1,1,1h2.7h8H17h8h5.3h8H41c0.6,0,1-0.4,1-1
    C42,34.5,41.6,34,41,34z M4.7,34V18c0-0.2,0.1-0.3,0.3-0.3h5.3c0.2,0,0.3,0.1,0.3,0.3v16H4.7z M18,34V2.3C18,2.1,18.2,2,18.3,2h5.3
    C23.8,2,24,2.1,24,2.3V34H18z M31.3,34V10.1c0-0.2,0.1-0.3,0.3-0.3H37c0.2,0,0.3,0.1,0.3,0.3V34H31.3z"/>
</svg>
