<svg xmlns="http://www.w3.org/2000/svg" viewBox="0 0 42 42">
  <g>
    <g transform="translate(-914.000000, -261.000000)">
      <g transform="translate(915.000000, 262.000000)">
        <path fill="#ffffff" d="M41,2.7c0-2-1.6-3.7-3.7-3.7H2.7C0.6-1-1,0.6-1,2.7v34.7c0,2,1.6,3.7,3.7,3.7h20.2c0.2,0,0.3,0,0.5,0c0.1,0,0.2,0,0.2,0
          c0.3,0,0.5-0.1,0.7-0.3c0.4-0.2,0.8-0.4,1.1-0.8l14.4-14.4c0.3-0.3,0.6-0.7,0.8-1.1c0.2-0.2,0.3-0.4,0.3-0.7c0-0.1,0-0.2,0-0.2
          c0-0.2,0-0.3,0-0.5V2.7z M1,37.3V2.7C1,1.7,1.7,1,2.7,1h34.7C38.3,1,39,1.7,39,2.7v20H26.4c-2.1,0-3.8,1.7-3.8,3.8V39h-20
          C1.7,39,1,38.3,1,37.3z M24.6,37.9V26.4c0-1,0.8-1.8,1.8-1.8h11.5L24.6,37.9z"/>
        <path fill="#ffffff" d="M32.7,11H10.9c-0.6,0-1-0.4-1-1s0.4-1,1-1h21.8c0.6,0,1,0.4,1,1S33.3,11,32.7,11z"/>
        <path fill="#ffffff" d="M20,20.1h-9.1c-0.6,0-1-0.4-1-1s0.4-1,1-1H20c0.6,0,1,0.4,1,1S20.6,20.1,20,20.1z"/>
      </g>
    </g>
  </g>
</svg>