<svg xmlns="http://www.w3.org/2000/svg" viewBox="0 0 40 40">
  <g>
    <g transform="translate(-476.000000, -126.000000)">
      <path fill="#ffffff" d="M512.7,126h-33.3c-1.8,0-3.3,1.5-3.3,3.3v33.3c0,1.8,1.5,3.3,3.3,3.3h33.3c1.8,0,3.3-1.5,3.3-3.3v-33.3
        C516,127.5,514.5,126,512.7,126z M505.3,154.6h-18.6c-0.9,0-1.7-0.7-1.7-1.6c0-0.9,0.8-1.6,1.7-1.6h18.6c0.9,0,1.7,0.7,1.7,1.6
        C507,153.8,506.3,154.6,505.3,154.6z M505.3,147.2h-18.6c-0.9,0-1.7-0.7-1.7-1.6c0-0.9,0.8-1.6,1.7-1.6h18.6
        c0.9,0,1.7,0.7,1.7,1.6C507,146.5,506.3,147.2,505.3,147.2z M505.3,140.7h-18.6c-0.9,0-1.7-0.7-1.7-1.6c0-0.9,0.8-1.6,1.7-1.6
        h18.6c0.9,0,1.7,0.7,1.7,1.6C507,140,506.3,140.7,505.3,140.7z"/>
    </g>
  </g>
</svg>
