<svg xmlns="http://www.w3.org/2000/svg" viewBox="0 0 42 42">
  <path fill="#ffffff" d="M41,26.7h-5.1v-1.4c0-1.9-1.6-3.4-3.7-3.4H22v-6.5h5.7c0.6,0,1-0.4,1-1V1c0-0.6-0.4-1-1-1H14.3c-0.6,0-1,0.4-1,1v13.3
    c0,0.6,0.4,1,1,1H20v6.5h-9.1c-2,0-3.7,1.5-3.7,3.4v1.4H1c-0.6,0-1,0.4-1,1V41c0,0.6,0.4,1,1,1h13.3c0.6,0,1-0.4,1-1V27.7
    c0-0.6-0.4-1-1-1H9.3v-1.4c0-0.8,0.7-1.4,1.7-1.4h21.3c0.9,0,1.7,0.6,1.7,1.4v1.4h-6.3c-0.6,0-1,0.4-1,1V41c0,0.6,0.4,1,1,1H41
    c0.6,0,1-0.4,1-1V27.7C42,27.1,41.6,26.7,41,26.7z M15.3,2h11.3v11.3H15.3V2z M13.3,40H2V28.7h11.3V40z M40,40H28.7V28.7H40V40z"/>
</svg>
