<svg xmlns="http://www.w3.org/2000/svg" viewBox="0 0 42 45">
  <g>
    <g transform="translate(-389.000000, -259.000000)">
      <g transform="translate(390.000000, 260.000000)">
        <path fill="#ffffff" d="M23.7,43.3c-6.6,0-14-2.9-18.5-7.7C-3,27.3-3,13.8,5.2,5.5C9.5,1.1,15.5-1.2,21.6-1C27.1-0.8,32,1.5,35.4,5.5
          c3.9,4.6,5.6,8.2,5,11.3c-0.7,3.6-4.3,5.5-7.4,7.1c-2.6,1.3-4.8,2.5-4.6,4c0.3,3.3,3.1,3.4,6.7,3.1c1.7-0.1,2.9-0.2,3.5,0.6
          c0.2,0.2,0.4,0.7,0.2,1.4c-1.8,5.2-5.5,8.6-10.9,9.8C26.5,43.2,25.1,43.3,23.7,43.3z M20.8,1C15.5,1,10.4,3.1,6.6,6.9
          c-7.4,7.5-7.4,19.8,0,27.4c5.1,5.3,14,8.2,20.9,6.7c3.1-0.7,7.2-2.6,9.2-8c-0.4,0-1,0-1.5,0.1c-2.9,0.2-8.4,0.6-8.9-5
          c0,0,0,0,0,0c-0.2-2.9,2.8-4.5,5.7-6c2.9-1.5,5.9-3,6.4-5.7c0.5-2.4-1.1-5.6-4.5-9.6C30.9,3.2,26.5,1.2,21.5,1
          C21.3,1,21,1,20.8,1z"/>
        <path fill="#ffffff" d="M10.7,27.5c-2.1,0-3.9-1.7-3.9-3.9c0-2.1,1.7-3.9,3.9-3.9s3.9,1.7,3.9,3.9C14.6,25.8,12.8,27.5,10.7,27.5z M10.7,21.8
          c-1,0-1.9,0.8-1.9,1.9s0.8,1.9,1.9,1.9s1.9-0.8,1.9-1.9S11.7,21.8,10.7,21.8z"/>
        <path fill="#ffffff" d="M17.8,36.6c-2.1,0-3.9-1.7-3.9-3.9c0-1.4,0.7-2.7,1.9-3.3c1.2-0.7,2.7-0.7,3.9,0c1.2,0.7,1.9,2,1.9,3.3
          C21.6,34.9,19.9,36.6,17.8,36.6z M17.8,30.9c-0.3,0-0.6,0.1-0.9,0.2c-0.6,0.3-0.9,0.9-0.9,1.6c0,1,0.8,1.9,1.9,1.9
          c1,0,1.9-0.8,1.9-1.9c0-0.7-0.4-1.3-0.9-1.6C18.4,31,18.1,30.9,17.8,30.9z"/>
        <path fill="#ffffff" d="M24.6,13.6c-2.1,0-3.9-1.7-3.9-3.9s1.7-3.9,3.9-3.9s3.9,1.7,3.9,3.9S26.8,13.6,24.6,13.6z M24.6,7.9
          c-1,0-1.9,0.8-1.9,1.9c0,1,0.8,1.9,1.9,1.9s1.9-0.8,1.9-1.9C26.5,8.7,25.7,7.9,24.6,7.9z"/>
        <path fill="#ffffff" d="M12.5,16.6c-2.1,0-3.9-1.7-3.9-3.9s1.7-3.9,3.9-3.9s3.9,1.7,3.9,3.9S14.6,16.6,12.5,16.6z M12.5,10.9
          c-1,0-1.9,0.8-1.9,1.9c0,1,0.8,1.9,1.9,1.9c1,0,1.9-0.8,1.9-1.9C14.4,11.7,13.5,10.9,12.5,10.9z"/>
      </g>
    </g>
  </g>
</svg>
