<svg xmlns="http://www.w3.org/2000/svg" viewBox="0 0 42 42">
  <g>
    <g transform="translate(-735.000000, -261.000000)">
      <g transform="translate(736.000000, 262.000000)">
        <path fill="#ffffff" d="M6.6,14.3c-2.7,0-5-2.2-5-5c0-2.7,2.2-5,5-5c2.7,0,5,2.2,5,5C11.6,12,9.4,14.3,6.6,14.3z M6.6,6.3c-1.6,0-3,1.3-3,3
          s1.3,3,3,3s3-1.3,3-3S8.3,6.3,6.6,6.3z"/>
        <path fill="#ffffff" d="M9.3,38.1H4c-0.5,0-0.9-0.4-1-0.9l-1.2-9.7H0c-0.6,0-1-0.4-1-1v-4c0-4.2,3.4-7.6,7.6-7.6c0.6,0,1,0.4,1,1s-0.4,1-1,1
          c-3.1,0-5.6,2.5-5.6,5.6v3h1.7c0.5,0,0.9,0.4,1,0.9l1.2,9.7h4.4c0.6,0,1,0.4,1,1S9.8,38.1,9.3,38.1z"/>
        <path fill="#ffffff" d="M33.1,14.3c-2.7,0-5-2.2-5-5c0-2.7,2.2-5,5-5s5,2.2,5,5C38.1,12,35.9,14.3,33.1,14.3z M33.1,6.3c-1.6,0-3,1.3-3,3
          s1.3,3,3,3s3-1.3,3-3S34.8,6.3,33.1,6.3z"/>
        <path fill="#ffffff" d="M35.8,38.1h-5.3c-0.6,0-1-0.4-1-1s0.4-1,1-1h4.4l1.2-9.7c0.1-0.5,0.5-0.9,1-0.9h1.7v-3c0-3.1-2.5-5.6-5.6-5.6
          c-0.6,0-1-0.4-1-1s0.4-1,1-1c4.2,0,7.6,3.4,7.6,7.6v4c0,0.6-0.4,1-1,1H38l-1.2,9.7C36.7,37.7,36.3,38.1,35.8,38.1z"/>
        <path fill="#ffffff" d="M19.9,11.6c-3.5,0-6.3-2.8-6.3-6.3c0-3.5,2.8-6.3,6.3-6.3c3.5,0,6.3,2.8,6.3,6.3C26.2,8.8,23.4,11.6,19.9,11.6z M19.9,1
          c-2.4,0-4.3,1.9-4.3,4.3c0,2.4,1.9,4.3,4.3,4.3s4.3-1.9,4.3-4.3C24.2,2.9,22.3,1,19.9,1z"/>
        <path fill="#ffffff" d="M23.9,40.8h-8c-0.5,0-0.9-0.4-1-0.9l-1.2-12.4h-3.1c-0.6,0-1-0.4-1-1v-4c0-5.7,4.6-10.3,10.3-10.3s10.3,4.6,10.3,10.3v4
          c0,0.6-0.4,1-1,1h-3.1l-1.2,12.4C24.8,40.4,24.4,40.8,23.9,40.8z M16.8,38.8H23l1.2-12.4c0.1-0.5,0.5-0.9,1-0.9h3v-3
          c0-4.6-3.7-8.3-8.3-8.3s-8.3,3.7-8.3,8.3v3h3c0.5,0,0.9,0.4,1,0.9L16.8,38.8z"/>
      </g>
    </g>
  </g>
</svg>
