<svg xmlns="http://www.w3.org/2000/svg" width="42px" height="42px" viewBox="0 0 42 42">
  <g>
    <path fill="#ffffff" d="M21.5,7C15.7,7,11,11.7,11,17.5C11,23.3,15.7,28,21.5,28C27.3,28,32,23.3,32,17.5C32,11.7,27.3,7,21.5,7z M21.5,26
      c-4.7,0-8.5-3.8-8.5-8.5c0-4.7,3.8-8.5,8.5-8.5c4.7,0,8.5,3.8,8.5,8.5C30,22.2,26.2,26,21.5,26z"/>
    <path fill="#ffffff" d="M21,0C9.4,0,0,9.4,0,21c0,11.1,8.7,20.2,19.6,20.9c0.1,0,0.1,0,0.2,0c0.1,0,0.1,0,0.2,0c0.1,0,0.1,0,0.2,0
      c0.1,0,0.1,0,0.1,0c0.2,0,0.5,0,0.7,0c11.6,0,21-9.4,21-21C42,9.4,32.6,0,21,0z M13.4,38.1c-0.8-0.4-1.8-1.1-3-2.1
      c2.9-2.5,6.7-4,10.5-4c3.9,0,7.7,1.5,10.6,4c-1.1,1.1-2.1,1.7-2.9,2.1c-1.7,0.6-4.5,1.3-8.5,1.9c-0.1,0-0.2,0-0.3,0
      C16.8,39.3,14.6,38.6,13.4,38.1z M33.6,35.2C30.3,31.9,25.7,30,21,30s-9.3,1.9-12.6,5.2C4.5,31.7,2,26.6,2,21C2,10.5,10.5,2,21,2
      s19,8.5,19,19C40,26.6,37.5,31.7,33.6,35.2z"/>
  </g>
</svg>
