<svg xmlns="http://www.w3.org/2000/svg" viewBox="0 0 40 40">
  <g>
    <g transform="translate(-557.000000, -261.000000)">
      <g transform="translate(558.000000, 262.000000)">
        <path fill="#ffffff" d="M38-1H0c-0.5,0-1,0.4-1,1V38c0,0.5,0.4,1,1,1H38c0.5,0,1-0.4,1-1V0C39-0.6,38.6-1,38-1z M0.9,0.9h9v36.2h-9V0.9z
          M37.1,37.1H11.8V0.9h25.3V37.1z"/>
        <path fill="#ffffff" d="M33.8,18.2C33.8,18.2,33.8,18.2,33.8,18.2l-15.4,0l5.2-5.2c0.4-0.4,0.4-1,0-1.4c-0.4-0.4-1-0.4-1.4,0l-6.8,6.8
          c0,0,0,0,0,0c-0.1,0.1-0.2,0.2-0.2,0.3c0,0.1-0.1,0.2-0.1,0.4c0,0,0,0,0,0c0,0,0,0,0,0c0,0,0,0.1,0,0.1c0,0.1,0,0.2,0.1,0.3
          c0,0.1,0.1,0.2,0.2,0.3l6.8,6.8c0.2,0.2,0.4,0.3,0.7,0.3s0.5-0.1,0.7-0.3c0.4-0.4,0.4-1,0-1.4l-5.2-5.2l15.4,0c0.5,0,1-0.4,1-1
          C34.7,18.6,34.3,18.2,33.8,18.2z"/>
      </g>
    </g>
  </g>
</svg>