<svg xmlns="http://www.w3.org/2000/svg" viewBox="0 0 40 40">
  <g>
    <g transform="translate(-557.000000, -261.000000)">
      <g transform="translate(558.000000, 262.000000)">
        <path fill="#ffffff" d="M39,38V0c0-0.5-0.4-1-1-1H0c-0.5,0-1,0.4-1,1V38c0,0.5,0.4,1,1,1H38C38.6,39,39,38.6,39,38z M37.1,0.9v9H0.9v-9H37.1z
          M0.9,37.1V11.8h36.2v25.3H0.9z"/>
        <path fill="#ffffff" d="M19.8,33.8C19.8,33.8,19.8,33.8,19.8,33.8l0-15.4l5.2,5.2c0.4,0.4,1,0.4,1.4,0c0.4-0.4,0.4-1,0-1.4l-6.8-6.8c0,0,0,0,0,0
          c-0.1-0.1-0.2-0.2-0.3-0.2c-0.1,0-0.2-0.1-0.4-0.1c0,0,0,0,0,0c0,0,0,0,0,0c0,0-0.1,0-0.1,0c-0.1,0-0.2,0-0.3,0.1
          c-0.1,0-0.2,0.1-0.3,0.2l-6.8,6.8c-0.2,0.2-0.3,0.4-0.3,0.7s0.1,0.5,0.3,0.7c0.4,0.4,1,0.4,1.4,0l5.2-5.2l0,15.4c0,0.5,0.4,1,1,1
          C19.4,34.7,19.8,34.3,19.8,33.8z"/>
      </g>
    </g>
  </g>
</svg>
