<svg xmlns="http://www.w3.org/2000/svg" width="42px" height="42px" viewBox="0 0 42 42">
  <g>
    <g transform="translate(-1074.000000, -257.000000)">
      <g>
        <path fill="#ffffff" d="M1108.3,299c-3.5,0-6.4-2.3-7.4-5.6l-4.5,4.5c-1.4,1.4-3.8,1.4-5.2,0l-3.7-3.7c-0.2-0.2-0.3-0.6-0.3-0.9
          c0.1-0.3,0.3-0.6,0.6-0.7c2.3-1,3.8-3.4,3.4-6c-0.3-2.5-2.3-4.5-4.9-4.9c-2.5-0.3-5,1.1-6,3.4c-0.1,0.3-0.4,0.5-0.7,0.6
          c-0.3,0.1-0.7,0-0.9-0.3l-3.8-3.7c-1.4-1.4-1.4-3.8,0-5.2l4.5-4.5c-3.2-0.9-5.5-3.9-5.5-7.4c0-4.2,3.4-7.7,7.7-7.7
          c3.5,0,6.4,2.3,7.4,5.5l4.5-4.5c1.4-1.4,3.8-1.4,5.2,0l3.7,3.8c0.2,0.2,0.3,0.6,0.3,0.9c-0.1,0.3-0.3,0.6-0.6,0.7
          c-2.3,1-3.8,3.4-3.4,6c0.3,2.5,2.3,4.5,4.9,4.9c2.5,0.3,5-1.1,6-3.4c0.1-0.3,0.4-0.5,0.7-0.6c0.3-0.1,0.7,0,0.9,0.3l3.8,3.7
          c1.4,1.4,1.4,3.8,0,5.2l-4.5,4.5c3.2,0.9,5.5,3.9,5.5,7.4C1116,295.6,1112.6,299,1108.3,299z M1101.7,290.3c0.1,0,0.3,0,0.4,0.1
          c0.4,0.2,0.6,0.5,0.6,0.9c0,3.1,2.5,5.7,5.7,5.7s5.7-2.5,5.7-5.7c0-3.1-2.5-5.7-5.7-5.7c-0.4,0-0.8-0.2-0.9-0.6
          c-0.2-0.4-0.1-0.8,0.2-1.1l5.9-5.9c0.6-0.6,0.6-1.7,0-2.4l-2.8-2.8c-1.6,2.4-4.5,3.7-7.4,3.4c-3.4-0.5-6.1-3.2-6.6-6.6
          c-0.4-2.9,1-5.8,3.4-7.4l-2.8-2.8c-0.6-0.6-1.7-0.6-2.4,0l-5.9,5.9c-0.3,0.3-0.7,0.4-1.1,0.2c-0.4-0.2-0.6-0.5-0.6-0.9
          c0-3.1-2.5-5.7-5.7-5.7c-3.1,0-5.7,2.5-5.7,5.7c0,3.1,2.5,5.7,5.7,5.7c0.4,0,0.8,0.2,0.9,0.6c0.2,0.4,0.1,0.8-0.2,1.1l-5.9,5.9
          c-0.6,0.6-0.6,1.7,0,2.4l2.8,2.8c1.6-2.4,4.5-3.7,7.4-3.4c3.4,0.5,6.1,3.2,6.6,6.6c0.4,2.9-1,5.8-3.4,7.4l2.8,2.8
          c0.6,0.6,1.7,0.6,2.4,0l5.9-5.9C1101.2,290.4,1101.4,290.3,1101.7,290.3z"/>
      </g>
    </g>
  </g>
</svg>
