<svg xmlns="http://www.w3.org/2000/svg" viewBox="0 0 42 42">
  <g>
    <g transform="translate(-125.000000, -261.000000)">
      <g transform="translate(126.000000, 262.000000)">
        <path fill="#ffffff" d="M19.9,24.9c-0.6,0-1-0.4-1-1v-1.8c0-1.5,1-2.9,2.4-3.4c2.1-0.7,3.3-2.9,2.8-5c-0.5-2.1-2.5-3.6-4.7-3.3
          c-2.2,0.2-3.8,2.1-3.8,4.3c0,0.6-0.4,1-1,1l0,0c-0.6,0-1-0.4-1-1c0-3.2,2.4-5.9,5.6-6.3C22.4,8,25.3,10,26,13.2
          c0.7,3.1-1,6.3-4,7.4c-0.7,0.2-1.1,0.9-1.1,1.6v1.8C20.9,24.4,20.4,24.9,19.9,24.9z"/>
        <path fill="#ffffff" d="M19.9,31.5c-0.9,0-1.7-0.7-1.7-1.7c0-0.9,0.7-1.7,1.7-1.7s1.7,0.7,1.7,1.7C21.5,30.7,20.8,31.5,19.9,31.5z M19.9,29.5
          c-0.2,0-0.3,0.2-0.3,0.3c0,0.2,0.2,0.3,0.3,0.3c0.2,0,0.3-0.2,0.3-0.3C20.2,29.6,20.1,29.5,19.9,29.5z"/>
        <path fill="#ffffff" d="M19.9,40.8C8.4,40.8-1,31.4-1,19.9C-1,8.4,8.4-1,19.9-1c11.5,0,20.9,9.4,20.9,20.9C40.8,31.4,31.4,40.8,19.9,40.8z
          M19.9,1C9.5,1,1,9.5,1,19.9c0,10.4,8.5,18.9,18.9,18.9c10.4,0,18.9-8.5,18.9-18.9C38.8,9.5,30.3,1,19.9,1z"/>
      </g>
    </g>
  </g>
</svg>
