<svg xmlns="http://www.w3.org/2000/svg" width="42px" height="42px" viewBox="0 0 42 42">
  <g>
    <g transform="translate(-996.000000, -260.000000)">
      <g transform="translate(1017.500000, 281.500000) scale(-1, 1) translate(-1017.500000, -281.500000) translate(997.000000, 261.000000)">
        <g>
          <path fill="#ffffff" d="M9.4,41c2.8,0,5.5-1.3,7.2-3.5c1.8-2.2,2.4-5,1.9-7.7l12.4-12.4c3.2,0.7,6.6-0.5,8.8-2.9c2.2-2.5,2.9-6,1.9-9.2
            c-0.2-0.6-0.7-1.1-1.3-1.2l0,0c-0.6-0.1-1.3,0-1.7,0.5l-4,4h-2.1V6.6l4-4c0.4-0.4,0.6-1.1,0.5-1.7c-0.1-0.6-0.6-1.1-1.2-1.3
            c-3.2-1.1-6.7-0.4-9.2,1.8c-2.5,2.2-3.6,5.6-3,8.8L11.2,22.5c-3.3-0.7-6.6,0.5-8.8,3c-2.2,2.5-2.9,6-1.8,9.2
            c0.2,0.6,0.7,1.1,1.3,1.2c0.6,0.1,1.3-0.1,1.7-0.5l4-4h2.1v2.1l-4,4c-0.4,0.4-0.6,1.1-0.5,1.7c0.2,0.6,0.6,1.1,1.2,1.3
            C7.4,40.8,8.3,41,9.4,41z M30.8,15.5c-0.5,0-0.9,0.2-1.3,0.5L17,28.5c-0.4,0.5-0.6,1.1-0.5,1.7c0.5,2.2-0.1,4.4-1.5,6.1
            C13.6,38,11.6,39,9.4,39c-0.7,0-1.4-0.1-2.1-0.3l3.9-3.9c0.3-0.3,0.5-0.8,0.5-1.3v-2.4c0-1-0.8-1.8-1.8-1.8H7.5c0,0,0,0,0,0
            c-0.5,0-0.9,0.2-1.3,0.5l-3.9,3.9c-0.7-2.4-0.2-5.1,1.5-7c1.7-2,4.4-2.9,7-2.3c0.6,0.1,1.2,0,1.7-0.5L25,11.5
            c0.4-0.5,0.6-1.1,0.5-1.7c-0.5-2.6,0.3-5.2,2.3-7c1.9-1.7,4.6-2.3,7-1.5l-3.9,3.9c-0.3,0.3-0.5,0.8-0.5,1.3v2.4
            c0,1,0.8,1.8,1.8,1.8h2.4c0.5,0,1-0.2,1.3-0.5l3.9-3.9c0.7,2.4,0.1,5-1.6,6.9c-1.7,2-4.4,2.8-7,2.3C31,15.5,30.9,15.5,30.8,15.5
            z M7,38.6C7,38.6,7,38.6,7,38.6C7,38.6,7,38.6,7,38.6z M2.1,34L2.1,34C2.1,34,2.1,34,2.1,34z M7.5,31.3
            C7.5,31.3,7.5,31.3,7.5,31.3C7.5,31.3,7.5,31.3,7.5,31.3L7.5,31.3z M18.5,29.7C18.5,29.8,18.5,29.8,18.5,29.7
            C18.5,29.8,18.5,29.8,18.5,29.7z M11.3,22.5C11.3,22.5,11.3,22.5,11.3,22.5C11.3,22.5,11.3,22.5,11.3,22.5z M30.7,17.5
            C30.7,17.5,30.7,17.5,30.7,17.5C30.7,17.5,30.7,17.5,30.7,17.5z M23.5,10.3C23.5,10.3,23.5,10.3,23.5,10.3
            C23.5,10.3,23.5,10.3,23.5,10.3z M39.6,6C39.6,6,39.6,6,39.6,6C39.6,6,39.6,6,39.6,6z M35,1.1L35,1.1C35,1.1,35,1.1,35,1.1z"/>
        </g>
      </g>
    </g>
  </g>
</svg>
