<svg xmlns="http://www.w3.org/2000/svg" xmlns:xlink="http://www.w3.org/1999/xlink" preserveAspectRatio="xMidYMid meet" viewBox="0 0 300 200" width="300" height="200"><defs><path d="M0 0L300 0L300 200L0 200L0 0Z" id="b1mfqAdObV"></path><path d="M0 0L300 0L300 95L0 95L0 0Z" id="cbYCBKBT1"></path><path d="M7 45L27 19L42 38L47 35L38 22L50 7L78 43L7 45ZM79 45L99 19L114 38L119 35L110 22L122 7L150 43L79 45ZM150 45L170 19L185 38L190 35L181 22L193 7L221 43L150 45ZM221 45L241 19L256 38L261 35L252 22L264 7L292 43L221 45ZM7 89L27 63L42 82L47 79L38 66L50 51L78 87L7 89ZM79 89L99 63L114 82L119 79L110 66L122 51L150 87L79 89ZM150 89L170 63L185 82L190 79L181 66L193 51L221 87L150 89ZM221 89L241 63L256 82L261 79L252 66L264 51L292 87L221 89Z" id="a20WpiT9Eg"></path><path d="M53 125L247 125L247 129L53 129L53 125ZM53 149L247 149L247 153L53 153L53 149ZM53 137L247 137L247 141L53 141L53 137ZM53 161L247 161L247 165L53 165L53 161Z" id="c3ajuMDqF"></path><path d="M91 16L210 16L210 79L91 79L91 16Z" id="d307aTkUO"></path><path d="M170 60C174 60 176 62 176 66C176 66 176 66 176 66C176 70 174 72 170 72C147.2 72 134.53 72 132 72C128 72 126 70 126 66C126 66 126 66 126 66C126 62 128 60 132 60C154.8 60 167.47 60 170 60Z" id="eO3NWnlYG"></path><path d="M131 24L170 24L170 28L131 28L131 24ZM101 48L200 48L200 52L101 52L101 48ZM113 36L189 36L189 40L113 40L113 36Z" id="afwPViHAF"></path><path d="M251.24 35.76C250.9 35.42 250.44 35.23 249.95 35.23C249.46 35.23 248.99 35.42 248.65 35.76C248.54 35.87 247.66 36.75 247.55 36.86C246.83 37.58 246.83 38.74 247.55 39.46C248.39 40.29 252.56 44.47 260.09 51.99C252.56 59.52 248.37 63.71 247.54 64.54C247.19 64.89 247 65.35 247 65.84C247 66.33 247.19 66.79 247.54 67.14C247.65 67.25 248.53 68.13 248.64 68.24C248.98 68.58 249.44 68.77 249.93 68.77C250.42 68.77 250.89 68.58 251.23 68.24C252.73 66.74 264.68 54.79 266.17 53.3C266.52 52.95 266.71 52.49 266.71 51.99C266.71 51.5 266.52 51.04 266.17 50.69C263.19 47.71 252.74 37.25 251.24 35.76Z" id="fhbFzRE4t"></path><path d="M48.76 31.26C49.1 30.92 49.56 30.73 50.05 30.73C50.54 30.73 51.01 30.92 51.35 31.26C51.46 31.37 52.34 32.25 52.45 32.36C53.17 33.08 53.17 34.24 52.45 34.96C51.61 35.79 47.44 39.97 39.91 47.49C47.44 55.02 51.63 59.21 52.46 60.04C52.81 60.39 53 60.85 53 61.34C53 61.83 52.81 62.29 52.46 62.64C52.35 62.75 51.47 63.63 51.36 63.74C51.02 64.08 50.56 64.27 50.07 64.27C49.58 64.27 49.11 64.08 48.77 63.74C47.27 62.24 35.32 50.29 33.83 48.8C33.48 48.45 33.29 47.99 33.29 47.49C33.29 47 33.48 46.54 33.83 46.19C36.81 43.21 47.26 32.75 48.76 31.26Z" id="c10T6fTuI"></path></defs><g><g><g><use xlink:href="#b1mfqAdObV" opacity="1" fill="#ffffff" fill-opacity="1"></use><g><use xlink:href="#b1mfqAdObV" opacity="1" fill-opacity="0" stroke="#000000" stroke-width="1" stroke-opacity="0"></use></g></g><g><use xlink:href="#cbYCBKBT1" opacity="1" fill="#1476d0" fill-opacity="1"></use><g><use xlink:href="#cbYCBKBT1" opacity="1" fill-opacity="0" stroke="#ebe79f" stroke-width="1" stroke-opacity="1"></use></g></g><g><use xlink:href="#a20WpiT9Eg" opacity="1" fill="#2a7ed3" fill-opacity="1"></use><g><use xlink:href="#a20WpiT9Eg" opacity="1" fill-opacity="0" stroke="#000000" stroke-width="1" stroke-opacity="0"></use></g></g><g><use xlink:href="#c3ajuMDqF" opacity="1" fill="#767676" fill-opacity="1"></use><g><use xlink:href="#c3ajuMDqF" opacity="1" fill-opacity="0" stroke="#000000" stroke-width="1" stroke-opacity="0"></use></g></g><g><use xlink:href="#d307aTkUO" opacity="1" fill="#e6e6e6" fill-opacity="1"></use><g><use xlink:href="#d307aTkUO" opacity="1" fill-opacity="0" stroke="#000000" stroke-width="1" stroke-opacity="0"></use></g></g><g><use xlink:href="#eO3NWnlYG" opacity="1" fill="#4b4687" fill-opacity="1"></use><g><use xlink:href="#eO3NWnlYG" opacity="1" fill-opacity="0" stroke="#000000" stroke-width="1" stroke-opacity="0"></use></g></g><g><use xlink:href="#afwPViHAF" opacity="1" fill="#767676" fill-opacity="1"></use><g><use xlink:href="#afwPViHAF" opacity="1" fill-opacity="0" stroke="#000000" stroke-width="1" stroke-opacity="0"></use></g></g><g><use xlink:href="#fhbFzRE4t" opacity="1" fill="#ffffff" fill-opacity="1"></use><g><use xlink:href="#fhbFzRE4t" opacity="1" fill-opacity="0" stroke="#000000" stroke-width="1" stroke-opacity="0"></use></g></g><g><use xlink:href="#c10T6fTuI" opacity="1" fill="#ffffff" fill-opacity="1"></use><g><use xlink:href="#c10T6fTuI" opacity="1" fill-opacity="0" stroke="#000000" stroke-width="1" stroke-opacity="0"></use></g></g></g></g></svg>
