<svg width="19" height="16" viewBox="0 0 19 16" fill="none" xmlns="http://www.w3.org/2000/svg">
<path d="M0.25 2C0.25 0.896875 1.14688 0 2.25 0H7.25V4C7.25 4.55312 7.69688 5 8.25 5H12.25V8.92813L9.5375 11.6406C9.21563 11.9625 8.99063 12.3625 8.88125 12.8031L8.29688 15.1438C8.225 15.4313 8.24062 15.7312 8.3375 16.0031L2.25 16C1.14688 16 0.25 15.1031 0.25 14V2ZM12.25 4H8.25V0L12.25 4ZM17.4312 7.36562L17.8813 7.81563C18.3687 8.30313 18.3687 9.09375 17.8813 9.58438L16.9625 10.5031L14.7437 8.28438L15.6625 7.36562C16.15 6.87812 16.9406 6.87812 17.4312 7.36562ZM9.99687 13.0312L14.0344 8.99375L16.2531 11.2125L12.2156 15.2469C12.0875 15.375 11.9281 15.4656 11.75 15.5094L9.87187 15.9781C9.7 16.0219 9.52188 15.9719 9.39688 15.8469C9.27188 15.7219 9.22188 15.5437 9.26562 15.3719L9.73438 13.4937C9.77812 13.3187 9.86875 13.1562 9.99687 13.0281V13.0312Z"/>
</svg>
