<?xml version="1.0" encoding="UTF-8"?>
<svg width="300px" height="200px" viewBox="0 0 300 200" version="1.1" xmlns="http://www.w3.org/2000/svg" xmlns:xlink="http://www.w3.org/1999/xlink">
    <!-- Generator: Sketch 59.1 (86144) - https://sketch.com -->
    <title>Group 24</title>
    <desc>Created with Sketch.</desc>
    <defs>
        <rect id="path-1" x="0" y="107" width="300" height="78"></rect>
        <mask id="mask-2" maskContentUnits="userSpaceOnUse" maskUnits="objectBoundingBox" x="0" y="0" width="300" height="78" fill="white">
            <use xlink:href="#path-1"></use>
        </mask>
    </defs>
    <g id="Page-1" stroke="none" stroke-width="1" fill="none" fill-rule="evenodd">
        <g id="Scholar's-Edge-Paragraph-Thumbnails" transform="translate(-1000.000000, -92.000000)">
            <g id="Group-24" transform="translate(1000.000000, 92.000000)">
                <rect id="Rectangle-Copy-15" fill="#FFFFFF" x="0" y="0" width="300" height="200"></rect>
                <use id="Rectangle-Copy-28" stroke="#AAAEB2" mask="url(#mask-2)" stroke-width="4" stroke-dasharray="5,5" xlink:href="#path-1"></use>
                <polygon id="Path-6" fill="#1476D0" points="35 166 55 140 70 159 75 156 66 143 78 128 106 164"></polygon>
                <g id="Group-7" transform="translate(53.000000, 31.000000)" fill="#767676">
                    <rect id="Rectangle" x="0" y="0" width="194" height="4"></rect>
                    <rect id="Rectangle-Copy-3" x="0" y="24" width="194" height="4"></rect>
                    <rect id="Rectangle-Copy-2" x="0" y="12" width="194" height="4"></rect>
                    <rect id="Rectangle-Copy-4" x="0" y="36" width="194" height="4"></rect>
                </g>
                <g id="Group-8" transform="translate(150.000000, 123.000000)" fill="#767676">
                    <g id="Group-7-Copy" transform="translate(0.000000, 20.000000)">
                        <rect id="Rectangle" x="0" y="0" width="128" height="4"></rect>
                        <rect id="Rectangle-Copy-3" x="0" y="24" width="128" height="4"></rect>
                        <rect id="Rectangle-Copy-2" x="0" y="12" width="128" height="4"></rect>
                    </g>
                    <rect id="Rectangle-Copy-29" x="0" y="0" width="128" height="12"></rect>
                </g>
            </g>
        </g>
    </g>
</svg>