<?xml version="1.0" encoding="UTF-8"?>
<svg width="301px" height="200px" viewBox="0 0 301 200" version="1.1" xmlns="http://www.w3.org/2000/svg" xmlns:xlink="http://www.w3.org/1999/xlink">
    <!-- Generator: Sketch 59.1 (86144) - https://sketch.com -->
    <title>Group 19</title>
    <desc>Created with Sketch.</desc>
    <defs>
        <rect id="path-1" x="1" y="100" width="300" height="85"></rect>
        <mask id="mask-2" maskContentUnits="userSpaceOnUse" maskUnits="objectBoundingBox" x="0" y="0" width="300" height="85" fill="white">
            <use xlink:href="#path-1"></use>
        </mask>
    </defs>
    <g id="Page-1" stroke="none" stroke-width="1" fill="none" fill-rule="evenodd">
        <g id="Scholar's-Edge-Paragraph-Thumbnails" transform="translate(-620.000000, -814.000000)">
            <g id="Group-19" transform="translate(620.000000, 814.000000)">
                <rect id="Rectangle" fill="#FFFFFF" x="0" y="0" width="300" height="200"></rect>
                <g id="Group-3" transform="translate(53.000000, 122.000000)" fill="#767676">
                    <g id="Group-16">
                        <rect id="Rectangle" x="0" y="0" width="194" height="4"></rect>
                        <rect id="Rectangle-Copy-3" x="0" y="24" width="194" height="4"></rect>
                        <rect id="Rectangle-Copy-2" x="0" y="12" width="194" height="4"></rect>
                        <rect id="Rectangle-Copy-4" x="0" y="36" width="194" height="4"></rect>
                    </g>
                </g>
                <g id="Group-17" transform="translate(29.000000, 24.000000)">
                    <polygon id="Path-6" fill="#1476D0" points="0 43 20 17 35 36 40 33 31 20 43 5 71 41"></polygon>
                    <g id="Group-8" transform="translate(115.000000, 0.000000)" fill="#767676">
                        <g id="Group-7-Copy" transform="translate(0.000000, 20.000000)">
                            <rect id="Rectangle" x="0" y="0" width="128" height="4"></rect>
                            <rect id="Rectangle-Copy-3" x="0" y="24" width="128" height="4"></rect>
                            <rect id="Rectangle-Copy-2" x="0" y="12" width="128" height="4"></rect>
                        </g>
                        <rect id="Rectangle-Copy-29" x="0" y="0" width="128" height="12"></rect>
                    </g>
                </g>
                <use id="Rectangle-Copy-30" stroke="#AAAEB2" mask="url(#mask-2)" stroke-width="4" stroke-dasharray="5,5" xlink:href="#path-1"></use>
            </g>
        </g>
    </g>
</svg>