<?xml version="1.0" encoding="utf-8"?>
<!-- Generator: Adobe Illustrator 21.0.0, SVG Export Plug-In . SVG Version: 6.00 Build 0)  -->
<svg version="1.1" id="Layer_1" xmlns="http://www.w3.org/2000/svg" xmlns:xlink="http://www.w3.org/1999/xlink" x="0px" y="0px"
	 viewBox="0 0 48 48" style="enable-background:new 0 0 48 48;" xml:space="preserve">
<style type="text/css">
	.st0{fill:#BEBEBE;}
	.st1{fill:none;}
</style>
<path class="st0" d="M47.5,40.7c0-0.1-2.1-1.7-2.1-1.7c0-0.3,0.1-0.6,0.1-1c0-0.3,0-0.7-0.1-1l2.1-1.7c0.2-0.2,0.2-0.4,0.1-0.6
	l-2-3.5C45.5,31,45.2,31,45,31l-2.5,1c-0.5-0.4-1.1-0.7-1.7-1l-0.4-2.6c0-0.2-0.2-0.4-0.5-0.4h-4c-0.2,0-0.5,0.2-0.5,0.4L35,31
	c-0.6,0.2-1.2,0.6-1.7,1l-2.5-1c-0.2-0.1-0.5,0-0.6,0.2l-2,3.5c-0.1,0.2-0.1,0.5,0.1,0.6l2.1,1.7c0,0.3-0.1,0.7-0.1,1s0,0.7,0.1,1
	l-2.1,1.7c-0.2,0.2-0.2,0.4-0.1,0.6l2,3.5c0.1,0.2,0.4,0.3,0.6,0.2l2.5-1c0.5,0.4,1.1,0.7,1.7,1l0.4,2.7c0,0.2,0.2,0.4,0.5,0.4h4
	c0.2,0,0.5-0.2,0.5-0.4l0.4-2.7c0.6-0.2,1.2-0.6,1.7-1l2.5,1c0.2,0.1,0.5,0,0.6-0.2l2-3.5C47.7,41.1,47.7,40.8,47.5,40.7z M38,41
	c-1.7,0-3-1.3-3-3s1.3-3,3-3s3,1.3,3,3S39.6,41,38,41z"/>
<path class="st1" d="M38,35c-1.7,0-3,1.3-3,3s1.3,3,3,3c1.6,0,3-1.3,3-3S39.7,35,38,35z"/>
<circle class="st1" cx="38.1" cy="38.1" r="3"/>
<path class="st0" d="M1,1v39h22.1C23,39.3,23,38.7,23,38c0-8.3,6.7-15,15-15c0.7,0,1.4,0.1,2,0.1V1H1z M22.6,25.6H5.4v-3.4h17.2
	V25.6z M31.7,17.6H5.4v-3.4h26.3V17.6z M31.7,9.6H5.4V6.2h26.3V9.6z"/>
</svg>
